<svg width="331" height="451" viewBox="0 0 331 451" fill="none" xmlns="http://www.w3.org/2000/svg">
<path d="M92.1454 150.955C80.4946 145.719 71.1381 138.384 67.9597 125.591C65.8044 116.908 65.9931 108.524 71.9129 101.025C74.0484 98.3204 73.7702 95.7599 71.3268 93.3727C72.1413 92.6219 73.075 92.6026 74.0583 92.978C75.419 93.8058 75.2104 96.1354 77.8922 95.9525C80.4051 95.7888 80.1966 98.099 79.9781 99.8991C79.69 100.977 79.3325 102.036 78.9352 103.076C78.1704 104.933 77.0877 106.695 76.7004 109.092C79.849 109.39 83.1465 106.291 85.7687 109.631C87.1394 111.903 88.5101 114.174 88.5001 116.927C84.9939 120.479 83.7127 124.657 84.5569 129.528C85.3515 134.158 89.0167 138.028 93.3373 138.73C95.4827 139.077 96.8335 138.355 96.168 136.276C94.6285 131.52 95.3635 126.476 93.8736 121.74C92.8109 113.019 89.6027 104.317 93.6452 95.5578C94.5391 94.2679 94.7576 92.7951 94.8669 91.2839C96.7839 84.8345 95.0258 78.5679 93.814 72.2822C92.4036 65.0049 92.9897 64.129 100.787 64.2637C121.794 64.6199 141.43 60.1534 159.369 49.2665C164.573 46.1091 169.261 42.3069 174.019 38.5816C174.794 37.9752 175.459 37.2436 176.294 36.7238C177.793 35.7901 179.492 34.221 181.141 35.742C182.551 37.0415 181.18 38.7645 180.435 40.1122C175.757 48.5156 169.788 55.9276 162.16 62.0305C161.554 62.5118 160.858 62.9065 160.084 63.8209C168.834 62.7428 176.174 59.6914 182.601 54.5896C187.05 51.7211 190.477 47.8611 193.924 43.9722C197.231 40.2373 200.459 36.3484 204.989 33.836C208.644 33.0756 211.425 34.5291 213.739 37.1185C214.385 37.8404 214.921 38.6682 215.616 39.3517C224.238 47.8033 226.393 57.7854 224.138 69.3174C222.301 78.6738 224.814 87.4912 230.634 95.1824C232.859 98.1279 233.813 101.064 233.097 104.577C233.048 109.217 230.902 113.626 231.419 118.333C230.793 124.022 229.671 129.663 229.065 135.361C228.678 138.961 229.859 139.741 233.276 138.365C241.421 135.082 243.298 123.117 236.514 117.621C235.154 116.514 233.326 115.82 233.117 113.77C232.958 111.932 233.842 110.363 234.508 108.745C236.912 102.912 237.577 102.633 243.566 104.866C244.917 105.367 246.298 105.713 247.937 105.704C244.818 103.249 242.355 100.419 240.458 97.1268C240.179 95.8755 240.606 94.8743 241.63 94.0946C243.556 93.1802 246.189 94.5182 247.728 92.3235C248.175 92.1406 248.582 92.2272 248.94 92.5352C249.138 94.5374 248.791 96.4626 250.459 98.3397C260.173 109.284 260.799 123.521 252.575 135.765C246.775 144.41 238.898 149.791 228.28 151.196C220.692 152.669 216.719 159.349 210.511 162.843C207.084 164.769 203.886 167.05 200.141 168.426C198.215 169.177 196.387 170.121 194.549 171.054C192.702 172.027 190.616 172.325 188.669 173.066C188.222 173.278 187.776 173.442 187.319 173.615C186.107 174.067 184.865 174.385 183.574 174.51C175.648 176.859 167.583 177.956 159.279 177.542C154.492 177.302 149.774 176.83 145.135 175.723C144.649 175.579 144.172 175.386 143.705 175.194C142.185 174.385 140.457 174.452 138.808 174.164C136.981 173.711 135.332 172.854 133.683 172.007C132.382 171.093 130.922 170.515 129.333 170.255C127.058 169.543 124.714 169.004 122.539 167.993C115.924 163.633 108.921 159.763 103.548 153.824C102.108 152.226 100.012 152.447 98.0552 152.332C96.0191 152.236 93.7247 152.938 92.1454 150.955Z" fill="#FEC09F"/>
<path d="M223.234 285.873C227.187 298.859 231.081 311.864 235.163 324.801C235.948 327.275 235.362 328.584 233.137 329.835C226.234 333.686 218.874 336.342 211.206 338.297C209.478 338.739 207.799 339.375 206.091 339.923C204.501 341.56 202.386 341.82 200.25 342.118C190.993 343.446 181.647 344.024 172.34 344.967C167.543 345.083 162.735 345.247 157.948 344.813C148.413 343.523 138.718 343.591 129.292 341.425C127.395 340.992 125.379 340.905 123.929 339.375C113.867 336.41 103.637 333.955 94.34 328.834C91.0424 327.015 89.9499 325.475 91.4298 321.759C96.1477 309.861 100.449 297.81 104.908 285.825C111.335 287.192 120.184 281.263 121.476 275.102C121.903 273.061 118.109 272.368 120.314 270.212C122.409 267.806 122.34 264.918 122.389 262.02C122.628 249.093 123.959 236.223 124.783 223.314C126.144 217.866 125.141 212.331 125.478 206.844C125.687 203.417 126.521 200.539 130.902 200.51C133.494 201.454 132.699 203.956 133.444 205.756C133.752 206.488 134.03 207.374 135.014 207.316C136.027 207.258 136.116 206.305 136.295 205.554C136.742 203.62 136.285 201.3 138.788 200.25C154.928 199.394 171.079 199.914 187.199 199.952C187.735 200.01 188.272 200.154 188.768 200.376C190.457 201.3 190.407 203.003 190.745 204.544C190.944 205.458 191.023 206.642 192.255 206.729C193.546 206.825 193.645 205.631 193.943 204.746C194.42 203.321 193.933 201.396 196.118 200.857C200.737 202.127 200.727 205.91 200.608 209.337C200.25 219.522 203.23 229.456 202.853 239.621C202.833 240.237 203.19 240.843 203.329 241.459C205.286 250.922 205.078 260.596 206.19 270.125C207.65 280.637 212.527 285.152 223.234 285.873Z" fill="#43A2C8"/>
<path d="M241.103 97.214C244.103 100.275 247.092 103.346 250.469 106.792C247.966 106.705 245.92 107.032 243.993 106.003C240.706 103.336 237.646 102.287 234.379 106.291C233.316 107.6 231.28 107.822 232.015 104.886C232.491 101.122 231.518 98.1766 228.916 94.9326C223.016 87.5591 221.864 78.6359 222.619 69.4816C222.648 69.1639 222.688 68.8366 222.777 68.5382C226.8 55.8415 220.602 46.3888 212.378 37.5329C210.233 35.2323 207.908 33.7788 204.591 34.8376C199.704 36.8591 196.804 41.0464 193.387 44.6176C190.06 48.1022 186.415 51.3173 183.534 55.1966C175.985 61.7423 167.146 64.8515 157.024 64.7841C167.761 57.2662 175.389 47.5921 181.14 36.0313C178.697 35.5596 177.455 37.273 176.144 38.4281C154.263 57.709 128.518 66.5745 99.0384 65.1884C94.8667 64.9959 93.6053 65.7467 94.6979 70.1265C96.4361 77.0861 98.055 84.1997 96.138 91.4577C92.4133 97.0119 86.6028 100.545 81.9942 105.252C80.7427 106.532 79.223 108.91 77.2762 107.552C75.7466 106.484 77.9417 104.501 78.0907 102.845C78.1999 101.873 77.8921 100.814 78.786 100.025C80.256 98.0226 80.6831 96.1744 77.3756 95.9241C75.4983 95.7797 75.1308 94.2492 73.9786 93.4791C73.0946 93.2 72.2206 92.8727 71.2969 93.3636C68.8734 93.0845 66.5094 92.6224 63.917 91.1207C65.4267 90.3795 66.42 89.8501 67.4431 89.4073C71.8134 87.5399 74.1574 84.7195 73.3926 79.6947C72.9159 76.5663 73.3231 73.3031 73.4224 70.1073C73.5515 65.9296 74.4951 61.3572 67.0557 60.8759C74.1872 58.9507 75.3692 53.5987 77.8623 48.7376C83.2655 38.226 88.2715 27.2428 98.7801 20.1677C102.882 18.1462 106.746 15.7108 110.749 13.5161C114.622 11.3888 118.556 9.55983 122.817 8.20257C136.951 3.70724 151.303 0.857947 166.271 1.46438C169.4 1.58952 172.489 2.04195 175.618 2.07083C178.19 2.0997 180.366 3.26445 181.707 5.5458C182.69 8.32771 180.405 9.61759 178.846 11.1385C166.957 22.7185 155.028 34.2601 143.129 45.8401C156.359 32.8836 169.857 20.1869 182.948 7.09559C184.09 5.9501 185.183 4.70835 186.951 4.41957C191.877 3.97677 195.453 7.66352 199.982 8.4336C207.531 9.72348 211.067 16.3077 216.351 20.4565C223.493 26.0684 229.472 33.0376 236.127 39.2463C243.993 46.591 245.89 56.371 247.778 66.0258C248.652 70.5019 247.907 75.2764 247.936 79.9065C247.946 82.8905 247.48 85.2778 243.447 83.6799C241.798 83.0253 241.023 84.0553 240.239 85.1141C236.047 90.8224 236.117 91.862 241.103 97.214Z" fill="#B70002"/>
<path d="M125.994 223.015C125.289 237.416 124.554 251.816 123.928 266.217C123.809 268.931 122.558 270.731 120.273 272.031C116.996 273.186 114.046 273.061 111.821 270.029C113.47 253.867 115.138 237.714 116.757 221.552C116.876 220.33 117.443 218.741 116.261 217.962C114.83 217.009 113.44 218.135 112.248 218.972C109.387 220.984 105.424 221.552 103.726 225.075C101.809 225.066 101.511 223.381 100.816 222.255C96.1671 214.795 91.1909 207.527 86.2743 200.231C85.1221 198.517 83.8607 196.775 84.2779 194.522C84.4467 193.733 84.7248 192.924 85.3407 192.414C94.1309 185.118 102.454 177.244 112.486 171.459C115.049 170.939 117.701 170.881 120.234 170.188C123.283 169.976 126.392 168.292 129.352 170.525C132.778 177.186 132.371 184.665 130.603 191.057C127.673 201.636 125.806 212.119 125.994 223.015Z" fill="#FDC003"/>
<path d="M205.326 271.56C203.24 261.52 203.826 251.23 202.178 241.151C202.406 230.159 199.426 219.377 199.804 208.365C199.893 205.699 200.082 202.869 197.112 201.155C195.98 200.501 196.119 199.317 196.208 198.143C196.794 190.355 195.791 182.597 195.543 174.819C195.066 171.421 196.407 169.476 200.122 169.428C200.648 169.457 201.174 169.553 201.691 169.698C204.929 171.199 208.475 170.988 211.921 171.344C216.292 172.691 219.311 175.984 222.738 178.631C228.618 183.164 234.627 187.583 239.792 192.944C241.093 195.072 240.289 197.093 239.017 198.768C233.336 206.238 229.055 214.555 223.721 222.227C222.996 223.266 222.4 224.479 220.94 224.778C218.288 220.956 213.858 219.974 209.101 217.452C211.167 235.405 213.133 252.472 215.09 269.538C212.378 272.715 208.942 272.542 205.326 271.56Z" fill="#FDC003"/>
<path d="M172.618 343.61C183.782 342.388 194.936 341.156 206.1 339.933C206.2 355.392 206.339 370.851 206.349 386.32C206.349 389.246 206.657 392.018 207.998 394.656C205.822 396.668 203.131 396.042 200.508 396.196C193.983 396.571 187.437 396.639 180.922 397.12C178.667 397.284 176.204 397.563 175.141 394.771C175.002 380.198 173.075 365.798 171.525 351.359C171.237 348.693 170.443 345.949 172.618 343.61Z" fill="#FEBF9F"/>
<path d="M123.939 339.384C135.063 340.761 146.188 342.137 157.302 343.523C159.765 348.096 157.997 352.832 157.65 357.423C156.706 369.811 155.266 382.161 154.243 394.54C153.845 396.465 152.306 397.226 150.598 397.13C142.095 396.658 133.573 396.494 125.071 396.032C123.939 395.974 122.797 395.57 122.062 394.569C123.82 393.212 123.79 391.344 123.78 389.39C123.73 375.828 123.671 362.265 123.81 348.712C123.849 345.612 121.873 342.455 123.939 339.384Z" fill="#FEBF9F"/>
<path d="M245.005 192.636C248.919 197.834 250.24 198.104 254.839 193.955C261.434 188.006 268.873 182.808 273.204 174.761C274.147 172.999 275.756 171.42 277.842 170.612C283.325 170.814 288.649 171.815 293.446 174.433C300.717 178.399 308.494 176.436 316.092 176.609C317.85 176.647 319.678 175.762 321.297 177.08C320.006 179.574 322.946 179.699 323.939 181.422C317.344 184.281 310.153 184.011 303.458 185.744C298.055 187.14 292.592 188.333 287.179 189.681C284.576 190.326 283.275 192.482 281.805 194.388C274.326 204.091 266.986 213.852 258.315 222.669C251.819 229.273 244.648 229.532 237.288 226.173C234.109 224.719 232.61 224.768 230.911 228.117C228.736 232.401 225.756 232.199 222.25 228.117C227.216 228.887 229.719 226.057 231.954 222.323C235.758 215.96 240.119 209.924 244.092 203.648C246.038 200.568 247.071 197.988 243.754 195.293C243.257 194.889 243.337 194.109 243.446 193.464C243.724 192.771 244.101 192.212 245.005 192.636Z" fill="#FDC09F"/>
<path d="M93.1576 226.153C91.6279 225.566 90.1878 224.93 88.4297 225.671C74.0971 231.688 70.4718 227.192 61.4233 217.643C54.2818 210.106 48.4315 201.568 42.1741 193.367C40.2273 190.816 38.1117 189.401 35.0822 188.785C25.5868 186.87 16.1012 184.916 6.61566 182.952C4.85761 182.586 3.11945 182.134 1.37133 181.72C1.01376 179.525 4.2617 179.333 3.67568 177.244C9.12862 175.511 14.6709 176.965 20.1537 176.994C23.3817 177.013 26.1728 176.666 29.1128 175.28C34.8737 172.566 40.7537 169.813 47.5276 171.334C51.9377 173.663 53.3282 178.505 56.6755 181.691C61.463 186.244 66.5484 190.489 71.3259 195.061C74.266 197.872 75.9843 197.352 77.1762 193.743C78.0701 193.088 78.4277 193.743 78.7952 194.368C77.057 199.143 79.1627 202.906 82.0233 206.593C85.7877 211.435 88.7277 216.796 92.1643 221.86C93.0185 223.111 94.3594 224.391 93.1576 226.153Z" fill="#FDC0A0"/>
<path d="M251.015 435.971C252.128 438.416 253.151 440.88 256.528 441.198C257.362 441.275 258.604 441.785 258.445 443.008C258.306 444.095 257.283 444.48 256.289 444.673C251.472 445.626 246.685 447.127 241.818 447.397C228.687 448.109 215.606 449.755 202.406 449.505C187.457 449.226 172.529 450.92 157.56 450.4C138.629 449.755 119.678 449.534 100.796 448.263C92.9295 447.734 84.6856 448.196 77.1866 444.702C76.1635 444.22 74.763 444.24 74.6339 442.882C74.4948 441.429 75.7165 441.381 76.8885 441.005C79.9875 440.004 76.6899 436.414 79.2128 435.018C80.3848 436.038 80.5437 437.415 80.653 438.811C82.0833 443.229 86.2251 442.815 89.5624 443.046C96.9621 443.556 104.441 443.653 111.831 443.114C123.343 442.266 134.835 441.015 146.198 438.917C148.303 438.532 151.124 438.753 151.223 435.461C151.492 431.514 150.27 427.433 152.346 423.66C155.921 423.544 154.869 426.355 155.038 428.049C155.693 434.518 155.604 434.47 162.278 434.566C167.225 434.643 172.181 434.239 177.127 434.643C177.654 434.883 178.081 435.249 178.399 435.721C179.134 437.887 181.021 438.426 183.017 438.763C202.078 441.939 221.228 444.192 240.606 443.065C243.953 442.873 248.075 443.181 249.585 438.84C249.704 437.733 250.032 436.693 251.015 435.971Z" fill="#E2E3E3"/>
<path d="M152.644 423.495C152.545 427.577 152.446 431.658 152.346 435.739C148.145 438.492 143.198 438.146 138.52 438.762C122.34 440.87 106.091 442.208 89.7417 442.208C85.9574 442.208 82.054 442.227 79.4218 438.781C79.3424 437.53 79.2629 436.278 79.1934 435.037C85.7091 428.087 95.3436 426.277 103.131 421.416C104.7 421.33 105.932 422.119 107.133 422.927C112.785 426.72 118.973 426.71 125.35 425.353C126.77 424.727 128.24 424.275 129.819 424.198C135.968 424.429 141.192 421.58 146.675 419.51C148.999 418.634 151.691 417.017 153.32 420.627C153.608 421.686 153.488 422.668 152.644 423.495Z" fill="#F83C76"/>
<path d="M314.564 23.1132C325.46 26.9924 330.694 33.8074 330.694 44.1359C330.694 53.858 325.082 60.1918 315.179 61.4432C312.726 61.7512 310.958 62.2903 308.922 64.2251C305.376 67.5941 300.896 65.0914 296.914 63.8015C293.298 62.6368 294.311 59.7298 294.748 57.3233C296.049 50.258 300.152 46.8697 308.038 46.1189C310.054 45.9263 312.349 45.8686 313.153 43.8761C313.898 42.0183 311.872 41.229 310.551 40.3338C309.101 39.8428 307.7 39.8428 306.25 40.4493C302.357 42.0856 299.695 41.1327 297.569 37.4364C296.516 35.6075 296.198 33.7401 297.847 32.1422C299.605 30.4192 301.433 31.1122 303.171 32.3539C304.224 33.1048 304.999 34.1829 306.32 34.8759C304.204 32.3154 300.44 29.6876 303.886 26.5399C307.69 23.065 309.746 27.8202 312.527 29.5143C311.117 27.233 308.356 26.0683 307.154 23.1035C309.856 22.5837 312.19 22.4008 314.564 23.1132Z" fill="#959595"/>
<path d="M251.015 435.971C250.925 436.914 250.836 437.848 250.747 438.791C249.853 440.033 248.651 440.899 247.082 440.986C240.357 441.332 233.702 442.921 226.889 441.765C220.552 440.687 214.026 440.658 207.679 440.62C199.833 440.572 192.423 438.204 184.686 438.021C182.262 437.963 179.779 437.347 177.733 435.797C177.624 435.528 177.494 435.258 177.345 435.008C174.892 430.378 176.104 425.527 176.442 420.733C177.554 417.836 179.709 418.173 182.034 419.068C186.265 420.704 190.446 422.456 194.807 423.775C196.704 424.352 198.621 424.554 200.578 424.506C205.961 427.519 211.523 429.387 217.791 427.105C218.704 426.768 219.856 426.74 220.542 426.123C225.558 421.657 230.365 423.448 235.172 426.441C236.732 427.413 238.559 427.625 240.238 428.232C244.727 429.647 248.571 431.889 251.015 435.971Z" fill="#F73E76"/>
<path d="M78.6258 194.599C78.1392 194.31 77.6525 194.031 77.1757 193.742C75.1098 192.135 73.8186 189.959 72.5174 187.794C71.6135 186.302 71.1964 184.877 73.024 183.703C74.1265 181.518 77.0665 180.439 76.9374 177.532C76.5798 176.685 75.3482 176.108 76.0534 174.924C76.0236 174.654 76.1229 174.443 76.3613 174.298C76.7387 173.499 77.2651 172.806 77.1658 172.864C77.3346 172.72 76.6195 172.797 75.8746 172.777C69.8555 170.785 68.892 168.86 72.1896 165.375C78.2683 162.699 84.9032 161.39 90.8031 158.271C92.4122 157.877 93.6835 158.56 94.8953 159.446C95.68 160.023 96.4945 161.024 97.3586 160.957C106.169 160.293 107.519 168.359 112.088 172.633C102.514 179.178 93.7928 186.735 84.943 194.137C82.8472 194.638 80.811 195.61 78.6258 194.599Z" fill="#B70204"/>
<path d="M200.3 425.373C195.394 426.624 191.59 423.303 187.199 422.437C183.932 421.792 181.518 418.356 177.674 419.751C176.452 414.111 174.565 408.509 176.81 402.695C178.786 401.655 180.952 401.982 183.057 401.924C189.245 401.761 195.443 402.29 201.611 401.116C203.787 400.702 206.21 400.586 208.147 402.242C210.253 405.447 207.601 409.914 211.137 412.734C207.442 416.883 203.409 420.753 200.3 425.373Z" fill="#FDF7B2"/>
<path d="M152.485 420.637C151.502 418.355 150.091 419.424 148.532 420.02C142.453 422.34 136.742 425.95 129.779 425.382C126.492 420.954 122.837 416.834 119.082 412.772C121.396 411.232 121.039 408.874 120.84 406.727C120.612 404.35 121.744 403.223 123.86 402.636C124.604 401.337 125.965 400.952 127.227 401.173C134.994 402.54 142.85 401.52 150.638 402.126C151.293 402.174 151.899 402.444 152.465 402.761C155.644 408.71 153.816 414.668 152.485 420.637Z" fill="#FBF6B1"/>
<path d="M239.047 84.7769C240.05 82.3512 241.48 80.8495 244.271 82.6688C246.923 84.4015 246.963 82.563 246.973 80.8207C246.993 75.2087 248.184 69.2695 246.675 64.0618C244.261 55.7354 242.861 46.7543 235.501 40.3049C228.399 34.0769 221.873 27.2136 215.079 20.6583C213.47 19.1085 212.11 17.1352 209.358 17.3277C208.802 17.3662 207.719 16.8753 207.719 16.625C207.729 8.26965 199.783 11.1671 195.691 8.71245C192.86 7.01828 190.417 4.09198 186.444 4.91019C184.736 5.42037 183.633 7.42257 181.468 6.83539C178.498 1.47371 172.737 2.85986 168.188 2.19567C156.766 0.520751 145.264 2.63847 134.497 5.56476C123.71 8.49106 112.795 12.3126 103.349 18.7716C101.948 19.7246 100.607 20.562 98.8096 20.2059C106.815 12.5243 116.877 8.48143 127.405 5.56476C144.608 0.799904 162.239 -0.875016 179.958 1.71437C211.712 6.35409 234.408 22.4969 245.622 52.3181C246.854 55.591 247.3 59.143 248.115 62.5698C248.86 67.9315 248.214 73.3124 248.463 78.6837C248.542 80.3971 248.006 82.1683 248.929 83.8143C250.946 86.1246 252.743 88.6658 255.942 89.6284C254.849 92.1889 252.525 91.7461 251.254 90.5525C247.777 87.2508 243.308 86.2882 239.047 84.7769Z" fill="#AC0E0F"/>
<path d="M47.5286 171.343C43.7245 173.364 39.1059 171.622 35.2819 174.115C25.3792 180.564 14.4236 178.244 3.66672 177.243C2.40529 177.137 0.816098 177.465 0.726706 175.578C0.657178 174.259 1.77954 173.682 2.86219 173.249C4.99768 172.382 7.24244 172.045 10.2719 172.122C9.23888 171.448 8.70247 171.15 8.23564 170.775C6.76563 169.61 3.26942 169.735 3.72631 167.887C4.37192 165.317 7.61988 166.52 9.77523 166.328C15.3374 165.817 20.2738 168.368 25.4983 169.523C30.1865 170.9 29.2131 168.089 28.6072 165.567C27.7232 163.18 26.73 160.831 26.0148 158.396C25.6374 157.106 26.2334 155.845 27.5246 155.181C28.5775 154.642 29.4515 155.306 30.0971 156.038C35.2322 161.861 41.7976 166.154 47.5286 171.343Z" fill="#DD956F"/>
<path d="M321.288 177.08C314.474 179.333 307.303 177.301 300.34 178.716C297.748 179.246 295.294 176.368 292.523 175.396C288.351 173.932 284.438 171.921 279.819 172.267C278.657 172.354 277.992 171.728 277.843 170.612C283.623 165.885 290.02 161.823 294.728 155.942C295.413 155.085 296.307 154.748 297.33 155.114C298.622 155.586 298.8 156.721 298.8 157.886C298.82 161.072 297.112 163.681 295.771 166.415C295.145 167.695 293.953 169.177 295.046 170.4C296.287 171.796 297.767 170.227 299.039 169.793C304.661 167.897 310.253 166.01 316.361 166.328C318.199 166.424 319.996 166.424 321.556 167.522C319.818 170.814 319.718 170.881 315.417 171.988C317.106 171.651 318.874 170.64 320.265 172.556C321.347 173.673 323.81 173.105 324.059 174.991C324.257 176.599 322.281 176.435 321.288 177.08Z" fill="#DE956F"/>
<path d="M78.6266 194.6C80.7224 194.446 82.6592 192.059 84.9239 194.147C85.7383 198.71 88.7677 202.137 91.3899 205.727C95.9291 211.936 99.7928 218.52 103.726 225.075C103.21 228.406 100.27 229.648 97.707 230.283C95.0451 230.937 94.757 227.52 93.1579 226.153C88.9068 218.539 83.9306 211.349 78.9346 204.187C76.6799 200.963 75.18 197.902 78.6266 194.6Z" fill="#FA8C06"/>
<path d="M243.615 193.598C248.631 199.114 248.671 199.143 242.761 208.182C238.569 214.602 234.06 220.82 230.047 227.347C227.534 231.438 224.932 228.993 222.211 228.117C221.485 227.116 219.419 226.605 220.899 224.777C226.352 216.383 230.941 207.479 237.119 199.518C238.41 197.863 240.218 196.092 239.046 193.57C240.596 191.856 242.115 191.539 243.615 193.598Z" fill="#FA8C07"/>
<path d="M112.07 172.643C108.415 171.372 106.12 168.898 105.196 165.24C104.978 164.364 105.067 162.824 103.875 163.123C98.2437 164.518 94.9262 160.399 90.7744 158.271C92.9397 156.125 90.3374 153.16 92.1451 150.956C93.9528 150.984 95.7704 151.138 97.5682 151.004C101.243 150.744 103.985 151.716 106.388 154.787C110.739 160.341 117.781 162.718 123.164 167.117C123.939 169.533 121.694 170.053 120.433 171.189C117.801 172.517 114.821 171.949 112.07 172.643Z" fill="#4BCAC8"/>
<path d="M243.615 193.598C242.106 192.741 240.576 193.454 239.066 193.559C230.475 186.205 221.853 178.899 212.477 172.469C211.96 172.229 211.702 171.834 211.712 171.276C213.351 166.549 215.506 162.661 221.794 162.901C224.763 163.017 226.303 159.205 229.541 159.157C235.908 162.064 242.453 164.663 249.307 166.135C254.521 167.262 256.14 169.418 253.806 174.115C253.449 174.481 253.041 174.568 252.565 174.366C249.486 170.149 245.473 167.396 240.06 166.79C239.573 166.732 239.027 166.665 238.649 166.395C233.156 162.497 228.131 162.786 223.452 167.762C222.161 169.139 220.493 168.619 218.794 167.945C222.916 173.297 226.353 179.082 233.196 181.585C235.242 182.336 236.543 184.097 237.924 185.686C238.272 186.022 238.441 186.456 238.619 186.898C239.195 188.333 239.563 190.094 241.708 189.902C242.97 189.796 242.483 188.641 240.556 187.611C240.139 187.389 239.632 187.332 239.225 187.072C238.669 186.725 238.361 186.157 237.934 185.695C236.822 182.393 240.278 181.826 241.579 179.958C241.986 179.718 242.433 179.631 242.9 179.65C245.304 180.69 246.853 182.576 248.125 184.713C249.992 188.429 246.238 190.065 244.996 192.635C244.539 192.953 244.082 193.271 243.615 193.598Z" fill="#AC0B04"/>
<path d="M229.551 159.167C226.065 162.208 222.877 165.779 217.325 164.615C215.815 164.297 215.586 165.712 215.497 166.848C215.338 168.975 213.838 170.15 212.219 171.247C208.445 172.749 204.919 170.9 201.293 170.467L201.244 170.458C200.668 169.514 197.956 170.044 199.287 167.791C207.044 164.037 214.394 159.686 220.185 153.324C222.549 150.725 225.39 151.187 228.29 151.244C228.707 153.882 229.134 156.519 229.551 159.167Z" fill="#4CCBC9"/>
<path d="M307.73 78.5392C307.471 83.6409 303.439 87.1832 298.294 86.8463C293.417 86.5287 289.504 82.5917 289.623 78.1157C289.752 73.2451 293.993 69.3081 298.939 69.4717C303.866 69.6546 307.978 73.8803 307.73 78.5392Z" fill="#969696"/>
<path d="M205.325 271.559C208.494 270.51 212 271.02 215.069 269.528C217.353 269.172 218.645 269.961 219.241 272.271C220.432 276.844 221.893 281.349 223.233 285.882C222.965 286.652 222.727 287.143 221.575 287.105C212.725 286.835 205.911 280.386 205.325 271.559Z" fill="#24789C"/>
<path d="M111.821 270.029C114.632 270.693 117.453 271.367 120.264 272.031C121.078 272.878 123.551 271.309 123.094 274.158C122.429 278.307 114.93 286.989 110.639 287.577C108.712 287.846 105.862 289.261 104.918 285.825C106.408 281.455 107.888 277.075 109.407 272.714C109.825 271.53 110.192 270.241 111.821 270.029Z" fill="#22799A"/>
<path d="M314.563 23.1131C312.587 23.1131 310.61 23.1131 307.511 23.1131C310.352 25.7313 312.567 27.7335 314.732 29.7838C315.358 30.371 315.706 31.2662 315.139 31.9496C314.196 33.0854 313.391 32.094 312.706 31.4876C311.256 30.1785 309.865 28.802 308.455 27.4543C307.313 26.357 306.021 25.5388 304.571 26.7709C303.071 28.0512 303.25 29.6587 304.432 31.0544C305.475 32.2865 306.776 33.3165 307.849 34.5293C308.514 35.2801 310.114 36.0598 308.743 37.2053C307.66 38.1198 306.617 37.0705 305.773 36.3005C304.452 35.0876 303.24 33.7496 301.83 32.6523C300.211 31.3817 298.592 31.6705 297.847 33.586C296.715 36.493 299.595 37.8406 300.896 39.708C301.79 40.9883 303.32 41.9316 305.137 40.5262C306.846 39.2075 308.683 38.9091 310.541 40.3337C306.458 40.3722 302.555 44.1167 298.234 40.6225C297.052 39.6599 295.413 39.1594 294.47 37.8214C291.838 32.7967 291.967 32.1036 296.685 28.3207C298.224 27.0886 299.436 25.6351 300.489 24.0179C305.008 21.2649 309.736 21.4671 314.563 23.1131Z" fill="#B6B6B6"/>
<path d="M126.362 426.143C117.731 428.636 109.844 427.75 103.13 421.407C106.924 419.626 111.284 419.462 114.95 417.056C116.36 416.122 116.668 414.938 117.522 413.908C121.952 416.988 125.716 420.512 126.362 426.143Z" fill="#F8F0B5"/>
<path d="M212.497 413.879C216.778 417.451 221.277 420.598 227.068 421.407C222.111 428.154 214.801 428.674 207.262 428.164C203.915 427.933 202.803 425.681 204.451 422.687C206.388 419.164 208.792 415.939 212.497 413.879Z" fill="#F9EDBB"/>
<path d="M212.497 413.879C211.822 417.479 207.869 418.702 206.408 421.763C205.733 423.178 204.005 424.506 204.66 426.018C205.395 427.692 207.531 427.047 209.12 427.201C216.003 427.885 221.973 425.921 227.068 421.407C231.458 423.678 235.848 425.96 240.229 428.231C236.107 428.828 233.137 426.181 229.76 424.708C228.022 423.948 226.73 423.486 224.943 424.988C219.887 429.242 213.639 429.406 207.342 429.252C204.203 429.175 203.369 425.401 200.29 425.373C202.247 419.828 205.574 415.381 211.126 412.734C211.593 413.119 212.04 413.504 212.497 413.879Z" fill="#DE4E68"/>
<path d="M121.068 400.586C120.721 399.412 121.406 398.497 121.903 397.535C126.124 394.907 130.901 396.254 135.242 396.466C141.062 396.755 146.972 396.697 152.773 397.679C154.72 399.065 154.72 400.519 152.912 402.02C142.254 402.559 131.607 402.752 121.068 400.586Z" fill="#FCE3BC"/>
<path d="M208.176 397.38C208.196 398.391 208.216 399.392 208.236 400.403C202.843 401.837 197.32 402.463 191.748 402.27C186.682 402.097 181.557 403.031 176.531 401.664C175.578 400.557 175.588 399.402 176.372 398.218C186.951 397.082 197.499 394.993 208.176 397.38Z" fill="#FBE3C2"/>
<path d="M239.046 84.7769C243.804 84.0165 247.777 85.2197 250.896 88.9641C252.247 90.5909 254.005 91.3898 255.951 89.5994C256.627 89.4454 257.272 89.4647 257.56 90.1962C257.888 91.0241 257.352 91.2743 256.627 91.3802C254.074 91.7653 251.512 92.1695 248.959 92.5642L248.552 92.5161L248.154 92.6027C247.35 92.3621 246.853 91.7364 246.287 91.1877C245.036 89.9556 243.705 88.4155 241.788 89.7631C239.732 91.2069 241.589 92.8337 241.976 94.3642C241.688 95.3172 241.4 96.2701 241.112 97.2135C234.795 94.9225 234.1 90.716 239.046 84.7769Z" fill="#C84643"/>
<path d="M153.578 398.363C143.02 398.093 132.471 397.814 121.913 397.544C120.721 396.495 120.692 395.504 122.072 394.58C131.468 395.744 141.013 394.589 150.4 396.177C151.413 396.351 152.575 395.648 153.677 395.35C155.863 396.418 155.475 397.41 153.578 398.363Z" fill="#D16071"/>
<path d="M208.177 397.381C197.628 397.737 187.07 398.083 176.522 398.44C175.24 397.746 174.366 396.957 175.836 395.629C182.014 395.966 188.153 395.09 194.291 394.974C198.85 394.888 203.429 394.849 207.998 394.647C208.057 395.552 208.117 396.466 208.177 397.381Z" fill="#D15F72"/>
<path d="M72.1706 165.375C69.0518 170.054 73.5909 170.602 76.1039 172.248C76.4316 172.441 76.5608 172.653 76.4813 172.884C76.4018 173.124 76.3124 173.249 76.2231 173.249C74.9219 173.923 73.5413 174.491 72.3295 175.29C69.3398 177.244 67.7308 176.965 66.5587 173.221C64.463 166.531 64.2146 166.608 72.1706 165.375Z" fill="#AE2024"/>
<path d="M121.068 400.586C131.874 400.884 142.691 401.173 153.497 401.471C154.302 402.54 154.202 403.243 152.683 403.377C143.068 403.127 133.453 402.877 123.849 402.627C122.637 402.319 120.998 402.55 121.068 400.586Z" fill="#D2757E"/>
<path d="M176.562 401.424C187.12 401.231 197.698 401.347 208.236 400.403C208.207 401.019 208.177 401.635 208.157 402.242C197.658 403.099 187.15 403.618 176.611 403.166C176.005 402.608 176.005 402.02 176.562 401.424Z" fill="#D47279"/>
<path d="M126.362 426.143C124.584 421.272 119.608 418.567 117.532 413.908C118.049 413.533 118.565 413.148 119.082 412.772C124.614 415.41 127.822 419.896 129.779 425.382C128.637 425.633 127.504 425.892 126.362 426.143Z" fill="#D54E69"/>
<path d="M300.479 23.9985C301.433 25.943 299.794 27.974 298.92 28.3205C294.122 30.2072 293.119 33.3933 294.46 37.802C290.567 34.1249 290.437 31.8628 293.993 28.1858C295.811 26.3087 297.946 24.8649 300.479 23.9985Z" fill="#959595"/>
<path d="M242.831 180.026C242.563 180.035 242.294 180.045 242.026 180.045C238.967 177.302 239.474 175.078 243.059 173.288C245.582 174.972 248.463 176.291 249.803 179.236C250.37 180.035 251.283 180.709 250.797 181.883C249.555 184.203 248.006 183.462 246.436 182.278C245.294 181.412 244.489 180.083 242.831 180.026Z" fill="#9A1B1B"/>
<path d="M76.0437 174.924C76.7489 175.646 77.464 176.378 78.1692 177.1C77.315 179.323 75.855 180.912 73.4016 181.518C72.3985 182.596 71.3059 183.799 69.9054 182.163C68.8128 180.892 69.0412 179.574 70.5212 178.573C72.3488 177.35 73.7294 175.483 76.0437 174.924Z" fill="#A73A3F"/>
<path d="M248.939 83.7945C247.052 76.7676 248.224 69.6349 248.135 62.5503C249.833 69.5771 249.307 76.6906 248.939 83.7945Z" fill="#C84643"/>
<path d="M249.794 179.236C247.539 177.581 245.274 175.915 243.02 174.26C244.49 172.854 246.059 173.567 247.459 174.25C249.356 175.174 251.124 175.203 252.952 174.241C253.23 174.115 253.518 174.077 253.816 174.115C254.74 177.504 251.621 177.889 249.794 179.236Z" fill="#E6BAAF"/>
<path d="M242.831 180.026C244.857 177.975 245.592 180.372 246.665 181.171C247.986 182.153 249.059 183.529 250.787 181.883C251.353 184.107 248.979 183.741 248.135 184.723C245.801 183.751 244.579 181.595 242.831 180.026Z" fill="#D07F7B"/>
<path d="M320.255 172.546C318.338 172.441 316.412 172.335 314.177 172.2C316.541 170.121 319.948 170.111 321.547 167.512C323.414 169.745 319.689 170.631 320.255 172.546Z" fill="#F6DFC5"/>
<path d="M73.402 181.518C74.6833 179.727 76.3023 178.303 78.1696 177.1C78.7556 180.988 75.3786 181.98 73.0146 183.693C73.1438 182.971 73.2729 182.249 73.402 181.518Z" fill="#D15053"/>
<path d="M28.6059 165.568C28.9039 165.934 29.4105 166.28 29.4601 166.665C29.629 168.119 31.6354 169.774 29.7979 170.929C28.3576 171.844 26.7287 170.621 25.4971 169.524C28.0001 169.283 28.6755 167.705 28.6059 165.568Z" fill="#F7E2C9"/>
<path d="M76.2227 173.259C76.183 172.922 76.1432 172.585 76.1035 172.258C77.5239 171.892 78.4178 170.362 80.5533 170.602C80.3248 173.211 77.9013 173.355 76.3419 174.308C76.3022 173.952 76.2624 173.605 76.2227 173.259Z" fill="#CF635B"/>
<path d="M141.777 98.5706C143.912 101.131 145.66 103.605 145.988 107.263C146.723 115.493 143.277 120.094 134.059 121.172C130.345 121.605 126.511 121.47 122.756 121.211C116.727 120.806 113.926 116.677 111.999 111.748C108.821 108.581 110.877 105.155 111.89 102.094C114.055 95.5288 123.153 89.917 131.298 91.7748C135.321 93.2571 139.661 94.316 141.777 98.5706Z" fill="#F6F7F3"/>
<path d="M213.291 112.731C208.266 121.173 199.694 124.041 189.851 120.585C189.384 120.422 188.957 120.162 188.49 119.998C177.614 116.109 175.608 107.042 183.842 99.0332C184.06 98.8215 184.159 98.4749 184.308 98.1958C186.037 93.8449 190.218 93.1037 194.102 91.9101C207.888 90.0427 217.225 100.179 213.291 112.731Z" fill="#F6F5F2"/>
<path d="M184.438 173.317C185.322 173.048 186.196 172.778 187.08 172.518C189.374 174.203 188.649 176.484 188.411 178.679C186.176 186.11 179.789 189.094 173.075 190.711C160.52 193.733 148.85 192.116 139.811 181.903C139.275 180.941 138.828 179.949 138.669 178.852C138.073 174.828 139.145 173.798 143.575 174.097L143.764 174.203C144.42 174.684 145.016 175.213 145.542 175.839C152.167 183.751 164.016 186.167 173.373 181.528C175.459 180.488 177.604 179.275 178.409 177.138C179.521 174.26 181.855 173.741 184.438 173.317Z" fill="#F58D09"/>
<path d="M233.981 113.54C234.13 114.56 234.636 115.128 235.689 115.609C241.589 118.285 242.513 123.339 241.986 128.873C241.519 133.84 236.841 139.163 232.233 140.357C228.081 141.426 226.76 140.174 227.445 136.141C228.458 130.202 229.302 124.224 230.226 118.266C231.537 116.726 231.001 113.809 233.981 113.54Z" fill="#DE956C"/>
<path d="M184.437 173.317C182.61 174.337 180.633 174.655 179.898 177.456C179.133 180.344 175.865 181.836 172.955 183.116C164.085 187.024 152.603 185.426 146.793 179.593C145.214 178.005 144.657 176.07 143.773 174.212C156.07 176.378 168.346 178.072 180.524 173.49C181.676 173.067 183.126 173.365 184.437 173.317Z" fill="#E6A783"/>
<path d="M95.1244 122.241C96.0779 127.478 97.1208 132.695 97.9551 137.951C98.3723 140.569 96.4354 140.819 94.4688 140.444C89.7111 139.529 85.6388 137.421 84.139 132.666C82.2717 126.756 81.6261 119.661 88.0326 116.726C91.5983 116.966 91.9559 120.316 93.555 122.347C94.6277 123.695 94.6377 122.328 95.1244 122.241Z" fill="#E0946E"/>
<path d="M143.575 174.106C136.195 174.51 140.923 179.063 140.715 181.932C142.006 187.553 144.847 193.069 142.612 199.018C156.497 198.363 171.118 199.152 185.729 198.585C187.129 198.681 188.897 198.363 188.341 200.712C182.62 201.848 176.839 201.058 171.098 201.135C160.043 201.289 148.989 201.193 137.944 201.193C135.858 202.839 133.752 203.705 131.627 201.251C127.912 201.155 127.008 203.263 126.819 206.449C126.511 211.974 127.644 217.567 125.985 223.015C125.21 212.417 126.243 202.127 129.133 191.75C131.021 184.983 130.147 177.533 128.885 170.429C128.955 170.034 129.163 169.736 129.531 169.543C131.219 169.341 132.749 169.553 133.772 171.084C130.872 178.572 132.6 186.312 132.51 193.935C132.699 195.716 133.156 197.583 135.411 197.372C137.516 197.169 137.328 195.292 137.129 193.714C137.338 188.776 137.189 183.847 137.308 178.929C137.358 176.926 136.99 174.712 139.106 173.288C140.615 173.471 142.304 172.758 143.575 174.106Z" fill="#DFD372"/>
<path d="M113.271 135.775C109.278 135.804 105.722 134.678 103.438 131.347C102.524 130.019 102.613 128.113 103.894 126.862C106.894 123.936 110.599 123.291 114.711 123.974C118.893 124.657 123.173 125.476 123.66 130.423C123.968 133.484 118.992 135.785 113.271 135.775Z" fill="#FB9895"/>
<path d="M139.106 173.279C139.046 178.659 138.996 184.031 138.927 189.411C138.897 191.442 139.364 193.56 137.785 195.312C135.748 197.025 133.752 197.054 131.825 195.139C129.402 187.852 131.05 180.402 130.881 173.028C130.842 171.334 132.51 171.324 133.782 171.074C135.55 171.815 137.328 172.547 139.106 173.279Z" fill="#51A2B6"/>
<path d="M95.1248 122.241C95.0155 123.021 94.9062 123.791 94.7671 124.821C91.6483 122.607 90.6849 118.997 88.0429 116.735C87.0496 114.473 86.0564 112.22 85.0532 109.958C81.7258 105.377 81.5768 105.223 85.9173 101.468C88.7779 98.9946 91.0922 95.8277 94.7573 94.2876C94.8268 94.2587 95.0354 94.4512 95.1248 94.5667C95.2936 94.7785 95.2737 95.0673 95.1049 95.4042C92.5026 99.2353 92.9098 103.48 93.3667 107.706C93.8931 112.548 94.5387 117.39 95.1248 122.241Z" fill="#B00806"/>
<path d="M130.514 70.0204C122.061 69.7798 115.635 71.7146 110.301 76.5468C109.03 77.6922 107.719 78.934 106.119 77.3842C104.292 75.613 105.792 74.1403 107.123 72.9467C114.82 66.0257 124.117 64.3893 134.179 65.4963C135.748 65.6696 137.139 66.3241 136.98 68.1723C136.811 70.1071 135.301 70.2611 133.712 70.1744C132.232 70.1071 130.752 70.0301 130.514 70.0204Z" fill="#6A120C"/>
<path d="M194.906 70.0586C195.045 70.0586 194.221 70.0682 193.397 70.0586C191.4 70.0297 188.51 71.0885 188.5 67.8831C188.49 65.4189 191.122 65.4285 193.069 65.3034C202.247 64.7162 210.798 66.2564 217.811 72.542C219.162 73.7549 221.416 75.141 219.42 77.2394C217.384 79.386 215.983 77.2202 214.563 75.9977C209.209 71.4254 202.892 69.6735 194.906 70.0586Z" fill="#6B100B"/>
<path d="M188.242 172.297C190.318 171.546 192.394 170.805 194.47 170.054C195.652 170.371 195.731 171.267 195.86 172.277C196.625 178.159 196.228 184.069 196.347 189.97C196.397 192.52 195.761 194.436 192.712 194.609C189.613 194.782 187.646 193.444 187.189 190.383C186.881 188.324 186.802 186.215 187.07 184.165C187.596 180.219 187.865 176.253 188.242 172.297Z" fill="#42A2C8"/>
<path d="M210.043 135.698C206.934 135.9 204.312 135.823 202.117 134.023C199.614 131.973 199.634 129.412 201.422 127.218C203.428 124.744 204.729 127.372 206.14 128.411C209.517 130.895 212.685 130.77 215.844 127.959C216.907 127.016 217.453 124.012 219.827 126.4C221.863 128.45 221.853 130.866 219.658 132.724C216.847 135.101 213.48 136.372 210.043 135.698Z" fill="#F79A95"/>
<path d="M213.291 112.73C213.778 98.6188 207.014 91.7363 193.535 92.6219C192.582 92.8626 191.45 93.4113 191.618 91.6209C207.203 86.5962 216.658 97.4445 215.188 108.938C215 110.333 215.437 112.191 213.291 112.73Z" fill="#794132"/>
<path d="M131.676 92.5832C120.969 92.0731 113.669 97.271 111.086 107.282C110.669 108.899 110.778 110.439 111.99 111.758C111.921 111.902 111.841 112.037 111.772 112.191C111.702 112.335 111.643 112.489 111.583 112.634C110.182 111.767 110.192 110.343 110.063 108.986C108.822 95.4613 119.122 87.8762 133.633 91.611C133.752 93.3725 132.69 92.9201 131.676 92.5832Z" fill="#773F32"/>
<path d="M95.1153 95.3941C89.9107 97.1653 87.2686 101.776 83.7326 105.328C82.3421 106.733 85.7191 108.062 85.0537 109.948C83.832 108.302 82.4712 108.745 80.8323 109.429C78.8359 110.266 76.7799 111.479 74.1875 110.247C75.5085 107.754 76.8097 105.309 78.1109 102.854C78.5082 104.279 77.8625 105.607 76.9388 107.985C84.2293 102.248 89.424 95.9909 96.1582 91.4668C96.2178 92.8818 96.0787 94.239 95.1153 95.3941Z" fill="#B32320"/>
<path d="M146.942 146.701C148.472 143.495 151.531 142.523 154.422 141.782C161.821 139.886 169.072 140.184 175.697 144.448C176.452 144.93 177.574 145.7 176.849 146.71C176.094 147.779 175.19 146.874 174.336 146.393C165.933 141.609 157.59 141.667 149.356 146.778C148.77 147.134 148.234 147.404 146.942 146.701Z" fill="#8C4C38"/>
<path d="M188.242 172.297C188.302 177.889 188.441 183.472 188.371 189.065C188.342 191.673 188.868 193.319 192.056 193.473C195.801 193.656 195.463 191.288 195.354 189.065C195.026 182.731 196.307 176.33 194.47 170.063C195.86 168.879 197.549 168.283 199.287 167.801C199.267 169.159 200.807 169.438 201.244 170.477C198.493 170.516 195.721 170.525 196.516 174.482C197.35 180.767 196.377 187.101 197.092 193.387C197.181 194.195 196.556 194.85 195.96 195.399C192.92 196.428 190 196.159 187.179 194.686C186.127 193.454 186.146 191.943 185.968 190.47C185.501 186.639 186.494 182.933 187.1 179.198C187.1 176.975 187.09 174.741 187.09 172.518C187.467 172.441 187.855 172.364 188.242 172.297Z" fill="#85AF7B"/>
<path d="M233.981 113.54C232.292 114.781 232.441 117.409 230.216 118.256C229.64 113.655 231.22 109.323 232.014 104.896C232.342 106.782 233.087 106.214 234.17 105.358C239.325 101.267 239.394 101.295 244.003 106.003C237.984 102.431 236.315 106.195 235.143 110.902C234.914 111.817 234.378 112.664 233.981 113.54Z" fill="#992418"/>
<path d="M183.553 55.2156C182.818 50.5664 187.765 49.6519 189.751 46.7738C192.473 42.7983 196.674 39.7758 200.18 36.2913C201.442 35.0399 202.852 34.5105 204.61 34.8474C199.118 40.4785 193.645 46.1192 188.122 51.7215C186.772 53.0787 185.48 54.5515 183.553 55.2156Z" fill="#A11A13"/>
<path d="M241.977 94.3643C239.245 93.3921 238.292 91.5343 240.04 89.2434C241.937 86.7695 244.231 87.3182 246.347 89.3107C247.34 90.2444 247.976 91.284 248.145 92.6028C247.459 97.7141 244.122 94.0851 241.977 94.3643Z" fill="#B10F14"/>
<path d="M169.797 124.099C163.728 117.659 162.238 117.679 156.437 123.772C156.139 119.787 157.788 117.881 161.92 117.448C166.459 116.976 169.25 119.094 169.797 124.099Z" fill="#C08061"/>
<path d="M129.541 169.544C129.322 169.842 129.114 170.14 128.895 170.429C125.995 169.832 123.293 171.372 120.423 171.199C121.337 169.842 122.24 168.485 123.154 167.127C125.29 167.926 127.415 168.735 129.541 169.544Z" fill="#9C481C"/>
<path d="M191.608 91.6304C192.244 91.9673 192.89 92.2946 193.525 92.6315C190.257 94.1908 186.721 95.3363 184.298 98.2048C184.288 93.4497 188.499 93.1127 191.608 91.6304Z" fill="#A58271"/>
<path d="M131.676 92.5834C132.331 92.2561 132.977 91.9288 133.632 91.6016C137.288 92.8914 140.913 94.2198 141.777 98.5707C138.936 95.7503 135.361 94.0754 131.676 92.5834Z" fill="#A27E73"/>
<path d="M74.0078 93.4883C75.3288 94.0851 76.6201 94.807 77.9908 95.2595C81.4075 96.3953 80.7619 98.0798 78.8052 100.034C79.0237 98.8403 79.5998 97.637 78.7357 96.2413C77.3948 96.8092 76.1135 97.3483 74.5839 97.9932C74.3654 96.2798 74.1866 94.884 74.0078 93.4883Z" fill="#B32320"/>
<path d="M176.561 401.423C176.581 402.011 176.591 402.588 176.611 403.175C176.929 408.71 178.995 414.13 177.683 419.761C177.574 424.843 177.465 429.926 177.356 435.009C170.244 437.107 162.963 435.567 155.772 435.894C153.687 435.99 153.806 434.267 153.627 432.795C153.249 429.695 154.64 426.422 152.654 423.496C152.604 422.543 152.544 421.6 152.495 420.647C151.303 414.881 153.24 409.153 152.703 403.397C153.448 402.954 153.667 402.29 153.518 401.491C153.15 400.442 153.13 399.402 153.587 398.382C154.014 397.39 155.127 396.408 153.677 395.359C151.283 390.508 153.716 385.666 153.975 380.891C154.64 368.416 156.15 355.989 157.322 343.542C162.417 343.571 167.522 343.6 172.628 343.62C173.79 356.239 175.111 368.84 176.015 381.478C176.353 386.166 178.24 390.97 175.846 395.658C175.459 396.736 175.856 397.631 176.531 398.459C176.531 399.441 176.541 400.432 176.561 401.423Z" fill="#FDFDFD"/>
<path d="M195.334 195.341C197.588 190.432 196.039 185.253 196.446 180.218C196.595 178.312 196.496 176.387 196.516 174.472C197.727 175.867 197.449 177.619 197.151 179.063C195.721 185.936 200.35 192.819 196.983 199.644C203.737 207.373 198.77 217.038 201.492 225.499C203.101 230.514 202.406 235.924 202.187 241.17C201.134 230.437 199.406 219.781 199.197 208.981C199.138 206.045 199.923 202.223 195.165 201.434C194.36 201.809 193.625 201.704 192.98 201.088C191.718 198.373 192.731 196.554 195.334 195.341Z" fill="#D7D88B"/>
<path d="M174.237 234.143C171.446 238.946 169.35 239.697 165.099 236.983C162.556 235.366 160.997 234.932 158.504 237.243C155.385 240.14 152.991 239.235 149.614 234.307C152.018 235.038 153.16 237.233 155.554 236.858C158.891 236.328 160.192 234.153 158.454 231.227C157.928 230.331 157.262 229.244 158.196 228.685C160.272 227.463 162.646 227.8 164.89 228.387C165.665 228.589 166.45 229.455 165.655 230.225C163.699 232.141 163.152 233.691 165.765 235.616C168.665 237.753 170.612 236.261 172.677 234.48C172.896 234.307 173.293 234.345 174.237 234.143Z" fill="#126990"/>
<path d="M131.626 201.261C133.742 202.349 135.838 201.328 137.943 201.203C137.953 202.801 138.013 204.389 137.963 205.987C137.913 207.912 137.337 209.626 134.944 209.529C132.818 209.443 131.745 208.037 131.656 206.026C131.586 204.437 131.636 202.849 131.626 201.261Z" fill="#CFF2F4"/>
<path d="M193.307 200.991C193.923 201.136 194.539 201.28 195.154 201.425C194.747 204.062 197.499 208.538 192.483 208.625C187.159 208.721 190.079 203.802 189.195 201.145C189.731 200.558 190.427 200.327 191.211 200.27C191.996 200.279 192.691 200.539 193.307 200.991Z" fill="#DEF4FA"/>
<path d="M143.118 222.996C142.571 218.837 145.571 217.509 148.491 216.96C151.302 216.431 153.984 217.605 155.434 220.358C155.811 221.071 155.901 221.956 155.186 222.543C154.947 222.745 154.282 222.668 153.924 222.495C148.342 219.79 148.352 219.781 143.118 222.996Z" fill="#0E638C"/>
<path d="M174.685 216.633C176.165 216.498 177.426 216.932 178.499 217.663C179.969 218.655 181.965 220.214 180.664 221.764C179.174 223.545 178.479 220.888 177.486 220.156C174.585 218.019 172.37 218.809 170.463 221.494C169.937 222.235 169.391 223.381 168.229 222.341C167.285 221.494 167.871 220.57 168.546 219.839C170.235 218.039 171.913 216.219 174.685 216.633Z" fill="#0E648A"/>
<path d="M191.321 201.03C190.615 201.068 189.91 201.107 189.195 201.145C188.837 201.136 188.559 200.991 188.341 200.712C188.172 199.49 187.298 199.278 186.245 199.316C183.047 196.13 183.375 193.252 187.218 190.711C187.348 192.001 187.487 193.281 187.616 194.571C189.562 196.342 192.433 197.613 191.321 201.03Z" fill="#D6DF94"/>
<path d="M181.467 6.83574C183.027 5.94054 184.328 4.45816 186.444 4.91058C171.595 19.4167 156.736 33.9324 141.867 48.4193C141.579 48.6984 141.002 48.6984 139.751 48.015C153.647 34.2886 167.552 20.5622 181.467 6.83574Z" fill="#C91C1B"/>
<path d="M201.293 170.477C205.038 169.457 208.504 171.969 212.219 171.257C212.308 171.661 212.388 172.066 212.477 172.47C208.653 172.297 204.67 172.961 201.293 170.477Z" fill="#85AF7B"/>
<path d="M177.732 435.798C184.417 437.078 191.3 436.616 197.975 438.724C202.186 440.053 206.994 438.984 211.573 439.311C224.614 440.255 237.745 441.987 250.756 438.792C251.412 442.757 248.233 443.219 245.581 443.807C236.096 445.895 226.481 445.096 216.956 444.374C204.789 443.45 192.671 441.949 180.643 439.87C177.762 439.369 176.819 438.416 177.732 435.798Z" fill="#B52551"/>
<path d="M79.432 438.772C86.8615 441.987 94.7478 441.005 102.406 440.562C115.358 439.811 128.31 438.772 141.202 437.097C144.907 436.616 148.522 435.239 152.356 435.73C153.062 437.867 152.942 439.34 150.042 439.792C130.286 442.882 110.521 445.751 90.4173 444.721C87.5965 444.576 84.8253 444.134 82.2031 443.075C80.2365 442.295 78.6076 441.255 79.432 438.772Z" fill="#B32550"/>
<path d="M252.953 174.241C252.903 176.955 251.741 177.514 249.288 176.195C247.361 175.155 245.503 173.692 243.01 174.26C240.636 175.858 240.825 177.87 242.017 180.045C242.325 182.981 237.756 182.788 238.104 185.753L237.955 185.869C234.667 184.232 230.406 183.347 228.32 180.786C224.417 176.002 217.722 173.038 216.888 165.115C221.337 169.264 223.771 166.049 226.721 163.739C229.274 161.737 232.422 160.899 235.243 163.46C238.819 166.704 244.023 165.424 247.937 168.148C250.37 169.851 252.128 171.546 252.953 174.241Z" fill="#B70405"/>
<path d="M238.103 185.753C239.086 186.331 240.09 186.456 241.291 186.408C242.871 186.35 243.894 187.707 244.311 189.026C244.659 190.133 243.884 191.192 242.603 191.442C241.142 191.721 239.911 191.548 238.759 190.21C237.517 188.776 237.716 187.399 237.954 185.869C237.964 185.869 238.103 185.753 238.103 185.753Z" fill="#B70405"/>
<path d="M123.86 100.207C127.207 98.109 130.743 97.0694 134.647 98.5807C139.454 100.429 142.086 105.559 140.755 110.363C139.375 115.339 134.746 118.294 129.452 117.592C124.396 116.918 120.821 113.058 120.751 108.081C120.731 106.811 120.97 105.531 121.089 104.26C122.658 103.548 123.622 105.742 125.549 104.905C125.578 103.23 121.685 102.489 123.86 100.207Z" fill="#752815"/>
<path d="M123.86 100.207C123.83 101.016 123.82 101.805 125.002 101.786C126.87 101.757 127.605 102.902 127.674 104.452C127.714 105.415 127.038 106.233 126.154 106.695C124.565 107.523 123.403 106.772 122.39 105.597C121.983 105.126 121.516 104.693 121.079 104.25C120.761 102.094 122.142 101.044 123.86 100.207Z" fill="#F0DFD2"/>
<path d="M185.281 107.84C185.252 102.19 189.771 97.8777 195.641 97.9451C201.034 98.0125 205.524 102.2 205.613 107.263C205.723 113.135 201.491 117.601 195.74 117.697C189.87 117.803 185.311 113.5 185.281 107.84Z" fill="#712B12"/>
<path d="M187.229 190.71C185.153 193.396 184.617 196.245 186.256 199.316C185.59 200.23 184.587 200.23 183.584 200.23C169.371 200.23 155.147 200.23 141.172 200.23C144.39 193.974 138.659 187.996 140.715 181.922C150.111 190.22 161.117 192.751 173.185 189.411C178.916 187.823 184.647 185.378 187.08 179.179C187.14 183.039 187.179 186.879 187.229 190.71Z" fill="#F8C107"/>
<path d="M131.825 195.139C133.812 195.197 135.798 195.255 137.785 195.312C138.222 195.486 139.056 195.784 139.046 195.832C138.4 197.95 136.066 198.345 134.706 199.76C134.606 197.719 130.157 198.219 131.825 195.139Z" fill="#D8CE31"/>
<path d="M191.321 201.03C191.132 198.315 187.676 197.353 187.626 194.571C190.218 194.619 192.86 194.186 195.334 195.341C194.251 197.083 192.98 198.768 193.317 200.991C192.652 201.001 191.986 201.02 191.321 201.03Z" fill="#D2C945"/>
<path d="M190.337 107.003C188.579 106.955 187.457 106.147 187.437 104.462C187.407 102.797 188.51 101.853 190.178 101.786C191.678 101.728 192.652 102.547 192.711 104.039C192.771 105.627 192.056 106.753 190.337 107.003Z" fill="#EEE3D4"/>
</svg>
