<svg width="209" height="479" viewBox="0 0 209 479" fill="none" xmlns="http://www.w3.org/2000/svg">
<path d="M161.081 306.96C165.851 320.54 170.571 334.15 175.451 347.69C176.421 350.37 175.871 351.67 173.421 353.28C166.801 357.63 159.461 360.07 152.051 362.45C150.661 362.9 149.041 362.74 147.931 363.95C144.621 366.5 140.621 366.72 136.731 367.33C129.081 368.53 121.391 369.33 113.681 370.04C108.601 370.7 103.511 370.42 98.4305 370.34C93.9205 370.24 89.3205 370.95 84.9805 369.08C81.5705 366.48 79.2405 362.78 75.8505 360.09C75.5705 360.6 76.1705 360.73 76.3605 360.98C77.6905 362.77 80.7305 364.17 79.8205 366.5C78.7705 369.19 75.4706 367.82 73.1405 368.24C70.2105 368.12 67.3205 367.87 64.8805 365.99C53.6505 363.57 42.5705 360.8 32.3005 355.34C28.9405 353.55 28.3605 352.04 29.6605 348.43C34.2805 335.64 38.4605 322.69 42.8005 309.8C49.7205 309.82 56.2306 305.5 58.7706 299.19C59.5106 297.34 59.8805 295.35 60.8605 293.58C62.1605 290.72 61.5605 287.69 61.6005 284.75C61.6405 280.92 61.5806 277.12 63.7106 273.7C64.2406 272.84 64.4406 271.88 64.2706 270.85C61.8806 255.94 66.8905 241.28 65.7905 226.39C65.6005 223.77 66.5605 220.95 70.2505 223.65C70.7705 224.29 71.0605 225.08 71.4505 225.82C71.9905 226.85 72.5105 228.07 73.9905 227.7C75.3605 227.36 75.4905 226.07 75.6705 224.91C75.9805 222.97 75.8205 220.8 78.2505 219.95C94.3505 219.26 110.431 219.49 126.511 219.81C128.991 220.44 129.681 222.26 129.751 224.58C129.781 225.72 129.931 227 131.491 227.03C132.971 227.06 133.221 225.83 133.541 224.72C134.011 223.09 133.641 221 135.911 220.33C138.661 220.28 139.091 222.3 139.371 224.31C140.241 230.53 141.501 236.79 141.371 243.04C141.041 259.13 144.221 275 143.861 291.06C144.431 301.95 151.351 308.35 161.081 306.96Z" fill="#43A2C8"/>
<path d="M13.0605 170.93C16.8205 164.7 21.7105 158.94 21.1605 150.97C32.3305 134.5 47.0505 125.78 67.5605 129.72C68.3605 130.31 69.2505 130.73 70.1405 131.19C71.5205 131.9 72.0105 133.06 71.5205 134.51C71.0405 135.89 70.0305 136.53 68.4905 136.55C64.7005 136.61 60.8905 135.94 57.1105 136.7C60.6005 137.28 64.0805 136.67 67.5705 136.61C69.5505 136.58 71.3305 136.66 71.9105 134.43C72.5205 132.06 70.6405 131.32 68.9505 130.55C68.5005 130.35 68.0805 130.08 67.6705 129.78C57.8105 127.93 48.2505 128.08 39.4105 133.69C37.7105 134.77 35.9205 135.17 35.2005 132.45C35.0805 131.3 35.4105 130.31 36.2705 129.51C39.6205 127.65 42.0405 124.15 46.2605 123.79C49.6705 123.9 52.7605 121.97 56.1905 122.17C62.8505 124.91 69.6805 125.56 76.6505 123.66C84.5605 121.51 87.1005 116.85 84.7105 109.03C84.2205 107.43 83.7205 105.86 83.9405 104.16C87.2805 93.47 84.8905 83.62 79.8305 74.04C78.1005 70.76 74.2205 69.29 73.2605 65.51C73.2605 64.99 73.3705 64.5 73.5905 64.03C74.9105 62.34 76.9305 61.96 78.7805 61.31C92.2505 56.61 104.22 49.41 114.93 39.99C117.17 38.02 119.16 35.15 122.87 35.72C124.11 37.75 122.501 39.15 121.711 40.7C116.341 51.28 108.72 59.93 98.7905 66.94C104.6 65.58 110.331 65.17 115.211 61.95C123.711 57.94 129.86 51.17 135.86 44.28C138.37 41.39 140.82 38.47 143.98 36.27C147.11 34.1 150.28 33.91 152.97 36.81C161.08 45.56 168.25 54.31 165.75 67.95C163.69 79.19 165.01 90.52 172.451 100.19C175.031 103.54 174.42 107.47 174.06 111.23C173.79 114.03 173.371 116.82 173.021 119.62C172.901 120.11 172.691 120.56 172.391 120.96C170.57 122.39 168.971 120.85 167.271 120.57C165.501 120.28 163.72 119.88 161.75 121.11C164.83 124.34 169.63 125.47 171.63 129.69C171.87 131.48 171.11 132.49 169.32 132.72C176.59 136.24 181.831 142.11 186.711 148.38C186.801 148.59 186.89 148.81 186.98 149.02C187.64 155.94 191.38 161.74 193.85 168C194.56 167.72 195.331 167.89 195.521 168.54C197.251 174.51 200.821 179.92 201.021 186.36C201.731 190.54 203 194.55 203.17 198.91C203.54 208.34 198.63 211.2 192.6 213.52C189.48 214.72 185.04 214.15 186.3 219.79C186.49 220.63 185.01 221.09 183.92 220.86C181.79 207.25 179.08 193.76 175.3 180.51C173.57 175.8 174.07 170.21 169.8 166.49C169.28 165.83 169.061 165.03 168.711 164.29C166.141 158.78 164.001 158.33 159.591 162.59C153.601 168.39 146.35 172.31 139.26 176.48C133.01 178.79 126.22 179.79 120.85 184.19C118.82 183.58 116.95 182.68 114.62 183.28C106.38 185.39 98.1405 184.44 90.3505 183.1C99.4805 189.64 110.68 188.24 121.42 189.18C122.83 194.91 120.651 199.57 115.021 202.02C106.591 205.69 98.0905 205.07 89.8805 201.35C86.2605 199.71 84.0405 196.49 83.1005 192.55C82.5905 190.42 82.1505 188.24 79.4405 187.8C78.9205 187.7 78.4405 187.5 78.0005 187.23C77.6505 186.83 77.4705 186.36 77.4505 185.84C77.5205 185.34 77.7305 184.91 78.0805 184.55C79.2005 183.65 80.9905 184.02 82.5605 181.84C75.6205 179.87 69.3605 177.28 63.4205 174C60.0805 171.95 56.2105 170.81 53.2705 168.13C51.6905 166.69 49.2605 165.6 50.0505 162.7C52.2205 161.25 54.5105 161.74 56.7405 162.44C58.1805 162.89 59.6705 163 61.1205 163.28C63.0805 163.66 64.9005 163.04 65.8305 161.3C66.9105 159.27 64.8005 158.49 63.7305 157.37C63.1005 156.7 61.6205 156.42 62.1805 155.21C62.8205 153.82 64.1405 154.49 65.2505 154.7C61.9405 153.91 58.5305 153.66 56.0405 152.98C59.4705 152.85 61.9005 156.11 64.7605 158.42C67.0005 160.23 66.3505 162.16 63.4205 163.03C60.9105 163.77 58.5805 162.68 56.1805 162.12C52.2405 161.22 48.5605 158.77 44.2505 160.04C41.4205 162.95 37.7105 165.16 36.9405 169.64C36.1105 173.28 34.9605 176.83 34.4105 180.53C32.8605 189.68 30.8505 198.72 28.5105 207.69C28.1305 209.13 27.8105 210.59 27.5605 212.06C26.3705 218.97 26.5905 219.26 33.6805 219.72C34.5105 219.83 35.2605 220.1 35.9305 220.61C36.3705 221.11 36.3305 221.57 35.8205 221.99C32.5105 223.46 29.3605 222.06 26.1705 221.44C25.5705 221.32 24.5705 220.76 24.5805 220.43C24.7605 214.25 19.6505 214.71 15.9105 213.1C6.89046 209.21 4.47048 202.66 7.49048 191.27C8.21048 188.57 9.34048 185.97 7.99048 183.17C10.6305 179.49 11.4005 175.03 13.0605 170.93Z" fill="#FEBFA0"/>
<path d="M172.021 119.93C172.241 117.12 172.411 114.3 172.711 111.5C173.211 106.84 173.031 102.72 169.891 98.4699C162.691 88.7099 163.081 77.2199 164.481 65.8699C165.641 56.4499 158.511 41.0499 150.501 36.3699C147.701 34.7299 145.611 36.1199 143.841 37.8499C140.641 40.9899 137.711 44.3899 134.671 47.6899C129.031 53.8099 123.341 59.8599 115.421 63.1399C113.601 63.4199 111.981 64.3099 110.261 64.8899C108.681 65.4199 106.971 66.1199 105.841 64.1999C104.911 62.6199 105.771 61.3099 106.901 60.2299C112.571 54.7899 116.751 48.2199 121.091 41.7599C122.231 40.0599 123.931 38.5199 122.691 36.1399C120.241 36.8999 118.441 38.6399 116.611 40.2699C104.201 51.3599 90.1106 59.4399 74.1306 64.1699C72.0206 65.5499 70.3906 64.2399 68.6606 63.2399C50.6906 52.8499 25.6506 60.7999 16.8706 79.6499C16.2606 80.9499 16.0406 82.5599 13.9006 83.2799C13.3406 78.7099 13.3406 74.3399 13.9006 69.9499C13.7106 68.3599 14.5406 66.5599 12.9606 65.2499C12.1106 64.2799 10.6006 62.8899 11.9706 61.9599C18.0106 57.8299 17.7006 50.4599 21.0606 44.9999C34.1306 16.3699 58.4706 5.23991 87.8706 1.95991C95.6306 1.62991 103.381 0.869897 111.151 1.5599C118.191 2.1899 121.081 8.1399 124.951 12.6899C126.181 14.1399 124.641 15.8099 123.461 17.0199C120.911 19.6299 118.341 22.2299 115.721 24.7699C118.221 22.4399 120.581 19.9599 123.001 17.5599C126.611 13.9799 127.321 13.9999 130.761 17.9899C134.401 22.2199 139.001 25.4799 142.291 30.0499C138.861 25.3099 134.301 21.6799 130.261 17.5299C127.101 14.2799 127.481 11.9199 130.571 9.2499C131.821 8.1699 132.861 6.8199 134.501 6.2499C140.151 5.4499 143.991 10.0799 149.031 11.1099C151.001 12.1499 152.981 13.1899 154.951 14.2299C157.851 15.9099 160.031 18.6399 163.211 19.9199C178.961 32.8699 187.651 49.6199 189.981 69.7499C190.281 72.3699 190.071 75.0599 190.081 77.7199C190.141 87.5199 190.131 87.5199 197.631 93.7199C195.821 96.7999 192.221 94.3099 190.011 96.1599C189.521 98.9899 188.741 101.48 184.801 100.07C185.411 103.34 188.021 104.91 188.701 107.52C188.941 109.19 188.391 110.38 186.711 110.91C185.731 111.16 184.691 111.23 183.781 110.85C180.911 109.65 179.521 111.06 178.491 113.53C177.731 115.35 176.781 117.11 175.591 118.71C174.581 119.64 173.831 121.31 172.021 119.93Z" fill="#B70002"/>
<path d="M142.97 292.97C142 278.93 140.72 264.89 140.19 250.83C139.85 241.86 138.5 233 138.21 224.05C138.14 221.78 137.33 220.52 134.82 221.31C129.64 222.83 129.64 222.83 128.49 217.75C128.08 215.71 128.57 214.07 130.54 213.08C133.66 212.39 134.52 210.3 134.58 207.29C134.73 200.11 134.05 192.93 134.73 185.75C138.53 182.32 143.2 183.87 147.53 183.49C150.95 182.68 154.43 182.4 157.94 182.51C158.6 182.54 159.26 182.57 159.92 182.58C168.95 182.65 168.96 182.64 171.25 191.3C173.41 199.45 174.43 207.85 176.5 216.02C176.93 217.73 177.45 219.62 175.85 221.14C167.67 223.22 159.48 225.29 151.3 227.38C149.92 227.73 148.32 227.65 148.6 230.02C150.94 250.06 153.18 270.11 155.45 290.16C155.47 290.31 155.59 290.46 155.67 290.61C151.75 293.14 147.69 294.87 142.97 292.97Z" fill="#FDC103"/>
<path d="M114.04 368.78C121.24 367.84 128.461 366.94 135.651 365.93C139.751 365.36 143.83 364.61 147.92 363.95C147.89 382.67 147.871 401.39 147.841 420.1C147.201 421.93 145.86 422.6 143.98 422.56C136.3 422.41 128.641 422.58 121.001 423.45C119.231 423.65 117.281 423.34 116.591 421.09C116.731 406.08 114.481 391.27 113.051 376.39C112.801 373.76 112.02 371.1 114.04 368.78Z" fill="#FEBF9F"/>
<path d="M83.9605 367.52C88.4505 369.66 93.3905 368.19 98.0105 369.24C100.611 371.02 99.9105 373.59 99.6205 376.04C97.8805 390.55 97.1105 405.15 95.6305 419.67C95.6405 421.85 94.5705 423.15 92.3705 423.12C84.4205 423.02 76.4906 422.5 68.5306 422.52C66.7206 422.52 65.3605 421.73 64.9505 419.8C64.0005 406.81 64.2005 393.79 64.0905 380.77C64.0505 375.81 65.7305 370.96 64.8705 365.98C68.0605 365.04 70.8405 367.75 74.0105 367.02C77.2505 368.62 80.7205 365.86 83.9605 367.52Z" fill="#FDC1A0"/>
<path d="M192.68 465.07C194.34 466.12 196.04 467.12 197.65 468.25C198.63 468.94 200.64 468.89 200.2 470.74C199.88 472.1 198.52 472.73 197.13 472.96C191.27 473.93 185.42 475.62 179.55 475.69C171.4 475.78 163.32 476.64 155.2 476.96C134.27 477.78 113.33 478.28 92.3903 477.84C74.1503 477.46 55.8803 477.11 37.7203 475.57C31.4603 475.04 24.8503 474.73 18.7003 472.64C17.4803 472.23 15.8703 471.85 15.5803 470.42C15.2003 468.6 17.0303 468.29 18.1603 468.03C21.7003 467.22 18.3103 462.53 21.7803 461.82C23.1603 463.47 22.1703 465.46 22.5603 467.26C24.7103 471.4 28.8303 471.14 32.4603 471.34C42.2403 471.86 52.0203 471.43 61.7503 470.25C70.6403 469.18 79.5403 468.2 88.3703 466.63C91.6103 466.06 93.6903 465.3 92.9403 460.89C92.1603 456.24 92.0003 451.32 93.2803 446.58C93.5603 446.03 94.0203 445.76 94.6403 445.78C97.4703 448.48 96.2603 451.99 96.4203 455.17C96.7103 460.85 97.0703 461.34 102.8 461.44C106.28 461.5 109.79 461.19 113.24 461.59C116.02 461.91 116.51 460.85 116.63 458.33C116.75 455.73 115.19 452.26 119.21 450.93C121.06 453.61 120.3 456.66 120.48 459.58C120.34 465.81 120.42 466.06 126.38 466.96C143.09 469.49 159.82 471.81 176.79 471.47C179.45 471.42 182.07 471.25 184.7 470.77C188.28 470.08 191.35 468.83 192.68 465.07Z" fill="#E3E2E3"/>
<path d="M119.25 459.96C119.09 456.94 118.93 453.92 118.77 450.91C117.56 449.39 117.69 447.78 118.46 446.13C120.42 444.16 122.45 445.25 124.33 446.16C129.81 448.82 135.56 450.67 141.47 452.07C142.56 453.7 143.8 453.67 145.17 452.42C152.95 454.23 160.26 453.21 166.98 448.74C167.58 448.34 168.24 448.45 168.88 448.69C174.65 451.65 180.43 454.57 186.17 457.57C188.53 458.8 190.85 460.15 191.67 462.98C191.43 468.32 190.66 468.98 185.13 469.34C168.95 470.39 152.89 468.9 136.88 466.85C133.24 466.38 129.56 466.36 125.94 465.86C122.47 465.38 119.35 464.33 119.25 459.96Z" fill="#F63E76"/>
<path d="M20.9605 466.82C20.5905 465.04 21.2005 463.42 21.7805 461.8C26.1005 457 32.0904 455.03 37.6804 452.35C39.8904 451.29 41.9704 449.99 44.1104 448.8C46.3604 447.9 47.7805 449.76 49.4005 450.59C55.0705 453.51 60.8005 454.59 66.8905 452.13C68.3005 449.94 70.3105 452.02 71.9605 451.4C78.0205 451.84 82.8904 448.23 88.3504 446.66C89.9704 446.19 92.1704 443.68 93.5004 447.21C93.4804 451.71 93.3304 456.2 93.5504 460.68C93.7004 463.63 92.5104 464.94 89.7404 465.36C82.6804 466.44 75.6305 467.79 68.5105 468.26C58.9005 468.89 49.2905 469.96 39.7005 470C33.4605 470.02 26.6405 471.05 20.9605 466.82Z" fill="#F63E76"/>
<path d="M13.91 69.94C13.91 73.91 13.91 77.88 13.91 83.29C20.25 65.96 32.7701 58.76 48.7801 57.39C56.2901 56.75 64.0701 57.84 70.4401 62.92C71.5901 63.84 72.8901 63.8 74.1401 64.16C74.0601 64.41 74.0201 64.66 73.9901 64.92C69.8101 67.55 64.9001 67.29 60.3301 68.34C53.3901 69.12 46.45 70.09 39.47 68.86C37.11 68.44 36.1001 69.65 35.6201 71.69C34.2201 73.96 31.9201 75.39 30.3201 77.53C23.1201 87.18 23.2001 99.88 32.6301 110.05C32.7901 110.7 33.3001 109.64 32.7801 110.05C31.5501 108.45 31.7501 107.04 33.3201 105.79C34.9601 106.25 35.0701 107.66 35.3301 108.98C35.2101 113.1 35.72 117.21 35.67 121.33C34.97 123.36 33.4201 124.3 31.4001 124.62C28.8801 124.52 28.2701 122.42 27.2801 120.71C25.2801 118.06 25.2401 113.18 19.9301 114.35C18.0801 113.45 17.0901 111.89 16.5601 109.97C16.3901 107.34 17.5 104.94 18.04 102.35C16.91 101.13 15.3301 103.52 14.2801 101.93C15.5101 96.21 10.2101 97.85 7.83008 96.2C9.99008 94.63 12.45 93.27 12.05 89.98C14.15 86.83 12.63 83.33 12.98 80.01C13.32 76.65 12.43 73.19 13.91 69.94Z" fill="#B70002"/>
<path d="M174.9 117.92C175.43 116.9 176.11 115.93 176.45 114.85C177.95 110.15 180.34 107.32 185.66 110.13C186.92 110.66 188.33 110.78 189.05 109.59C189.49 108.87 188.59 107.87 187.86 107.23C185.88 105.89 185.1 103.61 183.65 101.85C182.87 100.91 182.47 99.7099 183.18 98.6499C184.08 97.3099 185.4 98.1599 186.21 98.7199C189.9 101.28 188.49 96.5999 190.01 96.1399C189.85 99.0399 190.68 101.29 192.93 103.5C200.2 110.65 201.28 119.46 198.76 128.97C196.99 130.66 197.82 133.11 196.98 135.07C195.17 140.81 191.57 145.26 186.98 149.01L186.69 148.72C184.87 147.01 184.02 144.5 182.19 142.88C180.19 141.12 180.31 139.44 181.15 137.19C183.87 129.89 182.75 126.25 176.52 121.38C175.33 120.47 173.87 119.82 174.9 117.92Z" fill="#FAC09F"/>
<path d="M141.781 452.54C136.521 453.82 132.381 450.41 127.711 449.19C124.711 448.4 122.331 445.95 119.061 445.83C117.861 439.83 115.891 433.89 117.451 427.64C118.021 427.53 118.561 427.58 119.101 427.77C124.331 429.05 129.561 428.59 134.831 428.04C139.871 427.51 144.971 426.49 149.891 428.73C152.091 432.29 149.571 436.26 150.871 439.9C148.991 444.93 144.811 448.32 141.781 452.54Z" fill="#FDF5B3"/>
<path d="M93.0103 446.07C87.6903 448.15 82.3803 450.27 77.0303 452.3C75.0203 453.06 72.9102 453.71 71.1702 451.64C68.1902 447.95 64.4702 444.79 62.9902 440.04C63.0802 436.27 63.1602 432.5 63.2502 428.73C65.5602 426.87 68.3702 427.3 70.8802 427.59C78.5802 428.49 86.3402 428.22 94.0402 428.96C94.6202 429.19 95.1002 429.56 95.4902 430.05C97.3102 435.46 96.0302 440.63 94.2502 445.76L93.9302 445.92C93.6902 446.35 93.3803 446.4 93.0103 446.07Z" fill="#FDF6B2"/>
<path d="M14.2801 101.93C15.9401 101.06 17.6001 100.19 19.7601 99.0601C19.7701 103.3 18.0201 106.58 17.0601 110.04C16.8401 112.21 16.3501 114.59 19.9501 113.88C22.9301 111.85 25.0001 112.23 26.0801 115.99C26.4801 117.39 27.3801 118.65 28.0501 119.97C28.4101 122.21 26.6001 123.56 25.7701 125.28C23.9201 129.12 23.8301 132.98 25.3301 136.85C27.9101 143.48 27.2701 145.54 20.9401 150.03C6.98011 139.62 1.10014 115.9 14.2801 101.93Z" fill="#FBBF9F"/>
<path d="M175.841 221.16C173.611 209.5 171.721 197.77 168.341 186.34C167.631 183.92 167.11 183.06 164.42 183.78C162.41 184.32 160.14 183.85 157.98 183.83C158 183.49 158.01 182.98 158.19 182.93C164.05 181.21 169.791 178.73 176.141 180.1C178.351 182.82 178.49 186.22 179.18 189.44C180.99 197.86 182.89 206.26 184.62 214.69C185.04 216.75 185.501 218.98 183.901 220.89C181.211 220.73 178.591 222.94 175.841 221.16Z" fill="#FA8A05"/>
<path d="M119.251 459.96C120.281 463.71 123.591 464.48 126.591 464.76C142.041 466.22 157.511 467.56 172.991 468.57C178.071 468.9 183.221 468.09 188.351 467.82C191.571 467.65 190.421 464.49 191.681 462.98C192.021 463.68 192.351 464.37 192.691 465.07C193.581 469.82 190.471 471.14 186.781 471.94C179.551 473.5 172.231 473.24 164.941 472.82C151.681 472.06 138.501 470.46 125.411 468.22C118.431 467.01 118.441 466.93 119.251 459.96Z" fill="#B52653"/>
<path d="M35.8203 222.01C35.9003 221.71 35.9203 221.41 35.8503 221.1C37.1503 219.6 38.8503 219.82 40.4703 220.17C44.6903 221.09 48.8703 222.17 53.1103 223.03C57.3603 223.89 59.0703 226.73 58.5103 232.32C57.5103 242.24 56.7603 252.21 55.2103 262.06C53.9403 270.14 55.2503 278.38 53.2903 286.39C52.9303 287.86 53.1303 289.57 55.1103 289.89C56.9803 290.19 57.7203 288.74 58.2603 287.29C59.1903 284.76 59.4803 282.12 59.5303 279.45C59.7803 266.82 61.9803 254.31 62.0203 241.66C62.0303 236.51 62.4203 231.37 62.5903 226.23C62.7003 222.61 63.8603 219.71 67.6803 218.55C69.3703 218.78 71.5403 218.53 70.6703 221.43C67.3703 221.97 66.3003 223.69 66.3803 227.21C66.7103 241.94 64.3703 256.55 63.7603 271.27C63.4903 277.75 62.5703 284.4 61.9703 290.97C61.8403 292.38 61.4003 293.54 60.2403 294.39C56.1803 295.89 52.3603 295.91 49.0803 292.58C50.0303 284.04 51.0403 275.5 51.9203 266.95C53.1003 255.56 53.8903 244.12 55.4503 232.79C56.1003 228.05 54.3103 226.52 50.2803 225.65C45.4403 224.59 40.6503 223.23 35.8203 222.01Z" fill="#EBCC2F"/>
<path d="M142.971 292.97C147.201 292.19 151.431 291.41 155.661 290.63C157.461 296.07 159.271 301.51 161.081 306.96C160.831 307.98 160.451 308.76 159.191 308.91C154.001 309.55 144.801 303.42 144.111 298.2C143.861 296.38 140.851 295.17 142.971 292.97Z" fill="#20779C"/>
<path d="M49.1 292.56C52.57 293.99 56.2801 293.72 59.9001 294C60.5401 294.01 60.94 294.34 61.16 294.93C59.16 304.24 52.5901 310.67 44.8701 311.14C43.5101 311.22 43.1 310.84 42.79 309.79C44.18 304.89 45.62 300.01 46.92 295.09C47.27 293.8 48.22 293.27 49.1 292.56Z" fill="#20779E"/>
<path d="M20.96 150.04C21.8 149.03 22.6399 148.02 23.4799 147.02C25.6999 144.38 27.63 142.38 24.58 138.35C20.78 133.33 22.8499 125.57 28.0499 119.98C29.2799 121.21 29.0799 123.31 30.6899 124.3C31.0299 125.02 30.65 125.56 30.21 126.07C28.96 127.54 26.8799 128.83 28.6799 131.12C30.2099 133.07 32.1599 132.63 34.0999 131.68C34.7199 131.37 35.39 131.45 35.96 131.92C37.15 135.88 39.3099 132.83 40.4199 132.19C48.6599 127.42 57.34 127.02 66.34 129.07C66.93 129.21 67.4499 129.68 67.9999 130C61.6099 129.91 55.2099 128.94 48.8599 130.58C38.3599 133.29 31.0299 140.34 24.4399 148.37C23.4899 149.52 22.99 151.03 21.15 150.95C21.04 150.67 20.97 150.36 20.96 150.04Z" fill="#DE9D7D"/>
<path d="M168.88 448.68C162.47 453.78 155.28 455.73 147.17 454.1C146.31 453.93 145.57 453.74 145.19 452.88C145.65 447.06 150.6 444.54 154.02 440.91C158.02 445.31 163.82 446.3 168.88 448.68Z" fill="#F5F3B6"/>
<path d="M133.99 7.03993C133.73 7.45993 133.53 7.93994 133.2 8.29994C128.21 13.8599 128.23 16.2799 134.48 20.6199C138.91 23.6899 140.93 28.8499 145.86 31.2499C144.01 33.3399 143.31 31.8499 142.61 31.1599C137.98 26.5999 133.33 22.0699 128.86 17.3599C127.08 15.4899 125.91 15.3199 124.13 17.3399C121.28 20.5799 118.12 23.5599 115.16 26.7099C114.45 27.4699 113.92 28.3199 112.45 27.4399C115.47 24.2799 118.31 21.0199 121.47 18.0899C124.44 15.3399 124.75 13.5499 121.79 10.0399C116.35 3.56993 110.15 0.919927 101.82 1.92993C97.2304 2.48993 92.5204 1.96994 87.8604 1.93994C98.9104 0.189937 109.95 -0.200064 120.99 1.93994C120.43 2.96994 119.26 2.70993 118.39 3.14993C119.21 3.61993 119.93 4.16993 120.63 4.74993C126.55 9.70993 126.55 9.69993 132.48 5.72993C133.32 5.80993 133.77 6.28993 133.99 7.03993Z" fill="#B70002"/>
<path d="M68.0504 452.85C61.1104 456.1 54.5003 455.2 48.1703 451.19C46.8403 450.35 46.0804 448.54 44.1104 448.8C47.7604 448.41 50.8804 446.74 54.1404 445.19C56.3304 444.14 57.7803 442.81 59.0403 440.97C63.5603 443.77 67.0304 447.38 68.0504 452.85Z" fill="#FCF1B7"/>
<path d="M201.01 186.37C197.74 180.59 196.75 173.92 193.84 168C193.85 167.17 193.74 166.32 193.9 165.52C194.19 164.07 192.18 162.24 193.77 161.42C195.75 160.39 197.04 162.58 198.17 163.88C201.34 167.53 203.9 171.52 205.3 176.27C206.7 181.02 205.86 184.47 201.01 186.37Z" fill="#65DBF0"/>
<path d="M5.76033 176.8C3.97033 174.08 -0.229676 172.49 1.19032 168.23C2.92032 163.05 5.19032 158.12 9.87032 154.79C10.5803 154.29 11.4103 153.82 12.1403 154.27C13.3203 155 12.4903 156.07 12.1503 156.88C10.1003 161.74 10.1203 166.83 10.2603 171.95C10.1303 174.83 7.80033 175.69 5.76033 176.8Z" fill="#69D9F0"/>
<path d="M63.1602 426.92C63.4502 425.9 63.7502 424.88 64.0402 423.85C67.4202 421.34 71.2602 422.72 74.8402 422.84C81.0302 423.04 87.2602 422.32 93.4302 423.39C94.4302 423.56 95.3602 423.85 96.1302 424.53C97.2002 426.63 97.9602 428.67 95.1002 430.02C94.9702 429.9 94.8602 429.78 94.7502 429.64C92.9502 428.46 90.9002 428.81 88.9802 428.93C81.2402 429.42 73.6302 427.3 65.8902 427.84C64.8802 427.92 63.9302 427.63 63.1602 426.92Z" fill="#FBE2BF"/>
<path d="M149.75 423.68C149.51 424.76 149.36 425.84 149.95 426.87C149.54 427.14 149.18 427.58 148.68 427.59C139.36 427.68 130.11 429.46 120.75 428.84C119.75 428.77 118.83 428.45 117.98 427.9L117.75 427.81C116.08 426.44 115.47 425.03 117.57 423.5C125.25 423.57 132.88 422.19 140.58 422.64C143.65 422.82 146.85 421.95 149.75 423.68Z" fill="#FDF5B3"/>
<path d="M132.901 6.09996C132.391 6.73996 131.95 7.44995 131.36 7.99995C128.36 10.79 125.5 13.33 122.26 7.99995C121.03 5.97995 118.75 4.58995 116.48 2.47995C118.31 2.26995 119.66 2.10995 121.01 1.94995C124.44 2.16995 127.81 2.73995 131.04 3.94995C131.34 4.93995 133.691 4.15996 132.901 6.09996Z" fill="#B70002"/>
<path d="M149.751 423.68C140.321 423.99 130.891 424.34 121.461 424.59C120.011 424.63 118.541 424.24 117.081 424.05C116.441 423.27 116.421 422.52 117.201 421.81C122.791 421.7 128.381 421.59 133.971 421.49C137.281 421.43 140.631 421.05 143.881 421.48C145.731 421.73 146.531 420.5 147.851 420.11C149.071 420.98 150.891 421.53 149.751 423.68Z" fill="#D1566E"/>
<path d="M95.8299 424.72C85.2499 423.7 74.6399 423.82 64.0299 423.86C61.8899 421.96 63.3699 420.87 64.9499 419.8C66.5799 420.8 67.9699 421.39 70.2499 421.18C75.1199 420.73 80.1499 421.99 85.0199 421.52C88.3799 421.2 91.8499 423.62 95.0499 421.09C97.7699 421.77 96.8799 423.23 95.8299 424.72Z" fill="#D05C6C"/>
<path d="M196.97 135.08C196.26 132.66 193.76 129.72 198.76 128.98C199.97 131.37 202.66 131.21 204.63 132.27C206.85 133.48 208.41 134.79 208.15 137.59C208.01 139.13 207.3 140 205.92 140.49C203.19 141.45 202.1 139.48 200.81 137.73C199.85 136.43 199 134.87 196.97 135.08Z" fill="#71D6EA"/>
<path d="M63.1602 426.92C72.8502 427.21 82.5502 427.49 92.2402 427.78C93.4802 427.82 95.1102 427.42 94.7602 429.64C84.2402 430.09 73.7602 429.09 63.2702 428.72C63.2202 428.13 63.1902 427.53 63.1602 426.92Z" fill="#CE6974"/>
<path d="M154.02 440.9C152.03 445.6 147.12 448.14 145.19 452.87C143.96 453.73 142.65 455.32 141.78 452.53C143.1 447.08 147.32 443.72 150.88 439.88C152.04 439.87 153.19 439.9 154.02 440.9Z" fill="#DA4A65"/>
<path d="M117.98 427.89C128.63 427.55 139.29 427.21 149.94 426.86C149.92 427.48 149.911 428.1 149.891 428.72C140.961 429.04 132.03 429.42 123.1 429.62C121.32 429.66 118.98 430.53 117.98 427.89Z" fill="#C96270"/>
<path d="M68.05 452.85C65.84 448.29 61.76 445.14 59.04 440.96C60.08 439.45 61.5901 439.96 63.0001 440.04C66.1301 443.62 69.7401 446.87 71.1801 451.64C70.4701 452.9 68.47 450.83 68.05 452.85Z" fill="#D6495F"/>
<path d="M5.76074 176.8C5.82074 173.84 9.27074 174.04 10.2607 171.95C11.1907 171.61 12.1307 171.27 13.0607 170.93C13.8507 174.96 11.0607 181.72 8.00073 183.19C7.25073 181.06 6.50074 178.93 5.76074 176.8Z" fill="#9B1D1C"/>
<path d="M21.0607 44.99C19.2707 50.97 18.4708 57.41 13.0908 61.67C11.6408 62.82 12.7608 64.04 12.9608 65.24C10.9608 65.05 9.1707 64.36 6.9707 62.55C13.5707 61.36 16.1307 56.99 17.6107 51.47C18.2307 49.14 19.1107 46.72 21.0607 44.99Z" fill="#A12B2B"/>
<path d="M132.9 6.09996C132.28 5.37996 131.66 4.66995 131.04 3.94995C137.45 5.29995 143.81 6.75995 149.03 11.09C146.01 11.24 143.16 10.83 140.92 8.52995C138.93 6.48995 136.38 7.15996 133.99 7.04996C133.63 6.72996 133.26 6.40996 132.9 6.09996Z" fill="#A02627"/>
<path d="M12.0501 89.97C14.2501 95.22 13.8301 95.84 7.83014 96.19C6.67014 95.71 5.51012 95.24 4.12012 94.67C7.01012 92.96 9.53011 91.46 12.0501 89.97Z" fill="#9C1F25"/>
<path d="M163.21 19.8999C159.23 19.7899 157.16 16.9 154.95 14.21C158.46 15 160.87 17.3999 163.21 19.8999Z" fill="#A02627"/>
<path d="M95.83 424.72C96.21 423.38 96.8499 421.97 95.0499 421.1C92.8299 415.72 95.1299 410.39 95.5399 405.12C96.3999 394.11 96.8299 383.03 98.7399 372.11C98.8899 371.23 98.2699 370.21 97.9999 369.25C103.33 368.46 108.68 368.84 114.03 368.79C115.18 380.91 116.36 393.02 117.47 405.14C117.92 410.05 118.27 414.97 118.52 419.9C118.55 420.52 117.65 421.18 117.18 421.82C117.14 422.56 117.1 423.31 117.06 424.06C116.68 425.42 117.41 426.58 117.74 427.82C118.28 432.74 118.72 437.67 119.44 442.57C119.62 443.81 119.36 444.78 119.04 445.85C118.94 447.54 118.84 449.23 118.75 450.92C117.17 454.07 118.33 457.45 117.98 460.7C117.84 461.99 118.17 463.2 115.93 463.09C110.29 462.81 104.63 462.85 98.9799 462.92C95.8599 462.96 95.0899 461.38 94.9799 458.57C94.7999 454.31 95.8599 449.96 94.2399 445.78C93.2499 440.47 95.75 435.34 95.08 430.05C96.68 428.44 95.83 426.52 95.83 424.72Z" fill="#FEFEFE"/>
<path d="M78.4207 186.85L78.8207 187C81.7607 190.48 80.0808 194.65 80.5308 198.49C80.4308 202.11 79.9307 205.78 82.2307 209.04C82.9207 210.03 82.6807 211.27 82.6807 212.43C82.6707 218.38 82.7607 218.17 88.8007 218.58C98.9007 219.25 108.931 216.79 119.021 218.06C121.001 218.31 122.161 217.45 122.521 215.45C122.751 214.16 122.911 212.8 124.101 211.93C127.391 213.02 125.891 217.07 128.301 218.71C128.621 219.49 128.611 220.25 128.141 220.98C111.121 221.06 94.0907 221.15 77.0707 221.23C75.6207 222.42 73.2107 223.79 72.4207 222.13C71.3307 219.85 67.8607 217.78 70.3307 214.43C76.4707 212.31 76.4707 212.31 76.4907 205.42C76.5007 200.98 76.3907 196.54 76.5507 192.11C76.6207 190.21 76.3007 188.06 78.4207 186.85Z" fill="#EBCC2F"/>
<path d="M61.1702 294.92C60.7502 294.61 60.3302 294.3 59.9102 293.99C62.0902 291.1 61.4902 287.56 61.7502 284.39C63.3102 265.09 64.6102 245.76 65.7102 226.43C65.9202 222.74 66.6602 220.67 70.7002 221.14C72.3302 222.74 72.2902 224.16 70.2402 225.35C69.8002 224.44 69.2902 223.35 68.2002 223.44C66.8802 223.55 66.9802 224.85 67.0602 225.79C68.1502 239.38 64.1302 252.77 65.1702 266.28C65.8602 275.3 61.0102 283.64 62.8802 292.65C63.0802 293.62 62.0602 294.4 61.1702 294.92Z" fill="#53A6B9"/>
<path d="M91.8799 256.75C93.5899 256.61 93.9999 257.72 94.7799 258.24C97.2699 259.9 99.2399 258.58 101.05 257.05C102.96 255.43 101.6 254.18 100.39 252.94C99.6699 252.2 98.9699 251.16 100.24 250.49C102.4 249.35 104.79 249.57 107 250.32C108.14 250.71 108.2 252.13 107.33 252.78C105.35 254.27 104.7 255.51 106.92 257.39C108.95 259.12 110.94 259.63 113.23 258.09C113.97 257.59 114.67 257.02 116.28 255.8C112.63 261.67 110.22 262.14 105.91 258.3C104.22 256.8 103.62 256.45 101.8 258.37C98.0399 262.32 94.6099 261.65 91.8799 256.75Z" fill="#10648B"/>
<path d="M70.2402 225.36C71.2702 224.05 70.9902 222.6 70.7002 221.14C70.5302 219.64 69.4402 219.11 68.1902 218.73C67.1102 218.66 66.7402 218 66.7502 217.01C67.1202 216.22 67.7302 215.63 68.4002 215.1C68.7702 214.85 69.1602 214.82 69.5502 215.03C69.8002 217.02 71.6402 218.16 72.0102 220.28C72.7002 224.25 75.5002 219.99 77.0602 221.21C77.0402 222.37 76.9502 223.53 77.0202 224.69C77.1502 226.96 77.1402 229.34 74.3002 229.69C71.3702 230.05 70.2002 228.12 70.2402 225.36Z" fill="#CFF5F8"/>
<path d="M128.141 220.97C128.041 220.29 127.951 219.6 127.851 218.92C127.951 217.41 128.751 217.3 129.901 217.89C130.341 221.06 130.331 221.03 132.891 219.89C134.301 219.26 134.531 220.37 134.821 221.32C134.881 222.47 134.921 223.62 135.011 224.77C135.211 227.26 134.481 229.14 131.631 229.09C128.501 229.04 127.731 227.04 128.371 224.35C128.661 223.15 128.461 222.08 128.141 220.97Z" fill="#CEF1F3"/>
<path d="M83.9603 367.52C80.6203 367.75 77.2503 368.64 74.0103 367.02C75.7503 366.93 77.4803 366.83 79.9603 366.7C77.5203 364.07 75.5102 361.98 73.6002 359.8C73.0602 359.18 72.7903 358.26 73.5203 357.58C74.3403 356.81 75.1002 357.49 75.6002 358.08C78.3102 361.28 82.3003 363.37 83.9603 367.52Z" fill="#43A2C8"/>
<path d="M97.4303 245.81C93.6803 240.81 90.4603 238.4 86.8103 244.02C86.3603 244.71 85.7203 244.62 85.1203 244.19C84.4603 243.7 84.5503 243.04 84.8503 242.42C86.2903 239.46 88.6803 237.68 91.9503 238.22C95.2303 238.76 98.2103 240.12 97.4303 245.81Z" fill="#0E5F87"/>
<path d="M116.75 238.07C118.83 238.11 120.57 239.04 121.94 240.59C122.79 241.55 124.13 242.82 123.04 244.01C121.37 245.83 121.05 243.43 120.27 242.69C117.57 240.12 115.08 239.96 112.78 243.21C112.24 243.97 111.62 245.18 110.51 244.2C109.6 243.39 110.26 242.37 110.88 241.55C112.34 239.6 114.25 238.38 116.75 238.07Z" fill="#0D6187"/>
<path d="M67.7702 217.66C67.9102 218.02 68.0602 218.38 68.2002 218.74C64.7802 220.9 64.0302 223.96 63.8702 227.97C63.1402 246.27 61.9902 264.55 60.8902 282.83C60.7602 284.95 59.8402 287 59.4702 289.12C58.8802 292.48 56.4002 292.14 54.1102 291.87C51.5202 291.57 51.1502 289.65 51.3702 287.45C52.9402 271.84 54.4902 256.22 56.0902 240.61C56.4102 237.49 57.1102 234.4 57.3202 231.27C57.5102 228.42 57.4002 224.82 53.8402 224.57C47.6602 224.13 42.1202 220.87 35.8802 221.09C35.2702 221.03 34.6702 220.96 34.0602 220.9C32.8002 219.45 33.1902 217.81 33.5602 216.2C35.7302 206.56 37.8902 196.92 40.0602 187.29C40.5502 185.14 40.8002 182.54 43.8902 182.24C46.8102 182.51 49.7802 182.36 52.6002 183.36C55.9702 185.37 59.7002 184.39 63.2802 184.58C69.3702 184.89 70.8102 186.58 69.7602 192.7C69.2502 195.66 69.4102 198.63 69.4502 201.59C69.5102 207.02 69.4802 212.42 67.7702 217.66Z" fill="#FDC103"/>
<path d="M85.9003 164.79C77.1803 166.9 71.3403 155.87 71.8603 148.78C71.9403 147.67 72.4703 147 73.2603 146.32C74.3703 145.36 75.4602 144.53 74.1602 142.64C71.9502 139.43 75.1903 137.66 76.7403 135.77C78.1803 134.02 80.0603 131.71 82.9003 134.05C92.7403 139.51 103.32 138.19 113.84 137.48C117.6 137.23 120.65 135.08 124.05 133.91C128.21 131 130.2 134.76 131.93 137.03C138.42 145.56 136.8 158.01 127.82 164.04C124.81 165.12 122.33 164.65 120.73 161.62C118.6 157.6 113.85 157.37 110.79 154.7C110.99 152.87 110.98 151.06 110.11 149.37C109.5 148.19 108.94 146.7 107.51 146.58C105.91 146.45 106.25 148.22 105.75 149.16C104.67 151.18 103.46 151.98 101.6 149.91C100.73 148.94 101.34 146.27 99.0402 147.08C96.9102 147.83 95.6902 149.74 95.5402 152.12C95.4802 153.15 96.0203 154.04 96.2803 155C92.7503 158.17 89.5003 161.66 85.9003 164.79Z" fill="#6F150A"/>
<path d="M34.8105 121.69C33.7705 117.53 34.0705 113.3 34.1105 109.09C35.1805 108.82 35.6805 109.55 35.8705 110.34C36.8205 114.24 39.6805 114.94 43.0805 114.74C44.6505 114.65 46.7705 115.24 47.2405 113.09C47.7505 110.75 45.8205 109.99 43.9605 109.6C40.7905 108.93 38.0705 107.52 35.9205 105.07C34.9205 103.94 34.1105 102.71 33.9805 101.14C35.9705 94.0701 35.2705 86.76 35.9805 79.58C41.7005 72.0001 58.4905 71.71 65.1005 77.93C67.0605 79.77 70.0305 80.96 70.1705 84.3C65.7805 88.99 60.3205 88.83 54.6505 87.74C55.0205 85.01 53.3205 85.08 51.4005 85.3C41.6005 86.4 40.5805 90.6901 42.3405 98.2901C42.9105 100.75 44.4505 102.67 47.1005 102.54C49.8305 102.41 49.5205 99.88 49.7905 97.97C50.1305 95.46 50.4605 92.8 53.5405 92.27C55.9705 91.85 57.6805 93.04 58.2805 95.55C56.7205 99.68 52.2305 102.26 52.1505 107.18C51.3005 110.29 50.7605 113.37 53.0005 116.19C54.2305 118.37 56.8105 119.96 55.9605 123.03C52.6405 123.68 49.5605 125.53 46.0005 125.04C43.5905 120.27 39.3205 122.88 35.8105 122.47C35.3605 122.4 35.0105 122.14 34.8105 121.69Z" fill="#FEBFA0"/>
<path d="M154.95 115.99C153.08 122.63 149.01 125.8 142.12 126C137.97 126.12 133.88 125.89 129.76 125.15C124.98 124.29 121.66 121.66 120.38 117.31C118.98 112.55 119.97 107.8 123.4 103.91C124.82 102.3 126.44 100.88 127.97 99.37C130.89 95.17 135.3 94.99 139.78 95.04C149.55 95.69 157.86 105.5 154.95 115.99Z" fill="#F8F6F2"/>
<path d="M56.0006 123.02C54.8606 120.86 53.8706 118.59 51.9206 116.98C51.4206 114.64 50.7306 112.31 51.2206 109.87C52.1106 105.1 54.7606 101.42 58.4406 98.4C60.5106 96.83 62.7506 95.59 65.2906 94.96C70.7706 93.97 75.5306 95.72 79.9106 98.85C81.6606 100.51 83.5706 102.03 84.8906 104.11C84.2506 107.12 86.9606 109.16 87.0806 112.06C87.3406 118.56 85.4606 122.18 79.3206 124.22C71.4706 126.84 63.5506 127.53 56.0006 123.02Z" fill="#F8F5F3"/>
<path d="M43.8099 183.04C40.5999 186.31 40.8198 190.73 39.9098 194.77C37.9398 203.48 35.9998 212.2 34.0498 220.91C32.7298 220.93 31.4099 220.98 30.0799 220.98C26.3399 220.99 24.6498 219.79 25.6598 215.5C28.4298 203.73 30.7999 191.87 33.3299 180.04C38.2599 178.59 41.8799 179.63 43.8099 183.04Z" fill="#FA8A06"/>
<path d="M79.1803 199.05C79.0603 195.03 78.9403 191.01 78.8203 187C81.1903 186.06 83.8603 186 83.9703 189.02C84.3003 197.76 89.8103 201.07 97.2103 202.51C103 203.64 108.76 203.42 114.3 201.06C119.14 199 121.11 195.39 120.93 189C120.15 187.25 121.04 186.46 122.63 186.37C124.51 186.26 125.81 187.4 126.5 189C127.8 192.01 127.48 195.16 126.95 198.29C118.43 212.04 97.7503 212.79 87.7803 206.93C84.3703 204.92 80.6003 203.25 79.1803 199.05Z" fill="#F68E0E"/>
<path d="M84.8901 104.11C82.5201 103.67 81.2201 101.94 80.0201 100.08C79.7801 98.9798 78.9501 98.0998 78.9001 96.9298C79.0101 93.0898 77.8501 89.4499 77.0901 85.7599C77.0901 85.2899 77.1601 84.8299 77.2801 84.3799C78.9401 81.8699 79.9501 79.6198 75.3601 79.6098C70.1101 76.4098 66.0001 71.5598 60.1501 69.1998C59.3801 68.8898 59.3501 67.8598 60.0301 67.1198C64.6901 66.4598 69.1901 64.7798 73.9801 64.9298C77.8701 69.6698 82.1701 74.0598 84.1201 80.1598C86.6801 88.1198 88.5801 95.9998 84.8901 104.11Z" fill="#FEBFA0"/>
<path d="M139.08 175.87C141.15 172.35 145.27 171.74 148.34 169.7C152.06 167.23 155.4 164.37 158.84 161.61C160.7 160.12 162.13 157.2 164.97 158.34C167.93 159.53 170.18 161.81 170.15 165.45C168.89 169.49 166.13 171.81 161.96 172.17C159.34 172.39 157.65 173.46 156.75 175.95C155.3 179.95 151.32 181.03 148.26 183.18C145.01 182.77 142.33 181.07 139.67 179.33C138.95 178.26 138.23 177.2 139.08 175.87Z" fill="#4ECAC6"/>
<path d="M147.6 182.65C148.13 181.28 149.23 180.7 150.57 180.31C155.03 178.99 155.02 173.81 157.7 171.62C160.14 169.62 165.17 171.67 167.84 167.99C168.51 167.07 169.38 166.29 170.16 165.45C174.55 166.64 174 170.7 174.95 173.84C175.56 175.86 175.77 178.01 176.15 180.1C170.1 181.35 164.04 182.59 157.99 183.83C154.69 184.14 151.38 184.45 148.08 184.76C147.4 184.17 147.2 183.48 147.6 182.65Z" fill="#B10707"/>
<path d="M125.78 198.95C125.84 196.14 126.02 193.32 125.9 190.51C125.83 188.93 124.69 187.77 123.21 187.22C121.68 186.66 121.15 187.7 120.93 188.99C116.81 191.52 112.31 189.9 108.07 189.85C100.08 189.77 92.76 187.09 86.5 181.72C92.17 181.87 97.66 183.28 103.34 183.1C107.29 182.97 111.19 183.2 115.03 181.93C117.42 181.14 119.73 181.15 120.97 183.98C122.33 182.8 123.85 182.68 125.47 183.34C126.94 184.6 127.26 186.48 128.04 188.12C128.86 193.86 128.36 199.62 128.42 205.37C128.45 208.36 128.69 211.27 129.62 214.12C129 215.43 129.33 216.67 129.91 217.89C129.23 218.23 128.55 218.58 127.86 218.92C123.3 218.08 125.73 214.35 124.97 211.94C124.09 207.54 124.1 203.19 125.78 198.95Z" fill="#E1A385"/>
<path d="M124.07 133.9C122.13 138.36 117.77 138.58 114 139C106.92 139.78 99.7302 140.02 92.6402 139.1C88.9302 138.62 84.9902 137.97 82.9102 134.05C83.8402 132.01 85.6302 131.97 87.5102 131.98C98.3902 132 109.27 131.97 120.14 131.98C121.74 131.98 123.58 131.59 124.07 133.9Z" fill="#FBF8F5"/>
<path d="M110.93 154.19C116.21 155.22 120.47 157.81 123.06 162.63C124.28 164.91 126.19 163.83 127.85 164.05C124.73 166.08 121.32 165.29 118.25 164.44C108.9 161.82 99.6504 161.85 90.3104 164.33C88.9004 164.71 87.3704 164.66 85.9004 164.8C88.1604 160.4 91.1804 156.8 95.9904 155.04C100.89 153.42 105.87 153.11 110.93 154.19Z" fill="#D86C5D"/>
<path d="M35.9307 168.8C36.3207 164.1 40.9206 162.48 43.0406 159.05C47.0406 157.43 48.0507 160.79 49.7307 163.05C53.2007 168.29 59.2407 169.91 64.0507 173.26C64.4307 176.28 62.4807 177.72 60.2107 178.96C58.3407 179.63 56.5807 180.68 54.4907 180.54C50.1007 180 46.7107 178.05 45.1707 173.69C44.3507 171.37 42.8207 170.32 40.3907 170.3C38.7807 170.28 37.0507 170.35 35.9307 168.8Z" fill="#50CAC6"/>
<path d="M69.56 215.04L69.39 214.92C68.48 207.42 69.02 199.9 69.31 192.4C69.39 190.41 69.57 188.44 69.37 186.46C71.94 181.8 74.95 184.49 77.88 185.96C78.06 186.26 78.25 186.56 78.43 186.86C78.32 193.98 78.05 201.1 78.17 208.21C78.28 214.58 78.47 214.58 72.06 214.97C71.22 215.02 70.39 215.02 69.56 215.04Z" fill="#53A6B9"/>
<path d="M35.9301 168.8C37.4001 168.97 38.8701 169.32 40.3301 169.27C43.4901 169.15 45.7001 169.29 46.4601 173.5C47.2501 177.86 51.7301 178.9 55.5301 180.06C56.2701 181.46 56.19 182.81 55.29 184.12C54.22 184.91 53.1501 184.69 52.0901 184.08C49.3501 183.56 46.4001 184.8 43.8101 183.04C40.7201 180.63 36.8301 181 33.3301 180.04C34.2001 176.29 35.0601 172.55 35.9301 168.8Z" fill="#AF0A08"/>
<path d="M149.11 92.3399C140.78 92.3499 133.451 89.7099 127.401 83.9099C126.031 82.5999 124.09 80.9199 126.31 78.9199C128.28 77.1499 129.561 79.0999 130.841 80.3499C136.431 85.8099 143.28 87.5899 150.91 87.4399C153.05 87.3999 156.741 85.6899 156.881 89.5899C157.021 93.3799 153.31 91.9199 151.1 92.3099C150.46 92.4399 149.78 92.3399 149.11 92.3399Z" fill="#691109"/>
<path d="M174.9 117.92C175.01 119.27 176 119.61 177.06 120.22C183.03 123.67 185.65 130.14 182.9 136.17C181.34 139.58 181.51 141.65 184.27 144.13C185.42 145.17 187 146.63 186.7 148.74C183.17 148.31 183.06 144.44 180.67 142.76C178.26 141.07 176.4 138.62 174.05 136.83C171.73 135.05 169.1 133.68 166.19 131.86C168.01 130.99 170.77 133.38 170.91 130.01C173.36 129.44 177.05 131.95 178 127.78C178.85 124.08 175.32 123.35 172.94 122.01C172.36 121.68 171.79 121.36 171.79 120.57C171.78 120.33 171.86 120.11 172.02 119.93C173.85 120.51 173.83 118.44 174.9 117.92Z" fill="#DC9573"/>
<path d="M171.78 120.57C172.87 120.91 174.1 121.04 175.04 121.62C177.77 123.33 181.52 124.87 179.17 129.09C177.09 132.84 173.97 132.54 170.89 130C168.12 126.91 164.88 124.5 161.03 122.88C160.35 122.59 159.5 121.89 159.39 121.26C159.18 120.04 160.41 119.69 161.32 119.41C164.97 118.29 168.38 119.46 171.78 120.57Z" fill="#71C6CF"/>
<path d="M60.0203 178.21C62.0303 177.1 63.0603 175.19 64.0603 173.26C69.2503 175.9 74.5903 178.19 80.2003 179.76C82.3103 180.35 84.7703 180.47 83.9603 183.59C83.1903 186.59 80.7903 184.73 79.0803 184.94C78.7603 184.98 78.4203 184.91 78.0903 184.89C72.3703 184.95 67.1503 183.04 62.0603 180.69C61.0203 180.22 59.9703 179.63 60.0203 178.21Z" fill="#A90F10"/>
<path d="M122.701 36.1399C125.071 38.4599 123.991 40.4099 122.141 42.4099C116.581 48.4199 113.201 56.1399 106.991 61.6499C106.351 62.2199 106.041 63.0299 106.611 63.8599C107.291 64.8499 108.171 64.7499 109.221 64.4499C111.251 63.8599 113.181 62.6999 115.431 63.1499C109.521 67.0099 102.791 67.4999 95.8105 67.7799C108.411 60.2099 116.531 48.9999 122.701 36.1399Z" fill="#A21713"/>
<path d="M49.73 163.05C46.68 163.08 46.4 158.49 43.04 159.05C46.13 156.51 49.0501 158.99 51.9501 159.54C55.0201 160.12 57.9501 161.42 60.9401 162.43C62.7901 163.05 64.4801 162.39 65.2101 160.9C65.9501 159.38 64.0301 158.88 63.1201 158.03C60.2201 155.29 56.2901 154.4 51.8901 152.51C59.0801 150.77 64.4201 154.9 71.5701 153.86C68.1301 157.41 65.4401 155.06 62.8201 155.11C63.9401 157.53 68.04 158.28 66.55 161.51C64.84 165.22 61.08 164.13 58.1 163.86C55.32 163.61 52.59 162.74 49.73 163.05Z" fill="#DCA281"/>
<path d="M156.18 137.43C149.68 137.3 143.83 139.57 137.64 141.97C138.07 139.56 140.5 140.03 141.25 138.27C139 137.02 135.9 135.95 137.11 132.33C138.15 129.23 141.01 129.42 143.64 128.94C147.87 128.16 152.03 127.54 156.66 128.51C155.39 130.62 153.6 129.96 152.18 129.93C148.52 129.87 144.92 130.07 141.38 131.04C140.01 131.42 138.55 132.2 138.66 133.53C138.79 135.1 140.34 135.96 141.99 135.9C143.46 135.85 144.95 135.66 146.39 135.34C149.89 134.56 153.11 135.2 156.18 137.43Z" fill="#DF9E81"/>
<path d="M35.9704 131.92C33.9104 132.69 32.2204 134.93 29.6604 133.68C28.0004 132.87 26.3404 131.68 26.2504 129.74C26.1204 126.8 28.9305 125.9 30.7005 124.31C32.0705 123.44 33.4404 122.57 34.8104 121.7L35.0105 122.13C35.2905 122.3 35.5805 122.44 35.8905 122.52C37.8805 123.07 40.7205 123.1 40.9605 125.48C41.1805 127.61 38.7105 128.79 36.9505 129.93C36.6305 130.58 36.3004 131.25 35.9704 131.92Z" fill="#6FBAC6"/>
<path d="M125.981 184.08C124.311 184.04 122.641 184.01 120.971 183.97C121.161 182.89 120.731 181.28 122.071 180.97C127.851 179.62 133.061 176.36 139.081 175.86C139.411 176.94 139.731 178.02 140.061 179.1C136.191 183.09 131.401 184.48 125.981 184.08Z" fill="#9E1E1B"/>
<path d="M154.95 115.99C154.95 104.69 150.45 98.6698 139.99 95.9298C139.42 95.4498 138.42 95.1999 139.03 94.0999C151.77 95.3899 157.69 102.31 156.03 113.97C155.92 114.78 155.87 115.62 154.95 115.99Z" fill="#683725"/>
<path d="M68.0101 130.01C70.8201 129.96 73.4001 131.1 73.2001 133.97C72.9901 137.02 70.1501 136.73 67.4801 137.47C62.3501 138.88 57.7301 137.27 52.8701 137.5C56.4901 135.07 60.4101 134.52 64.5101 135.39C66.6301 135.84 68.9301 136.9 70.4401 134.67C72.2401 132.01 68.3001 131.86 68.0101 130.01Z" fill="#DE9D7D"/>
<path d="M36.9608 129.92C38.0908 128.58 39.2308 127.25 40.3408 125.93C39.7308 122.95 35.4007 125.32 35.0107 122.12C38.0107 120.24 41.3407 120.98 44.5107 121.17C47.1107 121.32 47.0807 123.12 46.0407 125.03C42.0307 124.82 40.7408 129.69 36.9608 129.92Z" fill="#BAD5D5"/>
<path d="M159.58 151.04C152.66 156.39 146.22 156.29 139.57 154.99C145.81 153.87 151.71 150.93 159.58 151.04Z" fill="#E1A686"/>
<path d="M96.9805 126.64C97.2305 122.11 99.5605 119.76 104.091 119.99C108.101 120.19 110.19 122.36 110.36 126.44C108.3 124.55 106.92 121.89 103.5 121.94C100.06 121.98 99.2505 125.09 96.9805 126.64Z" fill="#BD7D5E"/>
<path d="M53.6807 144.97C57.5707 143.61 57.5707 143.61 68.1507 146.41C65.7507 148.21 60.1007 147.65 53.6807 144.97Z" fill="#E0A583"/>
<path d="M139.03 94.0999C139.35 94.7099 139.67 95.3199 139.99 95.9299C135.73 96.1999 131.45 96.3799 127.97 99.3699C126.08 97.4599 128.44 97.1799 129.19 96.7199C132.18 94.8799 135.36 93.4999 139.03 94.0999Z" fill="#683725"/>
<path d="M167.171 115.9C165.871 115.67 165.001 114.88 165.061 113.57C165.131 112.05 166.081 111.11 167.681 111.22C169.031 111.31 169.871 112.2 169.811 113.52C169.761 115.05 168.791 115.89 167.171 115.9Z" fill="#FCEDDE"/>
<path d="M187.86 107.24C189.47 107.77 190.47 109 191.85 110.72C189.46 111.33 187.55 111.15 185.66 110.14C187.41 109.94 188.14 108.98 187.86 107.24Z" fill="#A5261D"/>
<path d="M129.62 214.12C126.85 213.82 126.98 211.88 126.98 209.79C126.98 201.9 127.73 194 126.65 186.13C129.48 183.49 132.33 182.53 135.25 186.01C136.47 194.21 135.82 202.48 136.1 210.71C136.28 216.13 131.9 213.22 129.62 214.12Z" fill="#4BA3B9"/>
<path d="M93.0098 446.07C93.2898 445.86 93.5998 445.81 93.9398 445.91C94.4198 452.02 93.5098 458.18 94.7098 464.26C95.1298 466.37 93.9798 467.22 92.0298 467.53C72.0498 470.77 52.0498 473.85 31.7098 472.73C29.0998 472.59 26.4698 471.88 23.9498 471.13C21.9998 470.55 20.2098 469.47 20.9698 466.82C33.4298 469.23 45.8698 468.02 58.4098 467.24C68.8398 466.59 79.1098 465.13 89.4598 464C92.2898 463.69 93.1698 462.71 93.0898 460.02C92.9298 455.38 93.0198 450.73 93.0098 446.07Z" fill="#B32653"/>
<path d="M60.0399 67.1198C60.4299 70.0898 63.42 69.3198 65.07 70.2398C69.32 72.6198 71.98 76.8098 76.18 79.1198C76.45 80.0998 75.97 80.8298 75.42 81.5498C74.19 82.8598 72.8499 83.9798 71.0399 84.3898C70.5699 84.3898 70.2199 84.1798 69.9699 83.7798C67.2999 81.5598 64.95 78.6598 61.9 77.2698C54.87 74.0598 47.58 73.3298 40.52 77.7098C39.45 78.3698 38.1599 78.6598 36.9699 79.1198C36.4299 79.3598 35.98 79.2598 35.59 78.8098C34.69 76.6498 33.78 74.4798 34.9 72.1098C33.21 67.6498 35.08 66.3698 39.25 67.3698C46.22 69.0498 53.1199 67.4898 60.0399 67.1198Z" fill="#F7BFA1"/>
<path d="M34.9103 72.1199C35.3403 74.3699 35.7803 76.6199 36.2103 78.8799C36.7503 80.5199 36.8303 82.2599 35.9603 83.7099C32.4803 89.4499 33.2803 95.4799 34.4503 101.58C34.5303 103.19 34.5803 104.79 33.1603 105.96C33.0803 107.61 32.9903 109.26 32.9103 110.91C24.0803 105.61 22.4403 92.9099 24.8503 85.5899C26.6403 80.0999 29.0103 74.6899 34.9103 72.1199Z" fill="#B20407"/>
<path d="M33.16 105.95C32.91 104.52 33.59 103.32 34.07 102.06C34.2 101.64 34.47 101.55 34.85 101.75C37.28 105.61 40.53 108.13 45.26 108.53C48.09 108.77 49.14 110.51 49.05 113.33C48.95 116.56 46.69 115.94 44.8 116C36.98 116.26 36.45 115.9 34.12 109.08C33.79 108.04 33.47 106.99 33.16 105.95Z" fill="#F6BFA1"/>
<path d="M19.96 113.88C18.21 114.62 16.4599 115.36 13.4199 116.64C15.0199 113.74 16.0399 111.89 17.0599 110.04C18.0299 111.32 19 112.6 19.96 113.88Z" fill="#8E2B1C"/>
<path d="M189.92 128.84C189.88 130.26 189.53 131.64 187.89 131.61C186.38 131.59 185.05 130.85 185 129C184.97 127.53 185.59 126.41 187.13 126.24C188.96 126.05 189.73 127.19 189.92 128.84Z" fill="#FCECD5"/>
<path d="M19.0403 122.18C20.9103 122.2 21.8203 123 21.9803 124.55C22.1503 126.22 21.6203 127.59 19.7603 127.82C18.1503 128.01 17.3003 126.98 17.0903 125.49C16.8603 123.79 17.6503 122.66 19.0403 122.18Z" fill="#FBEDD7"/>
<path d="M125.78 198.95C125.78 203.3 126.87 207.72 124.97 211.95C122.38 214.01 125.94 218.33 122.34 219.75C119.47 220.88 116.57 218.57 113.53 218.97C104.3 220.19 95 219.77 85.72 220.05C81.95 220.16 80.31 218.9 81.05 215.25C82.2 209.61 77.2 204.75 79.17 199.06C88.09 207.74 98.47 210.73 110.79 208.1C117.09 206.75 121.05 202.39 125.78 198.95Z" fill="#FBC005"/>
<path d="M55.0701 183.76C59.9701 184.43 64.8701 185.11 69.7701 185.78C70.0301 195.5 70.0401 205.21 69.3801 214.92C68.8401 215.83 68.3001 216.74 67.7601 217.66C68.0101 209.12 67.94 200.55 68.6 192.04C69.01 186.87 68.91 186.43 63.79 185.96C59.87 185.6 55.4701 187.74 52.0801 184.08C53.0801 183.97 54.0701 183.87 55.0701 183.76Z" fill="#EBCC2F"/>
<path d="M110.93 154.19C106.03 155.85 101.03 155.69 95.9899 155.03C92.7199 154.02 93.9299 151.78 94.6499 149.81C95.6999 146.92 98.1999 145.06 100.85 144.57C102.66 144.24 101.71 146.92 102.02 148.24C102.25 149.22 102.39 150.37 103.66 150.27C104.58 150.2 104.75 149.22 104.96 148.38C105.31 146.94 104.03 144.53 106.49 144.3C108.67 144.1 110.08 146.09 110.85 147.87C111.69 149.83 113.9 152.07 110.93 154.19Z" fill="#2F0503"/>
<path d="M58.0199 95.64C56.6999 94.11 55.29 92.35 53.03 93.4C50.93 94.38 50.9699 96.6 51.0099 98.61C51.0699 101.17 51.2499 103.86 47.7199 104.17C44.5299 104.45 42.08 102.63 41.28 99.92C40.1 95.93 38.8199 91.02 41.9399 87.83C45.9899 83.68 51.5499 82.67 57.3699 84.87C56.7199 86.68 54.7199 85.54 54.0499 86.85C53.4999 88.17 51.6099 87.8 51.1499 89.19C54.6799 92.35 58.9999 89.87 62.8099 90.89C63.3099 90.95 63.7899 91.05 64.2699 91.18C65.9399 92.06 68.5799 91.25 69.1899 93.98C68.2899 95.14 66.9899 94.95 65.7699 95.01C63.4599 94.99 61.2499 95.57 59.0599 96.27C58.5699 96.31 58.2199 96.1 58.0199 95.64Z" fill="#F7C0A1"/>
<path d="M34.8501 101.75C34.6001 101.86 34.3401 101.97 34.0701 102.06C31.3801 95.5499 30.4401 89.1499 35.2401 83.1099C36.2501 81.8399 35.7901 80.2599 36.2101 78.8699C36.4701 78.9499 36.7201 79.0399 36.9801 79.1199C37.0301 86.7399 37.9601 94.4399 34.8501 101.75Z" fill="#B70002"/>
<path d="M64.0898 92.2C63.6998 92.1 63.3198 92.01 62.9298 91.91C61.4398 89.39 58.9498 89.42 56.4598 89.27C54.0598 89.13 51.5098 89.88 49.3398 88.2C50.4198 86.03 52.5298 87.46 54.0498 86.84C59.5998 87.09 65.1998 87.64 69.9598 83.77C70.2598 83.78 70.5598 83.81 70.8598 83.86C72.2898 84.9 72.6398 86.56 73.2898 88.05C73.0998 89.86 71.4998 90.1 70.2798 90.78C68.3398 91.78 66.2598 92.2 64.0898 92.2Z" fill="#691109"/>
<path d="M59.1808 99.1999C55.9408 101.88 53.5908 105.2 52.2108 109.18C51.1808 108.87 51.7808 107.72 51.2008 107.18C51.0308 101.89 54.8308 98.9399 58.0308 95.6399C58.1308 95.8599 58.1408 96.0799 58.0708 96.3099C59.0808 97.0299 59.0808 98.1299 59.1808 99.1999Z" fill="#683725"/>
<path d="M51.1999 107.18C51.5399 107.85 51.8699 108.51 52.2099 109.18C52.1099 111.78 52.0199 114.37 51.9199 116.97C49.8399 113.85 49.8499 110.56 51.1999 107.18Z" fill="#673927"/>
<path d="M131.93 102.81C137.95 100.84 142.17 101.9 144.93 106.06C147.84 110.43 147.5 114.37 143.89 118.35C142.69 117.71 142.52 115.54 140.36 116.1C140.41 118.02 142.61 117.74 143.24 118.95C139.93 122.61 135.52 123.36 131.35 120.98C126.89 118.43 125.31 113.78 126.98 108.09C127.35 107.71 127.76 107.67 128.21 107.93C129.79 110.12 130.67 113.31 134.46 112.43C135.86 112.1 136.94 111.32 137.07 109.8C137.39 105.97 133.8 105.73 131.71 104.1C131.53 103.62 131.6 103.2 131.93 102.81Z" fill="#672A20"/>
<path d="M143.25 118.95C141.2 119.34 139.13 119.58 138.48 116.92C138.11 115.41 139.11 114.39 140.46 113.96C141.88 113.51 143.17 114.06 143.71 115.44C144.05 116.3 143.86 117.38 143.9 118.36C143.68 118.55 143.46 118.75 143.25 118.95Z" fill="#EBD5CB"/>
<path d="M131.93 102.81C131.97 103.25 132.01 103.7 132.04 104.14C131.67 106.3 130.241 107.44 128.281 108.08C127.851 108.08 127.41 108.08 126.98 108.07C127.67 105.42 129.23 103.59 131.93 102.81Z" fill="#691109"/>
<path d="M76.0006 121.06C71.4806 123.4 67.5506 122.45 64.0706 118.93C63.8806 115.25 67.0905 114.69 69.2905 113.21C72.6205 111.36 72.2406 108.19 72.1506 105.12C72.8306 103.23 73.9206 102.07 76.1206 102.91C76.7305 103.3 77.3506 103.7 77.9606 104.09C79.8706 107.21 77.6505 109.77 76.8505 112.53C75.5905 114.35 73.7106 116.05 75.6406 118.53C76.0706 119.33 76.6306 120.12 76.0006 121.06Z" fill="#691109"/>
<path d="M76.1198 102.92C73.9098 102.85 73.1898 104.29 72.8698 106.14C72.2198 106.34 71.5698 106.25 70.9498 106.01C68.4998 105.08 66.2598 105.28 65.1898 107.92C63.9798 110.9 66.3398 111.93 68.4798 112.91C69.0798 113.18 69.6398 113.5 70.0298 114.06C67.7698 115.35 65.2698 116.36 64.0598 118.94C60.5398 114.37 60.0798 109.45 62.8398 105.74C65.8198 101.73 70.7198 100.69 76.1198 102.92Z" fill="#691109"/>
<path d="M75.9908 112.99C75.5508 109.78 78.4608 107.32 77.9608 104.1C81.3608 107.13 82.7908 110.73 81.1808 115.21C80.3408 113.9 79.6308 115.01 78.8708 115.35C77.3008 115.29 76.3608 114.49 75.9908 112.99Z" fill="#691109"/>
<path d="M64.8703 94.1999C66.2303 94.0799 67.6003 93.9699 68.9603 93.8499C69.7903 93.0299 70.8103 93.0798 71.8603 93.2098C75.0503 93.9898 78.4303 94.4499 79.9903 97.9999C80.0403 98.6899 81.0803 99.3699 80.0203 100.07C75.5003 97.0399 70.6803 95.1899 65.1103 96.1299C64.4203 95.5799 64.4003 94.9199 64.8703 94.1999Z" fill="#683725"/>
<path d="M64.8708 94.1998C64.9508 94.8498 65.0308 95.4998 65.1108 96.1398C63.1308 97.1598 61.1508 98.1798 59.1708 99.1998C57.9408 98.5698 58.0808 97.3998 58.0508 96.3098C59.9208 94.2698 62.1608 93.4898 64.8708 94.1998Z" fill="#683725"/>
<path d="M78.8907 115.16C79.4707 114.4 80.0507 113.65 80.6207 112.89C80.8107 113.66 80.9907 114.43 81.1807 115.21C80.2707 117.88 79.0907 120.32 76.0007 121.06C75.6707 120.4 75.3407 119.73 75.0107 119.07C75.9807 117.44 77.3807 116.25 78.8907 115.16Z" fill="#691109"/>
<path d="M79.9901 98.0099C77.6801 95.9099 74.66 95.2999 71.91 94.1199C71.79 92.5299 70.62 91.4099 70.04 90.0199C71.06 89.3899 72.08 88.7499 73.11 88.1199C73.98 85.9299 75.5701 84.8299 77.9401 84.8999C79.3301 89.1599 80.5701 93.4399 79.9901 98.0099Z" fill="#F4BFA3"/>
<path d="M77.9399 84.8998C76.3299 85.9698 74.7199 87.0398 73.1099 88.1198C70.4899 87.6998 70.9799 85.6399 70.8799 83.8899C72.2299 82.9099 73.5799 81.9199 74.9299 80.9399C77.2399 80.7599 78.2999 81.8299 78.1299 84.1399C78.0799 84.3799 78.0199 84.6398 77.9399 84.8998Z" fill="#621710"/>
<path d="M78.1199 84.1198C77.1999 82.9098 76.4399 81.5399 74.9199 80.9199C75.3399 80.3199 75.7599 79.7198 76.1699 79.1198C77.6799 77.9598 79.2399 77.8199 80.2399 79.5699C81.5899 81.8999 79.6299 82.9698 78.1199 84.1198Z" fill="#691109"/>
<path d="M49.3504 88.2099C52.8104 88.1399 56.2605 87.9399 59.7105 88.0499C62.0105 88.1199 64.0705 88.79 62.9305 91.92C59.4705 92.04 56.0104 92.27 52.5504 92.23C50.0704 92.2 48.2904 91.2499 49.3504 88.2099Z" fill="#6C0B06"/>
<path d="M70.0398 90.02C72.4198 90.59 74.1898 91.43 71.9098 94.12C70.9298 94.04 69.9498 93.95 68.9598 93.86C67.6898 92.27 65.3398 93.85 64.0898 92.21C65.8598 90.9 68.0098 90.6 70.0398 90.02Z" fill="#FEBFA0"/>
<path d="M128.291 108.09C129.541 106.78 130.791 105.46 132.051 104.15C134.911 104.05 137.311 104.7 138.411 107.74C139.121 109.71 138.461 111.3 137.191 112.75C135.691 114.46 133.751 114.77 131.751 114.02C129.081 113.02 128.091 110.86 128.291 108.09Z" fill="#F3EBED"/>
<path d="M70.0408 114.06C67.0208 114.29 64.4008 113.58 63.4408 110.36C62.7508 108.04 64.0208 106.17 65.8308 104.9C68.4808 103.04 70.7608 104.38 72.8808 106.14C74.0808 109.54 73.5408 112.33 70.0408 114.06Z" fill="#F6F1EC"/>
<path d="M78.8903 115.16C78.8803 117.74 77.5603 119.01 75.0103 119.07C72.2403 116.54 72.6903 114.53 76.0003 112.99C76.9603 113.71 77.9203 114.44 78.8903 115.16Z" fill="#F2DCD4"/>
</svg>
