<svg width="231" height="451" viewBox="0 0 231 451" fill="none" xmlns="http://www.w3.org/2000/svg">
<path d="M59.6074 264.665C67.1874 261.185 75.3874 261.225 83.4474 260.545C89.4474 261.525 95.2774 259.045 101.277 259.715C103.417 259.955 104.417 258.305 104.507 256.645C104.697 253.055 105.447 249.385 104.007 245.855C104.037 244.815 104.067 243.785 104.097 242.745C104.187 242.655 104.347 242.565 104.337 242.495C104.307 242.285 104.207 242.085 104.127 241.875C104.137 241.155 104.147 240.445 104.157 239.725C104.227 239.645 104.377 239.545 104.367 239.485C104.337 239.295 104.237 239.115 104.157 238.925C103.487 232.235 103.817 225.515 103.057 218.785C102.567 214.445 101.457 209.665 103.727 205.285C105.247 206.905 107.157 207.605 108.977 206.215C110.637 204.945 111.077 203.035 109.907 200.965C109.617 200.465 109.837 199.675 109.827 199.015C115.767 198.845 121.707 198.705 127.447 196.935C129.027 196.845 130.607 196.755 132.177 196.665C133.207 196.635 134.237 196.605 135.267 196.575C136.207 196.535 137.147 196.495 138.087 196.445C142.767 196.945 147.357 196.475 151.857 195.095C154.297 194.975 154.967 196.605 155.317 198.575C155.257 198.895 155.177 199.225 155.127 199.545C154.857 201.345 154.397 203.245 156.307 204.475C157.507 205.255 158.887 205.225 160.047 204.405C161.817 203.145 161.597 201.385 161.217 199.495C160.897 197.905 160.967 196.225 160.867 194.595C163.187 194.675 165.507 194.785 167.827 194.825C169.417 194.855 171.197 195.075 171.257 196.915C171.447 202.555 174.427 207.835 173.357 213.615C167.977 211.205 164.247 214.475 160.257 217.245C156.617 219.775 153.857 226.815 155.297 230.755C160.237 244.275 160.237 244.275 174.757 243.915C175.587 243.895 176.417 243.855 177.247 243.825C179.897 251.425 179.397 259.425 180.227 267.255C180.437 269.225 180.227 271.265 181.987 272.715C180.917 272.885 180.437 273.165 180.487 274.595C180.717 282.035 188.687 292.925 199.437 292.795C202.687 306.035 205.247 319.415 207.237 332.895C205.747 334.075 204.677 333.335 203.587 332.195C202.517 331.065 201.527 329.735 199.717 329.745C199.667 328.465 198.987 327.805 197.717 327.745C197.557 327.045 197.597 326.175 196.497 326.255C196.387 326.265 196.197 326.455 196.187 326.565C196.137 327.655 196.997 327.615 197.707 327.755C197.737 329.055 198.417 329.705 199.697 329.755C202.067 333.165 202.997 336.085 197.327 336.815C197.117 336.845 196.957 337.315 196.777 337.575C196.217 337.715 195.657 337.855 195.097 337.995C194.207 337.765 193.367 337.765 192.757 338.605C186.527 340.585 179.777 339.735 173.607 342.085C162.717 343.105 151.847 342.805 140.987 341.545C134.597 339.245 127.747 338.645 121.457 335.845C114.547 332.765 108.167 329.175 103.847 322.695C102.897 321.265 101.327 320.605 99.7874 319.975C98.5074 319.265 97.8674 317.445 95.9874 317.785C97.0374 315.945 96.6774 314.465 95.1974 312.925C93.9574 311.635 93.0074 310.035 92.0274 308.515C84.2074 296.415 78.4074 283.115 70.0474 271.315C67.3974 267.555 64.2174 265.135 59.6074 264.665ZM120.087 235.075C123.437 239.595 126.537 240.355 129.877 237.135C131.997 235.095 133.107 235.045 135.517 236.815C139.577 239.785 143.797 237.865 144.197 233.155C143.207 233.995 142.447 234.965 141.447 235.415C139.297 236.395 137.407 235.865 135.537 234.285C133.297 232.395 135.327 231.755 136.197 230.565C136.977 229.495 136.887 228.415 135.417 227.795C133.137 226.835 130.937 226.665 128.887 228.315C127.737 229.235 127.647 230.395 128.857 231.185C132.257 233.395 130.057 234.825 128.297 236.445C125.237 239.265 123.057 235.435 120.087 235.075ZM150.797 218.985C149.257 216.345 147.067 214.725 143.977 214.885C140.497 215.075 138.127 216.965 137.147 220.365C137.047 220.705 137.397 221.415 137.717 221.575C138.577 221.995 139.237 221.555 139.757 220.775C142.227 217.105 144.947 216.375 148.047 220.105C148.597 220.775 149.437 221.085 150.197 220.385C150.517 220.105 150.577 219.555 150.797 218.985ZM125.577 221.355C123.737 218.785 121.567 216.565 118.287 216.965C115.237 217.335 112.717 219.045 111.907 222.355C111.827 222.695 112.217 223.375 112.567 223.555C113.397 223.975 114.137 223.665 114.647 222.845C116.937 219.155 119.557 218.715 122.577 222.045C123.157 222.685 123.957 223.055 124.787 222.635C125.137 222.465 125.277 221.875 125.577 221.355Z" fill="#44A2C8"/>
<path d="M167.648 71.8448C179.428 80.1948 181.408 91.9048 179.068 105.095C178.668 107.345 178.178 109.575 177.728 111.805C175.368 112.675 174.418 114.815 173.108 116.705C170.138 120.995 166.738 124.825 161.008 125.185C158.978 125.315 157.998 126.445 157.748 128.275C157.258 131.905 155.588 135.115 154.198 138.425C150.418 143.855 146.638 149.275 142.858 154.705C140.778 155.905 141.208 158.105 140.848 159.935C138.668 171.115 132.688 178.925 121.408 182.095C118.418 182.935 115.628 183.025 113.828 179.825C123.038 177.335 128.818 170.625 134.208 163.325C126.828 168.005 119.028 171.785 111.478 176.015C110.138 175.815 108.818 175.745 107.578 176.425C104.598 176.915 101.618 177.405 98.6276 177.895C94.7576 177.875 90.8876 177.865 87.0276 177.845C84.7976 177.995 82.5776 178.145 80.3476 178.305C72.9676 176.455 65.0476 176.455 58.6576 171.285C55.9976 169.135 53.9876 166.145 50.6576 164.835C52.0976 162.185 52.6676 160.025 48.8576 158.655C45.8976 157.585 44.2676 155.015 43.7876 151.835C48.6176 153.345 53.2775 153.765 56.9875 149.395C59.8075 146.065 58.4876 142.665 54.1576 141.885C47.7376 140.725 43.7576 144.555 43.7976 151.845C41.8076 151.755 41.5876 150.105 40.6276 148.835C38.0876 145.485 38.7276 139.575 32.8776 138.835C32.7676 138.545 32.6676 138.255 32.5776 137.955C32.9176 136.605 32.4776 135.435 32.0176 134.145C28.2876 123.625 22.9976 113.885 17.5276 104.215C16.2976 101.505 15.0676 98.7948 13.8276 96.0848C12.5876 93.3648 11.0876 90.6148 12.0476 87.5248C13.8676 81.6848 15.5876 75.7848 17.9076 70.1348C20.1876 64.5848 22.4276 63.9448 28.1376 65.7748C33.0276 67.3348 37.3876 70.2948 42.5076 71.2648L42.6376 71.3148C44.1976 72.2848 45.8676 72.9248 47.7276 72.9548C59.7076 77.3948 71.2176 76.4948 79.5976 70.2548C74.4176 69.9748 69.6375 69.0648 64.9275 67.7148C64.2275 67.4148 63.5376 67.1148 62.8376 66.8148C56.5076 63.1148 50.1776 59.4148 43.8476 55.7148C44.1076 54.5848 45.0976 54.9248 45.8176 54.7248C57.8776 58.2848 70.1475 60.7448 82.7375 61.3748C81.7775 61.7148 80.8176 62.0548 78.5076 62.8748C82.9276 62.8748 85.9076 63.1148 88.8276 62.8048C91.2576 62.5448 88.7976 61.7748 88.7876 61.2248C89.9376 61.1048 91.0875 60.9848 92.2375 60.8648C105.078 59.5448 117.358 56.5348 128.198 49.0948H128.518L128.778 48.9048C131.248 51.7848 131.358 55.5848 132.678 58.9148C136.548 68.6048 139.578 78.7448 147.628 86.1248C147.938 86.4048 148.238 86.6848 148.548 86.9648C149.848 89.1048 152.288 89.8048 154.058 91.3448C153.738 95.6748 155.088 99.7948 155.808 103.985C156.268 106.655 156.548 110.035 159.938 110.695C163.528 111.395 165.038 108.195 166.738 105.855C168.558 103.345 169.058 100.415 168.738 97.3448C168.478 94.8948 168.008 92.6348 164.738 92.8748C166.028 91.2548 168.688 92.1148 169.968 90.0648C168.258 88.8648 166.658 87.7348 165.058 86.6148L164.858 86.7848L165.018 86.5848C162.958 83.8148 160.728 81.1648 158.908 78.2548C157.558 76.0848 155.188 73.3248 156.278 71.2248C157.528 68.7948 161.088 70.2448 163.648 70.0348V70.0148C164.978 70.5848 166.308 71.2148 167.648 71.8448ZM112.788 151.865C113.618 151.985 114.308 151.855 114.428 150.825C114.628 150.625 114.748 150.395 114.788 150.115C120.358 145.805 122.338 139.895 121.728 133.185C120.968 124.775 118.098 123.145 109.938 125.915C102.578 127.835 95.6576 130.965 88.7676 134.065C84.0376 136.195 78.6676 137.095 74.7076 140.835C70.3676 142.075 68.7476 144.685 70.9375 148.885C74.7175 156.145 80.6875 160.215 88.9275 160.785C93.0175 162.155 97.0175 162.425 100.808 159.895C101.888 159.845 103.058 160.045 103.748 158.855L103.788 158.825C106.348 158.355 108.838 157.785 109.788 154.875L109.798 154.865C111.058 154.815 111.878 154.305 111.808 152.885L111.798 152.875C112.478 152.885 112.798 152.535 112.788 151.865ZM124.838 87.6848C124.118 91.6348 121.578 91.9748 118.248 92.0248C109.708 92.1548 101.188 99.2248 99.8675 106.865C99.5475 108.745 98.9776 111.175 101.778 111.715C104.148 112.175 104.698 110.345 105.148 108.385C105.908 105.065 107.528 102.145 110.478 100.265C116.298 96.5648 122.248 95.9948 128.088 100.195C130.188 101.705 133.488 101.895 132.928 99.6048C132.038 95.9448 134.998 93.2148 134.168 89.7348C131.428 90.8148 130.128 93.7748 127.088 93.6248C126.078 91.9148 127.428 89.5048 124.838 87.6848ZM36.9176 131.505C39.2376 132.645 41.1476 133.115 42.3476 134.305C43.3176 135.265 43.3875 137.215 45.4275 136.705C47.6575 136.145 47.0476 134.065 47.4076 132.575C49.4276 124.205 57.3376 120.575 65.1476 124.455C66.6276 125.185 68.3476 127.185 69.6376 124.405C70.6876 122.165 68.8075 121.095 67.2475 120.145C61.1775 116.425 53.3676 117.075 47.9676 122.375C45.7076 124.595 43.7676 125.375 39.6076 123.245C44.6176 129.055 40.5376 129.865 36.9176 131.505ZM141.078 105.815C136.668 106.755 132.018 107.585 129.588 112.275C127.338 116.625 129.338 120.105 134.178 119.725C138.498 119.385 142.738 117.995 145.428 114.235C146.458 112.795 148.668 111.315 147.168 109.005C145.818 106.945 143.708 105.995 141.078 105.815ZM122.438 63.2148C125.118 64.1948 126.528 63.9348 126.908 62.3848C127.418 60.2948 125.828 59.3748 124.088 59.0448C112.558 56.7948 102.498 60.0348 93.6276 67.4348C92.5176 68.3648 91.1375 69.4548 92.7375 71.1048C94.2175 72.6348 95.3576 71.5448 96.5976 70.6048C104.648 64.5548 113.688 62.2848 122.438 63.2148ZM48.2475 88.1948C46.4475 88.4748 44.5875 88.5548 42.8675 89.0848C35.8675 91.2548 29.8776 94.8448 26.2576 101.555C25.5676 102.825 25.3076 104.155 26.6376 105.095C27.7676 105.895 28.9476 105.505 29.6076 104.335C33.8176 96.9348 40.3576 93.4148 48.6376 92.5948C50.0376 92.4548 50.9876 91.5548 50.7276 89.8148C50.4976 88.1948 49.4975 88.0648 48.2475 88.1948ZM93.2076 123.935C91.0676 120.145 87.8476 119.625 84.1876 121.545C81.0676 123.185 80.4976 125.515 81.9976 128.995C83.7576 121.345 86.5476 120.145 93.2076 123.935Z" fill="#FBC0A0"/>
<path d="M148.537 86.9448C148.227 86.6648 147.927 86.3848 147.617 86.1048C147.947 84.3148 147.147 83.0348 146.087 81.6148C141.837 75.9348 138.537 69.8348 136.377 62.9248C134.927 58.2748 132.417 53.9048 131.217 49.0648C130.897 47.7748 129.817 45.4548 128.757 48.8948L128.497 49.0848H128.177C125.347 49.5648 122.157 47.9848 119.657 50.1048C113.607 55.2448 106.657 57.7948 98.7571 57.8748L98.7471 57.8648C98.2571 55.0448 99.8171 53.2348 101.677 51.3948C112.327 40.8448 122.917 30.2348 133.487 19.5948C134.647 18.4248 136.407 17.4948 136.337 15.3348C134.847 15.0948 134.197 15.9148 133.527 16.5948C119.767 30.3948 106.007 44.2048 92.2571 58.0148C91.5471 58.7248 91.2571 60.5048 89.7471 58.8948C90.6271 55.9048 90.3372 53.8648 86.7272 52.6448C84.0972 51.7448 83.8071 42.0548 86.0071 40.4448C87.8271 39.1148 96.3871 39.9448 98.1871 41.6648C99.0071 42.4448 99.8771 44.0748 100.877 43.3448C102.057 42.4748 102.927 40.7948 103.237 39.3148C103.417 38.4548 102.237 37.3148 101.697 36.2948C100.117 33.2948 100.347 25.6348 102.047 24.4448C103.727 23.2548 112.327 23.9048 113.917 25.3148C114.917 26.2048 115.777 28.5348 117.247 27.0148C118.437 25.7748 120.697 23.8448 118.507 21.5048C116.587 19.4648 116.727 16.9948 116.737 14.4748C116.747 7.75483 114.417 5.85483 107.857 7.39483C104.047 8.28483 100.237 7.77483 96.4271 7.81483C95.3771 7.82483 94.2971 7.28484 94.3171 6.15484C94.3371 4.76484 95.6472 4.96484 96.5972 4.93484C97.9272 4.88484 99.2672 5.02483 100.597 4.89483C105.977 4.39483 111.497 6.04483 116.767 3.89483C122.427 2.97483 127.127 7.02483 132.627 6.95483L132.747 6.98483C133.187 7.76483 133.897 7.96484 134.727 7.90484L134.757 7.92483C137.147 13.9948 142.907 15.9148 148.007 18.6448C147.747 21.3248 149.297 22.4748 151.647 22.9448L151.707 22.9948C151.847 25.7748 151.517 28.8748 155.697 28.9548L155.937 29.0948C155.937 29.0948 155.887 29.3648 155.897 29.3648C156.197 29.8748 156.507 30.3748 156.807 30.8748V30.8648C156.927 33.0348 155.647 35.9848 159.677 35.9548L159.927 36.1448L159.887 36.4548C159.277 39.8948 160.357 43.0048 161.807 46.0148C163.607 49.7448 165.607 53.3748 163.847 57.7548C163.617 58.3148 163.307 59.3348 164.217 59.8648C166.787 61.3448 166.927 62.0648 166.787 66.6648C166.717 68.9648 165.937 70.0648 163.637 70.0248V70.0448C163.597 68.6148 164.167 67.0548 161.437 67.4948C153.257 68.8148 152.397 70.2648 156.077 77.6248C156.297 78.0648 156.337 78.7448 156.677 78.9648C159.877 81.0548 159.277 87.3048 165.007 86.6048L164.847 86.8048L165.047 86.6348C163.467 90.9548 158.297 92.6748 155.477 89.1848C153.257 86.3848 151.027 87.0448 148.537 86.9448Z" fill="#B40405"/>
<path d="M177.257 243.845C176.427 243.875 175.597 243.915 174.767 243.935C160.237 244.295 160.237 244.295 155.307 230.775C153.867 226.835 156.627 219.795 160.267 217.265C164.257 214.485 167.987 211.225 173.367 213.635C175.167 214.835 177.207 214.925 179.277 214.935C182.517 216.445 185.777 218.085 188.197 213.695C191.477 212.125 194.077 209.805 195.817 206.575C197.297 205.995 197.967 204.635 198.917 203.505C205.857 195.395 211.727 186.385 219.347 178.845C230.327 184.375 234.977 195.375 224.827 207.195C215.727 217.795 205.237 226.815 194.287 235.345C192.917 236.415 191.717 237.385 191.367 239.135C186.037 238.825 182.417 243.645 177.257 243.845ZM162.227 220.265C166.217 220.945 168.747 220.275 171.497 218.215C168.107 217.385 165.567 217.875 162.227 220.265Z" fill="#FBC0A0"/>
<path d="M141.007 341.575C151.867 342.835 162.737 343.135 173.627 342.115C177.357 346.055 175.657 351.225 176.487 355.775C178.457 366.605 179.507 377.605 181.147 388.495C181.567 391.295 181.837 394.055 181.787 396.865C177.627 397.865 173.497 399.525 169.297 399.685C164.647 399.865 160.407 401.925 155.787 401.805C152.437 394.155 151.497 385.825 149.137 377.885C146.027 367.415 143.937 356.635 141.307 346.015C140.937 344.495 140.877 343.065 141.007 341.575Z" fill="#FBC0A0"/>
<path d="M188.198 213.685C185.778 218.075 182.518 216.445 179.278 214.925C178.418 213.975 177.728 212.985 178.648 211.685C172.158 208.765 174.448 202.485 173.388 197.555C172.748 194.595 172.048 192.495 168.378 193.085C167.118 193.285 165.608 193.795 164.908 191.565C163.478 186.995 161.638 182.545 159.958 178.055C158.038 169.645 156.107 161.235 154.188 152.825C157.547 149.615 162.368 151.265 166.088 149.255C166.258 149.155 166.437 149.055 166.617 148.975L166.638 148.905C166.618 153.305 169.678 156.975 169.798 161.255C169.948 166.295 172.978 167.695 177.078 167.425C180.858 167.165 185.318 168.755 188.008 164.385C189.068 164.715 189.738 164.125 190.358 163.415C193.088 165.505 194.118 161.775 196.208 161.705C201.588 164.235 206.898 166.905 211.698 170.465C211.788 172.055 211.098 173.325 210.098 174.475C202.568 183.095 195.148 191.805 188.538 201.175C186.208 201.255 185.528 202.695 186.418 204.505C187.868 207.445 187.298 210.695 188.198 213.685Z" fill="#F8BD0A"/>
<path d="M59.6075 264.665C64.2175 265.125 67.3975 267.555 70.0775 271.325C78.4275 283.135 84.2275 296.425 92.0575 308.525C93.0375 310.045 93.9775 311.645 95.2275 312.935C96.7075 314.475 97.0775 315.955 96.0175 317.795L95.7375 317.805C93.7575 318.365 91.7475 317.825 89.6775 319.195C87.1075 320.905 83.9275 322.045 81.2275 323.495C77.9575 325.265 73.2475 325.435 71.6075 329.805C71.0375 329.795 70.4675 329.785 69.8975 329.775C65.8675 319.585 59.7275 310.465 55.1175 300.575C52.9475 295.925 50.4075 291.445 48.4675 286.715C44.3375 276.655 48.2975 267.975 57.3275 265.625C58.1175 265.435 58.8475 264.995 59.6075 264.665Z" fill="#FBC0A0"/>
<path d="M101.627 241.985C84.2267 245.085 66.7868 245.475 49.2868 242.785C45.1168 242.145 41.5468 239.865 37.5468 238.795C35.6868 238.295 34.8667 236.785 34.8067 235.055C34.7267 232.755 34.3868 230.675 33.6068 228.405C32.5968 225.455 35.9168 224.615 38.3968 223.305C35.5068 219.535 34.9367 216.255 40.6767 214.645C42.5867 214.105 41.5568 212.055 41.9568 210.725C49.4668 214.095 57.0068 217.295 65.5268 214.745C66.5868 217.775 69.3568 219.755 70.6068 222.555C71.9768 225.615 74.0268 226.375 76.9068 225.775C85.2768 224.025 93.5668 221.955 101.467 218.585C101.517 226.375 101.567 234.175 101.627 241.985ZM50.3968 221.495C50.3568 223.275 55.9967 222.255 51.5567 225.175C50.5267 225.855 50.9868 226.885 51.2968 227.865C52.0668 230.305 51.3068 231.865 48.7768 232.855C45.0568 234.305 50.4768 236.145 48.7168 238.055C47.8968 238.945 48.8568 240.035 50.0868 239.755C53.5668 238.955 57.4568 239.355 60.3268 236.675C63.1968 234.005 65.4767 231.215 61.2367 227.685C59.4967 226.235 59.2467 223.925 58.8067 221.845C58.2067 219.015 56.9268 218.145 54.2768 219.775C53.0768 220.515 51.6768 220.945 50.3968 221.495Z" fill="#FBC0A0"/>
<path d="M65.517 214.735C56.997 217.285 49.457 214.085 41.947 210.715C40.397 208.805 40.397 208.805 42.837 202.695C42.557 202.615 42.267 202.435 42.007 202.485C39.927 202.855 39.297 206.655 36.437 204.995C34.537 203.895 30.527 194.365 31.287 193.005C31.647 192.355 32.507 191.955 33.197 191.535C38.867 188.095 43.807 183.705 48.877 179.475C55.697 180.225 63.427 174.995 69.267 182.675C69.777 183.345 71.787 182.875 73.107 182.935C74.977 190.495 77.987 197.635 81.037 204.775C81.517 205.905 82.967 207.365 81.457 208.255C79.377 209.485 76.957 210.505 74.597 210.735C73.237 210.865 73.027 208.655 72.767 207.205C72.337 204.795 71.747 202.415 70.967 198.815C69.267 204.525 73.157 209.825 68.107 214.165C67.887 211.295 67.717 209.055 67.507 206.255C65.187 209.105 65.977 212.065 65.517 214.735ZM60.707 192.905C60.867 193.535 60.907 194.275 61.747 194.345C61.927 194.365 62.327 193.965 62.307 193.785C62.227 192.945 61.487 192.905 60.857 192.755C60.097 189.885 58.127 188.265 54.657 186.695C56.227 190.155 57.837 192.135 60.707 192.905ZM43.367 202.505C44.967 201.235 46.357 200.785 45.467 198.855C44.537 199.705 43.407 200.165 43.367 202.505Z" fill="#B40405"/>
<path d="M180.197 118.365C180.717 118.555 181.237 118.745 181.747 118.925C184.667 120.515 187.667 120.075 190.677 119.245C192.347 119.405 194.007 119.565 195.677 119.715C196.397 122.395 197.927 123.365 200.387 121.675C202.177 120.445 204.247 120.905 206.157 120.475C207.227 120.235 208.457 121.035 208.577 122.455C208.707 123.925 209.007 125.455 208.007 126.775C207.577 127.345 206.857 127.775 206.337 127.225C202.527 123.285 198.607 126.565 194.747 126.965C194.807 127.215 194.837 127.485 194.957 127.695C195.007 127.785 195.267 127.765 195.427 127.785C195.857 128.175 196.297 128.555 196.727 128.945C197.157 129.145 197.577 129.345 198.007 129.545L198.127 129.495C196.967 130.625 196.357 131.115 197.517 133.325C200.277 138.575 208.907 140.845 205.817 149.085C205.897 149.385 205.817 149.625 205.567 149.815C205.307 150.185 205.047 150.555 204.787 150.925L204.807 150.905C202.067 150.925 201.587 152.655 201.787 154.895C200.787 154.835 199.717 154.685 199.017 155.575C197.497 157.485 196.497 160.005 193.637 160.315C189.467 160.775 190.667 156.635 189.237 154.785C187.087 152.005 184.837 153.835 183.177 154.435C180.637 155.355 182.737 157.055 183.467 158.375C183.867 159.105 184.277 159.825 184.607 160.585C185.247 162.065 186.677 163.945 185.087 165.095C183.447 166.285 182.197 164.275 181.107 163.125C176.457 158.205 172.107 152.975 166.627 148.895L166.607 148.965C167.577 145.505 171.627 142.475 168.077 138.385L168.287 138.185C168.587 138.295 169.147 138.545 169.167 138.495C171.017 135.125 176.147 133.905 175.527 128.905C175.417 127.995 176.037 127.925 176.707 127.815C181.127 127.095 180.457 123.955 179.977 120.905C179.917 120.385 179.857 119.865 179.807 119.335L179.797 119.455C179.937 119.105 180.067 118.735 180.197 118.365Z" fill="#B40405"/>
<path d="M61.2566 396.805C58.9966 394.445 59.2666 391.315 60.1866 388.915C62.7366 382.245 65.7966 375.755 70.0566 369.925C73.3466 369.405 77.1766 371.185 79.7566 367.635L79.6966 367.725C80.6266 367.705 81.5167 367.585 81.9067 366.545L82.2066 366.725C82.7266 366.385 83.2466 366.035 83.7666 365.695L83.6966 365.745C84.0566 365.395 84.4066 365.045 84.7666 364.695L84.6966 364.735C85.3766 364.725 86.0467 364.715 86.7267 364.695C89.1967 365.925 88.6767 364.055 88.7267 362.765C88.7667 362.425 88.7966 362.075 88.8367 361.735C89.1667 361.745 89.5067 361.765 89.8367 361.775C91.9566 361.075 92.6966 358.485 95.1966 358.055C96.0566 357.905 95.5167 356.355 94.6567 355.665C95.6867 353.795 97.9167 352.845 98.5267 350.645C98.9367 350.325 99.3466 350.015 99.7466 349.695L99.6866 349.755C100.627 349.355 100.737 348.555 100.687 347.675L100.627 347.725C101.687 347.425 101.697 346.545 101.747 345.685L101.687 345.745C103.837 345.705 103.777 344.195 103.727 342.695L103.687 342.755C104.037 342.405 104.387 342.045 104.737 341.695L104.697 341.755C106.047 341.065 105.687 339.805 105.727 338.675L105.637 338.695C106.487 338.605 107.327 338.515 108.177 338.435L107.887 338.545C108.267 338.905 108.657 339.265 109.037 339.625L108.907 339.555C109.257 339.945 109.617 340.335 109.967 340.735L109.847 340.605C110.107 341.005 110.367 341.405 110.637 341.805C113.437 343.865 115.197 346.705 116.697 349.745C116.567 350.045 116.507 350.415 116.307 350.645C103.057 365.035 88.7266 378.285 73.3166 390.305C69.7566 393.065 66.1966 396.385 61.2566 396.805Z" fill="#F33E76"/>
<path d="M98.5172 350.645C97.9172 352.845 95.6872 353.795 94.6472 355.665C89.3272 353.075 84.0072 350.475 77.8372 350.825C76.1372 345.965 74.4472 341.105 72.7472 336.245C74.5972 335.295 76.4572 334.345 78.3072 333.395C79.9072 332.875 81.5372 332.395 82.2072 330.245C80.6672 331.015 79.1272 331.785 77.5872 332.555C76.0972 333.115 74.6072 333.675 73.1172 334.235C72.1772 332.655 70.2872 331.765 69.9072 329.785C70.4772 329.795 71.0472 329.805 71.6172 329.815C71.8772 330.005 72.2172 330.425 72.3672 330.355C80.3372 327.215 87.8772 323.185 95.4372 319.195C95.7072 319.055 95.6472 318.285 95.7372 317.805L96.0172 317.795C97.9072 317.455 98.5372 319.275 99.8272 319.985C99.8072 320.555 99.7872 321.135 99.7772 321.705C98.0572 321.595 96.8372 322.565 95.6172 323.575C94.8272 323.665 94.0672 323.825 93.6572 324.615C92.5372 325.145 91.4172 325.675 90.2972 326.205C89.6672 326.575 89.0372 326.935 88.4072 327.305C87.9172 327.705 86.5172 327.605 87.1772 328.615C87.6572 329.365 88.5172 328.645 89.0472 328.045C89.7072 327.705 90.3672 327.365 91.0272 327.015C92.3772 326.985 93.3572 326.175 94.3372 325.405C94.9672 325.065 95.6072 324.725 96.2472 324.385C97.3972 323.835 98.5472 323.285 99.6972 322.735C101.857 325.495 104.337 327.985 104.127 332.045C104.047 333.585 104.777 335.585 106.537 336.595C106.247 337.295 105.947 337.995 105.657 338.695L105.747 338.675C104.747 339.485 104.367 340.495 104.717 341.755L104.757 341.695C103.887 341.535 103.797 342.135 103.707 342.755L103.747 342.695C102.537 343.365 101.957 344.445 101.707 345.745L101.767 345.685C101.027 346.165 100.617 346.825 100.647 347.725L100.707 347.675C99.7772 348.085 99.4172 348.755 99.7072 349.755L99.7672 349.695C98.9572 349.525 98.7272 350.075 98.5172 350.645Z" fill="#F9EFBA"/>
<path d="M185.737 398.865C188.137 407.045 189.248 415.435 189.658 423.925C184.528 427.855 178.388 429.235 172.358 431.025C169.828 431.775 168.898 431.095 167.818 428.985C165.468 424.415 162.968 419.875 157.768 417.835C158.218 415.075 156.938 412.545 156.708 409.865C159.698 408.275 163.548 409.615 167.128 406.605C162.808 407.175 159.388 407.625 155.978 408.085C155.878 407.025 155.788 405.965 155.688 404.905C165.708 402.885 175.727 400.875 185.737 398.865Z" fill="#F9EFBA"/>
<path d="M157.777 417.835C162.977 419.875 165.487 424.415 167.827 428.985C168.907 431.095 169.837 431.775 172.367 431.025C178.397 429.235 184.537 427.855 189.667 423.925C192.767 429.295 190.367 435.165 191.207 440.735L190.797 440.835C188.547 437.485 189.917 433.745 189.827 430.205C189.737 426.825 188.197 426.895 186.257 428.295C183.107 430.565 180.137 431.995 175.887 432.175C172.627 432.315 167.927 432.265 165.797 434.155C161.977 437.565 158.627 436.345 154.837 435.645C154.677 435.025 154.637 434.275 153.787 434.205C153.607 434.195 153.207 434.585 153.217 434.775C153.277 435.625 154.027 435.665 154.647 435.835C157.777 439.115 157.007 442.485 154.857 445.875C154.217 448.205 152.797 449.405 150.297 449.035C151.247 444.235 147.437 446.895 146.217 446.845C136.827 446.455 127.387 447.465 118.067 445.555C118.087 444.925 118.107 444.305 118.137 443.675C118.377 443.195 118.617 442.715 118.857 442.225C119.117 438.625 122.087 437.425 124.627 436.065C130.557 432.895 136.607 429.955 142.617 426.925C147.987 434.075 155.687 432.905 163.107 432.585C165.567 432.475 164.487 430.905 163.927 429.785C162.267 426.485 160.147 423.565 156.877 421.645C156.357 420.185 156.477 418.875 157.777 417.835Z" fill="#E43B70"/>
<path d="M45.8168 54.7245C45.0968 54.9245 44.1068 54.5845 43.8468 55.7145C43.3068 60.2045 48.5468 59.8745 49.7968 62.8545C47.0768 62.7945 44.6867 61.8045 42.4268 60.3345C41.4168 59.6745 40.0568 59.5245 39.2668 60.5945C38.4268 61.7445 39.2068 62.7545 40.1968 63.5245C42.5668 65.3645 43.6568 67.8445 43.7968 70.7945C43.4068 70.9645 43.0068 71.1345 42.6168 71.3045L42.4867 71.2545C39.7967 68.3845 38.0868 64.1445 32.6368 65.5145C31.2868 65.8545 28.6868 65.0845 27.7768 62.8745C28.0568 60.5245 30.3868 57.4045 25.6568 56.8945C19.9768 56.2845 14.7668 57.5145 10.2768 61.1845C7.33679 63.5845 6.67681 68.0445 8.79681 70.9645C10.5468 73.3645 9.98677 75.3245 7.19677 75.6945C2.02677 76.3645 3.5968 79.3045 4.6668 82.1145C5.2468 83.6445 6.04675 85.1145 6.92675 86.4845C7.81675 87.8645 8.32679 89.5145 7.46679 90.6845C6.04679 92.6445 5.28681 89.1745 3.79681 89.8545C2.02681 88.4445 0.776767 86.3945 1.00677 84.3645C1.75677 77.8145 0.46675 70.9645 3.42675 64.7445C4.77675 61.9045 5.01676 59.1145 4.49676 56.1345L4.6668 55.8445C7.5068 55.9645 8.51677 53.7645 9.75677 51.8445C15.3168 51.6945 15.3168 51.6945 13.7568 45.8145C15.0368 43.8045 16.7468 42.2045 16.9968 39.4245C17.2268 36.8745 19.1868 37.1345 20.7668 38.8545C20.3668 40.7945 20.1568 42.7945 19.5268 44.6645C17.8768 49.5345 19.2268 52.3245 24.0368 54.1245C26.1568 54.9145 28.2668 54.8545 30.4168 54.8545C36.6468 54.8645 36.1368 54.8245 36.4068 48.5245C36.5268 45.7145 34.6668 40.3545 39.8068 40.0745C48.9368 39.5745 52.2068 37.8745 51.7568 49.8945C51.7068 51.2245 51.7467 52.5545 51.7367 53.8845C49.7867 54.1545 47.6268 53.1745 45.8168 54.7245Z" fill="#B40405"/>
<path d="M4.51716 56.1445C5.04716 59.1245 4.80715 61.9145 3.44715 64.7545C0.487154 70.9645 1.77717 77.8245 1.02717 84.3745C0.797171 86.4045 2.04715 88.4545 3.81715 89.8645C4.15715 93.5245 4.50718 97.1945 4.84718 100.855C5.15718 101.195 5.46717 101.545 5.77717 101.885C6.10717 102.225 6.42715 102.555 6.75715 102.895C6.92715 104.255 6.34714 105.805 7.74714 106.865C7.23714 112.245 11.7371 116.125 12.0671 121.375C12.1971 123.505 13.9072 122.075 14.8572 121.255C16.0172 120.255 15.5772 117.775 17.9472 117.895C21.0372 118.055 19.8871 116.185 20.0072 114.375C20.2572 110.635 15.7171 108.705 16.8071 104.855C17.0571 104.655 17.2972 104.445 17.5272 104.215C22.9972 113.885 28.2872 123.625 32.0072 134.145C32.4672 135.445 32.9171 136.605 32.5672 137.955C31.0371 140.395 30.5972 143.065 30.8572 145.895L30.8372 145.915C28.4572 146.065 27.2071 147.425 26.8071 149.685C25.5871 150.605 24.3172 151.285 22.7172 150.735L22.6472 150.795C26.3072 141.915 22.7371 134.395 17.9371 126.355C16.8271 131.585 14.2872 134.515 8.79719 133.855C12.2072 128.795 10.6972 123.845 9.13716 118.735C6.01716 108.475 1.89717 98.5545 0.527171 87.7245C-0.842829 76.7245 0.447161 66.3245 4.51716 56.1445ZM23.7371 122.205C23.6571 120.345 22.7872 119.595 21.4772 120.135C19.7972 120.835 17.0971 120.545 16.9971 123.195C16.9271 125.245 19.2171 126.065 20.4871 125.935C22.4071 125.755 23.0871 123.585 23.7371 122.205ZM13.7272 129.435C14.8072 128.275 16.4272 127.305 15.2572 125.435C15.0772 125.145 14.2271 124.895 13.9871 125.055C12.3071 126.225 13.5172 127.855 13.7272 129.435Z" fill="#A81514"/>
<path d="M177.257 243.845C182.417 243.645 186.037 238.825 191.367 239.135C193.187 249.985 193.067 260.995 193.987 271.915C190.067 273.215 185.977 272.195 182.007 272.735C180.247 271.295 180.457 269.245 180.247 267.275C179.407 259.445 179.907 251.445 177.257 243.845Z" fill="#F8BD0A"/>
<path d="M188.547 201.165C195.157 191.805 202.577 183.095 210.107 174.465C211.107 173.315 211.807 172.045 211.707 170.455C217.557 169.415 220.847 173.025 219.357 178.845C211.727 186.385 205.867 195.395 198.917 203.505C197.957 204.625 197.287 205.995 195.817 206.575C193.387 204.765 190.967 202.965 188.547 201.165Z" fill="#F38E14"/>
<path d="M180.197 118.365C180.067 118.735 179.937 119.105 179.807 119.475C179.697 119.465 179.587 119.445 179.477 119.435C179.597 119.405 179.707 119.385 179.827 119.355C179.887 119.875 179.947 120.395 179.997 120.925C177.907 124.535 174.727 126.135 170.877 127.725C169.387 128.345 171.187 134.985 168.297 138.195L168.087 138.395C166.287 139.325 164.487 140.255 162.687 141.185C159.577 141.125 156.857 139.865 154.197 138.425C155.587 135.115 157.247 131.915 157.747 128.275C157.997 126.445 158.967 125.315 161.007 125.185C166.737 124.825 170.147 120.995 173.107 116.705C174.417 114.815 175.367 112.675 177.727 111.805C179.537 113.615 179.597 116.095 180.197 118.365Z" fill="#57C9C3"/>
<path d="M61.2568 396.805C66.1968 396.395 69.7569 393.065 73.2869 390.315C88.6969 378.295 103.027 365.045 116.277 350.655C116.487 350.425 116.547 350.055 116.667 349.755C118.597 350.855 120.927 351.985 118.387 354.505C103.697 369.165 89.7569 384.685 72.0269 395.935C69.5169 397.525 66.8569 398.885 63.6669 398.785C62.1769 398.735 61.6468 397.975 61.2568 396.805Z" fill="#B2335B"/>
<path d="M73.1173 182.935C71.7973 182.875 69.7873 183.345 69.2773 182.675C63.4373 174.995 55.7073 180.225 48.8873 179.475C49.1973 177.875 47.9773 177.175 47.0573 176.245C43.5573 172.665 42.8073 168.615 45.1373 164.095C46.9773 164.345 48.8173 164.585 50.6573 164.835C53.9873 166.155 55.9973 169.135 58.6573 171.285C65.0473 176.455 72.9673 176.455 80.3473 178.295C79.4473 182.195 75.9373 182.035 73.1173 182.935Z" fill="#57C9C3"/>
<path d="M118.058 445.565C127.378 447.485 136.828 446.465 146.208 446.855C147.428 446.905 151.228 444.245 150.288 449.045C152.798 449.415 154.218 448.215 154.848 445.885C157.358 444.915 159.958 444.865 162.618 444.765C172.128 444.415 181.558 443.305 190.788 440.835L191.198 440.735C192.548 446.665 187.898 445.475 184.818 446.105C166.878 449.755 148.738 451.135 130.448 450.865C127.248 450.815 124.168 450.255 121.198 449.195C119.578 448.615 117.478 448.175 118.058 445.565ZM128.748 448.745C128.398 448.425 128.208 447.515 127.508 448.385C127.928 448.505 128.338 448.615 128.758 448.735C129.298 448.995 129.838 449.265 130.378 449.525C130.468 449.345 130.548 449.155 130.638 448.975C130.018 448.905 129.378 448.825 128.748 448.745ZM139.018 448.915C138.948 449.095 138.878 449.285 138.798 449.465C138.948 449.495 139.128 449.595 139.238 449.555C139.458 449.465 139.658 449.285 139.858 449.145C139.588 449.065 139.308 448.985 139.018 448.915Z" fill="#B2335B"/>
<path d="M181.997 272.735C185.977 272.195 190.057 273.215 193.977 271.915C194.977 272.225 195.797 272.745 195.997 273.865C197.157 280.175 199.267 286.315 199.437 292.815C188.687 292.945 180.727 282.055 180.487 274.615C180.457 273.195 180.927 272.915 181.997 272.735Z" fill="#25789C"/>
<path d="M50.6572 164.835C48.8172 164.585 46.9772 164.345 45.1372 164.095C38.5172 160.205 32.7872 155.365 28.6572 148.795C29.3872 147.825 30.1172 146.865 30.8372 145.895L30.8572 145.875C31.0672 145.775 31.2872 145.735 31.5172 145.755C34.0972 144.705 34.6172 143.095 32.8572 140.855C32.8672 140.175 32.8672 139.495 32.8772 138.815C38.7172 139.555 38.0772 145.465 40.6272 148.815C41.5872 150.085 41.8072 151.745 43.7972 151.825L43.7872 151.815C44.2672 154.995 45.8972 157.575 48.8572 158.635C52.6672 160.025 52.0972 162.185 50.6572 164.835Z" fill="#E9AA8A"/>
<path d="M132.637 6.91475C127.137 6.98475 122.437 2.93475 116.777 3.85475C115.777 3.52475 114.777 3.18475 113.777 2.85475C112.767 1.61475 111.747 1.61475 110.737 2.85475C106.127 1.73475 101.447 1.76476 96.7573 1.90476C95.6573 1.90476 94.4973 1.71475 93.7573 2.86475C93.4273 2.86475 93.0973 2.86474 92.7673 2.87474C90.4373 3.24474 87.8873 2.03475 85.7573 3.86475C84.4273 3.87475 83.0973 3.88475 81.7673 3.89475C79.2273 4.40475 76.9573 5.54475 74.7573 6.83475C71.6073 6.83475 68.4273 6.69475 65.7773 8.88475C60.5073 11.3348 54.7774 12.7548 49.7874 15.8548C47.3074 15.9048 45.1273 16.5647 43.7373 18.8347C42.3173 18.8647 41.3373 19.5447 40.7573 20.8347C39.4773 20.8947 38.1973 20.9547 36.9273 21.0147C36.7773 20.8447 36.6273 20.6847 36.4873 20.5147C46.8273 12.9547 58.8973 9.09475 70.8273 5.28475C82.5073 1.55475 94.6474 -0.525253 107.037 0.114747C116.017 0.594747 124.797 2.06475 132.637 6.91475Z" fill="#A81514"/>
<path d="M166.648 148.895C172.128 152.975 176.468 158.205 181.128 163.125C182.218 164.275 183.468 166.275 185.108 165.095C186.698 163.945 185.268 162.065 184.628 160.585C184.298 159.825 183.888 159.105 183.488 158.375C182.758 157.055 180.658 155.355 183.198 154.435C184.858 153.835 187.098 152.015 189.258 154.785C190.688 156.635 189.498 160.775 193.658 160.315C196.508 159.995 197.518 157.475 199.038 155.575C199.738 154.695 200.818 154.835 201.808 154.895C200.758 157.825 197.718 159.125 196.228 161.695C194.138 161.765 193.108 165.495 190.378 163.415C188.568 161.205 187.988 158.075 184.928 155.425C186.208 159.125 187.118 161.755 188.028 164.375C185.338 168.735 180.878 167.155 177.098 167.415C172.998 167.695 169.968 166.295 169.818 161.245C169.688 156.965 166.628 153.305 166.648 148.895ZM178.658 163.755C177.308 161.745 175.608 159.565 173.058 158.325C172.138 157.875 171.518 159.205 171.848 159.865C172.878 161.935 171.368 165.645 175.438 165.805C176.678 165.855 178.208 166.185 178.658 163.755Z" fill="#A81514"/>
<path d="M82.1972 366.715C82.1972 366.715 81.8972 366.535 81.8972 366.545C81.0372 366.695 80.1672 366.835 79.6872 367.725L79.7472 367.635C76.5072 368.485 73.2072 368.755 69.8672 368.735C72.6172 364.085 75.9172 359.735 77.8672 354.625C80.8372 354.605 83.7372 355.025 86.6072 355.845C89.7972 356.755 91.1472 358.485 89.8272 361.765C89.4972 361.755 89.1572 361.735 88.8272 361.725C88.0972 361.625 87.6272 361.845 87.6772 362.685H87.7272C86.9672 362.615 86.4572 362.795 86.6772 363.725L86.6172 363.585C85.5972 363.315 85.0672 363.895 84.6872 364.725L84.7572 364.685C84.1472 364.775 83.7272 365.065 83.6872 365.735L83.7572 365.685C82.9872 365.645 82.4372 365.945 82.1972 366.715Z" fill="#F9EFBA"/>
<path d="M156.867 421.655C160.137 423.575 162.247 426.495 163.917 429.795C164.477 430.915 165.557 432.485 163.097 432.595C155.677 432.915 147.977 434.085 142.607 426.935C147.087 424.435 152.137 423.465 156.867 421.655Z" fill="#F9EFBA"/>
<path d="M20.7973 38.8547C19.2173 37.1347 17.2473 36.8747 17.0273 39.4247C16.7773 42.2147 15.0673 43.8047 13.7873 45.8147C9.52729 45.8847 9.96729 49.0646 9.78729 51.8447C8.54729 53.7547 7.52727 55.9646 4.69727 55.8447C6.35727 49.8447 9.4873 44.5847 13.6073 40.0547C20.3973 32.5947 27.4673 25.3846 36.4973 20.5146C36.6473 20.6846 36.7873 20.8546 36.9373 21.0146C36.5573 21.6446 36.1773 22.2747 35.7973 22.9047C33.0573 23.4647 32.6573 26.4147 30.7673 27.8347C29.4373 28.5047 28.1173 29.1747 26.7873 29.8447C25.5573 32.8947 22.1173 34.9447 22.7673 38.8347C22.1173 38.8547 21.4573 38.8547 20.7973 38.8547Z" fill="#A81514"/>
<path d="M205.817 149.085C208.897 140.855 200.267 138.575 197.517 133.325C196.357 131.105 196.967 130.625 198.127 129.495C201.317 130.575 204.507 131.655 207.697 132.735C208.477 132.975 209.847 133.505 209.487 134.065C206.477 138.675 210.697 145.005 205.817 149.085Z" fill="#A81514"/>
<path d="M101.627 241.985C101.567 234.175 101.517 226.375 101.467 218.565C101.547 217.335 101.627 216.115 101.707 214.885C102.147 209.795 100.667 204.615 102.387 199.575C104.757 201.025 103.377 203.365 103.737 205.295C101.477 209.675 102.577 214.455 103.067 218.795C103.827 225.515 103.497 232.245 104.157 238.925C103.977 239.195 103.977 239.455 104.157 239.725C104.147 240.445 104.137 241.155 104.127 241.875C103.947 242.155 103.927 242.455 104.097 242.755C104.067 243.795 104.037 244.825 104.007 245.865C103.047 248.995 105.107 252.595 102.487 255.465C101.007 251.045 102.307 246.445 101.627 241.985Z" fill="#E9AA8A"/>
<path d="M185.737 398.865C175.727 400.875 165.707 402.885 155.697 404.905C154.927 404.695 154.017 404.685 153.947 403.575C153.857 402.245 154.727 401.935 155.787 401.805C160.407 401.935 164.647 399.875 169.297 399.685C173.487 399.525 177.627 397.865 181.787 396.865C183.177 397.365 185.947 395.175 185.737 398.865Z" fill="#E43B70"/>
<path d="M195.427 127.795C195.267 127.765 195.007 127.795 194.957 127.705C194.837 127.495 194.817 127.225 194.747 126.975C198.617 126.575 202.537 123.295 206.337 127.235C206.867 127.775 207.577 127.355 208.007 126.785C209.007 125.465 208.707 123.935 208.577 122.465C208.457 121.035 207.227 120.245 206.157 120.485C204.247 120.915 202.177 120.455 200.387 121.685C197.927 123.375 196.407 122.405 195.677 119.725C197.987 119.695 200.307 119.675 202.617 119.635C210.317 119.505 211.857 122.185 208.527 129.905C204.167 129.195 199.797 128.495 195.427 127.795Z" fill="#A81514"/>
<path d="M89.827 361.775C91.157 358.495 89.797 356.765 86.607 355.855C83.737 355.035 80.8369 354.605 77.8669 354.635C76.5169 353.385 76.367 352.115 77.827 350.825C83.997 350.475 89.317 353.065 94.637 355.665C95.497 356.355 96.0369 357.905 95.1769 358.055C92.6869 358.485 91.957 361.075 89.827 361.775Z" fill="#E43B70"/>
<path d="M163.638 69.9645C165.938 70.0145 166.708 68.9145 166.788 66.6045C166.928 62.0045 166.788 61.2845 164.218 59.8045C163.308 59.2745 163.618 58.2545 163.848 57.6945C165.618 53.3245 163.618 49.6845 161.808 45.9545C160.348 42.9445 159.268 39.8345 159.888 36.3945C165.948 47.4445 168.498 59.2645 167.648 71.8245C166.308 71.2145 164.978 70.5845 163.638 69.9645Z" fill="#A81514"/>
<path d="M102.487 255.454C105.107 252.594 103.047 248.984 104.007 245.854C105.447 249.384 104.697 253.055 104.507 256.645C104.417 258.305 103.417 259.955 101.277 259.715C95.2873 259.045 89.4473 261.524 83.4473 260.544C88.1473 258.704 93.2273 259.085 98.0773 258.035C99.9173 257.635 101.717 257.544 102.487 255.454Z" fill="#57C9C3"/>
<path d="M148.018 18.6048C142.918 15.8748 137.168 13.9548 134.768 7.88477C139.768 10.7348 144.588 13.8048 148.018 18.6048Z" fill="#A81514"/>
<path d="M199.727 329.775C201.537 329.765 202.527 331.095 203.597 332.225C204.677 333.365 205.757 334.095 207.247 332.925C208.117 334.925 206.827 335.465 205.287 335.955C202.517 336.835 199.767 337.785 196.797 337.615C196.977 337.355 197.137 336.885 197.347 336.855C203.017 336.125 202.087 333.205 199.717 329.795C199.717 329.785 199.727 329.775 199.727 329.775Z" fill="#57C9C3"/>
<path d="M195.427 127.795C199.797 128.495 204.177 129.205 208.547 129.905C208.057 130.785 207.387 131.615 207.707 132.735C204.517 131.655 201.327 130.575 198.137 129.495L198.017 129.545C197.587 129.345 197.167 129.145 196.737 128.945C196.287 128.565 195.857 128.175 195.427 127.795Z" fill="#FBC0A0"/>
<path d="M155.987 408.075C159.397 407.625 162.817 407.175 167.137 406.595C163.557 409.615 159.707 408.275 156.717 409.855C155.827 409.535 155.887 408.815 155.987 408.075Z" fill="#B2335B"/>
<path d="M69.877 368.745C73.217 368.765 76.517 368.495 79.757 367.645C77.177 371.195 73.3469 369.415 70.0569 369.935C69.9969 369.535 69.937 369.135 69.877 368.745Z" fill="#B2335B"/>
<path d="M155.707 28.9048C151.537 28.8248 151.867 25.7248 151.717 22.9448C153.827 24.4148 154.807 26.6348 155.707 28.9048Z" fill="#A81514"/>
<path d="M73.1072 334.245C74.5972 333.685 76.0872 333.125 77.5772 332.565C77.8172 332.845 78.0672 333.125 78.3072 333.405C76.4572 334.355 74.5972 335.305 72.7472 336.255C72.1172 336.435 71.1972 336.655 71.3572 335.735C71.4472 335.145 72.4872 334.735 73.1072 334.245Z" fill="#B2335B"/>
<path d="M159.667 35.9147C155.647 35.9447 156.927 32.9947 156.797 30.8247C158.307 32.2147 159.197 33.9447 159.667 35.9147Z" fill="#A81514"/>
<path d="M190.687 119.245C187.677 120.075 184.677 120.515 181.757 118.925C184.737 119.035 187.707 119.145 190.687 119.245Z" fill="#A81514"/>
<path d="M151.657 22.9048C149.307 22.4348 147.757 21.2947 148.017 18.6147C149.787 19.5647 150.717 21.2448 151.657 22.9048Z" fill="#A81514"/>
<path d="M30.8472 145.895C30.1172 146.865 29.3872 147.825 28.6672 148.795C28.0472 149.085 27.4371 149.375 26.8271 149.665C27.2171 147.405 28.4572 146.045 30.8472 145.895Z" fill="#6C180B"/>
<path d="M201.797 154.905C201.597 152.665 202.077 150.935 204.817 150.915C204.157 152.505 203.307 153.955 201.797 154.905Z" fill="#A81514"/>
<path d="M105.617 338.695C105.907 337.995 106.207 337.295 106.497 336.595C107.517 336.795 108.037 337.435 108.157 338.435C107.317 338.525 106.467 338.615 105.617 338.695Z" fill="#B2335B"/>
<path d="M99.6677 322.735C98.5177 323.285 97.3677 323.835 96.2177 324.385C96.0077 324.115 95.8077 323.855 95.5977 323.585C96.8177 322.585 98.0376 321.605 99.7576 321.715C99.7276 322.055 99.6977 322.395 99.6677 322.735Z" fill="#B2335B"/>
<path d="M134.737 7.86454C133.907 7.92454 133.197 7.72455 132.757 6.94455C133.627 6.80455 134.317 7.03454 134.737 7.86454Z" fill="#A81514"/>
<path d="M192.768 338.635C193.378 337.795 194.218 337.805 195.108 338.025C194.458 338.705 193.638 338.785 192.768 338.635Z" fill="#57C9C3"/>
<path d="M118.847 442.235C118.607 442.715 118.367 443.195 118.127 443.685C117.927 442.975 118.057 442.445 118.847 442.235Z" fill="#B2335B"/>
<path d="M109.017 339.635C108.637 339.275 108.247 338.915 107.867 338.555C108.727 338.395 109.017 338.865 109.017 339.635Z" fill="#B2335B"/>
<path d="M109.947 340.735C109.597 340.345 109.237 339.955 108.887 339.555C109.717 339.515 109.867 340.095 109.947 340.735Z" fill="#B2335B"/>
<path d="M110.607 341.805C110.347 341.405 110.087 341.004 109.817 340.604C110.467 340.754 110.667 341.195 110.607 341.805Z" fill="#B2335B"/>
<path d="M156.807 30.8347C156.507 30.3347 156.197 29.8247 155.897 29.3247C156.607 29.5847 156.817 30.1347 156.807 30.8347Z" fill="#A81514"/>
<path d="M204.787 150.935C205.047 150.565 205.307 150.195 205.567 149.825C205.697 150.465 205.357 150.775 204.787 150.935Z" fill="#A81514"/>
<path d="M22.7267 150.725L22.6367 150.915C22.6367 150.915 22.6567 150.775 22.6567 150.785L22.7267 150.725Z" fill="#A81514"/>
<path d="M138.097 196.475C137.157 196.515 136.217 196.555 135.277 196.605C134.227 195.755 133.187 195.755 132.177 196.695C130.597 196.785 129.017 196.875 127.447 196.965C121.987 195.215 116.737 198.725 111.337 197.745C111.017 196.545 111.977 196.295 112.437 195.685C113.457 194.325 112.917 189.845 111.797 189.285C111.167 188.805 110.537 188.335 109.907 187.865C109.357 186.045 108.797 184.215 108.247 182.395C108.717 181.695 109.377 180.785 110.187 181.365C112.447 182.985 114.987 183.585 117.487 184.485C124.287 186.935 128.877 184.805 133.537 180.585C139.597 175.105 142.467 167.655 145.947 160.585C146.147 161.515 146.147 162.605 147.517 162.635C147.597 163.405 147.687 164.175 147.767 164.945C147.837 171.135 148.967 177.105 151.597 182.745C151.687 183.145 151.777 183.545 151.877 183.945C152.127 186.465 151.577 188.645 149.297 190.105C153.417 195.515 147.627 194.005 145.777 194.875C143.417 195.965 140.207 193.615 138.097 196.475Z" fill="#F8BD0A"/>
<path d="M138.098 196.475C140.208 193.625 143.418 195.965 145.788 194.855C147.628 193.995 153.418 195.495 149.308 190.085C151.588 188.625 152.138 186.445 151.888 183.925C153.128 185.105 152.758 186.665 152.908 188.125C153.458 193.405 157.168 189.865 159.368 190.275C162.298 190.825 162.018 188.645 161.548 186.765C160.818 183.895 159.588 181.115 159.968 178.045C161.638 182.545 163.488 186.985 164.918 191.555C165.618 193.785 167.128 193.275 168.388 193.075C172.058 192.485 172.758 194.575 173.398 197.545C174.458 202.475 172.168 208.755 178.658 211.675C177.738 212.975 178.428 213.965 179.288 214.915C177.218 214.905 175.178 214.815 173.378 213.615C174.448 207.835 171.468 202.565 171.278 196.915C171.218 195.075 169.438 194.855 167.848 194.825C165.528 194.785 163.208 194.675 160.888 194.595C159.268 193.675 159.728 196.015 158.688 196.005C157.028 195.885 156.238 194.425 155.018 193.625C153.288 192.495 151.818 192.265 151.878 195.105C147.368 196.505 142.778 196.965 138.098 196.475Z" fill="#E9AA8A"/>
<path d="M120.087 235.075C123.047 235.435 125.227 239.265 128.297 236.445C130.067 234.825 132.257 233.395 128.857 231.185C127.637 230.395 127.737 229.235 128.887 228.315C130.937 226.665 133.137 226.835 135.417 227.795C136.887 228.415 136.987 229.505 136.197 230.565C135.327 231.745 133.297 232.395 135.537 234.285C137.407 235.865 139.297 236.395 141.447 235.415C142.447 234.965 143.207 233.995 144.197 233.155C143.797 237.865 139.577 239.775 135.517 236.815C133.107 235.055 131.987 235.095 129.877 237.135C126.547 240.355 123.437 239.595 120.087 235.075Z" fill="#25789C"/>
<path d="M103.727 205.295C103.357 203.365 104.747 201.025 102.377 199.575C102.377 198.905 102.197 198.395 101.607 197.905C100.597 197.075 98.4274 196.005 99.6574 194.825C101.267 193.285 102.667 196.415 104.567 196.365C104.637 196.365 104.567 197.685 104.867 198.205C106.097 200.285 107.177 200.355 107.807 197.785C108.377 197.825 108.947 197.875 109.517 197.915C109.617 198.285 109.717 198.665 109.817 199.035C109.827 199.695 109.617 200.475 109.897 200.985C111.067 203.045 110.627 204.955 108.967 206.235C107.157 207.615 105.257 206.915 103.727 205.295Z" fill="#FEFEFE"/>
<path d="M150.797 218.985C150.567 219.555 150.517 220.115 150.207 220.395C149.447 221.095 148.607 220.775 148.057 220.115C144.947 216.375 142.237 217.105 139.767 220.785C139.237 221.565 138.587 222.005 137.727 221.585C137.397 221.425 137.057 220.715 137.157 220.375C138.137 216.975 140.507 215.085 143.987 214.895C147.067 214.715 149.257 216.335 150.797 218.985Z" fill="#25789C"/>
<path d="M125.577 221.355C125.277 221.875 125.137 222.455 124.797 222.635C123.967 223.055 123.167 222.695 122.587 222.045C119.567 218.705 116.947 219.155 114.657 222.845C114.147 223.665 113.417 223.975 112.577 223.555C112.227 223.375 111.827 222.695 111.917 222.355C112.727 219.045 115.247 217.345 118.297 216.965C121.567 216.565 123.737 218.785 125.577 221.355Z" fill="#25789C"/>
<path d="M158.667 196.015C159.707 196.025 159.247 193.695 160.867 194.605C160.967 196.245 160.907 197.915 161.227 199.505C161.597 201.395 161.827 203.165 160.057 204.415C158.897 205.235 157.517 205.265 156.317 204.485C154.407 203.255 154.867 201.365 155.137 199.555C155.187 199.225 155.257 198.905 155.327 198.585C157.087 198.585 159.787 199.775 158.667 196.015Z" fill="#FEFEFE"/>
<path d="M109.827 199.035C109.727 198.665 109.627 198.285 109.527 197.915C110.137 194.995 112.627 192.575 111.807 189.275C112.927 189.835 113.467 194.305 112.447 195.675C111.987 196.285 111.027 196.535 111.347 197.735C116.737 198.715 121.997 195.205 127.457 196.955C121.697 198.725 115.757 198.875 109.827 199.035Z" fill="#E9AA8A"/>
<path d="M158.667 196.015C159.787 199.775 157.087 198.585 155.317 198.595C154.977 196.625 154.297 194.995 151.867 195.115C151.807 192.275 153.277 192.505 155.007 193.635C156.217 194.435 157.007 195.895 158.667 196.015Z" fill="#F9EFBA"/>
<path d="M132.177 196.685C133.187 195.745 134.217 195.745 135.277 196.595C134.247 196.625 133.207 196.655 132.177 196.685Z" fill="#E9AA8A"/>
<path d="M197.728 327.775C198.998 327.835 199.678 328.485 199.728 329.775L199.718 329.785C198.428 329.735 197.758 329.075 197.728 327.775Z" fill="#57C9C3"/>
<path d="M197.717 327.785C197.007 327.645 196.147 327.685 196.197 326.595C196.207 326.485 196.387 326.295 196.507 326.285C197.607 326.205 197.567 327.075 197.717 327.785C197.727 327.775 197.717 327.785 197.717 327.785Z" fill="#57C9C3"/>
<path d="M104.088 242.745C103.928 242.445 103.938 242.155 104.118 241.865C104.188 242.075 104.298 242.275 104.328 242.485C104.338 242.565 104.178 242.665 104.088 242.745Z" fill="#57C9C3"/>
<path d="M104.157 239.725C103.987 239.455 103.987 239.185 104.157 238.925C104.227 239.115 104.327 239.295 104.367 239.485C104.377 239.555 104.227 239.645 104.157 239.725Z" fill="#57C9C3"/>
<path d="M101.698 214.885C101.618 216.115 101.538 217.335 101.458 218.565C93.5576 221.935 85.2676 224.005 76.8976 225.755C74.0176 226.355 71.9676 225.605 70.5976 222.535C69.3476 219.735 66.5776 217.755 65.5176 214.725C65.9776 212.055 65.1776 209.095 67.5176 206.245C67.7276 209.045 67.8976 211.285 68.1176 214.155C73.1576 209.815 69.2676 204.525 70.9776 198.805C71.7576 202.405 72.3476 204.785 72.7776 207.195C73.0376 208.645 73.2476 210.855 74.6076 210.725C76.9676 210.495 79.3976 209.475 81.4676 208.245C82.9676 207.355 81.5276 205.895 81.0476 204.765C77.9976 197.635 74.9876 190.485 73.1176 182.925C75.9476 182.025 79.4576 182.185 80.3576 178.285C82.5776 178.135 84.8076 177.985 87.0276 177.835C87.2276 180.545 85.7376 183.325 87.3576 185.975L87.4576 185.935C88.1376 190.375 90.6276 194.025 92.6876 197.875V197.895C94.6776 201.565 96.6676 205.235 98.6576 208.905C99.6676 210.905 100.688 212.895 101.698 214.885Z" fill="#FEFEFE"/>
<path d="M88.9169 160.775C80.6769 160.205 74.7068 156.145 70.9268 148.875C68.7368 144.665 70.3568 142.065 74.6968 140.825C75.6868 142.435 77.3068 142.765 78.9868 142.885C90.2968 143.695 99.7768 139.725 107.707 131.785C109.307 130.185 110.037 128.185 109.927 125.905C118.087 123.135 120.957 124.765 121.717 133.175C122.317 139.885 120.347 145.805 114.777 150.105C105.017 146.295 93.1369 151.185 88.9169 160.775Z" fill="#6C180B"/>
<path d="M45.8174 54.7247C47.6274 53.1847 49.7874 54.1547 51.7774 53.8847C56.7374 56.7047 62.3074 57.1047 67.7774 57.8747C72.2374 59.6947 77.0774 58.8247 81.6874 59.7547C83.5974 60.1347 85.9774 60.6447 87.7874 58.8947C88.4474 58.8947 89.1074 58.8947 89.7674 58.8947C91.2774 60.5047 91.5674 58.7247 92.2774 58.0147C106.027 44.2047 119.777 30.3947 133.547 16.5947C134.227 15.9147 134.867 15.0947 136.357 15.3347C136.427 17.5047 134.667 18.4347 133.507 19.5947C122.937 30.2347 112.347 40.8447 101.697 51.3947C99.8374 53.2347 98.2774 55.0447 98.7674 57.8647C98.4274 58.1347 97.3974 57.4247 97.7274 58.6147C98.0774 58.3647 98.4274 58.1247 98.7774 57.8747C106.677 57.7947 113.617 55.2447 119.677 50.1047C122.177 47.9847 125.367 49.5547 128.197 49.0847C117.367 56.5347 105.077 59.5447 92.2374 60.8547C91.0874 60.9747 89.9374 61.0947 88.7874 61.2147C86.7674 61.2647 84.7574 61.3147 82.7374 61.3747C70.1374 60.7347 57.8774 58.2747 45.8174 54.7247Z" fill="#A81514"/>
<path d="M124.837 87.6846C127.427 89.5046 126.067 91.9046 127.087 93.6246C130.127 93.7846 131.427 90.8246 134.167 89.7346C134.997 93.2246 132.037 95.9446 132.927 99.6046C133.477 101.885 130.177 101.695 128.087 100.195C122.247 96.0045 116.297 96.5746 110.477 100.265C107.527 102.135 105.907 105.065 105.147 108.385C104.697 110.345 104.147 112.175 101.777 111.715C98.9769 111.175 99.5368 108.735 99.8668 106.865C101.187 99.2246 109.717 92.1546 118.247 92.0246C121.577 91.9746 124.117 91.6346 124.837 87.6846Z" fill="#6C180B"/>
<path d="M109.927 125.905C110.027 128.185 109.297 130.175 107.707 131.785C99.7773 139.725 90.2972 143.695 78.9872 142.885C77.3172 142.765 75.6873 142.435 74.6973 140.825C78.6573 137.085 84.0273 136.185 88.7573 134.055C95.6473 130.955 102.567 127.825 109.927 125.905Z" fill="#FEFEFE"/>
<path d="M145.957 160.575C142.477 167.645 139.607 175.095 133.547 180.575C128.887 184.785 124.297 186.925 117.497 184.475C114.997 183.575 112.457 182.965 110.197 181.355C109.387 180.775 108.727 181.685 108.257 182.385C107.277 180.485 107.807 178.415 107.577 176.435C108.817 175.755 110.147 175.825 111.477 176.025C111.317 177.875 112.537 178.875 113.827 179.835C115.627 183.025 118.427 182.935 121.407 182.105C132.687 178.935 138.667 171.125 140.847 159.945C141.207 158.115 140.777 155.915 142.857 154.715C143.427 154.825 144.007 154.925 144.577 155.035C145.687 156.715 146.117 158.565 145.957 160.575Z" fill="#F38E14"/>
<path d="M164.737 92.8449C168.007 92.6049 168.477 94.8649 168.737 97.3149C169.057 100.385 168.567 103.325 166.737 105.825C165.027 108.175 163.527 111.375 159.937 110.665C156.547 110.005 156.267 106.625 155.807 103.955C155.087 99.7749 153.727 95.6549 154.057 91.3149C157.547 92.2549 160.757 95.2749 164.737 92.8449Z" fill="#E9AA8A"/>
<path d="M36.917 131.505C40.537 129.855 44.617 129.055 39.627 123.235C43.787 125.365 45.7269 124.585 47.9869 122.365C53.3769 117.065 61.197 116.415 67.267 120.135C68.827 121.085 70.707 122.155 69.657 124.395C68.367 127.175 66.637 125.185 65.167 124.445C57.357 120.565 49.4469 124.195 47.4269 132.565C47.0669 134.055 47.677 136.135 45.447 136.695C43.407 137.205 43.3369 135.255 42.3669 134.295C41.1469 133.125 39.237 132.645 36.917 131.505Z" fill="#6C180B"/>
<path d="M144.577 155.025C144.007 154.915 143.427 154.815 142.857 154.705C146.637 149.275 150.417 143.855 154.197 138.425C156.857 139.865 159.587 141.125 162.697 141.185C163.827 143.875 164.957 146.565 166.097 149.255C162.377 151.255 157.557 149.605 154.197 152.825C151.667 153.095 149.197 153.625 146.927 154.845C146.137 154.895 145.357 154.965 144.577 155.025Z" fill="#FEFEFE"/>
<path d="M141.077 105.815C143.707 105.995 145.817 106.935 147.167 109.005C148.677 111.305 146.467 112.785 145.427 114.235C142.737 118.005 138.497 119.395 134.177 119.725C129.337 120.105 127.327 116.625 129.587 112.275C132.017 107.585 136.677 106.755 141.077 105.815Z" fill="#E9AA8A"/>
<path d="M122.437 63.2148C113.687 62.2848 104.647 64.5548 96.5873 70.6048C95.3473 71.5348 94.2073 72.6248 92.7273 71.1048C91.1273 69.4548 92.5073 68.3548 93.6173 67.4348C102.497 60.0348 112.547 56.8048 124.077 59.0448C125.817 59.3848 127.397 60.2948 126.897 62.3848C126.537 63.9248 125.127 64.1848 122.437 63.2148Z" fill="#6C180B"/>
<path d="M88.917 160.775C93.137 151.185 105.007 146.285 114.777 150.115C114.737 150.395 114.617 150.625 114.417 150.825C113.707 150.925 113.037 151.075 112.777 151.875V151.865C112.447 152.195 112.107 152.535 111.777 152.865L111.787 152.875C110.447 152.845 109.827 153.565 109.777 154.855L109.767 154.865C107.407 155.635 104.617 155.755 103.767 158.815L103.727 158.845C102.627 158.865 101.437 158.615 100.787 159.885C97.007 162.415 93.007 162.145 88.917 160.775Z" fill="#E43B70"/>
<path d="M27.7872 62.8745C28.6872 65.0845 31.2972 65.8445 32.6472 65.5145C38.0972 64.1545 39.8071 68.3845 42.4971 71.2545C37.3771 70.2945 33.0271 67.3345 28.1271 65.7645C22.4071 63.9345 20.1772 64.5745 17.8972 70.1245C15.5772 75.7745 13.8572 81.6745 12.0372 87.5145C11.0772 90.6045 12.5771 93.3445 13.8171 96.0745C15.0571 98.7845 16.2872 101.495 17.5172 104.205C17.2972 104.435 17.0571 104.645 16.8071 104.845C14.1871 104.785 15.0772 101.255 12.8372 100.815C12.7072 98.9345 11.7171 97.9345 9.82715 97.8345C11.0571 91.2345 10.7971 84.5545 10.8271 77.8945C12.8271 77.7645 12.8371 76.3245 12.8171 74.8645C14.9071 72.7845 11.2471 69.8945 13.8071 67.8745C17.2171 67.8945 18.9971 65.9645 19.8171 62.8745C22.4771 62.8745 25.1372 62.8745 27.7872 62.8745Z" fill="#A81514"/>
<path d="M107.577 176.425C107.807 178.405 107.277 180.475 108.257 182.375C108.807 184.205 109.367 186.025 109.917 187.845C109.907 189.255 109.927 190.665 108.607 191.615C106.967 191.725 105.147 191.435 103.707 192.035C100.227 193.485 99.7974 191.895 99.7374 188.955C99.6874 186.565 100.377 183.925 98.3975 181.855C99.0275 180.565 98.8675 179.235 98.6375 177.895C101.617 177.405 104.597 176.915 107.577 176.425Z" fill="#44A2C8"/>
<path d="M48.2471 88.1849C49.5071 88.0649 50.4971 88.1948 50.7371 89.8048C50.9871 91.5448 50.0371 92.4448 48.6471 92.5848C40.3671 93.4048 33.8271 96.9248 29.6171 104.325C28.9471 105.495 27.7771 105.885 26.6471 105.085C25.3071 104.145 25.5771 102.815 26.2671 101.545C29.8871 94.8348 35.8771 91.2448 42.8771 89.0748C44.5871 88.5448 46.4471 88.4749 48.2471 88.1849Z" fill="#6C180B"/>
<path d="M43.7974 151.835C43.7574 144.545 47.7374 140.715 54.1574 141.875C58.4874 142.655 59.8074 146.055 56.9874 149.385C53.2774 153.755 48.6174 153.345 43.7974 151.835C43.7874 151.835 43.7974 151.835 43.7974 151.835Z" fill="#E9AA8A"/>
<path d="M113.827 179.825C112.547 178.865 111.327 177.865 111.477 176.015C119.027 171.795 126.827 168.005 134.207 163.325C128.817 170.625 123.037 177.345 113.827 179.825Z" fill="#E9AA8A"/>
<path d="M128.768 48.8848C129.828 45.4448 130.908 47.7648 131.228 49.0548C132.428 53.8948 134.938 58.2648 136.388 62.9148C138.548 69.8248 141.848 75.9248 146.098 81.6048C147.158 83.0248 147.948 84.3148 147.628 86.0948C139.578 78.7048 136.548 68.5748 132.678 58.8848C131.348 55.5648 131.238 51.7648 128.768 48.8848Z" fill="#A81514"/>
<path d="M64.9275 67.6948C69.6275 69.0448 74.4175 69.9548 79.5975 70.2348C71.2075 76.4848 59.7075 77.3848 47.7275 72.9348L47.9075 72.6948C51.5175 73.0148 55.1175 72.9948 58.7375 73.6648C62.0675 74.2748 65.6675 74.3448 69.0275 72.9748C69.8775 72.6248 71.3175 72.9748 71.2575 71.6048C71.1975 70.1748 69.8675 69.9748 68.6775 69.8748C67.1075 69.7348 65.1875 70.3248 64.6975 67.9548L64.9275 67.6948Z" fill="#A81514"/>
<path d="M164.737 92.8447C160.757 95.2747 157.557 92.2547 154.057 91.3247C152.287 89.7847 149.847 89.0847 148.547 86.9447C151.037 87.0347 153.267 86.3847 155.477 89.1247C158.297 92.6147 163.467 90.8847 165.047 86.5747C166.647 87.6947 168.247 88.8247 169.957 90.0247C168.687 92.0847 166.027 91.2247 164.737 92.8447Z" fill="#A81514"/>
<path d="M165.017 86.5446C159.287 87.2446 159.887 80.9946 156.687 78.9046C156.347 78.6746 156.307 78.0046 156.087 77.5646C152.407 70.2146 153.267 68.7546 161.447 67.4346C164.177 66.9946 163.607 68.5546 163.647 69.9846C161.087 70.1946 157.537 68.7446 156.277 71.1746C155.187 73.2746 157.557 76.0346 158.907 78.2046C160.717 81.1246 162.957 83.7746 165.017 86.5446Z" fill="#A81514"/>
<path d="M98.6268 177.905C98.8568 179.245 99.0168 180.575 98.3868 181.865C95.9368 181.565 93.3669 182.934 91.2769 182.484C87.5769 181.694 87.7269 183.815 87.3469 185.995C85.7269 183.345 87.2268 180.564 87.0168 177.854C90.8968 177.864 94.7668 177.885 98.6268 177.905Z" fill="#F38E14"/>
<path d="M49.7975 62.8548C48.5475 59.8648 43.3075 60.1948 43.8475 55.7148C50.1775 59.4148 56.5075 63.1148 62.8375 66.8148C62.8375 66.8148 62.6875 67.0148 62.6975 67.0148C60.6975 66.8148 58.6175 67.0748 56.8175 65.8448C55.4975 64.2848 53.7475 63.8248 51.7975 63.8648C51.3675 63.0548 50.6275 62.8748 49.7975 62.8548Z" fill="#A81514"/>
<path d="M93.2069 123.935C86.5469 120.145 83.7568 121.345 81.9968 128.995C80.4968 125.525 81.0668 123.185 84.1868 121.545C87.8468 119.625 91.0669 120.145 93.2069 123.935Z" fill="#B2335B"/>
<path d="M82.7271 61.3646C84.7471 61.3146 86.7571 61.2646 88.7771 61.2046C88.7971 61.7546 91.2471 62.5246 88.8171 62.7846C85.8971 63.1046 82.9171 62.8546 78.4971 62.8546C80.8071 62.0446 81.7671 61.7046 82.7271 61.3646Z" fill="#F9EFBA"/>
<path d="M103.777 158.805C104.627 155.745 107.417 155.614 109.777 154.854C108.827 157.764 106.337 158.345 103.777 158.805Z" fill="#B2335B"/>
<path d="M31.527 145.765C31.297 145.745 31.077 145.785 30.867 145.885C30.607 143.055 31.047 140.385 32.577 137.945C32.667 138.245 32.777 138.535 32.877 138.825C32.867 139.505 32.867 140.185 32.857 140.865C32.417 142.495 31.967 144.135 31.527 145.765Z" fill="#6C180B"/>
<path d="M42.627 71.3047C43.017 71.1347 43.4169 70.9647 43.8069 70.8047C44.8069 70.8247 45.797 70.8447 46.797 70.8547C47.167 71.4747 47.537 72.0947 47.907 72.7147L47.727 72.9547C45.847 72.9147 44.187 72.2747 42.627 71.3047Z" fill="#A81514"/>
<path d="M109.787 154.845C109.837 153.555 110.457 152.845 111.797 152.865C111.867 154.285 111.047 154.795 109.787 154.845Z" fill="#B2335B"/>
<path d="M100.797 159.885C101.447 158.615 102.637 158.865 103.737 158.845C103.057 160.025 101.887 159.835 100.797 159.885Z" fill="#B2335B"/>
<path d="M112.787 151.865C113.057 151.075 113.727 150.915 114.427 150.815C114.307 151.855 113.617 151.975 112.787 151.865Z" fill="#B2335B"/>
<path d="M62.8268 66.8047C63.5268 67.1047 64.2168 67.4047 64.9168 67.7047L64.6768 67.9747C64.0168 67.6547 63.3468 67.3347 62.6768 67.0147L62.8268 66.8047Z" fill="#A81514"/>
<path d="M111.787 152.865C112.117 152.535 112.457 152.195 112.787 151.865C112.797 152.535 112.477 152.885 111.787 152.865Z" fill="#B2335B"/>
<path d="M67.7769 57.8746C62.3069 57.0946 56.7369 56.6946 51.7769 53.8846C51.7769 52.5546 51.7469 51.2246 51.7969 49.8946C52.2469 37.8646 48.9669 39.5746 39.8469 40.0746C34.7069 40.3546 36.5669 45.7146 36.4469 48.5246C36.1769 54.8346 36.6869 54.8646 30.4569 54.8546C28.3069 54.8546 26.1969 54.9146 24.0769 54.1246C19.2669 52.3246 17.9169 49.5346 19.5669 44.6646C20.1969 42.8046 20.4068 40.7946 20.8068 38.8546C21.4668 38.8546 22.1269 38.8446 22.7869 38.8446C26.3569 39.9646 27.7169 35.7946 30.5969 35.5146C35.5169 35.0246 36.3369 32.0446 35.8469 27.8946C35.6469 26.2546 35.8169 24.5746 35.8269 22.9146C36.2069 22.2846 36.5869 21.6546 36.9669 21.0246C38.2469 20.9646 39.5269 20.9046 40.7969 20.8546C42.4369 22.4946 44.0669 24.4546 46.6969 23.6946C52.6669 21.9846 58.6269 20.3046 64.8769 19.9746C66.1569 19.9046 68.4369 19.2746 67.5469 18.0446C65.4069 15.0946 68.6368 11.4446 65.8068 8.89462C68.4568 6.69462 71.6369 6.84461 74.7869 6.84461C78.1569 8.32461 80.9069 8.33463 81.7969 3.90463C83.1269 3.89463 84.4569 3.88461 85.7869 3.87461C88.8369 8.58461 90.6069 4.30462 92.7969 2.88462C93.1269 2.87462 93.4569 2.87461 93.7869 2.87461C94.8769 2.85461 96.0469 3.06462 96.7869 1.91462C101.477 1.77462 106.157 1.74462 110.767 2.86462C111.777 2.86462 112.797 2.86462 113.807 2.86462C114.807 3.19462 115.807 3.53462 116.807 3.86462C111.527 6.01462 106.017 4.36462 100.637 4.86462C99.3169 4.98462 97.9769 4.85463 96.6369 4.90463C95.6869 4.94463 94.3669 4.73461 94.3569 6.12461C94.3469 7.26461 95.4269 7.79462 96.4669 7.78462C100.277 7.75461 104.087 8.26462 107.897 7.36462C114.457 5.82462 116.787 7.72462 116.777 14.4446C116.767 16.9546 116.627 19.4246 118.547 21.4746C120.747 23.8146 118.487 25.7446 117.287 26.9846C115.817 28.5146 114.957 26.1746 113.957 25.2846C112.367 23.8646 103.767 23.2246 102.087 24.4146C100.397 25.6046 100.157 33.2646 101.737 36.2646C102.277 37.2946 103.457 38.4346 103.277 39.2846C102.957 40.7646 102.087 42.4446 100.917 43.3146C99.9169 44.0546 99.0469 42.4146 98.2269 41.6346C96.4269 39.9246 87.8769 39.0846 86.0469 40.4146C83.8469 42.0246 84.1369 51.7246 86.7669 52.6146C90.3669 53.8446 90.6669 55.8746 89.7869 58.8646C89.1269 58.8646 88.4669 58.8646 87.8068 58.8646C81.2368 56.0846 74.5569 56.0046 67.7769 57.8746Z" fill="#B80002"/>
<path d="M188.547 201.165C190.967 202.965 193.387 204.775 195.817 206.575C194.077 209.805 191.487 212.115 188.197 213.695C187.307 210.695 187.877 207.455 186.427 204.505C185.537 202.685 186.217 201.245 188.547 201.165Z" fill="#F9EFBA"/>
<path d="M162.228 220.265C165.568 217.875 168.107 217.385 171.497 218.215C168.747 220.275 166.218 220.955 162.228 220.265Z" fill="#E9AA8A"/>
<path d="M146.917 154.835C149.187 153.615 151.657 153.085 154.187 152.815C156.107 161.225 158.037 169.635 159.957 178.045C159.587 181.115 160.817 183.895 161.537 186.765C162.007 188.645 162.287 190.815 159.357 190.275C157.157 189.865 153.447 193.405 152.897 188.125C152.747 186.665 153.117 185.105 151.877 183.925C151.787 183.525 151.697 183.125 151.607 182.735C150.677 176.725 150.237 170.615 147.777 164.935C147.697 164.165 147.607 163.395 147.527 162.635C147.327 160.035 147.127 157.435 146.917 154.835Z" fill="#44A2C8"/>
<path d="M166.097 149.255C164.967 146.565 163.837 143.875 162.697 141.185C164.497 140.255 166.297 139.325 168.087 138.395C171.637 142.475 167.587 145.515 166.617 148.975C166.437 149.055 166.267 149.155 166.097 149.255Z" fill="#A81514"/>
<path d="M188.017 164.375C187.107 161.755 186.197 159.125 184.917 155.425C187.977 158.075 188.557 161.195 190.367 163.415C189.747 164.125 189.067 164.715 188.017 164.375Z" fill="#E9AA8A"/>
<path d="M95.7274 317.815C95.6374 318.295 95.6974 319.065 95.4274 319.205C87.8674 323.195 80.3274 327.225 72.3574 330.365C72.1974 330.425 71.8574 330.015 71.6074 329.825C73.2474 325.455 77.9574 325.275 81.2274 323.515C83.9274 322.055 87.0974 320.925 89.6774 319.215C91.7374 317.835 93.7474 318.375 95.7274 317.815Z" fill="#E43B70"/>
<path d="M50.3968 221.495C51.6768 220.945 53.0768 220.515 54.2868 219.775C56.9368 218.155 58.2168 219.015 58.8168 221.845C59.2568 223.925 59.4967 226.235 61.2467 227.685C65.4867 231.215 63.2068 233.995 60.3368 236.675C57.4668 239.355 53.5668 238.945 50.0968 239.755C48.8568 240.045 47.9068 238.945 48.7268 238.055C50.4868 236.145 45.0668 234.305 48.7868 232.855C51.3168 231.865 52.0767 230.315 51.3067 227.865C50.9967 226.885 50.5468 225.845 51.5668 225.175C55.9968 222.255 50.3568 223.275 50.3968 221.495Z" fill="#E9AA8A"/>
<path d="M60.6974 192.905C57.8374 192.135 56.2275 190.155 54.6475 186.695C58.1175 188.265 60.0975 189.885 60.8475 192.755L60.6974 192.905Z" fill="#A81514"/>
<path d="M43.3672 202.505C43.3972 200.165 44.5372 199.704 45.4672 198.854C46.3572 200.784 44.9672 201.235 43.3672 202.505Z" fill="#FEFEFE"/>
<path d="M60.8575 192.745C61.4775 192.895 62.2275 192.935 62.3075 193.775C62.3275 193.955 61.9275 194.355 61.7475 194.335C60.9075 194.265 60.8575 193.525 60.7075 192.895C60.6975 192.905 60.8575 192.745 60.8575 192.745Z" fill="#A81514"/>
<path d="M168.297 138.195C171.187 134.985 169.377 128.335 170.877 127.725C174.727 126.135 177.897 124.535 179.997 120.925C180.487 123.975 181.147 127.125 176.727 127.835C176.047 127.945 175.427 128.015 175.547 128.925C176.157 133.925 171.037 135.135 169.187 138.515C169.157 138.545 168.607 138.305 168.297 138.195Z" fill="#A81514"/>
<path d="M179.817 119.354C179.697 119.384 179.587 119.405 179.467 119.435C179.577 119.445 179.687 119.465 179.797 119.475C179.807 119.475 179.817 119.354 179.817 119.354Z" fill="#A81514"/>
<path d="M196.728 128.955C197.158 129.155 197.578 129.355 198.008 129.555C197.578 129.355 197.148 129.155 196.728 128.955Z" fill="#A81514"/>
<path d="M101.677 345.745C101.927 344.445 102.507 343.355 103.717 342.695C103.767 344.205 103.827 345.715 101.677 345.745Z" fill="#B2335B"/>
<path d="M88.717 362.765C88.677 364.055 89.197 365.915 86.727 364.695C86.697 364.325 86.657 363.965 86.627 363.595L86.687 363.735C87.037 363.385 87.3869 363.045 87.7369 362.695H87.687C88.027 362.715 88.377 362.745 88.717 362.765Z" fill="#E43B70"/>
<path d="M104.678 341.755C104.338 340.495 104.718 339.485 105.708 338.675C105.668 339.805 106.028 341.065 104.678 341.755Z" fill="#B2335B"/>
<path d="M100.617 347.725C100.587 346.825 100.997 346.165 101.737 345.685C101.697 346.545 101.677 347.425 100.617 347.725Z" fill="#B2335B"/>
<path d="M99.6768 349.755C99.3868 348.765 99.7568 348.085 100.677 347.675C100.737 348.555 100.617 349.355 99.6768 349.755Z" fill="#B2335B"/>
<path d="M86.6273 363.595C86.6573 363.965 86.6973 364.325 86.7273 364.695C86.0473 364.705 85.3673 364.715 84.6973 364.735C85.0773 363.905 85.6073 363.325 86.6273 363.595Z" fill="#B2335B"/>
<path d="M79.6875 367.725C80.1575 366.835 81.0275 366.695 81.8975 366.545C81.5075 367.585 80.6275 367.705 79.6875 367.725Z" fill="#B2335B"/>
<path d="M103.667 342.745C103.757 342.135 103.857 341.525 104.717 341.685C104.367 342.045 104.017 342.395 103.667 342.745Z" fill="#B2335B"/>
<path d="M98.5176 350.645C98.7376 350.085 98.9575 349.535 99.7375 349.695C99.3275 350.005 98.9176 350.325 98.5176 350.645Z" fill="#B2335B"/>
<path d="M88.7176 362.765C88.3676 362.745 88.0275 362.715 87.6775 362.695C87.6275 361.855 88.0876 361.635 88.8276 361.735C88.7976 362.075 88.7576 362.425 88.7176 362.765Z" fill="#B2335B"/>
<path d="M83.6973 365.735C83.7373 365.065 84.1573 364.775 84.7673 364.685C84.4073 365.035 84.0473 365.385 83.6973 365.735Z" fill="#B2335B"/>
<path d="M82.1973 366.715C82.4373 365.945 82.9873 365.645 83.7573 365.685C83.2373 366.035 82.7173 366.375 82.1973 366.715Z" fill="#B2335B"/>
<path d="M77.5771 332.555C79.1171 331.785 80.6571 331.015 82.1971 330.245C81.5271 332.395 79.8972 332.875 78.2972 333.395C78.0672 333.115 77.8171 332.835 77.5771 332.555Z" fill="#B2335B"/>
<path d="M94.3173 325.415C93.3273 326.185 92.3573 326.995 90.9973 327.025C90.7573 326.755 90.5173 326.485 90.2773 326.215C91.3973 325.685 92.5173 325.155 93.6373 324.625C93.8573 324.885 94.0873 325.145 94.3173 325.415Z" fill="#B2335B"/>
<path d="M90.9967 327.025C90.3367 327.365 89.6767 327.705 89.0167 328.055C88.8067 327.815 88.5867 327.565 88.3867 327.315C89.0167 326.945 89.6467 326.585 90.2767 326.215C90.5167 326.485 90.7567 326.755 90.9967 327.025Z" fill="#B2335B"/>
<path d="M89.0172 328.045C88.4972 328.645 87.6372 329.365 87.1472 328.615C86.4872 327.595 87.8872 327.705 88.3772 327.305C88.5972 327.555 88.8072 327.805 89.0172 328.045Z" fill="#B2335B"/>
<path d="M96.217 324.385C95.577 324.725 94.9469 325.065 94.3069 325.405C94.0869 325.145 93.857 324.885 93.627 324.625C94.047 323.835 94.797 323.675 95.587 323.585C95.807 323.855 96.007 324.115 96.217 324.385Z" fill="#B2335B"/>
<path d="M190.787 440.835C181.557 443.295 172.137 444.415 162.617 444.765C159.957 444.865 157.347 444.915 154.847 445.885C157.007 442.495 157.767 439.125 154.637 435.845L154.827 435.655C158.607 436.355 161.967 437.575 165.787 434.165C167.917 432.265 172.617 432.315 175.877 432.185C180.127 432.005 183.097 430.575 186.247 428.305C188.187 426.915 189.727 426.835 189.817 430.215C189.917 433.745 188.547 437.485 190.787 440.835Z" fill="#F33E76"/>
<path d="M154.647 435.845C154.027 435.675 153.277 435.635 153.217 434.785C153.207 434.605 153.597 434.205 153.787 434.215C154.637 434.275 154.677 435.025 154.837 435.655L154.647 435.845Z" fill="#F33E76"/>
<path d="M13.8069 67.8746C11.2469 69.8846 14.9069 72.7846 12.8169 74.8646C11.4669 75.4246 10.7869 76.4246 10.8269 77.8946C10.8069 84.5546 11.0569 91.2347 9.82695 97.8347C7.76695 98.8847 10.1269 102.625 6.75694 102.885C6.42694 102.545 6.10696 102.215 5.77696 101.875C5.46696 101.535 5.15697 101.185 4.84697 100.845C4.50697 97.1847 4.15694 93.5146 3.81694 89.8546C5.29694 89.1746 6.05692 92.6447 7.48692 90.6847C8.33692 89.5147 7.82694 87.8546 6.94694 86.4846C6.05694 85.1046 5.26693 83.6346 4.68693 82.1146C3.61693 79.3046 2.04696 76.3647 7.21696 75.6947C10.007 75.3347 10.5669 73.3647 8.81694 70.9647C6.69694 68.0447 7.35698 63.5847 10.297 61.1847C14.787 57.5147 19.9969 56.2846 25.6769 56.8946C30.4069 57.4046 28.077 60.5246 27.797 62.8746C25.137 62.8746 22.4869 62.8746 19.8269 62.8746C16.4569 62.9046 15.3169 65.6146 13.8069 67.8746Z" fill="#B80002"/>
<path d="M46.7874 70.8548C45.7874 70.8348 44.7974 70.8248 43.7974 70.8048C43.6574 67.8548 42.5673 65.3748 40.1973 63.5348C39.2073 62.7648 38.4173 61.7548 39.2673 60.6048C40.0573 59.5248 41.4173 59.6848 42.4273 60.3448C44.6873 61.8148 47.0774 62.8048 49.7974 62.8648C49.9874 64.1448 50.1874 65.3848 51.7874 63.8748C53.7374 63.8348 55.4873 64.2848 56.8073 65.8548C53.5473 67.6648 48.7174 66.3448 46.7874 70.8548Z" fill="#B80002"/>
<path d="M9.78711 51.8547C9.96711 49.0747 9.52711 45.8847 13.7871 45.8247C15.3371 51.7047 15.3371 51.7047 9.78711 51.8547Z" fill="#B80002"/>
<path d="M12.8373 100.815C15.0773 101.255 14.1873 104.785 16.8073 104.845C15.7173 108.705 20.2573 110.625 20.0073 114.365C19.8873 116.175 21.0373 118.045 17.9473 117.885C15.5773 117.765 16.0173 120.245 14.8573 121.245C13.9073 122.065 12.1973 123.495 12.0673 121.365C11.7373 116.115 7.23727 112.235 7.74727 106.855C8.44727 106.845 9.13729 106.835 9.82729 106.825C11.3073 107.575 11.0373 109.905 13.3773 110.425C14.0273 107.565 14.1373 105.025 11.7873 102.855C11.8273 102.015 12.0273 101.255 12.8373 100.815Z" fill="#B80002"/>
<path d="M23.7369 122.205C23.0869 123.585 22.4069 125.755 20.4969 125.945C19.2169 126.075 16.9269 125.245 17.0069 123.205C17.1069 120.555 19.8069 120.845 21.4869 120.145C22.7869 119.595 23.6569 120.345 23.7369 122.205Z" fill="#B80002"/>
<path d="M12.8376 100.815C12.0276 101.255 11.8176 102.015 11.7976 102.865C9.12761 103.195 9.99759 105.265 9.83759 106.835C9.14759 106.845 8.44757 106.855 7.75757 106.865C6.35757 105.805 6.93758 104.255 6.76758 102.895C10.1276 102.635 7.76758 98.8947 9.82758 97.8447C11.7176 97.9347 12.7176 98.9347 12.8376 100.815Z" fill="#B40405"/>
<path d="M13.7273 129.435C13.5273 127.855 12.3073 126.225 13.9873 125.055C14.2273 124.885 15.0673 125.135 15.2573 125.435C16.4173 127.295 14.7973 128.275 13.7273 129.435Z" fill="#B80002"/>
<path d="M4.85742 100.854C5.16742 101.194 5.47741 101.544 5.78741 101.884C5.47741 101.534 5.16742 101.194 4.85742 100.854Z" fill="#B40405"/>
<path d="M139.017 448.905C139.297 448.975 139.577 449.065 139.857 449.145C139.657 449.285 139.457 449.465 139.237 449.555C139.117 449.605 138.947 449.505 138.797 449.465C138.877 449.285 138.947 449.095 139.017 448.905Z" fill="#E43B70"/>
<path d="M128.747 448.745C129.377 448.825 130.007 448.895 130.647 448.975C130.557 449.155 130.477 449.345 130.387 449.525C129.847 449.265 129.307 448.995 128.767 448.735L128.747 448.745Z" fill="#E43B70"/>
<path d="M128.757 448.735C128.337 448.615 127.927 448.505 127.507 448.385C128.207 447.515 128.387 448.415 128.747 448.745L128.757 448.735Z" fill="#E43B70"/>
<path d="M31.5273 145.765C31.9773 144.135 32.4173 142.495 32.8673 140.865C34.6173 143.095 34.0973 144.715 31.5273 145.765Z" fill="#FBC0A0"/>
<path d="M65.7874 8.89453C68.6174 11.4445 65.3773 15.1045 67.5273 18.0445C68.4173 19.2745 66.1374 19.9045 64.8574 19.9745C58.6074 20.2945 52.6473 21.9845 46.6773 23.6945C44.0373 24.4445 42.4173 22.4945 40.7773 20.8545C41.3573 19.5645 42.3373 18.8845 43.7573 18.8545C45.5573 19.8745 47.1674 21.8545 49.5474 20.3645C51.6174 19.0645 49.6473 17.3745 49.8073 15.8745C54.7873 12.7745 60.5074 11.3545 65.7874 8.89453ZM62.6674 14.7145C62.8474 14.4845 63.3873 13.9345 63.3173 13.8445C62.9573 13.3645 62.4973 12.8245 61.9573 12.6445C61.0773 12.3545 60.8673 13.0345 60.9873 13.7445C61.1173 14.5145 61.7374 14.7145 62.6674 14.7145Z" fill="#B40405"/>
<path d="M49.7971 15.8647C49.6371 17.3647 51.6071 19.0548 49.5371 20.3548C47.1571 21.8448 45.5471 19.8647 43.7471 18.8447C45.1271 16.5747 47.3071 15.9147 49.7971 15.8647Z" fill="#B80002"/>
<path d="M81.7776 3.90479C80.8876 8.33478 78.1376 8.32477 74.7676 6.84477C76.9676 5.55477 79.2376 4.40479 81.7776 3.90479Z" fill="#B40405"/>
<path d="M92.7668 2.87465C90.5868 4.29465 88.8068 8.57466 85.7568 3.86466C87.8868 2.04466 90.4368 3.24465 92.7668 2.87465Z" fill="#B40405"/>
<path d="M96.7568 1.91455C96.0168 3.06455 94.8568 2.85455 93.7568 2.87455C94.4968 1.72455 95.6568 1.91455 96.7568 1.91455Z" fill="#B40405"/>
<path d="M113.787 2.8548C112.777 2.8548 111.757 2.8548 110.747 2.8548C111.757 1.6148 112.767 1.6148 113.787 2.8548Z" fill="#B40405"/>
<path d="M178.658 163.755C178.198 166.185 176.668 165.855 175.438 165.805C171.368 165.645 172.878 161.935 171.848 159.865C171.518 159.205 172.138 157.875 173.058 158.325C175.608 159.565 177.318 161.745 178.658 163.755Z" fill="#B40405"/>
<path d="M87.7372 362.695C87.3872 363.045 87.0372 363.385 86.6872 363.735C86.4672 362.805 86.9772 362.625 87.7372 362.695Z" fill="#B2335B"/>
<path d="M35.8067 22.9146C35.8067 24.5746 35.6367 26.2645 35.8267 27.8945C36.3167 32.0345 35.5067 35.0245 30.5767 35.5145C27.6967 35.7945 26.3467 39.9645 22.7667 38.8445C22.1067 34.9545 25.5567 32.8946 26.7867 29.8546C27.0767 32.0046 28.1767 33.6145 30.3567 32.3445C31.8767 31.4545 33.7667 29.6145 30.7667 27.8445C32.6667 26.4245 33.0567 23.4746 35.8067 22.9146Z" fill="#B40405"/>
<path d="M30.7671 27.8447C33.7671 29.6147 31.8771 31.4547 30.3571 32.3447C28.1771 33.6147 27.0771 32.0047 26.7871 29.8547C28.1171 29.1847 29.4471 28.5147 30.7671 27.8447Z" fill="#B80002"/>
<path d="M87.3574 185.995C87.7374 183.815 87.5974 181.695 91.2874 182.485C93.3674 182.935 95.9474 181.565 98.3974 181.865C100.377 183.935 99.6874 186.575 99.7374 188.965C99.7974 191.905 100.227 193.495 103.707 192.045C105.147 191.445 106.967 191.735 108.607 191.625C108.327 193.675 107.077 195.605 107.817 197.785C107.187 200.345 106.107 200.285 104.877 198.205C104.567 197.685 104.647 196.365 104.577 196.365C102.677 196.415 101.287 193.285 99.6674 194.825C98.4274 196.005 100.607 197.075 101.617 197.905C102.207 198.395 102.387 198.905 102.387 199.575C100.667 204.615 102.147 209.795 101.707 214.885C100.687 212.895 99.6774 210.905 98.6674 208.915C99.8374 207.425 98.2574 206.175 98.3174 204.825C98.4374 202.305 93.6674 200.395 97.4874 197.295C98.0874 196.815 96.6174 195.675 95.5774 196.195C94.5874 196.685 93.9874 197.875 92.6974 197.905V197.885C93.2574 192.895 90.0474 189.565 87.4674 185.945L87.3574 185.995Z" fill="#F8BD0A"/>
<path d="M147.777 164.935C150.237 170.615 150.677 176.725 151.607 182.735C148.977 177.095 147.847 171.125 147.777 164.935Z" fill="#E9AA8A"/>
<path d="M107.807 197.785C107.067 195.605 108.327 193.675 108.597 191.625C109.917 190.675 109.897 189.254 109.907 187.854C110.537 188.324 111.167 188.805 111.797 189.275C112.627 192.575 110.137 195.004 109.517 197.914C108.947 197.874 108.377 197.825 107.807 197.785Z" fill="#FBC0A0"/>
<path d="M146.917 154.835C147.117 157.435 147.327 160.035 147.527 162.625C146.147 162.595 146.147 161.505 145.957 160.575C146.127 158.565 145.697 156.705 144.577 155.015C145.357 154.965 146.137 154.895 146.917 154.835Z" fill="#E9AA8A"/>
<path d="M92.6875 197.915C93.9875 197.885 94.5875 196.695 95.5675 196.205C96.6075 195.685 98.0775 196.815 97.4775 197.305C93.6575 200.405 98.4175 202.315 98.3075 204.835C98.2475 206.185 99.8175 207.445 98.6575 208.925C96.6675 205.255 94.6775 201.585 92.6875 197.915Z" fill="#F38E14"/>
<path d="M87.457 185.955C90.037 189.565 93.247 192.905 92.687 197.895C90.637 194.045 88.137 190.405 87.457 185.955Z" fill="#F38E14"/>
<path d="M67.7773 57.8747C74.5573 56.0047 81.2374 56.0848 87.7874 58.8848C85.9774 60.6448 83.5973 60.1348 81.6873 59.7448C77.0773 58.8348 72.2373 59.6947 67.7773 57.8747Z" fill="#B40405"/>
<path d="M98.7672 57.865C98.4172 58.115 98.0672 58.355 97.7172 58.605C97.3872 57.415 98.4272 58.125 98.7572 57.855L98.7672 57.865Z" fill="#B40405"/>
<path d="M13.8066 67.8745C15.3166 65.6145 16.4467 62.9045 19.8167 62.8745C18.9967 65.9645 17.2166 67.8945 13.8066 67.8745Z" fill="#B40405"/>
<path d="M10.8269 77.8947C10.7869 76.4247 11.4669 75.4247 12.8169 74.8647C12.8469 76.3147 12.8269 77.7547 10.8269 77.8947Z" fill="#B40405"/>
<path d="M46.7871 70.8547C48.7071 66.3547 53.5471 67.6747 56.8071 65.8447C58.5971 67.0747 60.6871 66.8047 62.6871 67.0147C63.3571 67.3347 64.0171 67.6547 64.6871 67.9747C65.1771 70.3447 67.0971 69.7547 68.6671 69.8947C69.8571 69.9947 71.1871 70.2047 71.2471 71.6247C71.3071 72.9947 69.8671 72.6447 69.0171 72.9947C65.6571 74.3647 62.0571 74.2947 58.7271 73.6847C55.1071 73.0247 51.5071 73.0347 47.8971 72.7147C47.5271 72.0847 47.1571 71.4647 46.7871 70.8547Z" fill="#B40405"/>
<path d="M51.7869 63.865C50.1869 65.375 49.9769 64.135 49.7969 62.855C50.6269 62.875 51.3669 63.055 51.7869 63.865Z" fill="#B40405"/>
<path d="M9.83685 106.824C9.99685 105.254 9.12687 103.184 11.7969 102.854C14.1369 105.024 14.0368 107.564 13.3868 110.424C11.0468 109.904 11.3168 107.574 9.83685 106.824Z" fill="#A81514"/>
<path d="M62.6673 14.7147C61.7373 14.7247 61.1173 14.5247 60.9873 13.7447C60.8673 13.0347 61.0873 12.3547 61.9573 12.6447C62.4973 12.8247 62.9473 13.3647 63.3173 13.8447C63.3873 13.9247 62.8473 14.4747 62.6673 14.7147Z" fill="#B80002"/>
</svg>
