<svg width="199" height="456" viewBox="0 0 199 456" fill="none" xmlns="http://www.w3.org/2000/svg">
<path d="M162.13 285.963C166.93 299.403 171.71 312.843 176.54 326.263C177.85 329.893 177.19 332.233 173.55 334.443C164.01 340.233 153.2 342.523 142.98 346.423C142.25 347.093 141.57 347.903 140.58 348.113C130.43 350.323 120.27 352.543 109.76 350.983C102.91 350.323 96.0599 350.453 89.1999 350.873C82.8199 352.463 76.3899 351.623 70.0999 350.633C65.9799 349.983 61.3499 350.403 57.9299 347.103C51.3999 344.733 44.8999 342.293 38.3399 340.003C34.2099 338.563 32.9799 335.823 34.4099 331.853C39.1499 318.763 42.9299 305.383 46.9899 292.083C50.2599 295.093 53.0899 295.093 57.3399 292.103C61.4999 289.183 62.9899 284.633 64.6699 280.193C64.9199 279.263 65.2199 278.353 65.9299 277.653C67.8999 276.273 70.1499 277.983 72.4799 277.033C71.4599 275.043 69.2999 274.793 67.8499 273.643C67.0699 273.023 65.9499 272.433 66.1299 271.403C66.3699 270.053 67.7899 269.953 68.9299 269.793C70.5899 269.573 72.2399 269.763 73.8799 270.053C75.4399 270.333 77.0699 270.913 78.4999 269.643C77.9099 267.383 75.9699 267.513 74.5499 266.873C73.2399 266.283 71.0299 266.093 71.2699 264.413C71.5599 262.403 73.8499 262.913 75.4099 262.683C76.9799 262.443 78.7299 263.093 80.4099 261.513C77.3799 258.963 73.5199 259.523 70.2499 258.363C69.0699 257.943 67.2199 258.013 67.2299 256.373C67.2399 254.843 68.9999 254.643 70.1999 254.163C72.3199 253.323 74.8699 254.273 77.1899 252.393C75.2899 250.643 73.0999 251.463 71.1599 251.253C68.9099 251.013 66.3899 251.573 64.9999 248.973C63.1299 244.323 63.6799 239.453 63.6499 234.653C63.6099 227.833 63.5599 221.003 63.6899 214.183C63.7399 211.553 64.1199 209.043 67.6599 209.093C70.7799 209.863 69.9699 212.613 70.4599 214.713C70.7599 215.993 70.9299 217.643 72.6099 217.513C74.4399 217.373 74.0699 215.653 74.0499 214.393C74.0099 212.603 73.6299 210.743 75.2999 209.373C77.5999 208.223 80.2499 208.803 82.5899 207.843C92.9499 205.933 103.51 206.643 113.93 205.463C117.96 205.863 122.06 205.093 126.06 206.023C127.89 206.723 127.98 208.473 128.45 210.013C128.8 211.153 129.29 212.293 130.76 211.993C131.9 211.753 132.06 210.673 132.16 209.673C132.33 207.793 131.82 205.503 134.81 205.333C138.94 207.023 138.48 211.093 138.91 214.263C141.57 234.103 145.09 253.813 147.55 273.673C147.69 274.163 147.77 274.663 147.79 275.173C148 278.713 148.06 282.393 152.93 282.783C154.23 282.893 154.33 283.863 154.78 284.753C156.94 288.983 158.43 289.203 162.13 285.963Z" fill="#43A2C8"/>
<path d="M150.78 152.043C144.39 156.013 137.91 159.843 131.67 164.023C129.56 165.433 127.35 166.223 125.07 167.093C123.91 167.533 121.21 167.543 123.01 170.193C122.96 171.643 121.82 171.813 120.78 172.123C119.19 172.373 117.58 172.333 115.98 172.403C112.88 172.743 109.81 173.973 106.67 172.693C104.7 170.973 106.4 170.113 107.59 169.373C108.84 168.593 110.11 168.103 110.79 166.523C112.32 162.953 113.96 159.663 108.31 158.113C107.15 157.793 104.97 156.773 106.35 154.483C110.46 153.333 114.71 153.023 118.87 152.213C120.53 152.293 122.8 154.053 123.21 150.633C123.72 149.283 124.62 148.203 125.59 147.163C129.61 143.323 132.74 139.053 132.78 133.153C132.82 127.393 132.17 126.663 126.45 126.633C115.44 126.823 104.79 129.463 94.0598 131.463C85.5798 133.173 84.0298 137.653 89.5998 144.273C92.1098 147.253 95.1999 149.463 98.6999 151.123C100.47 152.013 102.61 152.213 103.93 153.923C105.08 157.973 104.23 159.633 100.62 160.383C99.6398 160.583 98.6398 160.483 97.6498 160.493C90.6098 160.583 86.5798 154.473 80.6598 152.233C79.9698 151.973 79.4098 150.893 79.4698 150.133C79.8698 144.533 77.9499 139.043 78.4499 133.513C78.8099 129.523 80.6498 126.193 85.4998 125.923C86.8098 125.853 87.9999 125.073 89.1999 124.523C90.0098 124.023 90.7798 123.403 91.5398 123.173C90.7198 123.163 90.1499 124.033 89.3299 124.443C87.6799 125.233 85.9598 125.783 84.1798 126.223C79.3098 127.413 76.7598 131.113 77.6898 135.973C78.2398 138.853 77.6998 141.303 75.6198 143.243C73.4798 145.243 71.2698 145.723 69.6498 142.513C69.4898 141.683 69.6398 140.923 70.0598 140.173C73.2698 134.403 73.2398 134.333 66.8998 131.603C61.9898 128.323 61.6998 128.353 58.5598 132.673C58.0498 133.313 57.4498 133.873 56.9698 134.543C54.1598 138.443 55.1298 140.463 59.9098 141.603C63.0898 142.353 66.3698 140.193 69.4198 142.203C69.6698 149.593 63.2198 154.063 55.9398 151.533C54.9498 150.943 54.0198 150.253 52.9698 149.753C53.6798 150.323 54.5898 150.583 55.2898 151.173C56.7598 151.853 58.0098 152.953 59.8698 152.783C66.7298 152.143 66.7299 152.193 69.0799 158.403C70.5999 158.293 71.0798 156.773 72.1698 156.083C74.1598 154.813 76.2298 154.473 78.2498 155.793C80.2498 157.113 80.4199 159.113 79.3299 161.063C78.1999 163.083 79.1998 164.063 80.7298 165.103C82.3898 166.233 84.0199 167.483 83.5098 169.913C82.6599 172.013 84.5298 172.453 85.6598 173.183C93.6298 178.333 102.56 179.643 111.77 179.033C114.77 178.833 116.28 179.183 116.07 182.433C115.57 185.283 113.54 187.063 111.48 188.743C104.8 194.173 90.7998 194.963 83.5598 190.333C80.8098 188.573 78.6698 186.173 78.0898 182.903C77.5898 180.093 76.0899 178.463 73.5099 177.633C72.0399 176.183 73.4198 175.673 74.3998 175.133C75.6698 174.433 77.4898 174.203 77.2698 172.203C77.0498 170.213 75.2998 169.663 73.7398 169.103C67.1798 166.703 60.4999 164.613 54.4499 161.003C52.4099 158.633 50.1798 157.333 46.7198 157.853C37.3498 159.273 29.2198 156.243 22.1698 150.073C22.1098 147.583 19.9298 146.513 18.6098 144.883C12.3198 137.153 11.2798 128.143 12.1298 118.663C12.2898 116.873 12.6398 115.093 12.0998 113.303C13.4698 111.203 15.1699 109.393 17.3299 108.143C21.5799 105.683 24.9298 107.343 25.2498 112.243C25.5398 116.673 25.6999 121.143 24.5699 125.533C24.2199 126.903 23.3698 128.343 24.5898 129.733C26.2998 130.933 27.3498 132.313 25.8398 134.373C24.0998 135.303 21.8699 133.613 19.4499 136.113C25.2699 137.113 27.7099 144.053 34.3899 142.233C40.7699 142.413 41.3598 141.533 39.7198 135.473C38.4298 130.693 35.7098 126.373 35.2098 121.343C40.0898 107.143 36.5698 93.3429 33.2098 79.5429C31.8998 73.5729 32.1498 73.3129 37.9198 72.6529C55.8898 70.6029 72.0099 64.1429 85.8299 52.3129C91.4299 48.2029 96.7798 43.8329 100.93 38.1729C102.2 36.4429 103.71 34.8829 105.48 33.6529C107.24 32.4329 108.59 32.4929 108.79 35.0729C105.86 44.7629 101.11 53.3929 93.8098 60.5129C92.5598 61.8529 91.0298 62.9329 89.8398 64.4829C92.3898 63.5229 95.0098 63.1929 97.2898 61.9129C106.8 57.8029 113.83 50.8629 119.51 42.4029C121.92 38.8029 124.26 35.1429 127.11 31.8729C130.65 27.8029 133.47 27.3229 138.11 29.9929C142.31 32.4129 145.91 35.6729 149.82 38.5029C156.74 43.5029 157.44 50.8529 158.07 58.4629C158.95 69.0729 160.2 79.6429 161.77 90.1829C162.46 94.8129 165.34 97.9129 167.65 101.483C167.21 106.633 162.33 106.153 159.63 108.003C163.91 107.723 166.88 104.263 170.56 102.173C172.14 101.833 173.68 101.713 174.92 103.053C172.18 104.143 170.32 105.673 171.11 109.113C172.02 113.093 169.7 116.843 170.02 120.823C170.02 121.813 169.93 122.773 169.34 123.623C165.1 127.513 162.51 132.213 161.02 137.853C159.48 143.683 155.68 148.363 150.78 152.043Z" fill="#FDC0A0"/>
<path d="M93.04 59.9029C100.26 52.9229 104.17 43.9329 108.18 35.0029C107.56 31.0129 109.36 28.2029 112.18 25.5329C117.49 20.5129 122.58 15.2629 127.72 10.0629C129.56 8.20286 131.44 6.67287 134.27 7.86287C152.81 17.0929 162.87 32.8029 168.09 52.1929C169.68 58.0929 171.12 64.0329 172.63 69.9429C173.79 74.4429 175.88 78.2729 180.77 80.3829C176.71 82.8328 173.16 83.5429 169.2 78.9929C169.09 87.1829 169.98 93.6429 174.89 98.9629C176.19 100.373 177.68 101.643 174.91 103.013C173.25 103.113 171.59 103.213 169.93 103.303C168.54 103.893 167.7 103.123 166.98 102.093C160.62 96.9629 160.29 89.4129 159.36 82.2629C158.09 72.4729 157.23 62.6229 156.3 52.7829C155.82 47.7729 154.33 43.4129 150.03 40.3229C145.89 37.3429 141.89 34.1629 137.76 31.1629C133.95 28.3929 130.62 29.0929 127.88 32.8429C123.85 38.3429 120.03 44.0129 115.79 49.3329C110.86 55.5229 104.88 60.4929 97.22 63.0929C94.63 63.6229 92.11 64.0329 93.04 59.9029Z" fill="#B70203"/>
<path d="M66.0798 249.763C69.5698 249.813 73.0497 249.823 76.5397 249.933C77.8497 249.973 79.4497 250.013 79.6697 251.713C79.8997 253.553 78.3398 254.363 76.9298 254.743C74.0898 255.513 70.9398 254.653 67.7398 256.473C72.1798 257.463 76.2398 258.313 80.2598 259.293C81.5098 259.603 83.0298 260.023 82.8898 261.763C82.7398 263.653 81.2697 264.113 79.6597 264.133C77.1797 264.173 74.6898 264.143 71.8898 264.143C73.9098 266.073 76.6598 265.453 78.6398 266.723C79.7398 267.433 81.2098 268.003 80.9398 269.613C80.6398 271.443 79.0698 271.693 77.4998 271.793C74.0198 272.013 70.6998 270.103 66.3098 271.213C69.1398 272.833 71.4698 274.113 73.7398 275.483C74.5498 275.973 75.6697 276.543 75.2797 277.723C74.9397 278.753 73.8197 279.123 72.7998 279.003C70.5098 278.733 68.2397 278.313 65.9597 277.953C64.5997 279.253 63.1997 278.533 61.8397 277.983C58.6597 276.693 56.0597 277.243 54.1597 280.243C52.3597 280.803 51.2698 282.763 49.1898 282.773C48.9998 281.983 48.9098 280.543 48.6098 280.493C41.2898 279.363 37.8898 272.933 33.0098 268.703C24.2298 261.093 16.1297 252.733 8.28974 244.093C1.12974 236.193 4.14975 227.543 7.66975 221.113C9.14975 218.413 11.9197 216.533 10.3497 212.723C9.72974 211.213 11.3197 210.083 13.0397 209.903C12.4997 215.443 16.5297 218.673 19.6697 222.083C23.7197 226.493 27.4197 231.213 31.6697 235.453C33.9997 237.773 36.2097 240.103 39.3497 241.303C38.7697 244.513 44.0298 253.163 47.0498 253.663C50.1398 254.183 50.6197 251.893 50.7097 249.633C50.8897 245.173 50.6898 240.703 50.8098 236.233C50.8598 234.313 50.3797 232.193 52.2697 230.733C54.8297 231.623 54.2798 233.903 54.3698 235.753C54.5498 239.553 54.3998 243.363 54.4498 247.173C54.4798 249.303 54.8197 250.953 57.5897 249.583C59.5997 248.593 61.7898 248.833 63.9398 248.903C64.7198 249.003 65.4298 249.313 66.0798 249.763Z" fill="#FDC0A0"/>
<path d="M57.9298 347.103C68.1898 349.733 78.7698 349.663 89.1998 350.873C87.5598 366.923 85.9298 382.983 84.2898 399.033C84.0898 401.023 83.9798 402.993 84.9598 404.843C83.7698 406.283 82.1498 406.483 80.4398 406.393C72.9198 406.013 65.3898 405.663 57.8598 405.593C56.3898 405.583 54.8598 405.233 54.0498 403.683C56.1898 402.563 56.1598 400.553 56.1598 398.553C56.1698 383.893 56.1898 369.233 56.1898 354.573C56.1798 351.933 55.8898 349.253 57.9298 347.103Z" fill="#FEC09F"/>
<path d="M109.76 350.983C117.63 349.043 125.89 350.383 133.75 348.083C136.73 347.213 139.9 346.953 142.98 346.423C143.19 353.123 141.3 359.543 140.38 366.093C138.7 378.063 136.8 390.003 135.1 401.963C134.98 402.813 135.71 403.793 136.04 404.713C135.37 406.123 134.09 406.423 132.73 406.353C124.79 405.993 116.84 405.783 108.9 405.313C107.76 405.243 106.62 404.893 106.02 403.713C107.79 402.103 107.92 400.043 107.97 397.793C108.29 383.823 108.72 369.853 109.15 355.893C109.21 354.253 109.55 352.623 109.76 350.983Z" fill="#FEBF9F"/>
<path d="M63.99 249.883C61.3 250.713 58.3499 249.763 55.7799 252.203C53.7199 254.163 53.2199 251.763 53.2099 250.003C53.1999 245.223 53.29 240.433 53.19 235.653C53.16 234.133 53.88 232.273 52.01 231.193C49.37 233.333 46.49 234.973 43.11 235.603C40.41 235.173 38.8299 233.113 37.2799 231.253C31.5499 224.413 25.4 217.933 19.86 210.933C18.97 209.803 17.61 208.863 18.12 207.093C20.88 205.573 23.21 203.553 25.19 201.113C28.38 199.283 31.8299 202.123 35.0399 200.533C36.4999 200.383 37.6699 201.483 39.0999 201.453C41.1499 201.473 43.04 200.783 44.92 200.123C51.7799 197.733 52.24 196.843 51.19 189.553C50.75 186.473 49.9799 183.263 52.1499 180.403C55.7899 178.813 59.37 176.883 63.51 178.803C66.35 186.453 67.4799 194.333 66.7199 202.473C65.3699 206.193 64.52 210.033 64.57 213.983C64.72 225.033 64.08 236.093 64.92 247.143C64.98 248.183 64.69 249.103 63.99 249.883Z" fill="#FDC003"/>
<path d="M35.1595 200.983C31.8795 204.883 28.4995 200.533 25.1795 201.113L25.0195 200.863C23.0395 197.753 19.4495 196.843 16.6595 194.863C14.4295 193.273 12.6495 191.373 11.0895 189.273C9.32947 186.903 13.2695 178.803 16.1295 178.983C18.7895 179.153 19.6395 182.283 21.4495 183.003C22.3795 183.783 22.4795 182.753 22.1695 183.343C22.1395 183.403 21.9995 183.333 21.7395 183.133C18.5795 180.683 16.1895 177.503 13.6295 174.533C13.1395 174.483 14.2095 172.933 13.0995 173.783C11.7895 174.793 10.4795 175.483 8.88951 175.733C6.96951 175.483 5.55946 178.863 4.20946 177.363C2.43946 175.393 1.54949 172.503 0.679493 169.883C0.0794933 168.073 2.09947 168.023 3.15947 167.523C9.99947 164.273 16.8595 161.073 23.7095 157.853C27.8195 158.123 31.7295 160.553 36.0595 158.763C37.1795 158.303 38.1595 159.593 38.7195 160.593C41.1495 164.933 44.8395 166.273 49.5595 165.393C50.7195 165.173 51.8695 165.233 52.6595 166.343C54.1595 171.343 52.3195 176.233 52.1595 181.173C51.8495 185.313 52.1095 189.463 53.2995 193.393C54.1795 196.293 53.0695 197.613 50.8095 198.863C46.8695 201.033 42.7995 202.673 38.2295 202.793C34.7695 199.153 36.3295 194.973 36.8295 190.853C35.6495 194.133 36.8995 197.823 35.1595 200.983Z" fill="#B40304"/>
<path d="M141.02 171.943C148.92 174.743 155.1 180.413 162.09 184.713C166.82 187.623 171.06 191.373 176.59 192.843C169.12 200.853 164.09 210.653 157.26 219.133C155.94 220.773 155.29 223.023 152.9 223.613C150.55 223.283 149.11 223.933 149.29 226.673C149.39 228.133 149.38 229.603 149.39 231.073C148.96 234.903 150.49 238.563 150.32 242.353C150.12 246.763 148.75 247.863 144.11 247.523C142.49 246.423 142.77 244.693 142.49 243.073C141.21 235.733 140.02 228.353 139.04 220.993C137.09 206.413 132.3 192.353 131.63 177.573C131.35 171.453 131.18 171.443 137.13 171.513C138.43 171.523 139.79 171.173 141.02 171.943Z" fill="#FDC003"/>
<path d="M181.82 196.153C182.73 200.713 185.93 203.943 188.3 207.703C194.51 217.553 189.44 225.623 183.8 233.613C177.39 242.683 170.52 251.383 163.56 260.023C161.98 261.993 160.55 263.803 161.69 266.713C162.71 269.303 161.04 270.653 158.55 271.253C157.04 271.613 156.08 272.383 158 273.663C157.29 274.873 156.25 274.773 155.14 274.393C150.68 267.743 148.62 260.083 146.13 252.613C145.77 251.523 145.89 250.023 146.71 249.303C151.47 245.113 149.51 240.033 148.77 235.123C148.57 233.803 148.58 232.493 148.54 231.193C148.52 230.693 148.66 230.233 148.94 229.823C153.61 231.703 151.22 236.413 152.73 239.613C154.2 238.953 154.28 237.443 155.06 236.423C157.29 233.523 157.96 230.873 154.02 228.783C153.3 228.403 152.94 227.563 152.74 226.733C152.73 226.233 152.93 225.853 153.35 225.583C154.59 225.163 155.64 225.713 156.63 226.313C159.05 227.783 160.42 226.733 161.95 224.693C168.89 215.383 175.89 206.143 181.82 196.153Z" fill="#FCC19F"/>
<path d="M169.91 174.093C168.34 176.563 165.59 176.193 163.27 176.683C160.79 177.203 160.78 175.073 160.59 173.493C159.73 166.423 158.29 159.503 155.89 152.783C156.07 147.893 159.87 144.433 161 139.893C161.21 139.043 162.63 138.803 163.61 138.793C167.27 138.743 169.8 135.903 173.12 135.033C179.47 135.983 185.82 137.293 192.27 136.833C195.58 136.593 197.1 137.843 197.66 140.993C198.25 144.283 198.54 147.523 197.79 150.803C194.75 153.243 191.73 150.693 188.73 150.523C191.72 151.123 194.66 151.663 196.79 154.153C194.56 162.943 189.04 168.933 180.96 172.733C179.42 173.463 178.16 173.363 177.17 171.683C176.35 170.293 175.6 168.713 173.6 168.113C173.6 168.623 173.46 169.113 173.62 169.453C174.38 170.963 176.89 172.793 175.1 173.993C172.65 175.633 172.55 171.893 171.08 170.903C169.68 169.973 168.81 168.643 168.62 168.093C169.39 169.283 169.32 171.763 169.91 174.093Z" fill="#B70103"/>
<path d="M150.91 432.903C152.23 432.143 153.49 432.533 154.71 433.143C160.19 435.933 165.75 438.593 171.11 441.593C174.17 443.303 176.92 445.573 176.47 449.763C173.94 452.573 170.5 452.263 167.23 452.373C148.47 453.003 129.83 451.663 111.26 448.973C108.8 448.613 106.34 448.233 103.84 448.593C103.51 442.263 102.78 435.923 103.96 429.593C106.3 428.183 108.36 429.373 110.5 430.223C115.53 432.213 120.45 434.533 125.9 435.203C127.13 435.433 128.36 435.693 129.59 435.923C137.09 437.613 144.15 436.353 150.91 432.903Z" fill="#F73F78"/>
<path d="M10.5795 449.803C9.6995 447.123 11.1895 445.243 12.9895 443.793C19.3595 438.673 27.0495 435.953 34.3095 432.453C34.7695 432.233 35.5595 432.703 36.1995 432.853C42.4295 436.323 49.0195 437.603 56.0495 436.053C57.6295 434.573 59.5295 434.313 61.5695 434.563C67.2895 434.313 72.3595 431.913 77.4995 429.763C79.2195 429.043 80.8794 427.463 82.9594 428.953L83.0095 428.983C84.0495 434.573 83.4195 440.203 83.3695 445.813C82.2595 448.163 79.9695 448.333 77.8695 448.633C57.4095 451.493 36.8595 453.173 16.1795 452.373C13.9895 452.293 11.7995 452.073 10.5795 449.803Z" fill="#F63E75"/>
<path d="M34.1398 78.8129C38.1198 93.0629 42.0098 107.313 36.0698 122.003C34.1398 127.843 30.0197 130.713 23.9397 130.893C22.2197 131.203 21.4597 130.913 22.1897 128.863C23.8197 124.283 24.6197 119.513 24.3497 114.643C24.2197 112.283 25.0897 109.103 22.2997 108.033C19.5297 106.973 17.3497 109.033 15.5297 111.143C14.6397 112.173 14.0897 113.953 12.0997 113.273C4.32972 99.6229 -0.240246 85.1629 0.00975361 69.2429C0.349754 47.8829 9.44972 31.2229 27.3497 20.1029C53.0897 4.10293 81.2597 -2.80707 111.6 1.04293C117.91 1.84293 124.36 2.69293 130.16 5.79293C130.62 7.65293 129.5 8.15294 128 8.34294C121.31 4.82294 113.69 5.82295 106.64 4.02295C90.5898 -0.0870547 75.3998 4.99294 60.1398 8.69294C55.3298 9.86294 50.1897 10.9129 46.1097 13.6929C39.4997 18.2029 31.6897 20.3829 25.5397 26.0729C21.0397 30.2329 17.1797 34.9229 12.7697 39.1029C12.0397 39.7929 11.2897 40.5329 10.9297 41.4429C7.92974 48.9429 3.62976 56.0529 3.44976 64.4429C3.26976 72.9129 2.76975 81.4329 6.00975 89.5629C7.64975 93.6829 9.29971 97.7929 10.6497 102.043C11.9197 106.043 14.4897 106.753 17.8397 104.513C19.9897 103.073 21.9297 103.223 23.9097 104.293C26.5097 105.693 28.7797 106.163 31.0497 103.653C33.5197 100.923 36.3797 98.5429 34.8697 94.1529C33.4597 90.0529 32.6397 85.8029 32.9097 81.4229C32.9597 80.4229 33.2398 79.4529 34.1398 78.8129Z" fill="#B50B0A"/>
<path d="M82.9597 428.943C77.7397 430.963 72.5197 433.013 67.2797 434.973C65.2697 435.723 63.1797 436.293 60.9797 435.873C58.0797 431.303 53.7397 427.813 51.2197 422.953C53.5097 422.463 52.9598 420.613 53.0598 419.083C53.2098 416.703 52.5598 414.213 54.0798 412.033C56.2198 409.773 59.0898 410.283 61.5598 410.613C67.7998 411.453 74.0498 411.503 80.3098 411.563C81.6398 411.573 82.9597 411.733 83.9597 412.783C85.2997 415.083 84.9997 417.363 84.2697 419.823C83.3997 422.773 82.6997 425.813 82.9597 428.943Z" fill="#FDF6B2"/>
<path d="M125.99 435.863C120.38 436.793 115.93 433.353 111 431.793C108.66 431.053 106.55 429.603 103.97 429.593C104.31 423.743 104.64 417.903 104.98 412.053C105.19 411.823 105.41 411.593 105.62 411.363C115.53 409.573 125.27 411.063 134.98 412.933C135.75 416.303 133.89 419.703 135.09 423.073C133.21 428.163 128.97 431.563 125.99 435.863Z" fill="#FDF5B2"/>
<path d="M181.82 196.153C181.89 198.223 181.15 199.943 179.94 201.633C173.9 210.043 167.89 218.473 162 226.983C160.54 229.093 159.11 229.373 157.08 227.993C155.87 227.163 154.56 226.473 153.3 225.723C152.17 225.013 152.21 224.103 152.86 223.093C159.15 214.233 165.48 205.393 171.7 196.473C172.98 194.643 174.06 192.843 176.6 192.843C178.33 193.943 180.07 195.053 181.82 196.153Z" fill="#F98B06"/>
<path d="M18.11 207.103C25.1 215.233 32.07 223.393 39.12 231.473C40.29 232.813 41.85 233.823 43.23 234.993C44.01 238.573 41.7 239.863 38.92 240.813C36.88 241.553 35.51 241.893 33.61 239.553C27.47 232.003 20.8 224.893 14.23 217.703C12.01 215.283 10.72 212.943 13.02 209.933C14.83 209.163 15.5 206.393 18.11 207.103Z" fill="#FA8C05"/>
<path d="M10.5799 449.803C12.2699 450.513 13.9899 450.893 15.8699 450.963C37.6199 451.693 59.1899 449.603 80.7099 446.773C81.4999 446.673 82.2299 446.153 82.9899 445.823C83.8299 447.103 83.7099 448.393 83.0799 449.703C75.3899 451.763 67.4499 452.423 59.5999 453.373C47.9599 454.773 36.2699 456.093 24.4799 455.703C20.9599 455.583 17.5799 454.933 14.2399 454.033C12.1899 453.483 9.87994 452.863 10.5799 449.803Z" fill="#BC2F5A"/>
<path d="M103.84 448.593C104.87 445.883 107.23 446.823 108.98 447.023C118.3 448.123 127.58 450.223 136.92 450.493C150.08 450.863 163.33 452.313 176.46 449.763C177.05 454.083 173.4 454.033 170.98 454.563C162.79 456.343 154.44 456.143 146.17 455.313C133.98 454.093 121.76 452.963 109.69 450.733C107.61 450.353 105.34 450.563 103.84 448.593Z" fill="#BA355E"/>
<path d="M120.97 170.943C121.65 170.693 122.33 170.433 123.01 170.183C125.44 170.323 127.95 169.823 130.25 171.043C133.82 179.093 133.91 187.723 133.78 196.223C133.71 200.713 129.69 200.563 126.22 199.913C122.77 198.293 124.2 194.703 123.07 192.143C122.75 186.333 121.98 180.583 120.62 174.923C120.39 173.563 120.02 172.193 120.97 170.943Z" fill="#53A2B9"/>
<path d="M125.81 199.303C133.41 198.173 133.28 198.173 132.95 190.123C132.68 183.653 131.58 177.333 130.25 171.033C133.86 171.093 137.569 169.983 141.019 171.943C131.799 172.053 132.519 171.983 133.409 181.323C134.139 188.963 135.319 196.643 136.769 204.003C138.979 215.203 140.02 226.573 142.55 237.683C143.25 240.773 142.34 244.073 144 246.973C146.76 255.063 148.43 263.343 148.33 271.923C148.32 273.073 147.939 274.193 146.969 274.983C144.289 265.403 143.819 255.463 142.149 245.713C140.069 233.593 138.399 221.403 136.529 209.243C136.279 207.623 136.22 205.763 133.83 205.783C131.72 206.753 129.759 209.813 127.339 206.243C126.729 204.943 126.43 203.523 125.3 202.423C124.2 201.353 124.18 200.103 125.81 199.303Z" fill="#D4CC54"/>
<path d="M49.1797 282.783C49.8897 280.543 51.4297 279.623 53.7297 279.883C57.8797 279.093 61.9898 278.813 65.9498 280.723C63.3198 287.403 60.5797 293.983 52.4297 295.663C49.4497 296.273 46.6197 296.593 46.9897 292.083C46.8097 288.763 48.8897 285.983 49.1797 282.783Z" fill="#277B9C"/>
<path d="M51.9298 166.023C44.5098 168.203 42.1198 167.443 37.8598 161.253C36.9698 159.963 36.1998 159.393 34.6898 160.083C30.5198 161.963 27.0398 160.273 23.7198 157.863C23.3298 155.233 21.4998 152.893 22.1598 150.053C24.1498 149.893 25.4798 151.103 27.0298 152.123C32.8798 155.993 39.3898 158.163 46.3198 156.533C50.9898 155.433 53.6098 156.913 55.5498 160.803C56.0898 162.673 55.2898 163.743 53.5198 164.243C50.2098 162.263 46.8598 160.353 42.3098 160.603C43.4598 163.553 45.5298 163.633 47.6598 163.723C49.4298 163.793 51.2298 162.743 52.9598 163.883C53.6498 165.063 52.8798 165.583 51.9298 166.023Z" fill="#47CDC4"/>
<path d="M154.97 273.643C155.98 273.643 156.98 273.643 157.99 273.653C159.37 277.753 160.75 281.853 162.13 285.963C162.36 289.823 160.55 289.353 157.29 289.513C152.89 289.723 155.49 283.423 150.63 284.153C148.84 284.423 145.73 279.853 147.1 275.893C149.39 273.973 152.01 273.213 154.97 273.643Z" fill="#2A7CA2"/>
<path d="M128.049 8.04297C129.089 7.61297 129.729 6.80297 130.149 5.79297C131.589 6.36297 133.219 6.55298 134.279 7.86298C131.929 7.81298 130.349 9.11297 128.799 10.703C124.309 15.293 119.789 19.863 115.169 24.323C112.009 27.373 108.809 30.323 108.179 35.003C107.529 31.783 106.409 34.403 105.859 34.943C100.539 40.123 95.9294 46.003 90.1094 50.693C89.1094 51.493 88.3693 52.713 86.8993 52.813C84.6093 51.553 85.5294 50.143 86.8094 48.863C99.7294 35.993 111.929 22.413 125.099 9.77298C125.949 8.97298 126.789 8.15297 128.049 8.04297Z" fill="#BC2420"/>
<path d="M150.91 432.903C144.6 439.253 136.99 438.343 129.26 436.803C130.02 431.473 132.36 427.403 137.96 425.943C142.28 428.263 146.59 430.583 150.91 432.903Z" fill="#FBEEB7"/>
<path d="M173.119 135.033C172.029 135.993 171.039 137.123 169.819 137.883C162.519 142.493 160.259 144.863 155.889 152.773C154.319 151.563 152.499 152.133 150.779 152.033C151.029 150.043 152.639 149.013 153.819 147.663C156.889 144.153 159.659 140.343 160.439 135.703C161.389 130.073 164.479 126.153 168.919 123.003C169.639 123.563 170.039 124.453 169.679 125.173C167.779 128.933 165.249 132.413 165.319 136.943C168.839 137.463 169.109 131.583 173.029 131.983C173.069 133.003 173.099 134.013 173.119 135.033Z" fill="#57CBBC"/>
<path d="M14.0699 173.973C17.7399 177.883 21.4098 181.783 25.0898 185.693C24.8298 185.973 24.5699 186.253 24.3199 186.523C22.0999 184.663 19.6599 183.003 17.7399 180.863C16.4299 179.403 15.8698 179.703 14.7098 180.803C10.0798 185.133 10.0099 187.933 14.8599 192.173C17.0799 194.113 19.5699 195.753 22.0399 197.383C23.4099 198.283 25.1499 198.733 25.0299 200.863C21.4199 198.623 17.6399 196.613 14.2399 194.083C8.68987 189.943 8.44986 188.313 11.4799 181.793C10.6899 182.333 10.0698 182.823 9.39984 183.203C8.52984 183.693 7.72985 185.203 6.58985 183.543C5.85985 182.473 5.74986 181.473 6.72986 180.423C7.83986 179.243 8.85985 177.963 9.90985 176.723C10.9699 175.323 11.8599 173.653 14.0699 173.973Z" fill="#B71B20"/>
<path d="M57.3792 436.713C50.5092 439.723 41.4892 438.083 36.1992 432.863C40.0392 429.683 45.0892 428.763 49.1292 425.963C50.8592 425.603 51.3292 426.753 51.6492 428.073C51.6692 428.893 51.7992 429.673 52.0692 430.473C53.7592 435.633 53.3892 436.143 47.8492 436.623C47.1892 436.743 47.8992 437.723 47.6992 437.093C47.6192 436.833 47.6892 436.663 47.9292 436.663C50.6692 436.683 53.2992 435.413 56.0892 435.943C56.5792 436.073 57.0092 436.343 57.3792 436.713Z" fill="#F9F3B5"/>
<path d="M84.8703 407.733C84.8803 408.843 84.8803 409.953 84.8903 411.073C76.8703 412.873 68.8503 411.753 60.8203 411.143C58.2203 410.943 55.5703 410.303 53.1103 411.823C50.6803 410.063 53.5503 408.413 53.2303 406.703C56.9903 404.723 61.0203 405.813 64.9003 405.863C71.5903 405.953 78.3903 405.263 84.8703 407.733Z" fill="#FBDFBE"/>
<path d="M173.04 131.993C170.47 133.733 169.53 137.163 166.35 138.323C164.81 138.883 163.4 139.253 162.49 137.583C161.59 135.913 162.58 135.213 164.17 134.953C165 134.813 166.11 134.193 165.19 133.423C161.05 129.983 164.86 129.703 166.89 128.303C168.54 127.163 169.18 125.143 168.93 123.013C168.95 122.103 169.26 121.343 170.02 120.793C172.85 124.023 175.51 127.323 173.04 131.993Z" fill="#4FCECA"/>
<path d="M104.98 412.053C103.95 409.363 104.06 406.683 105.08 404.013C108.69 406.863 112.98 405.163 116.92 405.793C121.61 406.543 126.71 404.473 131.01 407.863C131.12 411.283 135.04 408.803 135.91 411.033C130.77 412.743 125.53 411.613 120.32 411.703C115.3 411.793 110.27 409.853 105.26 411.763L104.98 412.053Z" fill="#F9DFC1"/>
<path d="M131.01 407.863C123.97 406.523 116.83 407.163 109.74 406.783C107.81 406.683 105.06 407.543 105.07 404.013C105.39 403.913 105.7 403.823 106.02 403.713C112.1 404.073 118.14 404.523 124.27 404.383C128.11 404.293 132.08 405.293 136.04 404.713C137.85 406.143 137.42 407.193 135.38 407.613C133.97 407.903 132.47 407.793 131.01 407.863Z" fill="#CF5971"/>
<path d="M84.8697 407.733C74.3197 407.393 63.7697 407.043 53.2297 406.703C52.3097 405.373 52.3797 404.313 54.0397 403.683C59.8997 404.733 65.8097 404.283 71.7097 404.423C76.1097 404.523 80.5197 405.313 84.9597 404.853C85.4397 405.823 85.1997 406.773 84.8697 407.733Z" fill="#CA5D6E"/>
<path d="M137.96 425.943C133.98 428.703 131.49 432.643 129.26 436.803C128.05 436.893 126.8 437.143 125.99 435.873C127.41 430.463 131.31 426.813 135.09 423.083C137.17 422.903 138.21 423.773 137.96 425.943Z" fill="#DB4964"/>
<path d="M53.1097 411.823C53.0797 409.383 54.9098 409.783 56.2598 409.973C65.7698 411.293 75.3598 410.323 84.8898 411.073C84.5898 411.643 84.2797 412.223 83.9797 412.793C73.9897 413.453 64.0697 411.743 54.0897 412.043C53.7597 411.973 53.4297 411.893 53.1097 411.823Z" fill="#C06E6E"/>
<path d="M50.9004 427.943C50.3104 427.283 49.7204 426.623 49.1304 425.963C48.9104 424.323 49.4904 423.243 51.2304 422.963C55.6604 426.383 59.5404 430.213 60.9904 435.883C59.7204 435.883 58.2304 434.913 57.3804 436.713C57.1104 436.763 56.8504 436.863 56.6104 437.013C54.8904 433.863 52.6604 431.053 50.9004 427.943Z" fill="#DD5169"/>
<path d="M105.26 411.763C105.22 408.723 107.59 409.883 108.81 410.053C117.82 411.313 126.89 410.483 135.91 411.033C135.96 411.843 135.84 412.563 134.98 412.933C125.07 412.543 115.17 412.153 105.26 411.763Z" fill="#BB615F"/>
<path d="M83.0803 449.713C83.0503 448.423 83.0202 447.123 82.9902 445.833C83.0002 440.213 83.0003 434.593 83.0103 428.983C84.6803 435.883 84.6903 442.793 83.0803 449.713Z" fill="#FDF6B2"/>
<path d="M169.91 174.093C168.06 171.193 166.96 168.023 166.04 163.953C169.09 165.933 170.42 168.183 171.1 170.913C169.56 171.543 170.39 173.063 169.91 174.093Z" fill="#E0B1B0"/>
<path d="M196.8 154.153C193.8 152.983 190.8 151.803 187.8 150.633C187.85 150.413 187.9 150.203 187.95 149.983C191.23 150.253 194.51 150.533 197.8 150.803C197.37 151.893 196 152.703 196.8 154.153Z" fill="#EBB2AB"/>
<path d="M14.0699 173.973C12.6799 174.893 11.2898 175.813 9.89984 176.743C9.55984 176.413 9.21988 176.073 8.87988 175.743C10.5999 173.593 13.0799 172.533 15.3499 170.873C15.8499 172.603 14.2899 172.953 14.0699 173.973Z" fill="#EAA8A4"/>
<path d="M121.66 174.053C123.08 179.993 124.66 185.903 124.15 192.113C124.88 193.733 124.46 195.333 124.05 196.933C123.63 198.573 123.26 200.733 124.14 201.743C128.57 206.813 123.4 205.763 121.27 206.353C119.08 206.953 116.7 205.943 114.48 206.873C103.54 208.033 92.4803 207.553 81.5803 209.243C78.4903 209.553 77.6003 207.263 77.1403 205.033C76.5903 202.393 75.2902 200.173 74.0302 197.883C72.5302 194.093 72.1002 190.173 72.7402 186.153C75.0702 185.063 75.9602 187.093 77.1502 188.283C85.9502 197.093 103.43 198.443 113.4 190.933C117.27 188.023 119.7 184.243 119.73 179.143C119.76 177.303 119.2 175.043 121.66 174.053Z" fill="#FAC105"/>
<path d="M154.97 273.643C152.61 275.303 149.82 275.493 147.1 275.883C147.07 275.583 147.03 275.273 146.98 274.973C147.95 267.413 145.28 260.253 144.51 252.883C144.31 250.913 144.17 248.933 144 246.963C148.03 247.433 149.42 245.433 149.02 241.663C148.61 237.723 147.47 233.833 148.09 229.813C148.45 229.603 148.71 229.683 148.88 230.073C149.24 232.693 149.66 235.313 149.94 237.933C150.37 241.923 151.12 245.643 148 249.453C145.05 253.053 149.08 256.813 150.15 260.323C151.51 264.823 153.61 269.113 154.97 273.643Z" fill="#F0C221"/>
<path d="M74.9902 198.393C76.8302 199.683 77.9202 201.353 78.0902 203.673C78.2702 206.083 79.2202 208.143 81.6002 209.223C79.5002 210.433 77.1702 209.493 74.9902 209.983C73.0502 212.313 71.0303 212.093 68.9503 210.173C66.3003 209.713 64.8602 210.513 64.9802 213.513C65.4602 225.593 64.5302 237.713 66.0902 249.753C65.3902 249.793 64.6902 249.833 63.9902 249.873C64.0502 235.443 64.1303 221.013 64.1403 206.573C64.1403 204.703 63.8303 202.843 66.1403 202.063C72.3403 204.323 72.3402 204.323 74.9902 198.393Z" fill="#D3DD86"/>
<path d="M120.36 242.853C117.32 248.463 114.82 249.263 110.86 246.163C108.78 244.533 107.85 244.173 105.79 246.373C102.4 249.993 98.6895 249.253 95.7695 245.033C96.9595 243.883 97.5095 245.163 98.1595 245.723C100.6 247.813 102.73 246.973 104.79 245.133C106.8 243.343 106.33 241.923 104.26 240.513C103.17 239.773 103.49 238.743 104.55 238.123C106.49 236.973 108.58 236.463 110.73 237.453C111.73 237.913 112.34 239.013 111.44 239.883C109.53 241.723 109.06 243.273 111.57 244.953C114.01 246.583 116.19 246.503 118.22 244.283C118.53 243.943 119 243.753 120.36 242.853Z" fill="#0F658B"/>
<path d="M68.9496 210.183C70.9796 210.503 73.0095 211.003 74.9895 209.993C75.2395 211.943 75.5195 213.903 75.7395 215.853C75.9795 218.033 74.8895 219.433 72.8095 219.693C70.6695 219.963 69.3195 218.673 69.0895 216.603C68.8595 214.483 68.9796 212.323 68.9496 210.183Z" fill="#D1F0EF"/>
<path d="M114.49 206.863C117.71 204.803 121.8 206.833 124.77 204.483C119.25 200.823 124.6 196.263 124.15 192.103C125.72 194.273 124.15 197.163 125.81 199.303C125.58 200.153 124.61 201.343 125.98 201.723C128.46 202.403 128.05 204.173 128.01 205.903C127.84 206.333 127.55 206.633 127.14 206.833C122.93 206.843 118.71 206.853 114.49 206.863Z" fill="#DADD8C"/>
<path d="M65.9602 280.723C61.8102 281.603 57.7602 281.043 53.7402 279.883C54.7702 276.213 57.7803 274.753 61.4503 276.333C62.9303 276.973 64.1403 278.273 65.9503 277.953C65.9503 278.883 65.9502 279.803 65.9602 280.723Z" fill="#F1C323"/>
<path d="M127.15 206.833C127.44 206.523 127.73 206.213 128.02 205.903C130.03 209.353 131.86 204.363 133.83 205.783C132.81 206.973 133.29 208.183 133.66 209.473C134.31 211.723 133.53 213.483 131.15 213.883C128.55 214.323 127.13 212.953 127.12 210.273C127.12 209.123 127.14 207.983 127.15 206.833Z" fill="#D2F0F3"/>
<path d="M113.54 231.583C113.36 227.433 115.78 225.573 119.12 225.073C122.88 224.503 125.32 226.303 125.92 231.243C121.28 225.423 117.37 226.693 113.54 231.583Z" fill="#0C5F86"/>
<path d="M87.9199 233.383C88.6299 228.323 90.9899 226.713 94.7699 226.853C98.2599 226.973 100.53 228.443 100.84 232.603C93.9999 227.893 93.9999 227.893 87.9199 233.383Z" fill="#075C82"/>
<path d="M128.05 8.0429C125.56 10.6929 123.1 13.3729 120.56 15.9729C109.49 27.2829 98.4301 38.6029 87.2501 49.8129C86.0701 51.0029 86.4701 51.7529 86.9101 52.8129C73.1701 65.3629 56.7801 71.9129 38.4701 73.6129C34.4101 73.9929 32.6702 74.6229 34.1402 78.8129C33.8302 84.3129 34.3501 89.6529 36.7401 94.7529C37.7401 96.8829 36.9201 99.1229 35.4901 100.833C33.6801 102.993 31.7301 105.113 29.5501 106.883C26.5801 109.283 24.9901 105.283 22.5501 105.003C21.3601 104.863 20.4201 103.883 18.9501 105.163C14.7701 108.793 11.2701 108.043 9.26015 103.013C3.26015 88.0429 -1.18987 72.4429 3.49013 56.5629C5.57013 49.5129 7.87014 42.0929 13.8201 35.8429C19.2101 30.1829 24.6001 24.1329 30.9201 20.2729C43.0301 12.8729 56.1001 7.1029 70.5501 4.7129C79.0301 3.3129 87.4401 1.61291 96.0401 1.07291C101.08 0.752909 105.79 2.54291 110.64 3.58291C115.61 4.64291 120.9 3.78291 125.78 5.94291C126.89 6.42291 127.94 6.6129 128.05 8.0429Z" fill="#B70002"/>
<path d="M97.5296 111.283C99.3596 109.453 100.46 107.333 100.05 104.633C99.6796 102.193 99.5496 99.8028 96.4196 102.853C94.4696 104.753 93.6396 102.693 93.3796 101.403C91.8596 93.7728 84.4596 91.7128 79.8996 86.9928C78.8496 85.9028 77.2496 85.8928 75.6896 86.5728C74.1296 87.2528 72.3796 87.2528 70.7996 86.7028C68.5896 85.9228 66.1096 84.9428 66.1996 82.1328C66.2896 79.1628 69.2096 79.1428 71.0896 79.1328C75.6996 79.1128 77.4096 76.9628 77.0596 72.6228C76.9296 71.0528 77.5996 69.6928 78.4196 68.4328C78.9896 67.5528 79.7796 66.9528 80.9196 67.2828C81.9096 67.5728 81.8496 68.4728 82.0396 69.2828C83.4096 75.4028 83.4496 75.4428 88.5196 72.0228C89.7196 71.2128 91.0996 70.5328 92.2196 71.1128C96.5496 73.3428 100.24 70.3728 104.22 69.9028C106.37 69.6528 106.33 68.0828 106.32 66.1828C106.3 62.4028 110.3 60.0728 112.64 62.6528C115.81 66.1428 120.29 67.8228 123.2 71.5428C124.82 73.6228 126.21 75.9428 123.73 77.4528C121.72 78.6728 122.2 84.7128 117.06 80.9028C114.31 78.8628 113.74 82.1928 114.17 84.0228C115.69 90.5228 111.52 96.7728 113.73 103.453C114.42 105.533 112.6 108.743 108.89 109.263C106.69 109.573 104.51 110.823 102.57 112.043C100.59 113.293 99.1796 112.873 97.5296 111.283Z" fill="#FEBF9F"/>
<path d="M106.09 154.753C106.66 155.313 107.3 155.813 107.79 156.433C109.75 158.883 114.45 157.923 115.06 160.423C115.59 162.573 111.25 164.563 111.91 168.053C112.18 169.463 110.91 169.963 109.63 169.963C108.03 169.953 106.73 170.423 106.03 171.983C98.61 174.793 91.2301 174.033 83.8901 171.653C83.2401 171.443 83 170.733 83.03 170.023C83.04 168.773 82.5201 167.683 81.5101 167.053C78.5101 165.173 74.2301 163.963 78.8301 159.293C79.6501 158.463 78.6001 156.663 77.1401 156.243C75.1101 155.653 73.2401 155.993 71.8201 157.813C70.9101 158.973 71.0601 161.433 68.6201 160.833C66.2801 160.253 67.19 158.193 67.05 156.693C66.69 152.863 63.45 152.143 61.35 153.313C57.71 155.343 56.43 153.713 55.04 151.003C59.37 152.863 62.7901 149.933 66.3701 148.553C68.9801 147.553 68.01 144.183 69.03 142.033C69.35 141.713 69.68 141.683 70.02 141.983C71.07 143.953 72.56 144.703 74.36 143.043C76.21 141.323 77.6 139.253 76.66 136.493C75.04 131.733 77.5801 127.133 82.4901 125.943C85.0101 125.333 87.21 123.493 90.03 124.013C89.2 125.513 88.1701 126.773 86.3201 126.963C84.2601 127.173 81.71 126.483 81.09 129.463C80.46 132.523 77.67 135.313 80.17 138.813C81.73 140.993 81.14 143.543 80.55 145.993C79.62 149.793 80.4901 152.413 84.8701 153.213C87.0701 153.613 89.16 154.333 90.55 156.673C92.0401 159.173 99.8301 160.213 102.39 158.743C104.65 157.453 103.98 155.813 103.03 154.103C104.32 153.103 105.44 152.883 106.09 154.753Z" fill="#FEBF9F"/>
<path d="M98.0895 152.123C92.8895 149.463 88.1295 146.353 85.9695 140.513C83.6595 134.253 86.0795 130.913 92.9395 130.923C105.32 136.053 116.71 134.353 127.15 126.003C131.41 124.043 133.86 125.193 134.24 129.653C134.89 137.253 132.23 143.503 126.06 148.133C124.5 148.543 123.15 147.773 121.76 147.333C115.52 145.363 109.75 146.323 104.33 149.933C102.44 151.173 100.68 152.853 98.0895 152.123Z" fill="#6F1609"/>
<path d="M86.0801 98.0329C88.2101 101.083 91.4501 103.203 92.2001 107.403C93.3101 113.673 92.2101 117.073 86.6401 120.153C80.8301 123.373 74.5301 124.373 67.9401 123.933C61.7401 123.523 60.51 118.243 58.15 114.063C54.74 110.433 56.72 106.543 58.21 103.163C60.64 97.6329 64.9501 93.8929 71.2401 93.0129C76.8001 92.8829 82.3701 92.6929 86.0801 98.0329Z" fill="#F7F7F2"/>
<path d="M151.25 97.9929C150.83 103.113 151.93 108.503 145.93 111.853C136.57 117.073 124.22 113.963 121.67 105.153C120.36 100.623 121.14 96.4029 123.96 92.5629C125.03 91.1129 125.95 89.5429 126.93 88.0329C129.83 83.1129 137.24 81.2329 142.78 84.0629C147.58 86.5229 150.71 90.3529 151.93 95.6629C151.94 96.5029 151.75 97.2929 151.25 97.9929Z" fill="#F9F6F3"/>
<path d="M121.66 174.053C121.46 174.843 121.12 175.623 121.08 176.423C120.45 189.343 112.61 196.733 99.4997 197.033C92.3897 197.193 85.7697 196.143 79.5397 192.343C76.7997 190.673 75.9497 187.573 73.3597 186.003C70.7597 183.513 70.4097 180.563 71.5597 177.293C71.9597 176.773 72.4597 176.643 73.0697 176.893C76.7297 176.343 78.9897 177.013 79.1997 181.593C79.4397 186.973 83.4396 189.393 88.2096 190.933C98.9996 194.413 110.95 190.543 115.15 182.053C116.33 179.913 114.61 178.003 114.65 175.943C114.68 174.133 114.77 172.383 116.04 170.933C117.69 170.933 119.33 170.943 120.98 170.943C121.2 171.983 121.43 173.013 121.66 174.053Z" fill="#F78B0B"/>
<path d="M116.03 170.933C115.33 174.603 117 178.473 115.14 182.053C114.71 181.233 115.71 179.413 113.52 179.813C102.03 181.943 91.6999 178.973 82.1899 172.543C81.4799 172.063 79.9699 171.863 80.7599 170.543C81.0399 170.073 82.2499 170.163 83.0399 170.003C90.4899 173.203 98.3499 171.623 106.04 171.963C109.44 172.353 112.72 171.513 116.03 170.933Z" fill="#E3A285"/>
<path d="M23.9395 130.883C29.0195 129.333 33.1195 126.443 36.0695 121.993C37.7295 126.453 39.5295 130.863 41.0095 135.373C43.5095 143.003 41.8995 144.703 33.9995 143.103C28.1795 141.993 25.2294 138.623 26.0194 133.973C25.2694 132.983 26.1995 130.863 23.9395 130.883Z" fill="#E0936E"/>
<path d="M127.14 125.993C124.19 131.883 118.41 133.493 112.82 134.273C106.03 135.223 98.6897 137.073 92.9297 130.913C100.81 127.603 109.32 127.363 117.58 125.983C120.71 125.473 123.97 123.663 127.14 125.993Z" fill="#F9F6F3"/>
<path d="M70.0393 141.963C69.7093 141.973 69.3793 141.993 69.0493 142.013C66.6593 142.583 64.2893 143.123 61.7793 143.033C58.5093 142.913 55.0093 142.483 54.0193 139.113C53.1293 136.083 55.4593 133.663 58.0593 131.963C60.8193 129.533 63.7793 128.943 67.0293 130.953C75.0393 132.433 75.7193 134.893 70.0393 141.963Z" fill="#FC9797"/>
<path d="M98.0898 152.123C100.66 151.983 102.01 149.863 103.84 148.553C110.39 143.873 119.57 143.643 126.05 148.123C125.34 149.003 124.64 149.873 123.93 150.753C123.28 152.673 121.8 153.083 120 152.923C115.45 154.193 110.9 155.463 106.09 154.753C105.22 153.853 104.11 154.003 103.03 154.063C101.38 153.413 99.7398 152.773 98.0898 152.123Z" fill="#DA6B5C"/>
<path d="M66.9199 69.8529C67.4199 69.8429 67.9099 69.8229 68.4099 69.8529C70.3299 69.9629 72.9699 69.4629 73.0099 72.2629C73.0499 75.0829 70.5099 74.7829 68.5199 74.6929C63.1099 74.4329 57.9399 75.3329 53.2699 78.1529C51.4499 79.2529 49.8299 80.7029 48.1899 82.0829C46.7799 83.2629 45.6299 85.9229 43.4599 83.5429C41.5599 81.4629 43.6699 79.9429 44.9799 78.5329C50.2299 72.8929 57.0699 70.7629 64.4499 69.8629C65.2499 69.7729 66.0899 69.8629 66.9199 69.8529Z" fill="#6A110A"/>
<path d="M141.31 59.653C145.14 59.553 149.15 60.343 152.83 62.503C154.02 63.203 155.25 64.033 154.55 65.603C153.72 67.473 152.22 67.043 150.78 66.283C143.95 62.693 137.06 63.173 130.18 66.063C128.71 66.683 127.32 67.373 126.4 65.483C125.45 63.523 127.03 62.783 128.36 62.153C132.33 60.303 136.54 59.503 141.31 59.653Z" fill="#68130B"/>
<path d="M147.01 116.983C149.76 116.533 151.62 117.893 153.4 119.813C156.45 123.103 156.47 122.873 152.39 124.233C150.07 125.003 149.33 128.703 146.02 127.983C143.07 127.053 139.1 126.983 141 121.993C141.02 121.663 141.03 121.343 141.03 121.013C142.16 118.383 144.47 117.513 147.01 116.983Z" fill="#F89995"/>
<path d="M71.0001 93.8729C63.1201 95.9229 59.2701 101.733 57.1801 109.013C56.7001 110.673 56.6301 112.613 58.1601 114.063C58.0701 114.543 58.1401 115.253 57.8501 115.473C56.5001 116.483 56.7701 114.813 56.6501 114.483C52.6301 103.773 60.1201 92.3929 71.5401 91.8529C73.3401 91.7629 75.1601 91.9929 76.9701 92.0629C75.7101 95.0929 72.7501 92.4629 71.0001 93.8729Z" fill="#733426"/>
<path d="M125.47 55.073C125.07 48.183 126.14 47.413 131.48 48.563C134.35 49.183 137.43 48.883 140.41 49.013C141.74 49.073 143.41 49.063 143.45 50.793C143.49 52.463 141.74 52.783 140.51 52.853C138.2 52.993 135.75 53.193 133.59 52.573C130.56 51.733 128.07 51.863 125.47 55.073Z" fill="#FEBF9F"/>
<path d="M151.2 95.8929C149.34 90.6829 146.17 86.5529 140.85 84.6729C135.61 82.8129 130.81 83.7529 126.93 88.0329C125.29 86.6429 126.97 86.0629 127.67 85.4329C136.41 77.6229 147.58 81.0729 152.05 92.9329C152.32 94.0729 153.49 95.4829 151.2 95.8929Z" fill="#784334"/>
<path d="M26.0094 133.983C26.5494 138.883 30.4594 140.833 33.9994 143.113C31.2194 144.523 28.7694 144.753 26.8294 141.643C25.5294 139.553 23.1594 138.853 20.9894 138.193C19.2594 137.673 17.6594 137.443 18.2594 135.113C18.7894 133.033 20.4994 132.853 22.1994 133.053C23.4894 133.193 24.7394 133.663 26.0094 133.983Z" fill="#FEBF9F"/>
<path d="M141.01 121.993C140.37 125.933 144.37 125.973 146.03 127.983C141.78 130.303 141.93 134.333 142 138.343C142.02 139.293 142.07 140.533 140.65 140.453C139.79 140.403 139.06 139.513 139.2 138.713C140.07 133.703 140.07 128.703 139.39 123.673C139.31 123.193 140.43 122.553 141.01 121.993Z" fill="#FEBF9F"/>
<path d="M138.009 73.9929C136.129 73.2529 131.889 75.5429 131.859 72.0629C131.839 69.2029 136.059 70.2129 138.539 70.0029C139.189 69.9429 139.859 69.9729 140.509 70.0029C142.289 70.0629 144.729 69.7829 144.649 72.2629C144.569 75.0929 141.899 73.6229 140.349 73.9729C139.739 74.1129 139.059 73.9929 138.009 73.9929Z" fill="#FEBF9F"/>
<path d="M57.0499 124.403C57.0199 126.703 57.5299 129.133 54.0799 128.983C52.4599 128.913 50.6899 128.673 51.2299 126.683C51.8799 124.263 52.7999 121.163 55.3899 120.663C57.2999 120.293 56.8999 123.053 57.0499 124.403Z" fill="#FEBF9F"/>
<path d="M166.989 102.093C167.969 102.493 168.959 102.903 169.939 103.303C167.559 107.523 162.829 108.393 159.009 109.913C156.129 111.063 157.739 107.393 156.439 105.443C161.639 107.223 164.239 104.473 166.989 102.093Z" fill="#FEBF9F"/>
<path d="M119.07 111.433C121.93 113.453 123.72 114.603 125.36 115.923C126.2 116.603 127.53 117.283 127.17 118.593C127.02 119.143 125.88 119.563 125.12 119.783C123.78 120.173 122.26 120.103 121.61 118.733C120.72 116.843 120.2 114.763 119.07 111.433Z" fill="#FEBF9F"/>
<path d="M105.01 120.843C103.81 116.713 106.03 114.813 109.26 114.053C113.12 113.143 116.19 114.303 118.32 119.083C114.75 118.193 113.45 114.683 110.25 115.483C107.47 116.193 106.12 118.343 105.01 120.843Z" fill="#BB7D5D"/>
<path d="M71 93.873C72.64 92.123 75.37 93.953 76.97 92.073C80.67 93.053 84.91 93.193 86.08 98.033C81.73 94.183 76.47 93.663 71 93.873Z" fill="#A97F71"/>
<path d="M93.0396 59.9028C93.1296 62.6928 95.1096 62.9828 97.2296 63.0928C94.2696 64.9728 90.8396 65.0828 86.8096 66.2828C88.6996 63.0928 91.1196 61.7428 93.0396 59.9028Z" fill="#9B291D"/>
<path d="M67.0295 130.943C63.9895 130.863 60.9796 130.993 58.0596 131.953C60.4496 126.643 63.0195 126.353 67.0295 130.943Z" fill="#FEBF9F"/>
<path d="M48.07 110.153C47.9 111.573 48.1399 113.603 46.0899 113.363C44.3899 113.163 45.1699 111.233 45.0899 110.053C45.0099 108.803 44.8 106.873 46.38 106.813C48.5 106.733 47.85 108.843 48.07 110.153Z" fill="#FEBF9F"/>
<path d="M113.65 121.833C112.86 123.513 111.4 122.893 110.21 122.923C109.19 122.953 108.11 122.623 108.34 121.293C108.61 119.703 110.02 120.043 111.11 120.043C112.32 120.043 113.29 120.533 113.65 121.833Z" fill="#FEBF9F"/>
<path d="M34.9398 149.573C34.6698 151.133 33.7197 151.853 32.2397 151.903C31.3997 151.933 30.3898 151.783 30.5098 150.753C30.6798 149.223 32.1697 148.913 33.3397 148.453C34.3797 148.043 34.7798 148.723 34.9398 149.573Z" fill="#FEBF9F"/>
<path d="M151.199 95.8929C152.199 95.1129 151.869 93.9429 152.059 92.9229C153.529 97.0829 153.579 97.9129 152.669 104.063C151.299 102.153 152.869 99.6828 151.249 97.9828C151.239 97.2928 151.219 96.5929 151.199 95.8929Z" fill="#97715D"/>
<path d="M56.0695 150.933C52.5695 151.043 51.1595 150.143 50.4695 148.273C50.3795 148.033 50.8895 147.273 51.1595 147.253C53.7795 147.053 53.4295 150.053 56.0695 150.933Z" fill="#FEBF9F"/>
<path d="M152.4 144.113C153.14 144.173 153.79 144.553 153.61 145.293C153.33 146.453 152.48 147.343 151.28 147.583C150.51 147.743 150.1 147.033 150.17 146.333C150.29 145.023 151.09 144.283 152.4 144.113Z" fill="#FEBF9F"/>
<path d="M89.4395 124.163C91.3895 122.463 91.9295 120.563 93.9495 120.753C94.2295 120.783 94.7594 121.633 94.6494 121.883C93.7694 123.933 91.8295 123.823 89.4395 124.163Z" fill="#FEBF9F"/>
<path d="M44.6602 120.943C46.3202 122.323 47.1903 123.293 46.5003 124.763C46.3503 125.073 45.5503 125.403 45.3103 125.273C43.6103 124.303 44.0602 122.933 44.6602 120.943Z" fill="#FEBF9F"/>
<path d="M148.97 75.9328C148.34 75.8228 147.45 75.8628 147.56 74.9628C147.71 73.8028 148.83 73.5228 149.76 73.3828C150.57 73.2628 150.91 73.9828 150.8 74.6828C150.65 75.6828 149.86 75.9328 148.97 75.9328Z" fill="#FEBF9F"/>
<path d="M147.009 116.983C145.019 118.323 143.019 119.663 141.029 121.003C141.009 116.673 144.229 117.153 147.009 116.983Z" fill="#FEBF9F"/>
<path d="M120 152.923C121.31 152.203 122.62 151.483 123.93 150.753C123.97 152.053 124.35 153.603 122.86 154.243C121.7 154.743 120.7 153.933 120 152.923Z" fill="#FEBF9F"/>
<path d="M38.9297 240.803C40.2097 238.743 43.1497 237.923 43.2397 234.983C46.3097 234.043 48.5296 231.163 52.0196 231.193C52.0496 237.683 51.9897 244.173 52.1597 250.653C52.2297 253.233 51.1197 254.673 48.9097 255.623C46.6197 256.603 45.5097 254.903 44.3197 253.603C42.0797 251.163 40.1597 248.403 37.7597 246.143C34.8897 243.433 38.9397 242.653 38.9297 240.803Z" fill="#FEFDFC"/>
<path d="M62.9004 179.133C65.7704 177.483 68.7704 176.483 72.1404 177.293C72.2704 180.233 72.4104 183.173 73.3604 186.003C73.9004 190.133 74.4504 194.263 74.9904 198.393C74.9104 201.823 75.9704 205.813 69.9204 205.133C67.5404 204.863 67.1604 203.363 66.1404 202.073C65.0604 194.433 63.9804 186.783 62.9004 179.133Z" fill="#4DA3BB"/>
<path d="M35.1601 200.983C34.7801 197.203 35.4801 193.563 36.7101 189.153C37.2701 194.233 37.7501 198.513 38.2301 202.793C37.2101 202.193 36.1801 201.583 35.1601 200.983Z" fill="#ECA03D"/>
<path d="M148.879 230.083C148.629 229.973 148.359 229.893 148.089 229.823C148.019 228.543 147.999 227.253 147.879 225.973C147.459 221.403 149.299 220.793 152.849 223.083C152.989 223.963 153.139 224.843 153.289 225.723C153.139 225.853 152.999 225.973 152.859 226.113C149.209 224.953 150.649 228.763 149.249 229.803L148.879 230.083Z" fill="#FCC19F"/>
<path d="M149.25 229.793C149.17 228.983 148.97 228.163 149.04 227.373C149.16 226.013 148.16 224.063 149.9 223.463C151.78 222.813 151.68 225.393 152.86 226.103C153.94 229.003 159.06 228.543 158.63 232.043C158.31 234.613 156.18 236.983 154.79 239.403C154.17 240.483 154.01 242.493 152.44 242.183C150.58 241.813 151.17 239.763 151.07 238.383C150.84 235.443 150.93 232.443 149.25 229.793Z" fill="#F9F7F4"/>
<path d="M53.0799 163.993C50.1999 164.833 47.2499 165.473 44.2999 164.803C41.9799 164.283 40.2299 162.203 40.6399 160.143C41.0799 157.933 44.2999 158.503 45.2599 159.193C47.7699 160.993 52.2699 159.603 53.0699 164.003L53.0799 163.993Z" fill="#46CCD0"/>
<path d="M50.9003 427.943C53.8303 430.313 56.7203 432.713 56.6103 437.003C53.5103 437.003 50.4203 437.003 47.3203 437.003C52.0503 436.213 53.4903 434.283 50.3603 430.133C49.8403 429.453 50.2303 428.563 50.9003 427.943Z" fill="#FEFEFE"/>
<path d="M67.6299 207.143C69.7599 205.453 71.9699 206.073 74.8599 206.013C72.2399 209.173 69.8599 207.573 67.6299 207.143Z" fill="#E3C53B"/>
<path d="M66.1594 103.083C69.3994 99.833 73.0394 97.903 77.7794 99.443C81.8094 100.763 84.1294 103.573 84.8494 107.693C85.6994 112.573 82.6694 117.473 77.9094 119.013C72.9094 120.633 67.5394 118.333 65.3494 113.623C64.4194 111.613 64.1895 109.473 64.1895 107.293C64.7495 106.773 65.3494 107.003 65.9694 107.173C66.9594 107.463 68.2194 108.483 68.7994 106.853C69.2094 105.703 67.9294 105.353 67.1494 104.853C66.5094 104.453 65.6594 104.143 66.1594 103.083Z" fill="#722A13"/>
<path d="M66.1592 103.083C66.7292 104.343 67.8493 103.553 68.6993 103.803C70.5393 104.333 71.5493 105.623 70.7993 107.473C70.0493 109.333 68.6493 110.383 66.5793 108.963C65.7793 108.423 64.9992 107.853 64.2092 107.303C64.0092 105.503 64.5592 104.043 66.1592 103.083Z" fill="#E5D6D3"/>
<path d="M127.87 92.9729C132.71 89.0829 136.52 88.7529 140.24 91.9129C144.01 95.1229 145.27 101.123 142.86 105.473C141.15 108.553 138.52 110.463 134.78 110.153C129.75 109.743 127.34 106.433 126.02 101.993C125.57 98.1029 125.57 98.1029 129.65 97.7229C130.49 95.6029 127.29 94.9829 127.87 92.9729Z" fill="#732914"/>
<path d="M127.87 92.9729C128.14 94.7029 130.1 93.9629 130.87 95.0329C131.69 96.1729 132.14 97.2829 131.42 98.6229C130.68 99.9829 129.43 100.583 128.16 99.8229C124.17 97.4429 127.16 101.713 126.02 101.983C123.94 98.4329 124.99 95.5129 127.87 92.9729Z" fill="#D8C3C1"/>
</svg>
