<svg width="84" height="84" viewBox="0 0 84 84" fill="none" xmlns="http://www.w3.org/2000/svg">
<path d="M41.9997 8.66659C33.1591 8.66659 24.6807 12.1785 18.4295 18.4297C12.1782 24.6809 8.66634 33.1594 8.66634 41.9999C8.66634 50.8405 12.1782 59.3189 18.4295 65.5702C24.6807 71.8214 33.1591 75.3333 41.9997 75.3333C50.8402 75.3333 59.3187 71.8214 65.5699 65.5702C71.8211 59.3189 75.333 50.8405 75.333 41.9999C75.333 33.1594 71.8211 24.6809 65.5699 18.4297C59.3187 12.1785 50.8402 8.66659 41.9997 8.66659V8.66659ZM0.333008 41.9999C0.333008 18.9874 18.9872 0.333252 41.9997 0.333252C65.0122 0.333252 83.6663 18.9874 83.6663 41.9999C83.6663 65.0124 65.0122 83.6666 41.9997 83.6666C18.9872 83.6666 0.333008 65.0124 0.333008 41.9999Z" fill="#7843E6"/>
<path d="M42 50.3333C40.8949 50.3333 39.8351 49.8943 39.0537 49.1129C38.2723 48.3315 37.8333 47.2717 37.8333 46.1666V41.9999C37.8333 40.8948 38.2723 39.835 39.0537 39.0536C39.8351 38.2722 40.8949 37.8333 42 37.8333C43.1051 37.8333 44.1649 38.2722 44.9463 39.0536C45.7277 39.835 46.1667 40.8948 46.1667 41.9999V46.1666C46.1667 47.2717 45.7277 48.3315 44.9463 49.1129C44.1649 49.8943 43.1051 50.3333 42 50.3333ZM35.75 60.7499C35.75 59.0923 36.4085 57.5026 37.5806 56.3305C38.7527 55.1584 40.3424 54.4999 42 54.4999C43.6576 54.4999 45.2473 55.1584 46.4194 56.3305C47.5915 57.5026 48.25 59.0923 48.25 60.7499C48.25 62.4075 47.5915 63.9972 46.4194 65.1693C45.2473 66.3414 43.6576 66.9999 42 66.9999C40.3424 66.9999 38.7527 66.3414 37.5806 65.1693C36.4085 63.9972 35.75 62.4075 35.75 60.7499Z" fill="#7843E6"/>
<path d="M43.6243 24.5455C39.6368 24.358 36.2909 26.5872 35.6909 30.183C35.4811 31.2458 34.8655 32.1851 33.9748 32.8017C33.0841 33.4183 31.9882 33.6638 30.9196 33.486C29.8509 33.3083 28.8935 32.7213 28.2503 31.8495C27.6072 30.9778 27.3288 29.8898 27.4743 28.8163C28.9576 19.9163 37.0701 15.8913 44.0201 16.2247C47.5784 16.3913 51.2409 17.6705 54.0576 20.3038C56.9451 22.9997 58.6659 26.8663 58.6659 31.583C58.6659 36.9622 56.5493 40.9538 52.9034 43.383C49.5576 45.6122 45.4534 46.1663 41.9993 46.1663C40.8942 46.1663 39.8344 45.7273 39.053 44.9459C38.2716 44.1645 37.8326 43.1047 37.8326 41.9997C37.8326 40.8946 38.2716 39.8348 39.053 39.0534C39.8344 38.272 40.8942 37.833 41.9993 37.833C44.7909 37.833 46.9409 37.3455 48.2826 36.4497C49.3243 35.7538 50.3326 34.533 50.3326 31.583C50.3326 29.008 49.4493 27.4038 48.3659 26.3913C47.2118 25.3122 45.5326 24.6413 43.6243 24.5455Z" fill="#7843E6"/>
</svg>
