<svg width="1574" height="363" viewBox="0 0 1574 363" fill="none" xmlns="http://www.w3.org/2000/svg">
<g filter="url(#filter0_b)">
<path fill-rule="evenodd" clip-rule="evenodd" d="M782.773 3.78297L780.38 5.38094L780.808 28.519L781.236 51.6581L764.349 52.0016C755.062 52.1914 747.28 52.2352 747.056 52.0999C746.832 51.9636 746.372 41.5181 746.036 28.8859C745.462 7.41396 745.29 5.8257 743.381 4.48365C740.216 2.25694 704.392 3.60971 701.704 6.05733C699.896 7.70303 699.868 9.80615 700.951 61.1799C702.419 130.914 702.859 140.038 704.843 141.93C707.196 144.174 744.069 143.553 746.504 141.228C747.953 139.844 748.147 136.67 748.031 116.305L747.897 92.9679L764.383 92.2633C773.45 91.8759 781.24 91.9236 781.694 92.3693C782.149 92.8151 782.669 103.347 782.851 115.774C783.216 140.836 783.316 141.202 789.855 141.556C791.797 141.66 800.585 141.659 809.385 141.551C822.937 141.384 825.652 141.099 827.129 139.691C828.741 138.153 828.817 135.17 828.13 100.519C826.529 19.6735 826.006 5.3644 824.589 3.73622C822.55 1.3937 786.29 1.43364 782.773 3.78297ZM859.844 4.40869C858.378 5.43153 857.686 9.1054 856.041 24.6028C853.41 49.3992 853.273 58.9854 855.484 63.8942C856.425 65.9857 863.778 78.0291 871.825 90.6575L886.453 113.617L885.002 127.633C883.135 145.684 882.289 144.716 901.628 146.663C920.048 148.517 927.402 148.724 928.759 147.43C930.229 146.028 931.353 139.878 932.234 128.424C933.089 117.298 931.345 119.888 954.621 95.1761C971.511 77.2438 975.045 72.7592 976.588 67.2976C977.717 63.2996 981.659 26.6037 981.662 20.0647C981.663 17.621 981.045 15.5578 980.081 14.7948C978.061 13.1958 944.259 9.94527 941.129 11.0489C938.25 12.064 938.139 12.5594 935.763 35.0862C933.552 56.0482 934.517 53.6765 922.714 67.1467C918.279 72.2074 915.948 73.167 911.789 71.6449C910.869 71.3081 907.847 66.7185 905.072 61.4437C899.214 50.3131 899.182 49.9744 901.625 26.4539C903.297 10.3599 902.985 7.7439 899.261 6.66559C897.397 6.12546 867.403 3.16689 863.738 3.16105C862.583 3.1591 860.831 3.72063 859.844 4.40869ZM607.704 14.3822C551.151 21.8224 550.988 21.8574 551.037 26.4577C551.087 31.2206 555.261 55.2083 556.235 56.3265C557.768 58.0881 561.073 57.9937 577.984 55.7027C585.799 54.6439 592.282 53.8848 592.391 54.0152C592.5 54.1456 595.671 75.8773 599.44 102.309C603.209 128.74 606.539 150.978 606.84 151.725C608.117 154.902 610.916 154.992 630.287 152.477C645.12 150.552 649.934 149.576 651.414 148.193C653.288 146.442 653.177 145.319 646.386 97.5712C641.179 60.9561 639.745 48.5613 640.653 48.0261C641.32 47.6329 648.121 46.5409 655.767 45.5988C671.662 43.6408 674.068 42.9673 674.982 40.2209C675.553 38.5051 673.495 20.4297 671.84 12.6372C671.037 8.85335 668.758 7.0325 664.987 7.16193C663.202 7.22227 637.426 10.4718 607.704 14.3822ZM1061.23 31.6245C1059.92 34.4468 1028.61 157.678 1028.61 159.996C1028.61 162.903 1032.43 164.435 1050.04 168.587C1067.16 172.627 1070.69 172.821 1072.33 169.809C1072.84 168.878 1075.42 159.577 1078.07 149.14C1080.71 138.702 1082.99 130.048 1083.14 129.909C1083.28 129.771 1091.04 131.413 1100.39 133.559C1120.26 138.123 1122.91 138.308 1124.91 135.271C1126.88 132.301 1132.94 107.078 1132.15 105.132C1131.28 102.97 1128.29 101.973 1110.76 98.0247C1102.34 96.1279 1094.7 94.3576 1093.77 94.09C1092.23 93.6423 1092.24 93.0526 1093.92 86.5797C1094.92 82.7161 1096.03 78.3512 1096.38 76.8788C1096.73 75.4063 1097.68 74.2024 1098.48 74.2024C1099.28 74.2024 1111.48 76.8593 1125.58 80.1059C1149.36 85.5812 1151.39 85.9014 1153.6 84.5214C1155.54 83.3098 1156.57 80.6782 1159.13 70.3767C1162.78 55.7552 1163.03 52.2605 1160.5 50.9817C1157.43 49.4236 1069.6 29.4348 1065.82 29.4348C1063.09 29.4348 1062 29.9525 1061.23 31.6245ZM433.577 48.3453C424.267 50.6197 416.116 52.7947 415.463 53.1801C414.81 53.5645 414.289 55.4964 414.305 57.472C414.343 62.0938 446.269 183.701 447.952 185.636C448.65 186.438 450.617 187.095 452.322 187.095C455.563 187.095 552.501 164.532 557.411 162.634C558.962 162.036 560.474 160.615 560.771 159.478C561.314 157.403 545.773 96.0724 543.825 92.601C542.141 89.5996 537.353 90.2721 507.922 97.6441C501.499 99.2538 501.399 100.482 506.18 119.092C508.53 128.243 510.043 136.016 509.555 136.433C508.152 137.633 483.694 143.153 483.194 142.382C482.946 142 477.181 120.484 470.384 94.5698C463.351 67.7608 457.324 46.7161 456.401 45.7429C454.221 43.4461 453.113 43.5726 433.577 48.3453ZM1199.54 69.7247C1192.98 71.7013 1189.44 73.8044 1185.31 78.1585C1180.14 83.6241 1178.74 86.7296 1163.74 126.269C1152.56 155.704 1150.74 161.34 1150.3 167.754C1149.53 179.062 1151.59 183.93 1160.84 192.649C1167.16 198.601 1170.18 200.544 1180.85 205.487C1208.59 218.341 1234.7 223.27 1250.03 218.546C1256.54 216.541 1263.95 210.404 1267.62 203.978C1269.1 201.383 1276.36 183.275 1283.76 163.738C1295.71 132.142 1297.26 127.342 1297.74 120.313C1298.22 113.319 1297.99 111.804 1295.75 107.13C1292.53 100.413 1288.12 95.6442 1280.09 90.1787C1268.47 82.2752 1245.36 73.3762 1227.39 69.8892C1218.07 68.08 1205.24 68.005 1199.54 69.7247ZM320.901 83.7934C306.308 89.0108 293.398 93.7883 292.212 94.4092C287.803 96.7186 287.555 99.1925 287.979 136.628C288.32 166.7 288.643 172.772 290.128 177.089C293.914 188.084 310.398 229.555 311.804 231.619C312.647 232.858 314.328 233.809 315.675 233.809C317.841 233.809 345.814 224.259 350.187 222.027C353.087 220.547 352.436 216.622 346.959 202.563C344.172 195.41 342.22 189.255 342.622 188.886C343.609 187.978 373.426 177.363 374.989 177.363C375.672 177.363 378.418 183.036 381.093 189.972C386.851 204.899 387.916 206.559 391.736 206.559C394.245 206.559 421.847 197.266 426.711 194.784C430.503 192.848 429.814 189.903 419.357 163.332C413.688 148.924 408.322 135.785 407.433 134.136C402.864 125.655 389.138 109.683 364.081 83.6912C355.636 74.9314 354.644 74.2063 351.183 74.254C349.049 74.2832 336 78.394 320.901 83.7934ZM1236.62 111.362C1244.66 113.831 1250.05 118.078 1250.05 121.944C1250.05 126.216 1231.13 175.305 1228.41 178.08C1226.38 180.155 1225.4 180.411 1220.97 180.022C1209.44 179.015 1198.01 172.582 1198.01 167.109C1198.01 165.669 1202.46 152.656 1207.91 138.192C1220.29 105.276 1219.43 106.082 1236.62 111.362ZM349.9 130.592C355.56 137.519 360.19 143.598 360.19 144.099C360.19 145.036 331.759 155.439 331.049 154.763C330.832 154.556 330.158 147.256 329.552 138.541C328.377 121.672 328.557 120.684 333.111 118.923C338.286 116.922 339.321 117.643 349.9 130.592ZM185.782 139.924C161.98 151.425 141.865 161.34 141.084 161.959C140.272 162.601 139.794 164.387 139.968 166.116C140.445 170.821 200.988 284.455 203.63 285.603C205.441 286.389 213.194 283.021 250.086 265.424C274.442 253.805 295.173 243.624 296.154 242.796C299.087 240.327 298.274 237.214 291.259 224.058C286.54 215.209 283.919 211.328 282.335 210.848C280.634 210.333 273.649 213.309 253.37 223.191C238.672 230.353 226.439 236 226.186 235.741C225.254 234.785 218.222 220.949 218.532 220.68C218.709 220.527 226.889 216.584 236.711 211.917C255.884 202.807 258.141 201.406 258.141 198.608C258.141 195.512 246.087 173.636 243.715 172.426C241.791 171.444 238.956 172.503 221.76 180.632L202.015 189.966L198.467 183.246L194.918 176.526L211.478 168.296C220.586 163.77 232.745 157.824 238.497 155.081C248.286 150.415 248.957 149.907 248.957 147.168C248.957 144.268 238.969 123.95 235.933 120.673C235.064 119.737 233.162 118.98 231.706 118.992C230.25 119.004 209.584 128.424 185.782 139.924ZM1345.71 123.922C1339.75 125.26 1334.52 128.164 1329.78 132.764C1326.41 136.035 1321.24 144.95 1306.61 172.738C1283.06 217.465 1281.96 221.215 1288.45 234.426C1295.46 248.687 1325.63 267.475 1353.97 275.228C1365.97 278.51 1379.44 278.359 1386.51 274.861C1395.45 270.436 1398.11 266.532 1418.03 228.676C1428.92 207.972 1437.53 190.362 1438.46 186.894C1443.54 167.992 1430.17 151.712 1396.36 135.64C1382.92 129.252 1371.31 125.353 1361.28 123.863C1353.61 122.723 1351 122.733 1345.71 123.922ZM1379.03 169.162C1387.56 173.151 1390.88 176.356 1390.88 180.606C1390.88 184.646 1367.05 231.129 1363.37 234.277C1360.07 237.098 1354.76 236.569 1346.48 232.59C1337.68 228.364 1333.73 224.779 1333.73 221.017C1333.73 219.38 1339.24 207.721 1347.03 192.865C1358.72 170.596 1360.72 167.353 1363.5 166.241C1367.34 164.7 1370.94 165.377 1379.03 169.162ZM84.9143 193.045C70.7653 201.976 69.3519 203.126 69.3519 205.703C69.3519 207.694 73.1675 214.082 82.1804 227.178C92.5659 242.27 94.715 245.976 93.468 246.642C92.621 247.094 86.343 250.982 79.518 255.284C72.693 259.584 66.7017 262.971 66.2047 262.811C65.7078 262.65 59.4389 254.198 52.2741 244.028C41.6295 228.917 38.7711 225.484 36.6424 225.248C34.7718 225.039 30.0245 227.462 19.8044 233.838C2.87455 244.4 2 245.104 2 248.137C2 251.118 76.8902 360.006 79.4792 360.789C82.2304 361.622 84.8133 360.342 100.477 350.38C113.005 342.411 114.8 340.937 115.063 338.401C115.302 336.091 112.864 331.887 102.944 317.505C96.1141 307.602 90.3178 298.985 90.0626 298.355C89.6728 297.39 108.943 284.235 115.908 280.71C117.934 279.685 118.954 280.875 131.624 299.046C139.294 310.045 145.882 318.528 146.807 318.593C150.344 318.843 152.011 318.027 166.564 308.923C183.374 298.408 184.395 297.133 180.794 291.165C177.881 286.339 111.665 190.351 108.498 186.365C104.556 181.402 102.386 182.016 84.9143 193.045ZM1479.87 185.392C1479.29 186.061 1462.14 210.695 1441.76 240.135C1399.98 300.481 1401.24 298.028 1409.25 303.322C1423.69 312.871 1470.74 341.963 1475.07 344.012C1487.62 349.962 1499.08 351.391 1509.01 348.241C1518.45 345.245 1523.8 339.42 1544.72 309.319C1555.17 294.284 1565.58 278.553 1567.85 274.363C1571.69 267.294 1571.99 266.165 1572 258.791C1572.01 252.218 1571.55 249.913 1569.35 245.487C1566.14 239.041 1560.05 232.325 1552.26 226.647C1540.49 218.06 1485.38 184.175 1483.2 184.175C1481.95 184.175 1480.45 184.723 1479.87 185.392ZM1520.16 249.971C1523.79 252.575 1525.03 255.246 1524.16 258.571C1523.51 261.046 1496.1 301.129 1492.68 304.61C1488.91 308.452 1485.19 307.55 1472.65 299.744C1466.41 295.864 1461.31 292.388 1461.3 292.022C1461.3 291.656 1469.79 279.062 1480.17 264.035L1499.04 236.713L1507.98 242.177C1512.89 245.184 1518.37 248.69 1520.16 249.971Z" fill="#7843E6"/>
<path fill-rule="evenodd" clip-rule="evenodd" d="M782.773 3.78297L780.38 5.38094L780.808 28.519L781.236 51.6581L764.349 52.0016C755.062 52.1914 747.28 52.2352 747.056 52.0999C746.832 51.9636 746.372 41.5181 746.036 28.8859C745.462 7.41396 745.29 5.8257 743.381 4.48365C740.216 2.25694 704.392 3.60971 701.704 6.05733C699.896 7.70303 699.868 9.80615 700.951 61.1799C702.419 130.914 702.859 140.038 704.843 141.93C707.196 144.174 744.069 143.553 746.504 141.228C747.953 139.844 748.147 136.67 748.031 116.305L747.897 92.9679L764.383 92.2633C773.45 91.8759 781.24 91.9236 781.694 92.3693C782.149 92.8151 782.669 103.347 782.851 115.774C783.216 140.836 783.316 141.202 789.855 141.556C791.797 141.66 800.585 141.659 809.385 141.551C822.937 141.384 825.652 141.099 827.129 139.691C828.741 138.153 828.817 135.17 828.13 100.519C826.529 19.6735 826.006 5.3644 824.589 3.73622C822.55 1.3937 786.29 1.43364 782.773 3.78297ZM859.844 4.40869C858.378 5.43153 857.686 9.1054 856.041 24.6028C853.41 49.3992 853.273 58.9854 855.484 63.8942C856.425 65.9857 863.778 78.0291 871.825 90.6575L886.453 113.617L885.002 127.633C883.135 145.684 882.289 144.716 901.628 146.663C920.048 148.517 927.402 148.724 928.759 147.43C930.229 146.028 931.353 139.878 932.234 128.424C933.089 117.298 931.345 119.888 954.621 95.1761C971.511 77.2438 975.045 72.7592 976.588 67.2976C977.717 63.2996 981.659 26.6037 981.662 20.0647C981.663 17.621 981.045 15.5578 980.081 14.7948C978.061 13.1958 944.259 9.94527 941.129 11.0489C938.25 12.064 938.139 12.5594 935.763 35.0862C933.552 56.0482 934.517 53.6765 922.714 67.1467C918.279 72.2074 915.948 73.167 911.789 71.6449C910.869 71.3081 907.847 66.7185 905.072 61.4437C899.214 50.3131 899.182 49.9744 901.625 26.4539C903.297 10.3599 902.985 7.7439 899.261 6.66559C897.397 6.12546 867.403 3.16689 863.738 3.16105C862.583 3.1591 860.831 3.72063 859.844 4.40869ZM607.704 14.3822C551.151 21.8224 550.988 21.8574 551.037 26.4577C551.087 31.2206 555.261 55.2083 556.235 56.3265C557.768 58.0881 561.073 57.9937 577.984 55.7027C585.799 54.6439 592.282 53.8848 592.391 54.0152C592.5 54.1456 595.671 75.8773 599.44 102.309C603.209 128.74 606.539 150.978 606.84 151.725C608.117 154.902 610.916 154.992 630.287 152.477C645.12 150.552 649.934 149.576 651.414 148.193C653.288 146.442 653.177 145.319 646.386 97.5712C641.179 60.9561 639.745 48.5613 640.653 48.0261C641.32 47.6329 648.121 46.5409 655.767 45.5988C671.662 43.6408 674.068 42.9673 674.982 40.2209C675.553 38.5051 673.495 20.4297 671.84 12.6372C671.037 8.85335 668.758 7.0325 664.987 7.16193C663.202 7.22227 637.426 10.4718 607.704 14.3822ZM1061.23 31.6245C1059.92 34.4468 1028.61 157.678 1028.61 159.996C1028.61 162.903 1032.43 164.435 1050.04 168.587C1067.16 172.627 1070.69 172.821 1072.33 169.809C1072.84 168.878 1075.42 159.577 1078.07 149.14C1080.71 138.702 1082.99 130.048 1083.14 129.909C1083.28 129.771 1091.04 131.413 1100.39 133.559C1120.26 138.123 1122.91 138.308 1124.91 135.271C1126.88 132.301 1132.94 107.078 1132.15 105.132C1131.28 102.97 1128.29 101.973 1110.76 98.0247C1102.34 96.1279 1094.7 94.3576 1093.77 94.09C1092.23 93.6423 1092.24 93.0526 1093.92 86.5797C1094.92 82.7161 1096.03 78.3512 1096.38 76.8788C1096.73 75.4063 1097.68 74.2024 1098.48 74.2024C1099.28 74.2024 1111.48 76.8593 1125.58 80.1059C1149.36 85.5812 1151.39 85.9014 1153.6 84.5214C1155.54 83.3098 1156.57 80.6782 1159.13 70.3767C1162.78 55.7552 1163.03 52.2605 1160.5 50.9817C1157.43 49.4236 1069.6 29.4348 1065.82 29.4348C1063.09 29.4348 1062 29.9525 1061.23 31.6245ZM433.577 48.3453C424.267 50.6197 416.116 52.7947 415.463 53.1801C414.81 53.5645 414.289 55.4964 414.305 57.472C414.343 62.0938 446.269 183.701 447.952 185.636C448.65 186.438 450.617 187.095 452.322 187.095C455.563 187.095 552.501 164.532 557.411 162.634C558.962 162.036 560.474 160.615 560.771 159.478C561.314 157.403 545.773 96.0724 543.825 92.601C542.141 89.5996 537.353 90.2721 507.922 97.6441C501.499 99.2538 501.399 100.482 506.18 119.092C508.53 128.243 510.043 136.016 509.555 136.433C508.152 137.633 483.694 143.153 483.194 142.382C482.946 142 477.181 120.484 470.384 94.5698C463.351 67.7608 457.324 46.7161 456.401 45.7429C454.221 43.4461 453.113 43.5726 433.577 48.3453ZM1199.54 69.7247C1192.98 71.7013 1189.44 73.8044 1185.31 78.1585C1180.14 83.6241 1178.74 86.7296 1163.74 126.269C1152.56 155.704 1150.74 161.34 1150.3 167.754C1149.53 179.062 1151.59 183.93 1160.84 192.649C1167.16 198.601 1170.18 200.544 1180.85 205.487C1208.59 218.341 1234.7 223.27 1250.03 218.546C1256.54 216.541 1263.95 210.404 1267.62 203.978C1269.1 201.383 1276.36 183.275 1283.76 163.738C1295.71 132.142 1297.26 127.342 1297.74 120.313C1298.22 113.319 1297.99 111.804 1295.75 107.13C1292.53 100.413 1288.12 95.6442 1280.09 90.1787C1268.47 82.2752 1245.36 73.3762 1227.39 69.8892C1218.07 68.08 1205.24 68.005 1199.54 69.7247ZM320.901 83.7934C306.308 89.0108 293.398 93.7883 292.212 94.4092C287.803 96.7186 287.555 99.1925 287.979 136.628C288.32 166.7 288.643 172.772 290.128 177.089C293.914 188.084 310.398 229.555 311.804 231.619C312.647 232.858 314.328 233.809 315.675 233.809C317.841 233.809 345.814 224.259 350.187 222.027C353.087 220.547 352.436 216.622 346.959 202.563C344.172 195.41 342.22 189.255 342.622 188.886C343.609 187.978 373.426 177.363 374.989 177.363C375.672 177.363 378.418 183.036 381.093 189.972C386.851 204.899 387.916 206.559 391.736 206.559C394.245 206.559 421.847 197.266 426.711 194.784C430.503 192.848 429.814 189.903 419.357 163.332C413.688 148.924 408.322 135.785 407.433 134.136C402.864 125.655 389.138 109.683 364.081 83.6912C355.636 74.9314 354.644 74.2063 351.183 74.254C349.049 74.2832 336 78.394 320.901 83.7934ZM1236.62 111.362C1244.66 113.831 1250.05 118.078 1250.05 121.944C1250.05 126.216 1231.13 175.305 1228.41 178.08C1226.38 180.155 1225.4 180.411 1220.97 180.022C1209.44 179.015 1198.01 172.582 1198.01 167.109C1198.01 165.669 1202.46 152.656 1207.91 138.192C1220.29 105.276 1219.43 106.082 1236.62 111.362ZM349.9 130.592C355.56 137.519 360.19 143.598 360.19 144.099C360.19 145.036 331.759 155.439 331.049 154.763C330.832 154.556 330.158 147.256 329.552 138.541C328.377 121.672 328.557 120.684 333.111 118.923C338.286 116.922 339.321 117.643 349.9 130.592ZM185.782 139.924C161.98 151.425 141.865 161.34 141.084 161.959C140.272 162.601 139.794 164.387 139.968 166.116C140.445 170.821 200.988 284.455 203.63 285.603C205.441 286.389 213.194 283.021 250.086 265.424C274.442 253.805 295.173 243.624 296.154 242.796C299.087 240.327 298.274 237.214 291.259 224.058C286.54 215.209 283.919 211.328 282.335 210.848C280.634 210.333 273.649 213.309 253.37 223.191C238.672 230.353 226.439 236 226.186 235.741C225.254 234.785 218.222 220.949 218.532 220.68C218.709 220.527 226.889 216.584 236.711 211.917C255.884 202.807 258.141 201.406 258.141 198.608C258.141 195.512 246.087 173.636 243.715 172.426C241.791 171.444 238.956 172.503 221.76 180.632L202.015 189.966L198.467 183.246L194.918 176.526L211.478 168.296C220.586 163.77 232.745 157.824 238.497 155.081C248.286 150.415 248.957 149.907 248.957 147.168C248.957 144.268 238.969 123.95 235.933 120.673C235.064 119.737 233.162 118.98 231.706 118.992C230.25 119.004 209.584 128.424 185.782 139.924ZM1345.71 123.922C1339.75 125.26 1334.52 128.164 1329.78 132.764C1326.41 136.035 1321.24 144.95 1306.61 172.738C1283.06 217.465 1281.96 221.215 1288.45 234.426C1295.46 248.687 1325.63 267.475 1353.97 275.228C1365.97 278.51 1379.44 278.359 1386.51 274.861C1395.45 270.436 1398.11 266.532 1418.03 228.676C1428.92 207.972 1437.53 190.362 1438.46 186.894C1443.54 167.992 1430.17 151.712 1396.36 135.64C1382.92 129.252 1371.31 125.353 1361.28 123.863C1353.61 122.723 1351 122.733 1345.71 123.922ZM1379.03 169.162C1387.56 173.151 1390.88 176.356 1390.88 180.606C1390.88 184.646 1367.05 231.129 1363.37 234.277C1360.07 237.098 1354.76 236.569 1346.48 232.59C1337.68 228.364 1333.73 224.779 1333.73 221.017C1333.73 219.38 1339.24 207.721 1347.03 192.865C1358.72 170.596 1360.72 167.353 1363.5 166.241C1367.34 164.7 1370.94 165.377 1379.03 169.162ZM84.9143 193.045C70.7653 201.976 69.3519 203.126 69.3519 205.703C69.3519 207.694 73.1675 214.082 82.1804 227.178C92.5659 242.27 94.715 245.976 93.468 246.642C92.621 247.094 86.343 250.982 79.518 255.284C72.693 259.584 66.7017 262.971 66.2047 262.811C65.7078 262.65 59.4389 254.198 52.2741 244.028C41.6295 228.917 38.7711 225.484 36.6424 225.248C34.7718 225.039 30.0245 227.462 19.8044 233.838C2.87455 244.4 2 245.104 2 248.137C2 251.118 76.8902 360.006 79.4792 360.789C82.2304 361.622 84.8133 360.342 100.477 350.38C113.005 342.411 114.8 340.937 115.063 338.401C115.302 336.091 112.864 331.887 102.944 317.505C96.1141 307.602 90.3178 298.985 90.0626 298.355C89.6728 297.39 108.943 284.235 115.908 280.71C117.934 279.685 118.954 280.875 131.624 299.046C139.294 310.045 145.882 318.528 146.807 318.593C150.344 318.843 152.011 318.027 166.564 308.923C183.374 298.408 184.395 297.133 180.794 291.165C177.881 286.339 111.665 190.351 108.498 186.365C104.556 181.402 102.386 182.016 84.9143 193.045ZM1479.87 185.392C1479.29 186.061 1462.14 210.695 1441.76 240.135C1399.98 300.481 1401.24 298.028 1409.25 303.322C1423.69 312.871 1470.74 341.963 1475.07 344.012C1487.62 349.962 1499.08 351.391 1509.01 348.241C1518.45 345.245 1523.8 339.42 1544.72 309.319C1555.17 294.284 1565.58 278.553 1567.85 274.363C1571.69 267.294 1571.99 266.165 1572 258.791C1572.01 252.218 1571.55 249.913 1569.35 245.487C1566.14 239.041 1560.05 232.325 1552.26 226.647C1540.49 218.06 1485.38 184.175 1483.2 184.175C1481.95 184.175 1480.45 184.723 1479.87 185.392ZM1520.16 249.971C1523.79 252.575 1525.03 255.246 1524.16 258.571C1523.51 261.046 1496.1 301.129 1492.68 304.61C1488.91 308.452 1485.19 307.55 1472.65 299.744C1466.41 295.864 1461.31 292.388 1461.3 292.022C1461.3 291.656 1469.79 279.062 1480.17 264.035L1499.04 236.713L1507.98 242.177C1512.89 245.184 1518.37 248.69 1520.16 249.971Z" stroke="#F8BD0A" stroke-width="4"/>
</g>
<defs>
<filter id="filter0_b" x="-4" y="-4" width="1582" height="371" filterUnits="userSpaceOnUse" color-interpolation-filters="sRGB">
<feFlood flood-opacity="0" result="BackgroundImageFix"/>
<feGaussianBlur in="BackgroundImage" stdDeviation="2"/>
<feComposite in2="SourceAlpha" operator="in" result="effect1_backgroundBlur"/>
<feBlend mode="normal" in="SourceGraphic" in2="effect1_backgroundBlur" result="shape"/>
</filter>
</defs>
</svg>
