<svg width="273" height="464" viewBox="0 0 273 464" fill="none" xmlns="http://www.w3.org/2000/svg">
<path d="M118.95 353.91C112.46 350.81 105.24 350.03 98.5901 347.38C86.3801 342.51 86.3001 342.59 89.7501 330.14C93.0301 318.33 96.4201 306.55 99.7601 294.75C105.93 295.04 110.94 290.57 112.21 283.67C112.51 282.03 112.22 280.33 112.67 278.7C113.74 269.69 114.76 260.69 115.49 251.67C115.77 248.2 115.91 244.76 116.97 241.42C117.09 240.76 116.96 241.59 117.08 240.93C118.91 231.44 118.91 231.44 129.09 231.43C139.34 231.42 149.6 231.6 159.84 230.86C161 231.01 162.05 232.13 163.09 231.89C167.1 230.98 168.41 233.68 169.6 236.5C170.96 239.73 172.75 242.7 174.71 245.57C176.42 248.07 178.52 248.58 181.09 246.89C184 244.97 187.08 243.34 190.09 241.58C193.46 239.62 194.89 240.4 195.2 244.36C195.48 248 195.52 251.67 195.25 255.3C194.62 263.75 196.78 272.12 195.84 280.57C195.77 281.22 196.31 281.79 196.57 282.39C198.48 288.67 202.66 292.88 208.57 295.49C213.23 297.55 215.14 297 218.11 292.92C222.8 307.6 228.18 322.04 233.88 336.35C235.27 339.82 233.37 341.05 230.78 342.42C225.36 345.27 219.34 346.82 214.17 350.19C209.08 353.7 203.09 354.4 197.24 355.23C192.6 355.89 187.98 358 183.16 356.15C173.38 355.42 163.67 357.34 153.89 356.87C144.31 359.54 134.84 357.29 125.34 356.23C123.03 355.98 120.79 355.48 118.95 353.91Z" fill="#43A2C8"/>
<path d="M101.53 148.95C101.08 146.73 99.88 145.27 97.96 143.89C85.33 134.8 79.56 121 85.88 105.51C86.52 103.95 86.2299 102.64 86.0999 101.19C87.0899 100.49 87.85 101.14 88.63 101.62C91.61 104 93.6399 107.48 97.3099 109.06C97.6799 109.67 97.7599 110.34 97.6699 111.03C97.2499 113.87 95.17 116.12 94.89 118.99C96.8 120.62 98.4299 122.35 98.4799 125.1C98.4999 126.42 99.1 127.67 99.88 128.76C101.76 131.42 104.16 134.07 107.51 133.25C111.31 132.31 109.26 128.56 109.66 126.03C110.21 122.51 106.71 119.19 109.1 115.55C110.44 114.71 111.94 114.6 113.43 114.67C119.73 115 125.6 113.58 131.09 110.5C132.39 109.77 133.78 109.18 135.35 109.49C136.76 112.45 138.4 113.46 142.01 112.06C146.93 110.15 152.24 109.16 157.67 110.29C158.74 110.51 160.16 110.91 160.62 109.36C160.94 108.27 159.97 107.58 159.26 106.89C157.17 104.84 154 103.82 153.17 100.56C153.22 95.44 156.02 90.82 155.69 85.59C155.47 81.99 155.49 78.38 154.53 74.87C154.35 73.84 154.6 72.88 155.06 71.98C156.92 69.11 157.3 66.83 152.85 66.44C151.53 65.57 150.77 64.35 150.52 62.79C150.53 62.26 150.7 61.78 151.02 61.36C156.88 57.89 163.43 55.83 169.23 52.16C175.3 48.32 181.08 44.12 186.77 39.77C187.43 39.26 188.02 38.66 188.72 38.21C190.23 37.24 191.95 35.59 193.6 37.12C195.04 38.46 193.6 40.22 192.79 41.6C188.4 49.15 183.88 56.21 171.83 64.53C186.1 63.7 196.26 55.33 205.58 45.6C207.65 43.44 209.44 41.01 211.78 39.11C216.79 35.04 219.77 35.1 224.53 39.32C225.15 39.87 225.68 40.55 226.34 41.04C238.24 49.92 240.98 61.65 238.72 75.92C237.03 86.56 238.45 97.53 238.25 108.36C237.27 118.81 234.56 128.97 232.94 139.3C230.97 144.44 229.91 149.99 226.07 154.32C227.32 155.47 229.94 154.35 230.17 156.93C227.8 159.71 224.37 158.27 221.52 159.12C216.43 161.58 211.71 164.67 206.92 167.64C200.66 169.82 194.5 172.31 188.11 174.13C186.39 174.62 186.13 175.61 186.28 177.06C186.02 179.85 187.49 183.03 184.42 185.16C182.01 183.86 183.22 181.24 181.96 178.66C180.91 183.52 178.8 187 174.82 189.39C165.2 195.15 151.09 192.9 144 184.26C142.56 182.51 141.72 180.58 141.73 178.36C141.74 175.77 140.41 174.4 138.03 173.8C137.31 173.4 136.78 172.88 136.85 171.97C138.85 169.87 141.85 171.25 144.07 169.92C147.55 169.29 149.51 171.97 151.74 173.71C156.74 177.62 162.43 178.71 168.52 178.58C170.66 178.53 172.77 178.19 174.62 176.07C170.69 174.6 166.85 175.19 163.21 174.53C156.74 173.35 150.66 170.65 144.11 169.9C139.67 167.91 135.95 164.63 131.41 162.83C126.8 160.1 122.94 156.49 119.43 152.49C118.04 150.91 116.63 149.77 114.34 150.08C109.98 150.71 105.78 149.51 101.53 148.95Z" fill="#FEBF9F"/>
<path d="M237.071 107.75C235.991 96.28 236.091 84.73 237.731 73.41C239.631 60.3 236.131 49.94 225.601 41.94C224.681 41.24 223.841 40.42 223.021 39.59C219.371 35.88 215.951 36.8 212.661 40.07C207.821 44.87 203.181 49.89 198.151 54.46C189.851 62 180.071 66.05 168.371 65.5C179.611 58.7 187.641 49.1 193.271 37.1C179.991 46.84 166.931 56.96 150.971 62.01C148.881 63.35 147.891 61.53 146.881 60.41C133.641 45.71 108.061 48.04 95.4807 59.25C88.3507 65.6 85.3607 73.79 85.2807 83.29C85.2607 85.69 86.9207 89.16 82.7907 90.27C70.8207 41.4 97.1607 7.32997 148.711 2.94997C162.391 0.659965 176.061 1.63996 189.721 3.14996C190.711 3.25996 191.701 3.47996 192.641 3.78996C195.061 4.57996 196.001 5.87998 193.931 8.06998C191.671 10.45 189.311 12.71 187.371 14.68C189.161 13.01 191.311 10.94 193.301 8.73997C195.921 5.84997 198.311 5.94997 200.831 8.76997C204.271 12.62 208.111 16.07 211.681 19.79C208.981 16.99 206.161 14.31 203.481 11.49C202.601 10.57 201.261 9.51996 202.281 8.11996C203.221 6.82996 204.751 7.48997 205.971 7.90997C222.611 13.69 234.731 24.39 242.461 40.38C248.421 52.7 249.421 65.84 250.431 79.06C250.721 82.85 250.531 86.67 252.641 90.11C253.581 91.64 254.761 93.61 252.811 95.01C250.971 96.34 249.941 94.18 248.691 93.26C247.931 92.69 247.381 91.7 245.961 92.08C244.691 96.34 244.821 100.71 245.411 105.14C245.681 107.2 245.391 109.21 243.251 110.28C241.161 111.33 239.391 110.73 237.931 108.99C237.601 108.6 237.321 108.19 237.071 107.75Z" fill="#B70002"/>
<path d="M82.8403 202.2C65.1003 198.88 48.9703 191.25 32.4403 184.35C21.4003 179.74 13.1603 170.97 2.05025 166.94C0.900252 166.52 -0.0197142 165.66 0.210286 164.3C0.470286 162.79 1.64029 162.05 3.09029 162.02C5.42029 161.96 7.76027 161.92 10.0703 162.13C12.9503 162.4 12.4603 160.82 11.9603 159.12C12.8203 158.53 13.5303 158.97 14.1803 159.49C15.4903 160.54 16.8002 161.78 18.5402 160.39C20.1102 159.14 20.6202 157.32 20.2202 155.46C19.1602 150.64 18.6603 145.61 15.3803 141.55C14.5803 140.56 13.5003 139.59 14.0703 138.05C17.5203 136.97 15.0303 134.66 14.8103 133.16C14.3803 130.27 12.5803 126.07 15.0003 125.02C17.3503 124 18.3803 128.57 19.9503 130.75C28.0803 142.03 34.3003 154.47 41.5503 166.28C42.4603 167.76 43.5003 168.89 45.1503 169.52C56.3003 173.76 68.0303 175.75 79.5703 178.49C81.4203 178.93 80.7803 177 81.1103 176.04C82.0103 175.78 82.4203 176.34 82.7503 177.02C83.4103 179.63 81.8103 182.26 82.8403 184.92C83.2303 185.92 83.8603 187.25 82.5903 188.1C81.4203 188.89 80.4102 187.99 79.4102 187.4C78.6102 186.92 78.1002 185.84 76.6002 186.2C76.7302 190.36 79.3703 193.46 81.1203 196.92C81.9603 198.58 83.9903 199.88 82.8403 202.2Z" fill="#FDC1A0"/>
<path d="M160.88 231.95C148.33 233.53 135.73 232.77 123.15 232.71C120.15 232.7 118.92 233.79 118.92 236.72C118.92 238.35 118.55 239.98 118.35 241.6C116.44 240.69 117 238.86 116.78 237.34C116.58 235.92 116.95 234.15 115.25 233.53C113.57 232.91 113.24 234.76 112.38 235.6C112.01 235.96 111.58 236.09 111.08 235.9C112 231.27 109.66 229.35 105.39 229.31C100.51 229.27 96.4999 227.36 92.9999 224.11C91.3699 219.78 91.1399 215.18 91.8499 210.81C92.7799 205.08 90.9299 200.35 88.2299 195.69C86.6299 192.93 85.7499 189.88 84.6099 186.94C83.7299 184.65 83.6799 182.39 85.2899 180.32C89.8599 179.09 90.8999 183.61 93.6199 185.41C98.4299 191.73 103.74 197.68 108.09 204.37C111.26 209.23 115.46 211.92 121.52 210.48C123.83 211.03 124.88 210.54 123.52 208.05C120.12 202.97 120.15 201.94 123.72 198.75C124.73 199.1 125.21 199.95 125.68 200.81C126.6 202.71 127.26 204.73 128.44 206.7C129.59 204.77 131.42 203.46 131.78 201.2C132.15 199.97 132.53 198.74 134.09 198.55C137.9 201.61 137.97 203.14 134.53 207.58C132.63 209.98 134 210.34 136.16 210.14C140.08 209.78 143.96 209.18 147.73 207.97C151.06 207.87 154.31 206.28 157.69 207.5C161.63 214.18 163.51 221.72 166.39 228.84C165.63 231.78 163.36 232.05 160.88 231.95Z" fill="#FDC0A0"/>
<path d="M183.16 356.16C193.59 354.67 203.93 352.7 214.17 350.2C218.36 353.64 217.03 358.75 217.82 363.11C220.26 376.57 222.2 390.13 224.42 403.63C224.65 405.06 225.46 406.39 225.99 407.77C224.96 409.81 223.15 410.31 221.04 410.39C214.31 410.63 207.72 411.97 201.1 413.07C199.44 413.35 197.81 414.03 196.94 411.85C195.77 400.43 191.59 389.73 188.97 378.65C187.2 371.12 185.11 363.65 183.16 356.16Z" fill="#FEBFA0"/>
<path d="M119.17 412.91C120.88 411.54 121.1 409.72 121.02 407.64C120.61 396.43 120.3 385.22 119.95 374.01C119.01 368.91 119.73 363.77 119.54 358.66C119.48 357.22 120.03 355.56 121.44 355.59C124.47 355.66 127.89 355.05 130.16 357.92C132.13 360.4 134.19 362.78 136.55 364.89C141.79 369.59 144.1 368.95 145.76 362.33C146.22 360.5 146.73 358.51 149.03 358.6C151.57 358.7 151.45 360.85 151.48 362.7C151.69 375.97 150.04 389.19 150.3 402.48C150.36 405.46 148.63 408.48 150.31 411.52C149.64 413.16 148.22 413.6 146.67 413.61C138.24 413.68 129.81 413.34 121.38 413.93C120.53 414 119.79 413.5 119.17 412.91Z" fill="#FDC0A0"/>
<path d="M220.84 158.03C223.54 156.42 226.83 158.61 229.48 156.69C230.74 155.8 231.25 153.95 233.14 153.89C239.65 155.83 246.04 158.31 252.91 158.75C255.67 158.93 256.7 160.47 256.91 162.9C257.04 164.39 257.12 165.89 257.08 167.39C256.9 173.62 256.26 174.09 250.37 172.47C249.27 172.17 248.18 171.85 246.31 171.32C247.36 172.2 247.78 172.6 248.25 172.94C255.19 177.83 255.17 177.81 249.47 184.02C247.07 186.63 244.2 188.6 241.15 190.32C234.76 193.91 233.86 193.64 229.88 187.22C228.51 185.93 226.22 186.63 225.02 184.97C224.58 184.3 224.13 183.63 223.4 182.52C222.05 185.17 223.77 187.27 223.93 189.41C224.05 191.03 225.67 192.83 223.1 193.93C219.21 190.34 216.08 186.19 213.88 181.35C213.65 177.16 213.32 172.98 213.17 168.79C215.27 164.88 219.38 162.41 220.84 158.03Z" fill="#B40203"/>
<path d="M82.7705 90.26C84.7105 88.51 83.9205 86.17 83.8505 84.13C83.1805 62.81 99.7605 49.69 119.11 48.83C131.2 48.29 141.361 51.65 149.201 61.15C149.571 61.6 150.361 61.72 150.961 61.99C150.951 62.28 150.911 62.57 150.841 62.85C148.141 65.43 144.56 65.37 141.23 66.08C140.44 66.08 139.681 65.91 138.961 65.58C127.821 57.68 114.011 57.43 104.651 64.96C96.9205 71.18 94.8105 79.52 96.7505 88.69C98.4805 96.86 102.94 103.35 111.75 105.6C112.17 105.89 112.441 106.29 112.581 106.78C112.521 109.92 110.611 112.17 108.831 114.48C108.001 115.35 107.3 116.43 105.88 116.4C102.72 114.84 98.5705 114.88 96.9205 110.87C96.9405 110.26 96.9605 109.65 96.9805 109.04C96.0605 106.49 96.9105 103.89 96.8205 101.31C96.7105 98.21 95.6705 97.52 92.9505 99.04C91.2505 99.99 90.0805 101.75 88.0405 102.12C87.3905 101.81 86.7505 101.49 86.1005 101.18C84.8005 97.6 82.8505 94.21 82.7705 90.26Z" fill="#B70002"/>
<path d="M214.831 182.39C217.821 186.06 221.411 189.3 223.081 193.91C226.221 205.83 223.931 217.46 214.961 224.99C208.161 230.7 208.531 236.36 209.021 243.05C209.921 255.32 211.131 267.57 212.211 279.82C208.201 283.05 203.421 283.31 198.631 283.11C196.081 283.01 195.241 281.43 195.291 278.68C195.521 266.76 194.131 254.88 194.411 242.94C194.511 238.85 192.641 237.76 188.591 238.7C186.981 239.07 185.461 239.83 183.771 239.84C180.791 239.38 179.411 237.59 179.471 234.63C179.741 233.93 180.301 233.51 181.001 233.83C186.011 236.13 189.651 234.31 192.481 230.06C193.941 227.87 195.671 226.92 198.391 227.92C201.251 228.97 203.191 227.98 203.911 224.81C204.451 222.42 205.611 220.91 208.531 221.97C211.821 223.16 213.041 221.42 212.201 218.47C211.361 215.56 212.541 214.46 215.061 213.88C215.701 213.73 214.941 214.06 215.551 213.8C215.781 213.7 221.491 200.94 221.331 200.85C218.711 199.39 216.411 197.48 214.571 195.17C211.141 190.86 207.811 186.43 208.491 180.38C211.041 179.68 213.301 179.9 214.831 182.39Z" fill="#FAC106"/>
<path d="M152.73 437.15C152.22 443.6 153.59 450.11 152.22 456.54C144.2 455.84 136.44 457.96 128.57 458.76C114.54 460.18 100.49 460.71 86.4004 460.34C83.9404 460.27 81.3304 460.27 79.9504 457.56C79.3204 454.31 80.9804 451.92 83.4904 450.52C89.8204 446.99 96.3604 443.82 102.8 440.48C104.05 439.83 105.01 440.46 106.04 440.97C106.39 441.28 106.7 441.63 106.97 442.01C110.92 446.83 120.56 448.17 125.63 444.51C126.81 443.66 127.66 442.3 129.41 442.74C129.86 442.88 130.29 443.06 130.7 443.28C136.66 445.29 141.22 442.61 145.46 438.88C147.66 437.38 149.68 435.06 152.73 437.15Z" fill="#F73D76"/>
<path d="M250.93 441.9C256.95 444.1 262.8 446.7 268.16 450.22C271.43 452.37 273.83 455.26 272.11 459.68C250.65 461.62 229.34 460.11 208.13 456.77C205.2 456.31 201.59 457.26 199.73 453.7C199.54 450.07 199.34 446.45 199.15 442.82C200.02 435.09 200.1 435.05 207.49 438.52C208.98 439.22 210.39 440.02 211.63 441.09C213.33 442.84 215.49 443.9 217.83 443.87C221.81 443.82 225.62 444.58 229.39 445.66C235.46 447.4 240.8 445.44 245.94 442.53C247.58 441.6 249.07 440.64 250.93 441.9Z" fill="#F63E76"/>
<path d="M78.8801 165.95C76.7601 160.08 76.8001 160.24 82.7801 158.68C88.8501 157.1 94.8201 155.18 100.84 153.41C105.66 153.33 109.84 156.19 114.61 156.38C115.22 156.4 115.93 156.94 116.14 157.53C118.23 163.47 123.32 164.58 128.62 165.4C128.91 165.45 129.15 165.76 129.4 165.99C130.62 168.41 129.86 170.54 128.44 172.57C126.91 174.27 124.92 175.22 122.71 175.24C117.7 175.29 112.78 176.24 107.79 176.44C103.15 176.32 98.5101 176.5 93.8801 176.34C91.8301 176.27 89.3801 176.7 88.6101 173.83C89.4201 171.34 89.9301 168.74 90.8001 166.19C88.3901 166.15 86.3201 167.06 84.2301 168.06C81.7801 169.23 79.7601 168.92 78.8801 165.95Z" fill="#B70304"/>
<path d="M211 441.83C209.39 441.04 207.81 440.18 206.17 439.47C200.18 436.89 200.17 436.91 199.15 442.82C199.22 437.08 199.84 431.32 198.85 425.61C198.51 423.67 197.66 421.83 197.05 419.94C202.57 417.35 208.68 417.84 214.49 416.73C218.56 415.96 222.66 415.35 226.66 414.27C227.15 414.08 227.65 413.92 228.16 413.78C229.1 418.34 229.99 422.91 229.22 427.6C228.96 429.18 228.89 430.59 230.91 431C228.89 435.51 225.13 438.87 222.81 443.21C221.91 444.89 219.82 445.06 217.89 444.48C215.51 443.79 213.05 443.34 211 441.83Z" fill="#FDF6B2"/>
<path d="M152.73 437.15C149.98 436.71 148.08 438.53 145.93 439.69C141.03 442.53 136.2 445.64 130.08 443.76L130.17 443.79C126.97 439.01 123.63 434.36 119.05 430.77C120.94 427.37 119.77 423.7 119.97 420.16C125.99 418.72 132.1 419.92 138.16 419.51C142.43 420.04 146.95 418.29 150.98 420.93C152.77 424.74 152.07 428.8 151.68 432.68C151.5 434.54 151.96 435.76 152.73 437.15Z" fill="#FCF6B3"/>
<path d="M237.831 108.05C239.561 108.58 240.821 111.09 243.131 109.24C245.151 107.62 245.281 105.53 244.521 103.37C243.401 100.19 244.361 97.1801 244.791 94.0601C245.251 90.7901 246.281 90.2301 248.841 92.3701C249.881 93.2401 250.791 95.4801 252.341 94.2401C253.901 92.9901 252.561 91.0801 251.701 89.7401C248.141 84.1501 249.871 77.7401 249.191 71.7901C247.851 60.0101 246.061 48.5001 240.351 37.9801C233.951 26.1801 225.241 16.7001 212.381 11.7201C209.221 10.5001 206.501 7.98007 202.891 8.09007C202.401 8.64007 201.911 9.20008 201.421 9.75008C206.571 13.8101 211.721 17.8601 217.231 22.2001C213.871 24.3601 213.211 22.7201 212.401 21.9301C208.461 18.1001 204.341 14.4101 200.801 10.2401C197.781 6.69008 195.661 7.10007 193.021 10.4501C190.481 13.6701 187.641 16.6601 184.241 19.0901C184.281 14.9901 187.641 13.5001 189.571 10.9401C191.021 9.01008 194.601 7.75007 193.861 5.42007C193.201 3.32007 189.711 4.25007 187.441 3.95007C178.731 2.77007 169.991 2.03007 161.211 2.20007C157.041 2.28007 152.951 4.02008 148.681 2.94008C162.481 -0.139922 176.441 -0.189931 190.161 2.65007C205.871 5.90007 220.941 10.9401 232.181 23.5701C242.491 35.1501 248.241 48.6201 249.701 63.9801C250.351 70.7501 250.871 77.5401 251.521 84.3101C251.911 88.3901 253.881 91.7801 256.841 94.8201C252.671 97.2501 249.601 96.2301 246.481 91.4401C245.071 100.91 244.981 108.64 251.221 115.18C244.341 119.18 238.151 115.89 237.831 108.05Z" fill="#B70002"/>
<path d="M86.0498 180.21C83.5998 185.14 86.4798 189.51 88.5298 193.23C92.1198 199.75 94.8198 206.09 93.0498 213.61C92.2298 217.12 94.6098 220.63 92.9898 224.12C86.5098 220.52 80.3298 216.32 73.1198 214.17C72.3398 213.94 71.2698 213.68 71.4698 212.69C71.5998 212.03 72.3798 211.35 73.0298 210.98C75.0698 209.84 77.1598 210.12 79.2498 211.03C80.7998 211.71 82.4598 212.48 83.2098 209.99C84.5898 209.62 85.6698 212.05 87.1298 210.44C87.6998 209.81 87.7498 208.96 87.3998 208.16C86.7398 206.65 85.5298 207.34 84.4698 207.47C83.9698 207.53 83.5198 207.39 83.1398 207.05C83.0298 205.44 82.9298 203.82 82.8198 202.21C80.6498 198.34 78.4598 194.48 76.3098 190.61C75.4998 189.15 74.8098 187.63 75.0598 185.91C75.1698 185.13 75.1798 184.04 75.6698 183.66C76.6998 182.88 77.3798 184.03 78.1298 184.62C79.3898 185.62 80.1398 187.26 82.5498 187.85C80.4498 183.99 81.2998 180.41 82.1198 176.83C82.5298 176.66 82.9198 176.69 83.3098 176.9C84.2898 177.94 85.5398 178.77 86.0498 180.21Z" fill="#E09975"/>
<path d="M111.07 235.9C112.67 234.68 111.2 230.75 115.15 231.52C117.98 232.07 118.43 233.8 118.18 236.19C118.09 237.01 118.1 237.84 118.13 238.67C118.17 239.66 118.27 240.64 118.35 241.62C116.82 252.7 115.43 263.79 114.8 274.97C114.69 277 114.27 278.87 113.26 280.62C110.42 281.66 107.76 281.97 105.91 278.86C107.63 264.53 109.35 250.21 111.07 235.9Z" fill="#F5C20F"/>
<path d="M14.0602 138.05C19.2902 142.66 20.2702 149.18 21.6102 155.44C22.1602 158.03 21.4403 160.57 18.7103 162.22C14.7303 164.63 14.3403 159.82 11.9603 159.12C9.44027 155.46 6.94022 151.79 4.41022 148.14C3.64022 147.03 3.01026 145.85 3.07026 144.48C3.12026 143.41 2.48023 142 3.86023 141.41C4.91023 140.96 5.73023 141.89 6.36023 142.61C7.33023 143.73 8.16024 144.98 9.55024 145.81C8.65024 141.97 6.89027 138.6 6.71027 134.79C6.67027 133.88 5.90023 132.74 7.23023 132.23C8.29023 131.83 9.11024 132.64 9.80024 133.33C11.2902 134.84 12.0402 137.02 14.0602 138.05Z" fill="#DD966C"/>
<path d="M149.971 411.72C148.581 409.03 146.081 406.41 149.551 403.44C149.861 403.18 149.941 402.5 149.911 402.03C149.291 388.72 151.061 375.47 150.941 362.17C150.931 360.79 150.611 359.26 148.851 359.39C147.151 359.51 147.041 361.07 147.011 362.44C146.951 365.23 147.661 368.66 144.091 369.6C140.831 370.45 137.961 368.73 135.771 366.2C133.511 363.58 130.611 361.6 128.841 358.43C127.371 355.81 124.121 356.18 121.751 356.4C119.541 356.61 120.031 359.24 120.011 361.03C119.961 365.36 119.971 369.69 119.951 374.02C117.951 367.4 119.391 360.61 118.941 353.91C126.581 354.81 134.271 355.45 141.851 356.72C145.931 357.4 149.911 355.29 153.881 356.88C151.761 357.23 152.031 358.85 152.041 360.35C152.161 376.13 150.961 391.86 150.381 407.61C150.331 409.08 150.641 410.56 150.781 412.03C150.411 412.2 150.141 412.1 149.971 411.72Z" fill="#F6CAB1"/>
<path d="M79.9402 457.56C81.3702 457.99 82.7801 458.76 84.2201 458.8C98.6601 459.17 113.09 458.99 127.46 457.26C134.85 456.37 142.27 455.72 149.65 454.72C151.48 454.47 152.08 454.9 152.22 456.53C148.6 460.07 143.78 458.96 139.49 459.61C122.93 462.11 106.31 464.22 89.4801 463.04C86.3301 462.82 83.2101 462.37 80.4901 460.54C79.2501 459.72 78.2402 458.91 79.9402 457.56Z" fill="#B92B58"/>
<path d="M199.731 453.7C206.241 455.68 213.031 455.91 219.701 456.83C236.811 459.18 254.021 459.41 271.261 458.6C271.531 458.59 271.831 459.31 272.111 459.69C268.541 463.5 263.661 463.28 259.171 463.38C245.891 463.69 232.691 462.41 219.531 460.68C214.621 460.03 209.701 459.56 204.791 458.91C199.891 458.26 199.021 457.3 199.731 453.7Z" fill="#B92B57"/>
<path d="M182.611 238.91C185.461 238.07 188.331 237.33 191.141 236.36C194.151 235.32 195.031 236.49 194.911 239.38C194.361 252.14 196.111 264.84 195.971 277.58C195.931 281.5 197.481 282.64 201.011 281.97C204.751 281.26 208.481 280.53 212.221 279.81C212.501 280.19 212.781 280.58 213.061 280.96C209.021 284.72 200.001 285.85 196.181 283.08C194.961 282.39 194.171 281.56 194.171 279.96C194.151 268.38 194.071 256.8 193.951 245.22C193.941 243.97 194.651 242.28 193.211 241.59C191.711 240.87 191.061 242.73 189.981 243.36C186.691 245.29 183.401 247.22 180.141 249.21C177.541 250.79 175.701 249.76 174.271 247.53C172.041 244.05 169.831 240.57 168.251 236.7C167.401 234.63 167.131 230.9 163.051 233.57C162.231 234.11 161.341 232.89 160.891 231.95C162.171 230.37 164.841 230.97 165.791 228.85C167.991 228.34 168.581 230.04 169.241 231.48C170.601 234.43 172.021 237.35 173.561 240.2C177.101 243.43 179.611 239.46 182.611 238.91Z" fill="#4D7484"/>
<path d="M129.24 166.16C123.13 166.37 117.43 165.85 115.5 158.53C115.28 157.68 114.7 156.81 113.8 157.03C108.75 158.29 104.99 155.14 100.83 153.41C102.66 152.17 101.8 150.52 101.53 148.95C104.21 146.54 106.95 149.5 109.54 148.91C115.8 147.47 119.74 150.37 123.51 154.93C125.87 157.79 129.33 159.74 132.3 162.1C132.94 164.7 131.66 165.85 129.24 166.16Z" fill="#51CAC6"/>
<path d="M196.17 283.08C201.98 283.84 207.58 282.89 213.05 280.96C213.38 281.04 213.7 281.13 214.03 281.21C214.75 283.4 216.85 285.7 213.56 287.6C213.47 287.65 213.25 287.51 213.29 287.77C218.04 286.45 216.51 291.07 218.04 292.79L218.1 292.91C218.67 297.52 216.18 298.39 212.24 297.94C204.87 297.11 197.33 290.24 196.17 283.08Z" fill="#257AA0"/>
<path d="M237.831 108.05C240.561 115.76 244.041 117.61 251.241 115.18C252.551 117.79 250.081 117.07 249.351 116.97C245.861 116.47 245.001 118.41 244.201 121.31C242.941 125.89 241.891 130.71 237.941 134.03C236.641 136.31 234.091 137.61 233.141 140.16C232.701 140.32 232.301 140.24 231.931 139.95C232.041 132.55 233.921 125.5 235.821 118.4C236.721 115.04 236.161 111.26 237.081 107.75C237.351 107.79 237.601 107.89 237.831 108.05Z" fill="#F2B28B"/>
<path d="M105.91 278.85C108.14 280.36 110.88 279.72 113.25 280.61C114.32 287.14 108.78 295.33 102.52 296.65C100.73 297.03 100.13 296.19 99.7598 294.75C101.83 289.46 101.38 283.19 105.91 278.85Z" fill="#257DA5"/>
<path d="M233.86 433.87C239.01 436.56 244.23 439.09 249.85 440.68C245.67 442.85 241.87 445.54 236.94 446.4C233.43 447.01 230.46 445.63 227.21 445.61C225.61 445.6 225.01 444.05 225.54 442.64C227.05 438.56 228.87 434.68 233.86 433.87Z" fill="#F9F2B5"/>
<path d="M106.061 441.92C106.011 441.61 106.001 441.29 106.031 440.98C109.551 437.2 114.731 437.02 119.061 435C123.711 435.28 125.231 438.89 126.541 442.42C127.151 444.06 126.201 445.59 124.341 446.29C119.221 448.21 109.891 446.01 106.061 441.92Z" fill="#FAEFBA"/>
<path d="M233.86 433.87C230.49 436.77 225.19 440.21 226.92 444.16C228.14 446.93 234.75 445.29 239.04 445.08C243.29 444.87 245.48 440.19 249.86 440.67C250.22 441.08 250.58 441.48 250.94 441.89C247.33 441.65 245.43 445.09 242.18 445.9C238.22 446.89 234.59 448.29 230.24 447.08C225.57 445.79 220.59 445.61 215.77 444.84C213.8 444.53 211.91 443.89 211 441.81C218.1 445.02 223.25 443.82 226.13 435.83C226.83 433.89 229.27 432.58 230.91 430.99C233.05 430.76 234.04 431.7 233.86 433.87Z" fill="#DF5065"/>
<path d="M150.76 414.64C151.44 416.37 153.13 418.05 151.03 419.92C142.75 418.27 134.46 420.67 126.18 419.91C124.07 419.72 121.81 420.37 119.97 418.76C123.29 416.73 119.76 416.04 119.19 414.78C125.73 412.37 132.51 414.06 139.17 413.72C142.97 413.52 147.03 412.77 150.76 414.64Z" fill="#F8DEB8"/>
<path d="M106.061 441.92C111.251 445.55 117.141 445.92 123.171 445.58C125.871 445.43 126.861 444.28 125.281 441.77C123.611 439.14 122.191 436.28 119.061 434.99C117.461 433.59 117.481 432.18 119.041 430.76C125.351 432.88 128.301 437.87 130.161 443.78C129.251 443.7 128.431 443.13 127.451 444.06C122.531 448.74 112.481 449.08 107.181 444.95C106.071 444.09 106.031 443.08 106.061 441.92Z" fill="#E24E6B"/>
<path d="M231.93 139.95C232.26 139.9 232.6 139.86 232.93 139.81C233.37 139.48 233.66 139.58 233.8 140.11C236.83 144.86 235.47 149.4 233.13 153.89C232.39 155.44 231.31 156.56 229.48 156.69C227.87 154.99 225.65 156.73 223.29 155.35C228.23 151.29 228.95 145.04 231.93 139.95Z" fill="#53CDCB"/>
<path d="M197.07 418.05C196.71 417.03 196.34 416 195.98 414.98C203.96 412.36 212.23 411.28 220.54 410.59C222.53 410.42 224.72 409.02 226.75 410.65C227.22 411.7 227.681 412.75 228.151 413.79L227.94 414C219 417.08 209.58 417.4 200.36 418.86C199.22 419.04 198.04 418.82 197.07 418.05Z" fill="#FAE3C6"/>
<path d="M226.75 410.65C216.43 411.63 206.38 414.54 195.98 414.98C194.14 413.26 194.77 412.32 196.95 411.85C199.75 413.83 202.77 411.67 205.16 411.28C210.88 410.36 216.54 409.38 222.36 409.2C223.58 409.16 224.78 408.27 225.99 407.77C227.05 408.52 227.94 409.31 226.75 410.65Z" fill="#D4586B"/>
<path d="M150.76 414.64C140.23 414.85 129.71 415.4 119.18 414.78C119.18 414.16 119.17 413.53 119.17 412.91C128.49 412.32 137.81 411.91 147.15 412.6C148.07 412.67 149.03 412.03 149.98 411.72C150.22 411.89 150.49 411.99 150.79 412.02C151.4 412.9 151.71 413.78 150.76 414.64Z" fill="#D85B75"/>
<path d="M82.9801 176.53C82.7101 176.66 82.4201 176.75 82.1301 176.82C81.7901 176.56 81.44 176.31 81.1 176.05C80.61 170.69 86.41 170.84 88.66 167C86.65 167.76 84.9701 168.3 83.3601 169.01C80.1401 170.44 78.6201 169.53 78.8801 165.94C80.5701 168 82.3801 168.15 84.9201 167.12C87.6201 166.03 90.05 163.63 94.66 164.38C90.42 166.62 91.8601 170.55 89.8301 173.01C87.2601 173.62 85.9501 176.7 82.9801 176.53Z" fill="#A91F23"/>
<path d="M197.07 418.05C207.36 416.7 217.65 415.35 227.94 414C226.98 417.21 223.97 416.43 221.84 416.8C213.63 418.21 205.42 419.86 197.04 419.95C197.05 419.31 197.06 418.68 197.07 418.05Z" fill="#CE7875"/>
<path d="M119.96 418.76C128.9 418.51 137.85 418.21 146.79 418.07C148.32 418.05 150.69 416.87 151.02 419.92L151 419.93C146.68 421.22 142.15 419.57 137.83 420.82C131.89 420.3 125.88 421.39 119.97 420.14C119.97 419.69 119.97 419.23 119.96 418.76Z" fill="#D36473"/>
<path d="M83.1602 207.04C85.1902 206.46 87.7202 202.5 88.9002 207.7C89.3202 209.53 89.5202 211.8 87.0102 212.76C84.3102 213.8 84.3002 211.14 83.2202 209.97C83.2002 209 83.1802 208.02 83.1602 207.04Z" fill="#EE8E32"/>
<path d="M224.99 184.95C226.68 185.54 229.57 183.56 229.85 187.2C228.3 189.13 232.51 192.36 229.44 192.99C226.21 193.65 226.49 189.5 225.47 187.31C225.13 186.6 225.14 185.74 224.99 184.95Z" fill="#B32A36"/>
<path d="M218.05 292.8C216.01 291.58 217.24 286.44 212.12 288.61C215.39 286.38 214.13 283.69 214.03 281.22C216.2 284.8 217.41 288.7 218.05 292.8Z" fill="#43A2C8"/>
<path d="M137.83 420.83C142.14 419.41 146.61 420.19 151 419.94C151.01 420.27 151.01 420.6 150.97 420.93C146.59 420.89 142.21 420.86 137.83 420.83Z" fill="#F8DEB8"/>
<path d="M233.801 140.11C233.481 140.11 233.191 140.01 232.931 139.81C233.601 137.01 235.821 135.56 237.941 134.03C237.731 136.85 234.661 137.73 233.801 140.11Z" fill="#FEBF9F"/>
<path d="M167.731 245.45C164.661 250.58 161.821 251.19 157.291 247.33C155.541 245.84 154.931 245.67 153.051 247.11C148.881 250.28 146.711 249.65 143.101 244.79C145.171 244.55 145.801 246.63 147.291 246.9C149.491 247.3 151.091 246.49 152.621 244.98C153.981 243.64 153.431 242.74 152.351 241.7C151.151 240.56 150.931 239.38 152.711 238.63C155.111 237.62 157.601 237.31 159.691 239.23C161.281 240.68 159.881 241.5 158.691 242.19C157.271 243 156.751 243.97 158.021 245.34C159.501 246.94 160.931 248.62 163.521 247.7C164.891 247.19 165.421 245.32 167.731 245.45Z" fill="#166B91"/>
<path d="M199.12 139.03C199.73 143.26 203.69 145.6 204.93 149.6C206.54 154.76 205.89 159.4 202.36 161.67C197.89 164.55 194.49 162.39 191.5 159.1C184.29 151.17 175.6 146.91 164.67 147.97C163.71 148.06 162.66 148.12 162.05 147.06C163 144.74 164.95 143.67 167.12 142.67C175.64 138.75 184.57 138.02 193.74 138.97C195.54 139.15 197.32 139.52 199.12 139.03Z" fill="#DA6D5F"/>
<path d="M138.3 173.03C140.1 173.51 143.27 171.94 142.99 175.65C142.31 184.89 148.62 188.25 155.72 190.26C161.14 191.79 166.97 191.99 172.29 189.35C176.52 187.25 180.49 184.7 180.06 178.95C179.96 177.65 180.04 176.12 182 176.15C183.79 176.18 184.08 177.46 184.12 178.9C184.17 180.72 184.25 182.55 184.32 184.37C185.93 187.21 185.381 190.36 185.651 193.4C185.221 195.3 183.7 195.69 183 194.17C181.44 190.81 180.091 192.89 178.591 193.92C166.581 202.11 141.15 200.33 135.48 181.93C135.67 178.72 134.95 175.23 138.3 173.03Z" fill="#F88C09"/>
<path d="M199.12 139.03C198.9 140.44 199.19 141.73 196.63 141.17C184.38 138.52 172.72 140.06 162.05 147.05C162.38 139.58 170.9 130.87 180.36 128.33C190.43 125.63 196.29 128.98 199.12 139.03Z" fill="#6E1608"/>
<path d="M107.93 114C109.38 111.67 110.82 109.34 112.27 107.01C112.6 105.74 113.55 105.8 114.58 105.88C120.12 106.35 125.2 104.94 129.91 102.04C134.12 101.2 138.36 101.66 142.59 101.6C143.75 101.52 144.9 101.59 146.05 101.76C147.21 101.9 148.31 102.26 149.29 102.89C150.42 103.62 151.5 104.49 151.34 106.01C151.17 107.68 149.7 108.21 148.45 108.15C144.16 107.93 140.45 111.31 136.04 110.04C134.81 110.47 133.43 110.68 132.37 111.37C125.18 116.02 117.2 116.44 109.02 116.01C107.29 116.08 107.4 115.16 107.93 114Z" fill="#FEBF9F"/>
<path d="M138.3 173.03C136.82 175.93 136.43 179.01 136.74 182.21C136.49 187.98 137.62 194 133.81 199.16C132.97 200.03 133.15 201.15 133.08 202.21C130.22 203.86 127.55 202.63 124.85 201.71C124.55 200.95 124.24 200.18 123.94 199.42C122.57 196.13 123.95 192.96 124.48 189.8C125.36 184.48 125.76 179.07 127.42 173.9C130.1 170.67 133.13 169.37 136.88 172.25C137.35 172.5 137.83 172.77 138.3 173.03Z" fill="#4CA2C1"/>
<path d="M207.12 105.93C211.39 106.6 215.49 107.2 219.05 109.48C220.37 110.33 221.61 111.32 220.74 113.09C219.82 114.97 218.3 114.33 216.9 113.68C211.65 111.23 206.31 110.04 200.48 111.57C197.92 112.25 197.2 110.58 197.97 108.32C200.46 101.07 216.08 94.66 223.37 97.84C224.7 98.42 225.78 99.13 225.3 100.79C224.74 102.69 223.22 102.5 221.65 102.41C212.95 101.91 211.39 102.29 207.12 105.93Z" fill="#672518"/>
<path d="M107.93 114C108 114.83 108.23 115.58 109.02 116.02C109.81 120.72 111.54 125.23 111.12 130.18C110.73 134.8 109.15 136.48 105.07 134.76C100.85 132.98 97.3304 130.06 97.0504 124.96C96.9104 122.53 96.7704 120.73 93.6104 120.93C92.3504 121.01 91.9404 120.05 92.9804 118.98C97.5704 119.24 101.54 116.9 105.82 115.87C106.52 115.24 107.22 114.62 107.93 114Z" fill="#DE946F"/>
<path d="M129.511 130.23C127.201 129.88 123.571 130.65 120.691 127.35C118.241 124.55 119.151 122.47 121.261 120.54C124.741 117.37 132.531 117.22 136.671 119.78C138.831 121.11 140.411 122.6 139.941 125.31C139.441 128.23 137.091 129.22 134.641 129.87C133.381 130.2 132.011 130.08 129.511 130.23Z" fill="#FB9798"/>
<path d="M136.04 110.04C140.57 107.51 145.84 107.69 150.8 106.38C150 103.61 147.73 103.74 146.01 103.04C144.79 101.6 145.65 100.4 146.44 99.1801C146.79 98.8401 147.21 98.6401 147.69 98.5701C150 98.9301 152.38 99.1301 153.95 101.24C156.52 103.31 159.11 105.35 161.64 107.47C162.73 108.38 163.31 109.6 162.51 110.98C161.83 112.15 160.55 112.32 159.43 112.04C152.33 110.24 145.65 111.74 139.1 114.41C137.65 115 136.17 115.48 135.08 113.95C133.94 112.38 135.07 111.19 136.04 110.04Z" fill="#6F2E24"/>
<path d="M144 169.96C144.24 167.82 145.43 168.38 146.83 168.81C155.83 171.56 164.8 174.52 174.42 174.01C175.43 173.96 176.51 174.07 176.78 175.3C177.01 176.4 176.32 177.23 175.52 177.84C173.63 179.3 171.39 179.84 169.04 179.98C161.26 180.44 154.4 178.23 148.5 173.05C147.15 171.87 145.52 171.01 144.02 170L144 169.96Z" fill="#E2A283"/>
<path d="M153.95 101.25C151.33 101.4 149.25 99.9002 147 98.9402C146.24 98.7402 145.74 98.3102 145.75 97.4602C150.45 93.5302 150.16 88.3302 149.42 83.0102C149.18 81.2602 148.11 79.5702 149.09 77.7402C150.62 75.8702 152.11 73.9402 154.86 73.9202C158.52 79.7302 157.15 86.0202 156.35 92.1602C155.94 95.2502 154.77 98.2302 153.95 101.25Z" fill="#FEBF9F"/>
<path d="M219.8 80.77C211.95 80.21 205.14 77.32 200.17 70.78C199.06 69.31 197.74 67.61 199.77 66.02C201.75 64.46 202.65 66.36 203.64 67.66C207.88 73.23 213.75 75.46 220.49 76.04C222.4 76.2 225.61 74.84 225.5 78.23C225.4 81.68 222.06 80.34 219.8 80.77Z" fill="#69160C"/>
<path d="M185.32 175.94C188.34 176.37 191.69 175.39 194.19 178.03C194.99 180.83 194.45 183.66 194.29 186.46C193.96 192.27 191.01 194.6 184.71 194.39C183.48 191.1 183.91 187.74 184.32 184.37C184.65 181.55 184.99 178.74 185.32 175.94Z" fill="#46A0CB"/>
<path d="M218.15 129.97C215.8 129.66 212.6 129 212.09 125.1C211.67 121.88 216.24 118.78 220.76 119.03C224.24 119.22 227.58 120.01 227.83 124.29C227.99 127.03 222.94 130.11 218.15 129.97Z" fill="#F9979B"/>
<path d="M88.0303 102.12C89.9203 98.57 93.3802 95.91 96.8002 97.05C99.8402 98.06 97.8303 102.36 97.9003 105.2C97.9303 106.47 97.3002 107.75 96.9802 109.03C92.0602 109.22 90.9203 104.54 88.0303 102.12Z" fill="#FAD2BB"/>
<path d="M141.04 65.0901C144.24 64.0501 147.42 62.9601 150.83 62.8501C151.58 63.9501 152.32 65.0501 153.07 66.1501C153.59 66.7801 153.68 67.4901 153.51 68.2701C151.96 71.3101 149.96 73.7101 146.09 73.4301C144.25 70.7501 141.31 68.7301 141.04 65.0901Z" fill="#FEBF9F"/>
<path d="M105.811 115.87C101.951 118.66 98.1007 121.46 92.9707 118.98C94.2807 116.28 95.5907 113.57 96.9107 110.87C99.8707 112.53 102.841 114.2 105.811 115.87Z" fill="#AA110D"/>
<path d="M214.05 168.09C211.87 166.45 209.03 168.9 206.9 166.93C209.6 163.69 213.41 162.06 217.03 160.25C218.37 159.58 219.62 158.86 220.84 158.02C220.69 162.81 217.7 165.67 214.05 168.09Z" fill="#66C3BE"/>
<path d="M146.1 73.37C149.06 72.44 150.89 70.06 152.99 68.03C155 68.59 155.84 70.03 155.97 72C155.6 72.64 155.22 73.28 154.85 73.92C153.22 75.27 151.59 76.62 149.95 77.97C149.65 78.37 149.27 78.46 148.82 78.25C147.69 77.18 147.02 75.76 146.05 74.57C145.81 74.16 145.83 73.76 146.1 73.37Z" fill="#681B11"/>
<path d="M176.41 118.14C176.77 113.95 179.46 112.51 183.35 112.99C186.48 113.37 188.7 114.86 188.58 118.89C182.69 113.59 180.92 113.56 176.41 118.14Z" fill="#C38465"/>
<path d="M155.97 72.0002C154.98 70.6802 153.98 69.3502 152.99 68.0302C153.02 67.4002 153.04 66.7802 153.07 66.1502C154.75 65.9602 156.73 64.4802 157.89 66.8502C158.99 69.0802 157.17 70.4902 155.97 72.0002Z" fill="#5F1D12"/>
<path d="M184.711 194.39C191.001 193.04 193.931 189.34 193.011 182.78C192.781 181.12 193.191 179.47 194.191 178.03C198.991 177.99 203.571 179.02 207.991 180.81C209.291 183.48 210.631 186.12 211.871 188.81C214.001 193.42 216.651 197.39 222.021 198.78C223.711 199.22 223.411 203.79 221.371 204.87C218.561 206.36 218.111 208.57 218.951 211.07C220.001 214.18 219.291 215.25 215.971 215.02C212.671 214.8 211.511 215.74 214.131 218.86C215.921 220.99 213.181 221.93 212.171 223.2C211.221 224.39 209.971 225.52 208.501 223.8C205.871 220.72 205.451 222.98 205.001 225.2C204.201 229.14 201.421 231.18 198.251 229.3C195.331 227.57 194.381 228.86 193.381 230.99C191.891 234.18 188.931 234.95 186.001 236.19C182.881 237.51 181.961 234.74 180.001 233.95C177.541 234.12 177.791 231.87 177.171 230.58C173.701 223.45 170.891 216.04 167.831 208.73C165.631 203.48 165.361 203.41 160.611 206.47C159.921 206.92 159.321 207.51 158.621 207.95C158.401 208.03 158.181 208.11 157.951 208.19C154.311 208.45 150.671 208.71 147.031 208.97C143.481 210.11 139.871 209.45 136.291 209.26C134.961 209.19 133.191 209.19 133.141 207.04C136.571 204.68 137.051 202.07 133.821 199.14C135.061 193.54 134.211 187.57 136.751 182.19C141.921 197.33 165.701 203.4 182.431 189.7C183.951 190.9 181.721 193.92 184.711 194.39Z" fill="#FDC003"/>
<path d="M127.7 172.46C127.95 172.89 128.2 173.33 128.45 173.76C126.95 182.31 125.45 190.86 123.94 199.41C120.31 202.65 122.56 205.18 124.94 207.69C124.45 209.42 123.47 210.67 121.63 211.09C117.19 213.1 113.26 212.76 110.12 208.62C104.41 201.11 98.67 193.61 92.95 186.11C92.34 184.58 91.23 183.3 90.86 181.66C89.91 177.39 91.34 175.68 95.74 175.48C99.81 175.29 103.93 176.18 107.95 174.96C114.51 173.83 121.32 174.84 127.7 172.46Z" fill="#FDC004"/>
<path d="M107.96 174.96C104.66 177.15 100.97 175.8 97.4799 175.99C91.6499 176.3 91.0999 176.85 92.4099 182.76C92.6599 183.86 92.7699 185 92.9399 186.12C90.1099 184.77 89.09 181.3 86.03 180.21C83.91 179.9 83.03 178.56 82.96 176.53C85 174.88 86.5899 172.36 89.8099 173.01C88.7999 176.04 91.55 174.84 92.33 174.86C97.55 175.06 102.76 174.96 107.96 174.96Z" fill="#F08E20"/>
<path d="M172.93 241C169.54 237.54 169.57 232.08 165.78 228.85C162.08 222.38 159.62 215.44 157.94 208.2L158.03 207.78C161.23 207.79 162.33 210.3 162.92 212.61C164.83 220.1 168.89 226.62 171.9 233.61C172.88 235.89 174.96 238.22 172.93 241Z" fill="#DA863B"/>
<path d="M133.13 207.06C137.58 208.98 142.41 208.21 147.02 208.98C143.09 211.43 138.44 210.61 134.23 211.81C133.3 212.07 132.02 212.03 131.72 210.88C131.34 209.42 131.71 207.98 133.13 207.06Z" fill="#769D88"/>
<path d="M124.851 201.7C127.671 200.59 130.351 201.89 133.081 202.2C131.491 204.67 129.901 207.13 127.991 210.08C126.811 206.92 125.831 204.31 124.851 201.7Z" fill="#E5C23C"/>
<path d="M121.641 211.09C121.951 209.18 123.721 208.7 124.951 207.69C125.671 209.19 126.261 210.8 124.811 212.1C123.411 213.36 122.541 211.94 121.641 211.09Z" fill="#729B87"/>
<path d="M112.06 106.06C106.53 107.17 103.26 103.43 100.45 99.9002C93.4804 91.1502 92.8404 79.4102 98.0104 70.5802C103.4 61.3602 114.75 56.4802 125.5 58.6902C130.44 59.7102 135.7 60.2002 138.94 64.9402C136.78 67.6502 133.69 67.1802 130.77 67.4102C125.24 67.8402 119.6 66.3902 114.17 68.3402C108.44 72.3402 103.56 76.6102 104.19 84.7502C104.58 89.8002 106.11 93.7502 110.33 96.5202C112.66 98.0502 114.58 99.7302 114.15 102.89C114.01 104.32 113.36 105.41 112.06 106.06Z" fill="#B20505"/>
<path d="M112.061 106.06C112.371 105.03 112.671 103.99 112.981 102.96C113.771 102.26 113.451 101.11 114.051 100.34C115.381 98.7902 117.331 99.0302 119.061 98.6002C122.581 97.7102 125.481 95.9302 126.721 92.3002C127.401 90.3002 127.471 88.0102 125.051 87.3202C122.191 86.5002 122.501 89.1202 122.271 90.7702C121.931 93.2002 121.391 95.4702 118.471 95.7802C115.841 96.0602 114.661 94.2702 113.951 92.0502C113.511 87.4802 113.341 82.9202 114.061 78.3702C117.491 72.4502 124.651 71.7202 130.081 76.7302C130.581 77.8502 129.881 78.6702 129.391 79.5502C128.811 81.1002 128.981 82.2302 130.971 82.2002C132.291 82.1802 133.621 81.8602 134.901 82.4902C135.301 82.7402 135.641 83.0602 135.931 83.4402C137.651 86.3202 137.321 89.4802 137.141 92.6102C137.061 94.0302 136.301 95.7302 138.841 95.7202C140.831 95.7102 142.641 95.3702 142.621 92.9002C142.601 89.3102 143.221 85.6602 141.821 82.1702C141.651 80.2402 143.331 80.0802 144.451 79.3702C145.941 78.8902 147.131 77.4402 148.941 77.9802C149.281 77.9802 149.621 77.9802 149.951 77.9802C149.761 81.9902 151.511 85.7902 151.041 89.8802C150.631 93.4902 149.851 96.5802 146.011 97.9202C141.621 100.83 136.661 98.7602 132.051 99.5502C130.961 99.9302 130.301 100.75 129.861 101.78C129.631 102.14 129.371 102.47 129.071 102.77C127.671 106.66 123.841 106.15 120.961 106.85C118.211 107.52 115.171 107.74 112.261 107.01C112.221 106.69 112.151 106.37 112.061 106.06Z" fill="#FEBF9F"/>
<path d="M112.911 67.9702C113.201 65.0902 115.401 65.9302 117.091 65.8802C124.381 65.6802 131.721 66.7802 138.951 64.9502C139.651 65.0002 140.351 65.0502 141.051 65.1002C142.761 67.8502 145.961 69.6802 146.111 73.3802C146.101 73.6202 146.091 73.8702 146.101 74.1102C145.011 76.3002 142.851 76.8902 140.801 77.6502C140.041 77.7402 139.341 77.6002 138.731 77.1102C133.641 66.3602 123.141 66.6102 113.831 70.2702C112.461 69.9102 112.311 69.0902 112.911 67.9702Z" fill="#FEBF9F"/>
<path d="M172.93 241C172.8 237.6 170.88 234.86 169.63 231.86C167.12 225.84 163.19 220.43 162.04 213.82C161.6 211.29 160.19 209.25 158.03 207.79C159.61 203.74 163.92 204.1 166.74 202.15C170.61 213.13 175.24 223.57 179.99 233.97C180.21 235.96 180.97 237.67 182.61 238.91C181.13 242.31 177.45 241.96 174.8 243.28C173.6 243.89 173.14 242.15 172.93 241Z" fill="#F88C06"/>
<path d="M130.08 443.75C135.87 444.36 140.63 440.99 145.93 439.68C142.49 444.39 133.9 446.6 130.08 443.75Z" fill="#E24E6B"/>
<path d="M129.98 98.9801C135.2 96.7101 140.7 98.6001 146.02 97.9201C146.34 98.2601 146.66 98.6001 146.99 98.9401C147.1 99.1101 147.11 99.2901 147 99.4701C145.48 100.38 142.87 100.02 143.04 102.89C138.39 102.85 133.73 102.81 129.08 102.77C129.08 102.48 129.12 102.2 129.18 101.91C129.79 101.03 132.12 100.62 129.98 98.9801Z" fill="#6F2E24"/>
<path d="M143.05 102.89C142.4 102.08 141.03 101.59 142.11 100.11C143.56 98.14 145.29 99.06 147 99.47C146.67 100.66 146.34 101.85 146 103.04C145.02 102.99 144.03 102.94 143.05 102.89Z" fill="#6F2E24"/>
<path d="M140.941 76.9701C142.661 76.0101 144.371 75.0601 146.091 74.1001C148.511 74.3101 148.571 76.2501 148.951 77.9701C147.681 78.7201 146.411 79.4701 145.141 80.2201C142.391 80.8601 140.481 80.4401 140.941 76.9701Z" fill="#6D1511"/>
<path d="M112.91 67.97C113.23 68.71 113.55 69.46 113.87 70.2C115.95 72.39 115.51 74.82 114.58 77.3C111.78 81.07 112.31 85.32 112.73 89.56C112.76 85.88 112.18 82.15 113.65 78.57C113.93 78.08 114.31 77.96 114.81 78.22C114.91 83.18 115.02 88.14 115.12 93.1C115.31 95.78 115.71 98.48 114.19 100.95C113.79 101.63 113.39 102.3 112.98 102.98C112.84 101.41 113.17 99.99 111.37 98.69C98.6702 89.53 99.4301 75.66 112.91 67.97Z" fill="#B70002"/>
<path d="M114.8 78.21C114.52 78.11 114.24 78.08 113.95 78.11L113.94 78.09C113.92 75.46 113.89 72.83 113.87 70.2C113.95 68.08 114.75 66.9 117.17 67C121.45 67.16 125.75 66.94 130.03 67.12C133.65 67.27 138.81 73.14 139 76.99C136.32 80.38 133.26 80 130.04 77.86C125.04 73.6 118.85 73.75 114.8 78.21Z" fill="#FEBF9F"/>
<path d="M114.18 100.93C114.23 98.28 113.21 95.51 115.11 93.08C116.26 94.3 117.4 95.62 119.34 94.7C120.75 94.03 120.88 92.73 121.02 91.35C121.25 89.07 119.87 85.99 123.46 85.15C125.79 84.6 127.55 86.31 128.2 88.05C129.28 90.94 128.37 93.76 126.27 96.18C123.06 99.9 118.38 99.76 114.18 100.93Z" fill="#FEBF9F"/>
<path d="M141.86 81.9001C143.65 83.8001 145.32 93.4301 143.7 95.5601C141.42 98.5601 137.98 96.4201 134.67 97.0901C136.53 92.2401 136.5 87.7901 134.97 83.3601C136.91 81.1501 139.18 80.5301 141.86 81.9001Z" fill="#FEBF9F"/>
<path d="M141.86 81.9C139.56 82.38 137.27 82.87 134.97 83.35C134.89 83.17 134.88 82.99 134.94 82.81C132.7 81.45 130.31 80.35 128.03 79.04C128.4 78.14 129.28 78.11 130.03 77.86C133.09 78.29 136.11 78.36 138.99 76.99C139.64 76.98 140.28 76.98 140.93 76.97C141.75 78.8 142.68 80.48 145.12 80.22C144.04 80.78 142.95 81.34 141.86 81.9Z" fill="#681B11"/>
<path d="M128.04 79.05C131.44 78.28 133.55 79.9 134.95 82.82C133.84 82.95 132.7 82.96 131.62 83.23C127.52 84.23 126.94 83.57 128.04 79.05Z" fill="#681B11"/>
<path d="M129.98 98.98C131.07 99.08 132.25 98.57 133.28 99.49C132.6 101.47 131.23 102.26 129.18 101.92C128.72 100.74 129.02 99.77 129.98 98.98Z" fill="#6D3729"/>
<path d="M113.951 78.1101C113.951 82.8101 113.951 87.5101 113.951 92.6701C109.681 88.0401 109.841 82.5901 113.941 78.0901L113.951 78.1101Z" fill="#A70E0D"/>
</svg>
