<svg width="278" height="469" viewBox="0 0 278 469" fill="none" xmlns="http://www.w3.org/2000/svg">
<path d="M216.16 299.77C220.37 313.87 224.56 327.97 228.8 342.06C229.63 344.8 227.67 345.69 225.9 346.45C220.61 348.72 215.24 350.8 209.9 352.96C207.91 354.75 205.34 354.9 202.91 355.36C194.24 357.02 185.54 358.5 176.66 358.4C170.52 358.55 164.37 358.56 158.23 358.4C148.42 358.82 138.77 357.16 129.07 356.13C127.25 355.94 125.49 355.43 124.1 354.1C114.71 350.91 104.86 349.19 95.7901 344.93C82.1701 338.54 82.0202 338.62 86.7602 324.53C90.6702 312.92 94.8501 301.4 98.9101 289.83C100.92 291.58 102.77 291.49 105.04 289.96C110.09 286.57 112.64 282.04 112.39 275.94C116.31 253.69 120.45 231.48 124.73 209.3C124.99 207.97 125.37 206.72 126.45 205.8C127.71 205.03 128.93 204.99 130.11 205.96C130.49 206.48 130.69 207.07 130.76 207.73C130.92 209.25 130.23 211.44 132.29 211.82C134.63 212.26 134.62 209.64 135.57 208.29C136.29 207.08 137.28 206.24 138.71 206C155.03 206.98 171.04 210.38 187.25 212.16C189.43 213.41 188.99 215.47 188.91 217.45C188.84 219.02 188.1 221.32 190.36 221.53C192.54 221.74 192.33 219.32 192.69 217.79C193.03 216.35 193.08 214.75 194.93 214.27C199.58 214.58 199.7 218.13 199.17 221.18C197.26 232.15 197.88 243.34 196.14 254.29C194.61 263.89 195.91 273.52 195.22 283.09C194.47 289.36 197.57 295.43 202.86 298.48C205.06 299.74 206.55 298.91 208.16 297.51C209.48 296.36 210.89 294.08 212.62 295.16C214.77 296.5 211.88 298.24 211.96 299.99C213.46 301.25 214.78 299.85 216.16 299.77Z" fill="#43A2C8"/>
<path d="M261.81 119.02C261.48 125.71 262.93 132.32 260.4 139.11C257.31 147.4 252.28 153.33 244.55 157.27C243.09 158.01 241.81 159.09 240.45 160.02C235.45 161.95 230.39 162.87 225.09 161.28C222.21 160.41 219.64 160.91 217.22 162.89C214.27 165.3 210.84 166.97 207.42 168.64C200.93 170.75 194.31 172.3 187.62 173.64C177.53 175.15 167.53 174.58 157.64 172.22C155.24 171.65 153.07 172.38 150.8 172.58C146.22 166.96 139.24 164.77 133.61 160.66C127.8 155.49 121.06 151.34 116.5 144.8C112.96 139.74 111.06 134.22 111.1 128.04C110.6 126.6 108.91 125.8 108.98 124.05C109.32 123.21 110.59 125.01 110.59 123.55C110.57 117.63 110.17 111.7 111.56 105.86C112.39 102.42 110.45 100.04 108.46 97.6601C117.06 83.6201 116.69 67.3701 119.5 51.9401C120.85 44.5501 123.56 38.7301 130.2 34.9401C132.8 33.4601 135.17 31.5801 137.7 29.9901C145.41 25.1501 148.95 25.9401 153.69 33.5601C155.63 36.6701 157.49 39.8301 159.33 42.9901C159.99 44.2701 160.69 45.5301 161.65 46.6201C167.32 54.2901 174.04 60.6701 183.09 64.2001C184.23 64.7001 185.47 64.9201 186.65 65.3601C186.47 64.4501 185.52 64.4001 185.01 63.8801C180.52 59.8001 177.46 54.6401 174.86 49.3101C172.9 45.3101 171.03 41.2401 169.28 37.1301C168.97 36.1501 168.9 35.1501 169.2 34.1501C171.8 31.2001 172.88 34.5501 174.57 35.4301C182.21 43.8701 189.32 52.8201 198.51 59.7301C202.61 62.8201 206.84 65.7001 211.44 68.0201C213 68.8101 214.92 69.3701 215.18 71.5901C214.37 73.2101 212.81 73.1501 211.34 73.3101C209.31 73.4401 207.15 72.9101 205.29 74.6501C209.8 76.2201 214.62 76.0001 219.01 77.8701C223.33 79.7001 226.65 82.8101 230.78 86.3601C230.53 82.6901 228.6 81.2401 226.72 79.7301C225.21 78.5201 223.11 77.8801 222.66 75.6201C223.06 74.4501 224.03 74.1801 225.1 74.0501C230.27 74.2901 234.98 76.6001 240.04 77.3301C242.12 78.2301 243.08 79.8101 242.92 82.0701C241.39 88.8401 239.04 95.4001 237.63 102.22C236.11 109.61 235.57 116.96 238.01 124.27C238.36 130.09 234.08 134.41 232.96 139.77C232.54 141.77 230.55 143.88 232.82 145.7C234.75 147.24 236.98 146.21 238.99 145.38C241.72 144.25 243.75 142.3 244.83 139.53C245.63 137.46 246.67 135.63 248.48 134.3C249.27 132.11 248.38 130.04 248.04 127.96C247.32 123.65 247.41 119.39 248.82 115.24C250.29 110.93 252.49 110.22 256.32 112.76C258.73 114.33 260.55 116.45 261.81 119.02Z" fill="#FEBF9F"/>
<path d="M214.91 71.0201C197.96 63.2001 185.13 50.5501 173.93 35.9901C172.65 33.8001 174.37 32.5601 175.58 31.3201C184.14 22.5101 193.03 14.0301 201.52 5.14007C202.78 3.82007 204.09 3.08008 205.9 3.96008C228.04 9.42008 248.64 17.7301 263.97 35.6401C265.9 37.8901 267.39 40.5301 269.08 42.9801C270.31 45.7701 268.6 46.9001 266.38 47.7401C254.42 52.2801 247.06 60.5901 244.88 73.4001C244.48 75.7601 244.59 79.7201 239.94 78.0601C234.69 78.5301 230.12 75.8001 225.15 74.9501C221.46 74.3501 217.67 74.0201 214.91 71.0201Z" fill="#B60002"/>
<path d="M170.07 34.0401C170.07 35.0101 170.08 35.9901 170.08 36.9601C169.97 37.1601 169.87 37.3601 169.77 37.5701C167.64 39.6101 165.5 41.6401 163.39 43.7001C162.04 45.0201 160.59 46.1801 158.85 44.1801C156.48 40.3801 154.2 36.5201 151.71 32.8001C148.12 27.4301 146.09 26.9001 140.56 29.8701C135.27 32.7101 130.46 36.2701 125.8 40.0401C123.61 41.8101 122.55 44.1101 122.09 46.8601C120.17 58.5001 118.23 70.1301 116.15 81.7401C115.09 87.6601 113.46 93.4101 108.83 97.7301C107.13 100.21 105.11 101.74 102 100.03C100.23 99.9501 97.93 100.58 97.23 98.4201C96.55 96.3301 99.12 96.0701 100.22 95.0301C102.34 93.0201 103.4 90.3901 104.84 87.9801C106.23 84.1801 107.59 80.3601 107.22 76.2101C107.16 75.5601 107.17 76.4801 106.84 75.9101C106.71 75.6801 106.31 75.8201 106.04 76.1201L106.07 76.0901C105.18 76.5301 104.43 77.1701 103.65 77.7801C102.02 79.0801 100.4 78.4301 99.1901 77.3101C97.6201 75.8701 99.0201 74.6701 100.01 73.5901C100.79 72.7401 101.57 71.9001 101.89 70.7501C101.85 70.0301 101.87 69.3301 102.63 68.9301C104.82 66.2901 105.09 62.9601 105.91 59.8301C108.86 49.8101 111.26 39.5701 117.67 30.9601C121.87 25.1301 126.46 19.6301 131.85 14.8401L131.79 14.8901C134.14 14.3901 135.78 12.9501 136.95 10.9201C151.19 0.540095 167.7 0.0201008 184.32 0.160101C188.59 0.200101 192.89 0.610097 197 2.0001C198.1 3.5301 201.03 1.37011 201.41 4.04011C201.7 6.12011 199.81 7.1701 198.57 8.4201C191.48 15.5701 184.34 22.6601 177.24 29.7901C175.28 31.7601 173.53 34.1301 170.17 32.9601C170.1 32.9401 169.93 33.1501 169.84 33.2801C169.66 33.5101 169.75 33.7801 170.07 34.0401Z" fill="#B60002"/>
<path d="M239.47 208.41C237.76 212.85 242.431 214.83 243.331 218.31C243.671 219.62 244.971 220.69 245.831 221.86C241.041 226.14 234.931 227.99 229.271 230.56C224.291 232.83 219.51 235.57 214.4 237.5C210.01 239.16 213.21 242.78 211.93 245.17C211.19 247.96 211.35 250.82 211.54 253.61C212.05 261.45 210.51 269.17 210.451 276.97C210.401 283.73 209.87 284.27 203.05 284.35C202.38 284.36 201.72 284.36 201.05 284.35C194.7 284.27 194.48 284.04 194.48 277.5C194.48 261.73 196.051 246.07 197.891 230.44C198.731 223.32 198.21 216.24 197.57 209.15C196.87 201.41 199.35 194.06 200.72 186.6C201.73 181.07 203.551 180.29 209.271 181.51C210.081 181.68 210.9 181.83 211.71 181.95C218.21 182.98 223.5 185.82 227.41 191.4C231.42 197.09 235.21 202.92 239.47 208.41Z" fill="#FDC002"/>
<path d="M54.98 123.12C59.69 125.08 64.4901 126.86 66.3301 132.42C67.0601 134.61 69.4801 135.24 71.1901 136.49C79.3301 142.47 88.2401 145.67 98.5101 143.88C99.3001 143.74 100.15 143.97 100.97 144.03C100.3 147.18 97.6901 146.12 95.8101 146.23C93.7301 146.35 91.51 146.78 89.4901 145.6C94.4701 148.62 100.17 150.52 104.44 154.74C105.08 156.01 104.99 157.33 104.45 158.57C101.77 164.74 99.17 170.96 94.92 176.27C91.93 177.59 90.7701 173.23 87.9501 174C82.5201 168.36 75.5101 164.91 69.1801 160.52C67.8201 159.58 66.33 158.8 65.1 157.72C54.91 148.87 42.53 145.84 29.61 143.83C21.6 142.58 13.7301 140.48 5.82007 138.67C5.14007 138.51 4.63004 137.63 4.04004 137.09C4.72004 134.34 7.13007 133.84 9.32007 133.1C15.1501 131.13 21.1801 131.37 27.1401 131.92C30.3601 132.22 32.8 131.44 35.47 129.69C41.35 125.85 47.62 122.77 54.98 123.12Z" fill="#FDC09F"/>
<path d="M127.55 205.83C124.93 212.62 124.22 219.85 122.88 226.91C119.86 242.82 117.1 258.77 114.19 274.7C114.02 275.64 113.44 276.51 113.04 277.41C110.09 278.56 107.46 278.62 105.89 275.24C110.05 252.59 114.08 229.91 118.52 207.31C119.23 203.67 118.12 202.01 115.34 200.62C112.23 199.07 109.09 197.57 105.96 196.05C103.23 194.21 99.9101 193.28 97.6201 190.74C100.85 180.79 106.5 171.99 110.96 162.62C111.96 160.52 112.86 158.28 115.78 158.31C118.82 158.68 121.59 159.83 124.3 161.19C127.53 162.81 130.94 164.01 134.21 165.55C136.01 166.4 137.79 167.23 138.66 169.2C137.98 176.96 135.06 184.16 132.95 191.55C131.35 195.1 128.49 198.22 129.6 202.66C129.95 204.11 128.63 205.02 127.55 205.83Z" fill="#FDC004"/>
<path d="M177.29 357.45C188.16 355.95 199.04 354.46 209.91 352.96C211.4 355.85 210.04 358.81 210.1 361.73C210.38 375.96 210.75 390.2 210.79 404.43C210.8 407 212.41 407.67 213.74 408.93C212.34 410.38 210.46 410.45 208.68 410.46C200.5 410.51 192.32 410.48 184.15 410.99C182.82 411.07 181.5 410.93 180.63 409.67C180.11 394.21 177.58 378.95 176.29 363.57C176.11 361.45 175.51 359.26 177.29 357.45Z" fill="#FDC09F"/>
<path d="M124.12 354.1C135.37 355.25 146.61 356.41 157.86 357.56C159.49 358.88 159.43 360.78 159.45 362.58C159.61 374.84 161.07 387.06 160.51 399.34C160.38 402.17 160.51 404.99 162.02 407.53C162.26 408.09 162.22 408.63 161.92 409.16C157.68 411 153.18 410.32 148.75 410.55C143.81 410.81 138.85 410.21 133.93 411C132.28 411.27 130.6 411.31 129.28 409.94C133.19 405.13 130 400.05 129.44 395.28C127.84 381.53 124.78 367.97 124.12 354.1Z" fill="#FDC09F"/>
<path d="M255.77 450C257.26 450.79 257.06 452.23 257 453.52C256.89 456.02 257.13 458.22 260.14 458.85C261.01 459.03 261.78 459.49 261.72 460.46C261.65 461.74 260.5 461.94 259.55 462.12C254.53 463.07 249.52 464.3 244.45 464.81C235.24 465.74 225.99 466.3 216.74 466.88C195.33 468.21 173.87 468.55 152.48 467.7C130.02 466.81 107.46 466.76 85.19 462.89C83.72 462.63 81.93 462.56 81.56 460.89C81.23 459.39 82.77 458.12 83.92 458.21C88.7 458.57 89.31 455.77 89.16 452.08C89.14 451.69 89.69 451.29 89.98 450.89C91.17 451.91 91.33 453.32 91.48 454.74C93.27 459.31 97.63 458.87 101.19 459.25C106.97 459.88 112.86 459.85 118.65 459.33C131.74 458.16 144.82 456.81 157.78 454.53C159.77 454.18 161.8 453.95 162.62 451.65C162.95 450.86 163.38 450.15 164.14 449.7C168.11 451.85 172.44 451.45 176.71 451.49C178.53 451.51 180.35 451.53 182.08 452.25C183.85 453.16 185.61 454.07 187.63 454.36C205.18 456.87 222.69 459.69 240.51 459.47C243.51 459.43 246.43 458.89 249.39 458.46C253.08 457.93 255.14 456.28 254.68 452.31C254.8 451.43 255.1 450.62 255.77 450Z" fill="#E1E0E0"/>
<path d="M90.0103 454.81C90.0003 453.5 90.0002 452.19 89.9902 450.89C93.0602 446.12 98.1502 444.27 102.9 441.93C106.33 440.24 109.72 438.49 113.13 436.76C114.87 436.04 116.52 436.52 117.8 437.62C121.88 441.15 126.78 440.62 131.59 440.64C135.08 440.66 134.5 439.16 133.17 436.97C131.46 434.15 127.49 432.37 128.89 428.05L129.16 427.78C133.17 426.34 135.31 428.94 137.33 431.65C143.8 440.35 143.78 440.34 153.86 435.98C156.11 435.01 158.17 433.48 160.75 433.39C161.89 433.35 162.55 434.04 162.97 435.04C163.75 439.18 163.36 443.34 163.3 447.49C163.25 451.03 161.35 452.91 157.84 453.42C137.4 456.4 116.89 458.27 96.2102 457.42C93.7902 457.32 91.5603 456.88 90.0103 454.81Z" fill="#F63E76"/>
<path d="M255.77 450C255.79 450.65 255.81 451.3 255.83 451.95C255.57 455.49 253.75 457.24 250.12 457.37C227.66 458.18 205.42 456.06 183.26 452.62C182.94 452.57 182.65 452.37 182.34 452.24C181.41 451.76 181.25 450.9 181.21 449.98C182.2 445.24 180.86 440.33 182.2 435.62C183.78 433.53 185.49 434.92 187.04 435.59C189.31 436.57 191.61 437.49 193.89 438.43C198.83 440.47 203.8 441.87 209.16 440.27C217.47 441.69 225.28 439.78 232.91 436.69C238.04 439.28 243.15 441.93 248.32 444.43C251.21 445.8 253.66 447.66 255.77 450Z" fill="#F53E76"/>
<path d="M210.11 276.93C210.1 267.22 210.06 257.51 210.09 247.81C210.1 246.28 209.54 244.35 211.9 243.83C214.39 245.14 216.6 244.28 218.92 243.18C227.26 239.22 235.66 235.38 243.9 231.2C245.7 230.29 247.49 228.59 249.83 229.92C249.63 231.57 248.18 231.88 247.03 232.44C245.19 233.34 244.69 234.69 245.42 236.53C252.13 253.4 244.76 257.89 233.36 263.43C228.65 265.72 223.34 267.17 218.15 267.97C212.49 268.84 209.88 271.17 210.97 276.96C210.67 277.43 210.38 277.42 210.11 276.93Z" fill="#FEBF9F"/>
<path d="M239.93 78.07C243.73 78.23 243.41 75.04 243.73 72.89C245.22 63.13 250.08 55.67 258.24 50.21C260.75 48.53 263.41 47.21 266.28 46.4C268.14 45.87 269.17 44.98 269.06 43C271.49 46.34 273.14 50.02 273.84 54.1C269.8 56.94 265.14 58.71 261.65 62.53C251.33 73.82 254.02 91.86 267.41 99.22C268.71 99.94 270.19 100.39 270.79 101.95C269.97 105.69 268.31 109.06 266.11 112.17C260.6 109.58 255.08 107.13 250.75 102.56C245.25 96.75 243.33 89.53 241.94 82.02C242.14 80.25 241.58 78.88 239.93 78.07Z" fill="#B60002"/>
<path d="M241.94 82.01C243.67 82.65 243.71 84.16 243.98 85.66C246.07 96.96 252.19 105.04 263.06 109.25C264.47 109.8 265.9 110.34 266.1 112.16C264.67 114.44 263.24 116.73 261.81 119.01C258.52 118.48 257.93 114.87 255.32 113.39C252.31 111.7 250.77 111.42 249.98 115.47C248.84 121.27 249.14 126.93 250.36 132.62C250.6 133.74 251.9 135.08 249.98 135.99C243.16 135.27 238.4 132.11 236.95 125.01C232.59 111.75 236.91 99.26 240.34 86.69C240.78 85.11 241.4 83.57 241.94 82.01Z" fill="#B50302"/>
<path d="M239.47 208.41C237.31 208.44 236.42 206.9 235.4 205.33C232.98 201.59 230.23 198.06 227.98 194.23C224.51 188.32 219.49 184.73 212.93 183.12C212.06 182.25 211.75 181.15 211.63 179.97C211.55 177.98 211.45 175.98 212.46 174.14C214.59 172.14 217.5 172.72 219.97 171.87C223.8 170.02 226.62 171.16 229.5 174.22C235.83 180.94 242.51 187.35 249.04 193.89C253.65 198.51 253.63 198.82 249.08 203.23C246.31 205.77 242.85 207.02 239.47 208.41Z" fill="#B30404"/>
<path d="M183 434.91C182.03 439.87 183.54 444.97 182.12 449.9C179.25 446.41 180.53 442.26 180.54 438.41C180.54 432.8 181.89 427.21 180.72 421.57C180.45 420.28 180.83 418.93 181.66 417.79C183.81 416.07 186.38 416.65 188.81 416.55C194.58 416.31 200.36 416.99 206.11 416.13C208.65 415.63 211.21 415.23 213.8 415.75C214.16 418.69 214.19 421.68 214.44 424.62C214.62 426.76 216.12 426.68 216.85 427.72C213.11 431.18 209.33 434.56 206.86 439.17C205.65 441.43 203.65 442.16 200.98 441.19C196.5 439.57 191.84 438.46 187.57 436.23C186.18 435.49 184.81 434.31 183 434.91Z" fill="#FAF6B4"/>
<path d="M161.88 434.06C156.51 435.78 151.58 438.63 146.11 440.18C142.85 441.11 141.28 440.73 139.51 437.48C137.22 433.3 135.26 428.13 129.15 427.77C130.59 426.47 131.45 425.02 130.55 423C129.78 421.26 129.99 419.44 130.36 417.64C136.4 415.45 142.8 416.35 149.01 415.68C153.2 415.23 157.64 414.7 161.83 416.4C162.06 416.62 162.44 416.84 162.48 417.11C163.47 424.12 164.6 431.11 164.77 438.2C164.51 438.75 164.08 439.09 163.48 439.2C161.31 437.99 163.53 435.43 161.88 434.06Z" fill="#FBF5B2"/>
<path d="M54.9801 123.12C49.3401 125.34 42.8001 125.69 38.0701 129.69C33.7401 133.36 29.3101 133.62 24.0701 133.16C17.1401 132.55 10.1201 132.74 4.04012 137.08C2.65012 136.75 0.570142 137.09 0.380142 135.25C0.190142 133.42 1.98016 132.43 3.52016 131.83C5.67016 130.99 7.9101 130.39 10.5901 129.54C8.7001 128.75 7.08013 128.16 5.56013 127.4C4.50013 126.87 2.36011 127.44 2.60011 125.53C2.79011 123.97 4.48013 123.4 5.99013 123C12.9801 121.14 19.8301 122.71 26.6901 123.85C28.9801 124.23 31.2301 124.88 33.5301 125.08C36.7201 125.37 38.1801 124.34 35.8401 121.18C34.3601 119.18 33.0101 117.08 31.4601 115.14C30.0901 113.42 29.0001 111.58 28.4001 109.49C28.0201 108.17 27.9801 106.74 29.1501 105.79C30.5101 104.68 31.8501 105.63 32.6701 106.55C38.9301 113.66 47.4101 117.77 54.9801 123.12Z" fill="#DE956E"/>
<path d="M239.19 163.95C246.2 168.94 253.56 173.37 261.35 176.98C265 178.68 265.48 180.42 263.16 183.5C262.18 184.8 261.59 186.39 260.82 187.86C256.94 189.93 255.52 186.03 253.06 184.67C253.02 184.92 252.58 183.6 252.79 184.76C253.4 186.72 254.77 188.85 251.13 189.39C249.8 189.59 250.2 191.76 248.83 192.28C247.73 192.42 246.91 191.86 246.19 191.15C239.7 184.75 233.27 178.29 226.85 171.82C225.34 170.3 224.55 168.58 225.48 166.43C229.91 164.87 234.62 164.78 239.19 163.95Z" fill="#B30506"/>
<path d="M270.79 101.95C259.46 97.5401 253.03 87.6401 254.06 76.2201C255.01 65.6601 263.62 56.0401 273.84 54.0901C274.19 55.1401 273.72 56.4601 274.86 57.2501C276.59 60.9201 274.61 62.8901 271.77 64.9001C263.8 70.5501 261.49 77.6901 264.7 85.4901C265.88 88.3701 267.76 90.5101 270.44 92.0901C271.9 92.9501 274.05 93.5401 273.09 96.0901C272.33 98.0401 271.56 99.9901 270.79 101.95Z" fill="#B20406"/>
<path d="M115.88 159C114.12 159.08 113.36 160.28 112.66 161.68C107.81 171.43 102.92 181.15 98.0498 190.88C95.3998 194.91 92.7298 191.44 90.4398 190.56C87.9398 189.6 89.0298 187.3 90.0598 185.53C90.8798 184.1 91.2898 182.5 92.0398 181.05C92.2898 180.1 92.5498 179.16 92.7998 178.21C92.9198 177.27 93.2798 176.48 94.0998 175.96C98.0698 169.33 102.08 162.7 104.17 155.16C104.74 152.37 106.79 151.63 109.01 152.49C112.09 153.66 115.93 154.39 115.88 159Z" fill="#FA8C06"/>
<path d="M249.84 229.91C239.12 234.96 228.4 240.01 217.68 245.06C215.45 246.11 213.1 247.68 211.9 243.83C208.87 239.13 209.05 238.67 214.08 236.39C224.68 231.58 235.25 226.71 245.84 221.87C248.58 223.84 249.48 226.74 249.84 229.91Z" fill="#FA8B06"/>
<path d="M212.65 180.34C212.74 181.27 212.84 182.19 212.93 183.12C212.28 183.24 211.61 183.54 210.99 183.44C202.7 182.09 202.51 182.74 200.88 191.29C198.69 202.79 200.13 214.45 198.69 225.84C197.05 238.83 197.93 251.97 195.42 264.88C194.45 269.85 195.09 275.15 195.09 280.3C195.09 281.06 195.42 282.38 195.84 282.49C199.91 283.55 204.11 283.22 208.13 282.5C211 281.98 209.47 278.84 210.1 276.94C210.39 276.98 210.68 276.98 210.97 276.96C210.97 279.06 210.98 281.16 210.98 283.26C205.52 286.43 199.87 287.52 193.86 284.9C193.39 263.92 195.62 243.12 197.67 222.29C197.93 219.62 200.39 215.02 194.14 215.28C191.6 216.35 189.62 215.46 187.95 213.51C172.61 212.19 157.54 208.7 142.16 207.65C140.7 207.55 139.29 206.9 137.85 206.51C137.15 205.83 136.42 205.04 137.12 204.09C138.04 202.84 139.34 203.22 140.57 203.64C146.23 206.43 152.58 205.84 158.55 206.84C165.5 208 172.53 209.22 179.63 209.62C182.75 209.79 184.62 208.65 185.43 205.54C186.59 201.06 188.03 196.66 188.58 192.05C189.06 189.68 188.89 186.99 191.71 185.8C193.7 187.3 193.02 189.34 192.76 191.25C192.17 195.5 191.3 199.71 190.49 203.92C190.15 205.68 190.18 207.26 192.52 207.63C194.8 207.99 195.82 207.1 196.11 204.78C196.93 198.23 198.12 191.73 199.64 185.3C200.06 183.53 200.3 181.72 201.4 180.19C205.18 178.29 208.89 180.7 212.65 180.34Z" fill="#C9CA57"/>
<path d="M193.86 284.89C199.65 285.23 205.3 284.09 210.98 283.25C214.87 288.08 214.25 294.33 216.16 299.78C215.03 303.44 211.27 302.64 210.17 301.49C207.77 298.99 212.65 298.45 212.6 296.15C212.42 296.03 212.12 295.71 212 295.77C209.18 297.21 207.79 302.23 204.06 300.6C199.2 298.47 195.52 294.42 194.07 289.02C193.75 287.77 192.33 286.32 193.86 284.89Z" fill="#20789F"/>
<path d="M273.1 96.08C272.72 95.38 272.57 94.63 271.74 94.13C258.79 86.34 258.57 71.67 271.49 63.49C274.13 61.82 275.27 60.16 274.87 57.25C277.54 66.08 278.04 74.99 275.96 84.01C273.62 81.27 275.34 77.88 274.51 74.91C270.3 79.11 270.37 82.02 274.9 89.07C274.43 91.44 274.37 93.92 273.1 96.08Z" fill="#B60002"/>
<path d="M239.19 163.95C235.46 166.29 231.64 168.02 227.12 166.11C226.43 165.82 225.97 166.49 225.82 167.2C225.27 169.95 223.11 171.38 221.12 172.95C218.47 173.94 215.68 173.8 212.92 173.96C209.28 173.58 207.24 171.62 206.97 167.92C210.59 164.81 215.42 163.55 218.84 160.09C219.44 159.48 220.85 159 221.57 159.27C227.81 161.65 234.15 160.1 240.45 160.01C240.04 161.33 239.62 162.64 239.19 163.95Z" fill="#4EC9C9"/>
<path d="M115.88 159C111.59 153.32 108.06 152.16 104.18 155.16C98.7704 152.12 93.3504 149.09 87.1504 145.61C92.3704 144.79 96.8204 145.58 100.97 144.04C102.37 143.8 103.77 143.56 105.16 143.32C109.98 144.18 115.36 145.56 118.64 148.27C121.72 150.82 123.31 156.26 124.73 160.79C124.63 161.33 124.37 161.77 123.95 162.13C121.27 161.08 118.57 160.04 115.88 159Z" fill="#B10C0A"/>
<path d="M102 100.03C104.43 99.7 106.68 98.88 108.83 97.73C114.34 98.74 113.48 103.3 112.74 106.5C111.3 112.76 112.43 119.04 111.47 125.4C110.66 124.96 109.82 124.5 108.99 124.05C104.27 118.76 102.28 112.47 102.11 105.49C102.07 103.67 102.04 101.85 102 100.03Z" fill="#F2B18C"/>
<path d="M124.461 160.89C122.031 157.65 118.701 154.86 119.251 150.16C119.351 149.32 118.941 148.22 117.991 148.42C112.511 149.6 109.511 144.75 105.141 143.31C105.731 142.9 106.311 142.5 106.891 142.09C110.101 140.76 111.381 144.25 114.451 145C112.551 141.5 110.951 138.27 110.021 134.35C107.121 136.61 109.301 140.29 106.911 142.16C104.701 135.79 105.621 132.68 111.111 128.03C113.491 133.72 113.891 140.14 118.391 145.1C122.031 149.11 125.561 153.06 130.211 155.95C131.851 156.97 133.081 158.67 134.501 160.05C131.451 163.79 130.171 163.9 124.461 160.89Z" fill="#59C8C6"/>
<path d="M128.88 428.05C128.31 430.9 130.75 432.01 132.15 433.72C133.09 434.86 134.07 435.98 134.89 437.2C135.68 438.39 137.14 439.65 136.38 441.13C135.61 442.63 133.73 442.03 132.33 442.1C126.17 442.42 120.06 442.54 115.43 437.3C115 436.82 113.9 436.93 113.12 436.76C117.74 435.69 121.45 432.22 126.32 431.8C128.69 431.59 127.34 428.82 128.88 428.05Z" fill="#F8F1B6"/>
<path d="M232.92 436.68C227.12 440.83 220.81 443.13 213.56 442.13C211.98 441.91 210.2 442.42 209.01 440.84C209.67 435.39 212.42 431.63 217.79 429.98C221.43 432.01 225.88 432.6 228.3 436.81C229.09 438.18 231.24 434.47 232.92 436.68Z" fill="#F7EEBF"/>
<path d="M105.9 275.24C107.95 277.07 110.72 276.53 113.05 277.41C114.05 283.58 108.01 292.15 102.17 292.91C99.7199 293.23 98.8499 292.08 98.9199 289.83C100.35 285.81 101.81 281.79 103.2 277.76C103.67 276.4 104.36 275.4 105.9 275.24Z" fill="#24779D"/>
<path d="M206.99 416.95C202.57 419.03 197.89 417.6 193.34 417.92C189.54 418.19 185.71 418.02 181.89 418.05C178.69 416.29 179.49 413.98 180.99 411.56C189.49 409.8 198.12 410.95 206.69 410.62C209.03 410.53 211.59 408.89 213.89 410.88C213.08 412.27 213.35 413.67 213.84 415.08C204.17 416.48 194.43 416.41 184.7 416.29C184.25 416.28 184.06 416.17 184.07 416.26C191.73 417.62 199.39 414.41 206.99 416.95Z" fill="#F2D3B1"/>
<path d="M170.07 34.0402C169.2 33.4602 169.19 32.1402 169.98 32.3302C173.79 33.2302 175.22 30.2202 177.21 28.2702C184.07 21.5402 190.71 14.5902 197.67 7.97021C200.48 5.30021 201.69 3.50021 197.01 1.97021C200.12 1.98021 203.05 2.79023 205.89 3.95023C205.1 4.16023 204.05 4.12022 203.55 4.63022C193.95 14.2902 184.4 24.0002 174.89 33.7502C174.36 34.2902 174.24 35.2302 173.93 35.9802C172.42 35.7702 172.29 32.8402 170.07 34.0402Z" fill="#C6211F"/>
<path d="M217.79 429.98C214.14 433.02 211.16 436.6 209.01 440.84C201.64 445.09 195.64 439.68 189.16 437.92C186.99 437.33 185.05 435.93 183 434.9C184.18 432.48 185.51 434.43 186.61 434.9C191.31 436.91 195.96 438.94 200.94 440.29C203.79 441.06 204.98 440.34 206.35 437.93C208.82 433.57 211.05 428.74 216.86 427.72C217.17 428.47 217.48 429.23 217.79 429.98Z" fill="#D94967"/>
<path d="M221.13 172.96C222.7 171.04 224.26 169.12 225.83 167.21C225.98 168.54 226.2 169.79 227.25 170.82C234.5 177.88 241.71 184.98 248.94 192.07C251.87 193.05 253.35 195.25 254.05 198.12C253.1 200.51 251.67 202.44 249.09 203.25C252.38 199.93 251.41 197.52 248.13 194.51C241.18 188.14 234.57 181.37 228.1 174.51C225.86 172.14 223.93 171.31 221.13 172.96Z" fill="#C71F1E"/>
<path d="M129.97 416.86C128.23 415.55 130.4 414.28 130.01 412.99C133.59 410.13 138.08 412.53 141.88 410.93C146.72 410.55 151.58 410.83 156.43 410.48C158.4 410.34 160.34 410.34 161.93 408.95L162.31 409.01C165.19 411.23 163.2 412.98 161.76 414.79C159.72 416.25 157.36 415.91 155.08 415.91C146.69 415.93 138.33 416.22 129.97 416.86Z" fill="#FBE7BE"/>
<path d="M213.89 410.89C202.92 412.49 191.86 411.6 180.86 412.21C178.94 411.24 179.16 410.35 180.96 409.52C188.49 409.41 196.01 409.3 203.54 409.17C206.94 409.11 210.35 409.02 213.75 408.94C213.79 409.59 213.84 410.24 213.89 410.89Z" fill="#D65F6F"/>
<path d="M161.93 408.95C162.1 412.24 159.46 411.53 157.76 411.62C152.51 411.9 147.24 411.91 141.98 412.03C137.76 412.55 133.54 412.86 129.34 411.89C129.32 411.24 129.3 410.59 129.28 409.94C140.17 409.61 151.05 409.28 161.93 408.95Z" fill="#D6586E"/>
<path d="M129.97 416.86C131.11 414.48 133.31 415.21 135.2 415.13C144.09 414.77 153.02 415.68 161.86 414.11C162.79 415 162.78 415.89 161.87 416.78C151.37 417.07 140.86 417.35 130.36 417.64C130.26 417.37 130.13 417.11 129.97 416.86Z" fill="#D17374"/>
<path d="M274.89 89.07C268.14 85.23 268.39 76.89 275.96 71.52C275.96 75.94 275.96 79.97 275.96 84.01C275.6 85.69 275.25 87.38 274.89 89.07Z" fill="#AC0B0E"/>
<path d="M24.9704 40.89C25.0304 41.68 25.1305 42.34 25.1305 43C25.1305 44.13 25.4204 45.54 23.8404 45.81C22.2604 46.08 21.9604 44.72 21.7804 43.58C21.1504 39.67 20.5604 35.76 20.0504 31.83C19.9204 30.88 19.9304 29.72 21.1704 29.37C22.7204 28.92 23.3805 30.12 23.5805 31.22C24.1605 34.46 25.2104 37.65 24.9704 40.89Z" fill="#C0C0C0"/>
<path d="M13.9097 48.52C13.5797 50.08 12.3297 50.48 11.3597 49.65C7.7397 46.57 4.2597 43.3 0.799703 40.03C0.149703 39.41 0.309683 38.51 1.02968 37.85C1.55968 37.37 2.27971 37.09 2.80971 37.56C6.51971 40.79 10.5897 43.63 13.6397 47.57C13.8297 47.81 13.8297 48.19 13.9097 48.52Z" fill="#B5B5B5"/>
<path d="M33.4901 47.9102C31.6901 47.6902 31.5201 46.3002 32.5701 45.2002C35.7301 41.8602 39.05 38.6602 42.46 35.5702C43.45 34.6702 44.72 34.9902 44.96 36.6002C45.16 37.9502 35.1901 47.8802 33.4901 47.9102Z" fill="#B3B3B3"/>
<path d="M254.04 198.11C252.34 196.09 250.63 194.07 248.93 192.06C250.4 191.18 246.95 186.55 252.09 188.1C253.18 188.43 251.47 186.17 251.91 185.07C256.67 185.62 257.65 189.08 258 193.02C255.28 197.14 254.57 191.97 252.6 192.26C252.1 194.18 256.49 195.43 254.04 198.11Z" fill="#9C1C20"/>
<path d="M206.99 416.95C198.94 416.95 190.89 416.95 182.85 416.95C182.84 416.59 182.83 416.23 182.82 415.87C193.16 415.61 203.51 415.35 213.85 415.09C213.87 415.31 213.85 415.53 213.81 415.75C211.73 417.25 209.26 416.51 206.99 416.95Z" fill="#D55462"/>
<path d="M92.0405 181.05C92.3005 182.27 91.6805 183.28 91.3705 184.39C90.8805 186.14 88.3205 187.82 90.3705 189.68C92.4805 191.6 95.1405 192.72 98.0505 190.88C100.631 192.7 104 193.29 105.96 196.04C101.87 194.04 97.2805 193.84 93.0505 192.43C87.3105 190.51 87.1205 189.68 89.8605 184.23C90.4405 183.1 90.7105 181.7 92.0405 181.05Z" fill="#EFCD73"/>
<path d="M257.99 193.01C257.36 189.29 254.42 187.34 251.9 185.06C250.93 183.77 249.96 182.47 248.22 180.15C253.58 182.43 255.89 187.39 260.82 187.85C258.63 188.88 259.14 191.4 257.99 193.01Z" fill="#E4B3A7"/>
<path d="M131.85 14.8201C127.12 20.1901 122.4 25.5701 117.67 30.9401C121.09 24.4201 125.58 18.8301 131.85 14.8201Z" fill="#A2292A"/>
<path d="M101.89 70.73C102.19 71.77 101.7 72.56 101.16 73.4C100.49 74.45 98.2503 75.15 99.9603 76.85C101.35 78.23 102.85 77.69 104.26 76.52C104.69 76.16 105.46 76.21 106.07 76.07C102.72 79.88 100.67 79.93 94.7803 76.04C97.6603 74.72 100.12 73.13 101.89 70.73Z" fill="#A92E31"/>
<path d="M106.04 76.1102C108.31 74.1302 108.1 76.4502 108 77.4302C107.61 81.1202 107.4 84.9102 104.84 87.9702C104.88 83.9902 107.64 80.2702 106.04 76.1102Z" fill="#A92E31"/>
<path d="M94.1102 175.96C94.0602 176.94 93.8602 177.82 92.8002 178.21C91.1802 176.81 89.5702 175.41 87.9502 174.01C88.0502 172.73 88.5302 172.32 89.7202 173.13C91.1502 174.11 92.6402 175.02 94.1102 175.96Z" fill="#9C5442"/>
<path d="M129.34 411.89C133.55 411.94 137.77 411.98 141.98 412.03C138.11 413.88 133.98 412.46 130.01 412.99C129.79 412.62 129.57 412.26 129.34 411.89Z" fill="#FDC09F"/>
<path d="M136.96 10.8901C137.27 14.8501 134.94 15.3801 131.8 14.8601C132.99 12.8601 134.86 11.7201 136.96 10.8901Z" fill="#A2292A"/>
<path d="M105.921 59.8101C106.121 63.3101 105.761 66.61 102.641 68.91C103.731 65.88 104.821 62.8401 105.921 59.8101Z" fill="#A92E31"/>
<path d="M161.87 416.79C162.26 415.9 162.31 415 161.86 414.12C161.77 412.4 163.91 410.87 162.31 409.01C160.36 407.78 158.89 406.65 159.02 403.71C159.69 388.31 158.01 372.95 157.87 357.56C164.34 357.1 170.81 357.1 177.29 357.46C178.37 368.31 179.66 379.15 180.43 390.02C180.89 396.5 183.71 402.96 180.96 409.53C179.63 410.38 179.59 411.28 180.87 412.22C181.41 414.13 180.15 416.36 181.9 418.06C184.12 428.66 180.97 439.3 182.13 449.9C182.2 450.48 182.26 451.06 182.33 451.64C182.48 452.14 182.34 452.56 181.96 452.9C177.89 452.91 173.82 452.77 169.77 452.97C167.11 453.1 165.05 452.56 163.95 449.94C162.4 446.27 162.64 442.57 163.8 438.86C162.78 431.52 161.49 424.23 161.87 416.79Z" fill="#FEFEFE"/>
<path d="M166.06 249.19C163.61 252.97 160.5 253.01 157.61 250.04C155.67 248.05 154.33 247.17 151.53 249.04C147.92 251.44 145.05 249.62 143.3 245.73C145.63 246.93 147.7 249.22 150.64 247.65C152.49 246.66 155.08 245.99 152.58 243.08C151.71 242.07 151.63 240.67 153.05 240.23C155.15 239.58 157.34 239.79 159.17 241.25C160.12 242.01 160.08 243.11 159.27 243.84C157.77 245.21 155.91 246.3 158.16 248.54C160.13 250.51 162.18 251.41 164.74 249.62C165.1 249.36 165.62 249.32 166.06 249.19Z" fill="#0E658B"/>
<path d="M187.95 213.49C190.01 214.08 192.08 214.67 194.14 215.26C194.08 216.59 194 217.92 193.96 219.25C193.89 221.9 192.94 224.16 189.96 223.74C187.02 223.33 186.49 220.98 187.43 218.39C188.03 216.78 188.16 215.17 187.95 213.49Z" fill="#C7ECF4"/>
<path d="M176.68 236.54C176.5 236.91 176.4 237.51 176.07 237.69C175.21 238.16 174.53 237.74 174.04 236.94C171.67 233.1 168.84 232.69 165.56 235.85C165.04 236.35 164.47 236.58 163.84 236.07C163.25 235.59 163.1 234.89 163.5 234.31C165.38 231.58 168.08 230.57 171.28 231.1C174.25 231.59 175.52 233.95 176.68 236.54Z" fill="#10648B"/>
<path d="M139.96 204.03C137.66 203.49 137.47 204.75 137.86 206.5C137.31 207.33 136.761 208.16 136.201 208.99C134.741 207.72 131.621 208.75 131.521 205.6C131.651 205.15 131.91 204.82 132.31 204.59C135.16 203.14 137.35 201.13 138.13 197.87C138.53 196.13 138.5 194.3 139.09 192.62C139.44 191.63 139.79 190.26 141.41 191.24C142.86 193.98 142.88 197.02 143.07 199.98C143.19 201.98 142.82 204.09 139.96 204.03Z" fill="#C5D79F"/>
<path d="M131.811 205.25C131.701 208.34 136.001 206.26 136.201 208.99C136.131 211.71 135.261 214.37 132.091 213.53C128.271 212.52 129.321 209.48 130.521 206.81C130.551 205.96 130.301 204.87 131.811 205.25Z" fill="#D9F2F5"/>
<path d="M144.33 226.77C146.75 226.53 148.54 227.6 149.99 229.37C150.88 230.45 152.74 231.73 151.11 233.06C148.91 234.85 149.15 231.92 148.4 231.06C146.61 229.02 144.74 228.31 142.35 230.02C141.24 230.81 139.83 232.98 138.77 231.31C137.54 229.37 140.13 228.38 141.49 227.42C142.21 226.91 143.36 226.98 144.33 226.77Z" fill="#0C6187"/>
<path d="M131.81 205.25C131.38 205.77 130.94 206.29 130.51 206.81C129.72 205.87 128.56 206.09 127.55 205.83C127.45 204.5 129.35 203.86 128.67 202.29C126.82 198.04 129.42 195.16 131.86 192.24C133.69 194.03 132.19 196.14 132.42 198.08C132.39 200.33 133.84 202.63 132.22 204.83C132.06 204.96 131.93 205.1 131.81 205.25Z" fill="#C5D79F"/>
<path d="M178.24 133.19C180.75 131.05 183.16 131.42 185.65 133.33C188.09 135.2 187.83 137.65 187.09 140.04C185.19 146.2 180.45 149.59 174.88 152.08C172.26 153.12 170.1 152.24 168.12 150.52C163.05 146.13 157.33 144.42 150.75 146.45C148.81 147.05 146.88 147.13 144.97 146.33C140.33 141 137.51 135.09 138.91 127.78C139.32 125.63 140.43 124.2 142.53 123.52C144.93 122.75 145.56 124.81 146.71 126.06C147.21 126.08 147.79 126.07 148.15 126.39C156.65 133.9 166.7 134.6 177.26 133.08C177.58 133.03 177.91 133.13 178.24 133.19Z" fill="#6E1609"/>
<path d="M215.82 117.13C213.06 121.83 210.73 126.58 203.7 126.2C195.34 125.75 187.79 123.93 182.69 116.91C179.75 112.86 182.13 104.27 186.52 101.27C189.23 99.42 192.12 97.83 194.92 96.12C201.31 93.87 207.08 94.37 212.05 99.57C216.97 104.71 218.49 110.43 215.82 117.13Z" fill="#F8F6F4"/>
<path d="M151.131 90.98C155.061 96.17 153.691 101.62 151.801 107.02C151.121 108.95 149.641 110.68 147.671 111.11C140.961 112.6 134.241 113.28 127.921 109.41C123.581 106.75 123.881 102.12 122.921 98.01C121.641 91.46 125.671 87.45 130.101 83.99C134.971 80.18 140.381 80 145.751 83.3C148.291 85.33 150.931 87.3 151.131 90.98Z" fill="#F7F5F0"/>
<path d="M182.84 65.0602C173.2 61.9302 166.35 55.3702 160.88 47.1302C162.76 42.7502 167.2 40.6702 169.95 37.0702L170.08 36.9602C174.83 44.1802 176.96 52.8502 182.74 59.5302C183.78 60.7302 184.66 62.1202 185.89 63.1902C186.66 66.7402 184.46 65.4102 182.84 65.0602Z" fill="#B50607"/>
<path d="M149.94 171.96C152.98 169.53 156.05 170.38 159.56 171.17C167.9 173.05 176.42 173.84 184.97 172.45C186.17 172.26 187.21 171.87 188.06 173.05C187.99 173.3 187.92 173.54 187.85 173.79C177.38 181.51 166.26 184.13 153.78 177.86C152.74 180.15 153.94 182.89 152.32 184.93C149.47 185.15 150.17 182.83 149.77 181.33C149.61 180.71 149.76 180.03 149.67 179.39C149.47 177.88 150.2 175.48 148.13 175.32C146.06 175.17 146.52 177.7 145.99 179.11C145.88 179.41 145.8 179.73 145.69 180.05C145.01 181.14 144.55 182.57 142.77 181.97C141.68 178.04 142.33 174.41 144.58 171.03C146.6 170.03 148.32 170.71 149.94 171.96Z" fill="#E1A384"/>
<path d="M206.98 167.93C208.3 170.6 210.51 172.39 212.93 173.97C212.84 176.09 212.75 178.21 212.66 180.34C211.2 182.54 209.38 181.65 207.44 181.14C205.71 180.68 203.86 180.67 202.07 180.46C199.2 181.6 196.45 180.22 193.63 180.11C186.52 178.21 186.33 177.97 188.06 173.07V173.06C194.06 170.24 200.59 169.35 206.98 167.93Z" fill="#F8F8F4"/>
<path d="M236.95 125.02C239.59 130.7 244.29 133.94 249.98 136C247.58 135.69 246.89 137.29 246.43 139.16C245.63 142.45 243.42 144.61 240.58 146.11C237.43 147.77 233.71 149.19 230.88 146.5C228.45 144.19 231.54 141.39 232 138.78C232.84 133.9 236.83 130.16 236.95 125.02Z" fill="#DC956D"/>
<path d="M178.24 133.19C168.51 137.81 153.38 134.39 146.7 126.06C147.35 123.58 149.19 123.82 151.03 124.22C158.88 125.93 166.74 127.59 174.55 129.46C176.31 129.88 179.35 129.67 178.24 133.19Z" fill="#FAF7F1"/>
<path d="M207.44 133.03C210.73 133.39 214.6 134.51 217.42 138.06C219.54 140.73 218.48 142.7 216.1 144.24C212.6 146.5 204.6 145.75 201.31 142.76C199.83 141.41 197.13 140.14 198.42 137.59C199.58 135.3 201.37 133.09 204.48 133.03C205.14 133.02 205.81 133.03 207.44 133.03Z" fill="#FA9896"/>
<path d="M144.96 146.32C148.15 145.62 151.32 144.55 154.55 144.31C160.19 143.9 165.26 145.74 169.35 149.73C170.96 151.3 172.47 152.62 174.88 152.07C163.55 156.66 152.93 154.62 144.96 146.32Z" fill="#DA6A5B"/>
<path d="M223.09 75.8902C226.57 77.8702 229.78 80.1702 232.08 83.5402C232.97 84.8402 233.68 86.2102 232.19 87.5002C230.6 88.8702 229.41 87.7802 228.45 86.5702C223.11 79.8402 215.9 77.1702 207.59 76.9102C205.77 76.8502 203.43 77.1802 203.4 74.6702C203.36 71.8002 205.91 72.2002 207.86 72.1502C208.85 72.1302 209.84 72.1802 210.84 72.1902C215.11 72.8002 219.73 72.2602 223.09 75.8902Z" fill="#68120B"/>
<path d="M125.66 125.02C121.12 125.97 115.95 121.42 116.24 118.82C116.64 115.11 119.68 114.25 122.77 114.07C127.37 113.81 132.03 117.22 131.99 120.57C131.96 123.73 130.15 125 125.66 125.02Z" fill="#FB9896"/>
<path d="M149.94 171.96C148.3 171.99 146.66 172.01 145.19 171.09C142.43 171.89 140.22 170.78 138.2 169.06C133.46 166.75 128.71 164.43 123.96 162.12C124.13 161.71 124.29 161.3 124.46 160.89C127.8 160.58 131.41 163.49 134.5 160.06C138.96 162.43 143.46 164.74 147.86 167.21C149.62 168.19 149.58 170.23 149.94 171.96Z" fill="#F4F6E4"/>
<path d="M134.96 57.6201C139.92 57.4801 144.48 58.9301 148.85 61.1001C150.23 61.7801 151.66 62.7101 150.57 64.5401C149.74 65.9201 148.39 65.7601 147.06 65.0701C140.03 61.3901 132.88 60.6001 125.54 64.1701C124.32 64.7601 123.19 64.5901 122.53 63.3801C121.71 61.8701 122.57 60.8301 123.89 60.1601C127.37 58.3901 131.05 57.4701 134.96 57.6201Z" fill="#661A0F"/>
<path d="M215.82 117.13C218.19 104.02 209.83 93.6501 194.92 96.1201C194.77 96.0401 194.63 95.9601 194.48 95.8901C194.33 95.8201 194.18 95.7501 194.03 95.6901C194.17 95.4601 194.24 95.1101 194.45 95.0001C199.78 92.0901 209.6 94.0001 214.27 98.8201C218.48 103.17 219.89 112.3 217.14 117.43C216.31 118.98 216.12 117.81 215.82 117.13Z" fill="#783D2A"/>
<path d="M145.88 84.23C135.42 79.16 123.58 86.26 122.91 98.01C120.38 91.82 124.13 87.58 127.75 83.55C131.81 79.04 137.05 78.81 142.46 80.7C144 81.24 145.37 82.29 146.81 83.1C147.17 84.04 146.86 84.41 145.88 84.23Z" fill="#7D4436"/>
<path d="M169.18 121.55C164.45 113.91 162.85 113.62 156.71 118.51C156.83 115.45 159.57 113.09 162.93 113.14C166.73 113.19 169.09 116.05 169.18 121.55Z" fill="#BD8061"/>
<path d="M169.95 37.0701C168.61 41.9401 163.7 43.6001 160.88 47.1301C159.84 46.3901 159.1 45.4501 158.85 44.1701C161.04 45.1901 161.95 43.3501 163.27 42.2801C165.47 40.5201 166.68 37.4701 169.95 37.0701Z" fill="#C6211F"/>
<path d="M223.09 75.89C219 74.65 214.92 73.42 210.83 72.18C212.14 71.63 213.91 72.69 214.9 71.02C218.49 71.86 221.87 73.24 225.13 74.95C224.46 75.27 223.78 75.58 223.09 75.89Z" fill="#C77B70"/>
<path d="M145.88 84.2301C146.19 83.8601 146.5 83.4801 146.81 83.1101C149.67 84.3001 150.7 87.0301 152.1 89.4401C152.67 90.4301 152.24 90.9701 151.12 90.9801C149.9 88.3201 147.7 86.4201 145.88 84.2301Z" fill="#B79580"/>
<path d="M182.84 65.0602C184.09 64.8302 185.8 65.3302 185.89 63.1902C187.66 63.5902 188.32 65.2502 189.53 66.4902C187.09 66.8302 184.92 66.2002 182.84 65.0602Z" fill="#A2281E"/>
<path d="M138.19 169.06C140.76 168.92 142.89 170.29 145.18 171.09C144.45 174.65 143.72 178.2 143 181.76C143.94 185.32 143.54 188.55 140.71 191.19C140.14 193.84 139.58 196.48 139.01 199.13C135.95 201 133.32 200.15 130.94 197.83C131.25 195.97 131.56 194.1 131.86 192.25C133.97 184.52 136.08 176.79 138.19 169.06Z" fill="#47A2C3"/>
<path d="M161.881 434.06C164.321 435.14 162.711 437.22 163.061 438.82C164.051 443.06 163.081 447.39 163.601 451.65C164.491 454.31 163.161 455.21 160.731 455.58C142.451 458.33 124.171 461.12 105.601 460.84C101.431 460.78 97.2606 460.64 93.3206 459.01C91.4606 458.24 89.4606 457.51 90.0106 454.81C92.7106 455.7 95.4806 455.82 98.3106 455.94C118.581 456.82 138.611 454.35 158.651 451.9C161.181 451.59 162.101 450.37 162.061 447.99C161.971 443.36 161.941 438.71 161.881 434.06Z" fill="#B42753"/>
<path d="M181.95 452.89C182.07 452.47 182.2 452.05 182.32 451.63C188.28 451.13 194.04 452.77 199.88 453.45C217.02 455.44 234.18 456.38 251.44 455.91C254.42 455.83 254.64 453.55 255.83 451.94C256.51 457.79 255.88 458.83 249.91 459.86C235.96 462.25 222.08 460.19 208.22 458.74C200.79 457.96 193.42 456.7 186.03 455.6C184.3 455.34 182.2 455.45 181.95 452.89Z" fill="#B52854"/>
<path d="M163.6 451.65C162.1 447.43 163.05 443.1 163.06 438.82C163.3 438.88 163.55 438.89 163.79 438.84C163.84 442.53 163.89 446.23 163.94 449.92C163.82 450.5 163.71 451.08 163.6 451.65Z" fill="#F63E76"/>
<path d="M140.71 191.19C141.47 188.05 142.24 184.91 143 181.76C143.64 181.13 144.29 180.5 144.93 179.87C147.07 184.03 147.7 188.87 151.87 192.09C160.44 198.7 174.15 199.79 184.25 194.19C185.95 193.25 187.41 191.68 189.64 192.07C189.73 198.3 186.96 203.89 185.66 209.81C185.39 211.05 184.19 211.06 183.22 211.01C179.74 210.85 176.24 210.79 172.79 210.34C164.77 209.29 156.76 208.12 148.78 206.81C145.74 206.31 142.07 207.52 139.96 204.02C142.13 202.88 142.5 200.71 141.78 198.92C140.73 196.36 141.08 193.76 140.71 191.19Z" fill="#FBC105"/>
<path d="M189.65 192.07C179.89 201.08 161.28 201.59 151.14 193.14C146.89 189.6 144.45 185.5 144.94 179.88C144.99 178.56 145 177.24 145.11 175.93C145.27 173.96 146.34 173.06 148.37 173.05C150.72 173.04 150.84 174.44 151.01 176.27C151.28 179.11 149.83 182.19 152.04 184.79C153.41 185.02 154.5 185.83 155.46 186.71C161.58 192.43 169.04 192.25 176.51 191.29C181.71 190.63 185.08 187.53 186.53 182.26C187.79 177.7 189.21 177.4 193.6 180.21C194.42 182.58 194.5 184.74 191.94 186.16C190.31 187.8 190.26 190.04 189.65 192.07Z" fill="#F88C0A"/>
<path d="M191.93 186.16C192.81 184.15 193.2 182.05 192.92 179.86C193.19 179.5 193.52 179.21 193.9 178.98C196.75 178.76 199.43 179.51 202.07 180.46C200.37 189.38 197.55 198.11 197.54 207.3C197.54 209.16 196.88 209.35 195.15 209.33C187.81 209.22 187.91 209.26 189.49 201.8C190.58 196.64 191.13 191.38 191.93 186.16Z" fill="#4DA6BA"/>
<path d="M106.92 142.16C106.99 139.85 106.92 137.53 107.17 135.25C107.32 133.9 108.3 132.61 109.67 132.51C111.35 132.39 111.78 134.11 111.84 135.3C111.99 138.6 113.8 141.12 115.33 143.79C115.78 144.58 117.02 145.18 116.01 146.25C115.07 147.26 113.88 147.12 112.9 146.27C111.04 144.66 109.41 142.74 106.88 142.09C106.89 142.09 106.92 142.16 106.92 142.16Z" fill="#4DCBC8"/>
<path d="M130.93 197.83C133.62 198.26 136.31 198.7 139 199.13C137.52 201.97 136.7 205.59 132.2 204.83C131.79 202.5 131.36 200.16 130.93 197.83Z" fill="#D9C53C"/>
<path d="M208.96 116.01C206.42 119.59 203.19 122 198.56 121.41C194.03 120.84 190.93 118.27 189.64 113.87C188.4 109.61 189.78 105.95 193.12 103.21C196.67 100.3 200.66 100.07 204.72 102.23C205.73 102.77 206.63 103.53 207.58 104.19C208.4 104.45 208.61 105.17 208.21 105.71C206.71 107.71 201.77 110.53 209.43 109.93C210.42 109.85 210.54 111.02 210.41 111.85C210.18 113.32 209.54 114.66 208.96 116.01Z" fill="#762915"/>
<path d="M208.96 116.01C209.28 114.24 209.59 112.47 209.91 110.72C208.33 110.01 207.85 111.68 206.69 111.69C205.17 111.71 204.09 111.15 203.54 109.78C202.92 108.24 203.96 107.39 204.98 106.44C205.82 105.65 208.57 107.04 207.59 104.2C211.74 108.43 212.07 111.34 208.96 116.01Z" fill="#F1E3DD"/>
<path d="M149.03 100.03C148.75 100.44 148.38 100.81 148.21 101.26C146.2 106.67 142.95 109.16 138.56 108.61C134.24 108.07 131.19 104.47 130.91 99.61C130.62 94.5 133.8 89.68 138.23 88.48C142.32 87.37 145.27 89.17 147.74 92.19C149.71 95.22 144.91 94.09 145.52 96.81C146.15 97.82 151.26 95.41 149.03 100.03Z" fill="#732A15"/>
<path d="M149.03 100.03C148.45 99.4002 149.18 97.3802 148.11 97.9302C145.71 99.1802 143.81 99.3702 143.33 96.4702C142.88 93.7702 144.98 92.9502 147.43 93.0502C147.52 93.0502 147.64 92.4702 147.75 92.1702C149.75 94.5402 150.94 97.0302 149.03 100.03Z" fill="#D3C1BB"/>
<path d="M193.9 178.98C193.57 179.27 193.25 179.57 192.92 179.86C189.97 178.49 188.1 178.47 187.64 182.61C187.07 187.71 183.66 190.55 178.78 192.08C168.31 195.36 158.39 192.77 152.03 184.78C152.03 181.82 152.03 178.87 152.03 175.12C164.97 184.05 176.57 179.34 188.05 173.05C186.51 178.48 191.32 177.62 193.9 178.98Z" fill="#FCC1A3"/>
</svg>
