<svg width="277" height="469" viewBox="0 0 277 469" fill="none" xmlns="http://www.w3.org/2000/svg">
<path d="M61.086 299.627C56.876 313.727 52.686 327.827 48.446 341.917C47.616 344.657 49.576 345.547 51.346 346.307C56.636 348.577 62.006 350.656 67.346 352.816C69.336 354.606 71.906 354.757 74.336 355.217C83.006 356.877 91.706 358.357 100.586 358.257C106.726 358.407 112.876 358.417 119.016 358.257C128.826 358.677 138.476 357.017 148.176 355.987C149.996 355.797 151.756 355.287 153.146 353.957C162.536 350.767 172.386 349.047 181.456 344.787C195.076 338.397 195.226 338.477 190.486 324.387C186.576 312.777 182.396 301.257 178.336 289.687C176.326 291.437 174.476 291.347 172.206 289.817C167.156 286.427 164.606 281.897 164.856 275.797C160.936 253.547 156.796 231.337 152.516 209.157C152.256 207.827 151.876 206.577 150.796 205.657C149.536 204.887 148.316 204.847 147.136 205.817C146.756 206.337 146.556 206.927 146.486 207.587C146.326 209.107 147.016 211.297 144.956 211.677C142.616 212.117 142.626 209.497 141.676 208.147C140.956 206.937 139.966 206.097 138.536 205.857C122.216 206.837 106.206 210.237 89.9959 212.017C87.8159 213.267 88.256 215.327 88.336 217.307C88.406 218.877 89.146 221.177 86.886 221.387C84.706 221.597 84.9159 219.177 84.5559 217.647C84.2159 216.207 84.166 214.607 82.316 214.127C77.666 214.437 77.546 217.987 78.076 221.037C79.986 232.007 79.3659 243.197 81.1059 254.147C82.6359 263.747 81.336 273.377 82.026 282.947C82.776 289.217 79.676 295.287 74.386 298.337C72.186 299.597 70.696 298.767 69.086 297.367C67.766 296.217 66.356 293.937 64.626 295.017C62.476 296.357 65.366 298.097 65.286 299.847C63.786 301.107 62.466 299.707 61.086 299.627Z" fill="#43A2C8"/>
<path d="M15.4361 118.877C15.7661 125.567 14.3161 132.177 16.8461 138.967C19.9361 147.257 24.9661 153.187 32.6961 157.127C34.1561 157.867 35.4361 158.947 36.7961 159.877C41.7961 161.807 46.8561 162.727 52.1561 161.137C55.0361 160.267 57.6061 160.767 60.0261 162.747C62.9761 165.157 66.4061 166.827 69.8261 168.497C76.3161 170.607 82.9361 172.157 89.6261 173.497C99.7161 175.007 109.716 174.437 119.606 172.077C122.006 171.507 124.176 172.237 126.446 172.437C131.026 166.817 138.006 164.627 143.636 160.517C149.446 155.347 156.186 151.197 160.746 144.657C164.286 139.597 166.186 134.077 166.146 127.897C166.646 126.457 168.336 125.657 168.266 123.907C167.926 123.067 166.656 124.867 166.656 123.407C166.676 117.487 167.076 111.557 165.686 105.717C164.856 102.277 166.796 99.8965 168.786 97.5165C160.186 83.4765 160.556 67.2265 157.746 51.7965C156.396 44.4065 153.686 38.5865 147.046 34.7965C144.446 33.3165 142.076 31.4365 139.546 29.8465C131.836 25.0065 128.296 25.7965 123.556 33.4165C121.616 36.5265 119.756 39.6865 117.916 42.8465C117.256 44.1265 116.556 45.3865 115.596 46.4765C109.926 54.1465 103.206 60.5265 94.1561 64.0565C93.0161 64.5565 91.7761 64.7765 90.5961 65.2165C90.7761 64.3065 91.7261 64.2565 92.2361 63.7365C96.7261 59.6565 99.7861 54.4965 102.386 49.1665C104.346 45.1665 106.216 41.0965 107.966 36.9865C108.276 36.0065 108.346 35.0065 108.046 34.0065C105.446 31.0565 104.366 34.4065 102.676 35.2865C95.0361 43.7265 87.9261 52.6765 78.7361 59.5865C74.6361 62.6765 70.4061 65.5565 65.8061 67.8765C64.2461 68.6665 62.3261 69.2265 62.0661 71.4465C62.8761 73.0665 64.4361 73.0065 65.9061 73.1665C67.9361 73.2965 70.0961 72.7665 71.9561 74.5065C67.4461 76.0765 62.6261 75.8565 58.2361 77.7265C53.9161 79.5565 50.5961 82.6665 46.4661 86.2165C46.7161 82.5465 48.6461 81.0965 50.5261 79.5865C52.0361 78.3765 54.1361 77.7365 54.5861 75.4765C54.1861 74.3065 53.2161 74.0365 52.1461 73.9065C46.9761 74.1465 42.2661 76.4565 37.2061 77.1865C35.1261 78.0865 34.1661 79.6665 34.3261 81.9265C35.8561 88.6965 38.2061 95.2565 39.6161 102.077C41.1361 109.467 41.6761 116.817 39.2361 124.127C38.8861 129.947 43.1661 134.267 44.2861 139.627C44.7061 141.627 46.6961 143.737 44.4261 145.557C42.4961 147.097 40.2661 146.067 38.2561 145.237C35.5261 144.107 33.4961 142.157 32.4161 139.387C31.6161 137.317 30.5761 135.487 28.7661 134.157C27.9761 131.967 28.8661 129.897 29.2061 127.817C29.9261 123.507 29.8361 119.247 28.4261 115.097C26.9561 110.787 24.7561 110.077 20.9261 112.617C18.5161 114.187 16.6961 116.307 15.4361 118.877Z" fill="#FEBF9F"/>
<path d="M62.3362 70.8765C79.2862 63.0565 92.1162 50.4065 103.316 35.8465C104.596 33.6565 102.876 32.4165 101.666 31.1765C93.1062 22.3665 84.2162 13.8865 75.7262 4.99651C74.4662 3.67651 73.1562 2.93652 71.3462 3.81652C49.2062 9.27652 28.6062 17.5865 13.2762 35.4965C11.3462 37.7465 9.85619 40.3865 8.16619 42.8365C6.93619 45.6265 8.6462 46.7565 10.8662 47.5965C22.8262 52.1365 30.1862 60.4465 32.3662 73.2565C32.7662 75.6165 32.6562 79.5765 37.3062 77.9165C42.5562 78.3865 47.1262 75.6565 52.0962 74.8065C55.7862 74.2065 59.5762 73.8765 62.3362 70.8765Z" fill="#B60002"/>
<path d="M107.176 33.8965C107.176 34.8665 107.166 35.8465 107.166 36.8165C107.276 37.0165 107.376 37.2165 107.476 37.4265C109.606 39.4665 111.746 41.4966 113.856 43.5566C115.206 44.8766 116.656 46.0365 118.396 44.0365C120.766 40.2365 123.046 36.3765 125.536 32.6565C129.126 27.2865 131.156 26.7566 136.686 29.7266C141.976 32.5666 146.786 36.1265 151.446 39.8965C153.636 41.6665 154.696 43.9665 155.156 46.7165C157.076 58.3565 159.016 69.9866 161.096 81.5965C162.156 87.5166 163.786 93.2665 168.416 97.5865C170.116 100.067 172.136 101.597 175.246 99.8866C177.016 99.8066 179.316 100.437 180.016 98.2765C180.696 96.1865 178.126 95.9266 177.026 94.8866C174.906 92.8766 173.846 90.2466 172.406 87.8366C171.016 84.0366 169.656 80.2166 170.026 76.0666C170.086 75.4166 170.076 76.3365 170.406 75.7665C170.536 75.5365 170.936 75.6766 171.206 75.9766L171.176 75.9466C172.066 76.3866 172.816 77.0265 173.596 77.6365C175.226 78.9365 176.846 78.2866 178.056 77.1666C179.626 75.7266 178.226 74.5266 177.236 73.4466C176.456 72.5966 175.676 71.7565 175.356 70.6065C175.396 69.8865 175.376 69.1866 174.616 68.7866C172.426 66.1466 172.156 62.8165 171.336 59.6865C168.386 49.6665 165.986 39.4265 159.576 30.8165C155.376 24.9865 150.786 19.4866 145.396 14.6966L145.456 14.7465C143.106 14.2465 141.466 12.8065 140.296 10.7765C126.056 0.396541 109.546 -0.123454 92.926 0.0165461C88.656 0.0565461 84.356 0.466542 80.246 1.85654C79.146 3.38654 76.2161 1.22655 75.8361 3.89655C75.5461 5.97655 77.436 7.02654 78.676 8.27654C85.766 15.4265 92.9061 22.5166 100.006 29.6466C101.966 31.6166 103.716 33.9865 107.076 32.8165C107.146 32.7965 107.316 33.0065 107.406 33.1365C107.586 33.3665 107.496 33.6365 107.176 33.8965Z" fill="#B60002"/>
<path d="M37.7756 208.267C39.4856 212.707 34.8156 214.687 33.9156 218.167C33.5756 219.477 32.2756 220.547 31.4156 221.717C36.2056 225.997 42.3156 227.847 47.9756 230.417C52.9556 232.687 57.7356 235.427 62.8456 237.357C67.2356 239.017 64.0356 242.637 65.3156 245.027C66.0556 247.817 65.8956 250.677 65.7056 253.467C65.1956 261.307 66.7356 269.027 66.7956 276.827C66.8456 283.587 67.3756 284.127 74.1956 284.207C74.8656 284.217 75.5256 284.217 76.1956 284.207C82.5456 284.127 82.7656 283.897 82.7656 277.357C82.7656 261.587 81.1956 245.927 79.3556 230.297C78.5156 223.177 79.0356 216.097 79.6756 209.007C80.3756 201.267 77.8956 193.917 76.5256 186.457C75.5156 180.927 73.6956 180.147 67.9756 181.367C67.1656 181.537 66.3456 181.687 65.5356 181.807C59.0356 182.837 53.7456 185.677 49.8356 191.257C45.8256 196.947 42.0356 202.777 37.7756 208.267Z" fill="#FDC002"/>
<path d="M222.266 122.977C217.556 124.937 212.756 126.717 210.916 132.277C210.186 134.467 207.766 135.097 206.056 136.347C197.916 142.327 189.006 145.527 178.736 143.737C177.946 143.597 177.096 143.827 176.276 143.887C176.946 147.037 179.556 145.977 181.436 146.087C183.516 146.207 185.736 146.637 187.756 145.457C182.776 148.477 177.076 150.377 172.806 154.597C172.166 155.867 172.256 157.187 172.796 158.427C175.476 164.597 178.076 170.817 182.326 176.127C185.316 177.447 186.476 173.087 189.296 173.857C194.726 168.217 201.736 164.767 208.066 160.377C209.426 159.437 210.916 158.657 212.146 157.577C222.336 148.727 234.716 145.697 247.636 143.687C255.646 142.437 263.516 140.337 271.426 138.527C272.106 138.367 272.616 137.487 273.206 136.947C272.526 134.197 270.116 133.697 267.926 132.957C262.096 130.987 256.066 131.227 250.106 131.777C246.886 132.077 244.446 131.297 241.776 129.547C235.896 125.707 229.626 122.627 222.266 122.977Z" fill="#FDC09F"/>
<path d="M149.696 205.687C152.316 212.477 153.026 219.707 154.366 226.767C157.386 242.677 160.146 258.627 163.056 274.557C163.226 275.497 163.806 276.367 164.206 277.267C167.156 278.417 169.786 278.477 171.356 275.097C167.196 252.447 163.166 229.767 158.726 207.167C158.016 203.527 159.126 201.867 161.906 200.477C165.016 198.927 168.156 197.427 171.286 195.907C174.016 194.067 177.336 193.137 179.626 190.597C176.396 180.647 170.746 171.847 166.286 162.477C165.286 160.377 164.386 158.137 161.466 158.167C158.426 158.537 155.656 159.687 152.946 161.047C149.716 162.667 146.306 163.867 143.036 165.407C141.236 166.257 139.456 167.087 138.586 169.057C139.266 176.817 142.186 184.017 144.296 191.407C145.896 194.957 148.756 198.077 147.646 202.517C147.296 203.967 148.616 204.877 149.696 205.687Z" fill="#FDC004"/>
<path d="M99.9561 357.306C89.0861 355.806 78.2062 354.316 67.3362 352.816C65.8462 355.706 67.2061 358.666 67.1461 361.586C66.8661 375.816 66.4961 390.056 66.4561 404.286C66.4461 406.856 64.8361 407.526 63.5061 408.786C64.9061 410.236 66.7861 410.306 68.5661 410.316C76.7461 410.366 84.9262 410.336 93.0962 410.846C94.4262 410.926 95.7461 410.786 96.6161 409.526C97.1361 394.066 99.6661 378.806 100.956 363.426C101.136 361.306 101.736 359.116 99.9561 357.306Z" fill="#FDC09F"/>
<path d="M153.126 353.957C141.876 355.107 130.636 356.267 119.386 357.417C117.756 358.737 117.816 360.637 117.796 362.437C117.636 374.697 116.176 386.917 116.736 399.197C116.866 402.027 116.736 404.847 115.226 407.387C114.986 407.947 115.026 408.487 115.326 409.017C119.566 410.857 124.066 410.177 128.496 410.407C133.436 410.667 138.396 410.067 143.316 410.857C144.966 411.127 146.646 411.167 147.966 409.797C144.056 404.987 147.246 399.907 147.806 395.137C149.406 381.387 152.466 367.827 153.126 353.957Z" fill="#FDC09F"/>
<path d="M21.4761 449.857C19.9861 450.647 20.1861 452.087 20.2461 453.377C20.3561 455.877 20.1161 458.077 17.1061 458.707C16.2361 458.887 15.4661 459.347 15.5261 460.317C15.5961 461.597 16.7461 461.797 17.6961 461.977C22.7161 462.927 27.7261 464.157 32.7961 464.667C42.0061 465.597 51.2561 466.157 60.5061 466.737C81.9161 468.067 103.376 468.407 124.766 467.557C147.226 466.667 169.786 466.617 192.056 462.747C193.526 462.487 195.316 462.417 195.686 460.747C196.016 459.247 194.476 457.977 193.326 458.067C188.546 458.427 187.936 455.627 188.086 451.937C188.106 451.547 187.556 451.147 187.266 450.747C186.076 451.767 185.916 453.177 185.766 454.597C183.976 459.167 179.616 458.727 176.056 459.107C170.276 459.737 164.386 459.707 158.596 459.187C145.506 458.017 132.426 456.667 119.466 454.387C117.476 454.037 115.446 453.807 114.626 451.507C114.296 450.717 113.866 450.007 113.106 449.557C109.136 451.707 104.806 451.307 100.536 451.347C98.7161 451.367 96.8961 451.387 95.1661 452.107C93.3961 453.017 91.6361 453.927 89.6161 454.217C72.0661 456.727 54.5561 459.547 36.7361 459.327C33.7361 459.287 30.8161 458.747 27.8561 458.317C24.1661 457.787 22.1061 456.137 22.5661 452.167C22.4461 451.287 22.1461 450.477 21.4761 449.857Z" fill="#E1E0E0"/>
<path d="M187.236 454.667C187.246 453.357 187.246 452.047 187.256 450.747C184.186 445.977 179.096 444.127 174.346 441.787C170.916 440.097 167.526 438.347 164.116 436.617C162.376 435.897 160.726 436.377 159.446 437.477C155.366 441.007 150.466 440.477 145.656 440.497C142.166 440.517 142.746 439.017 144.076 436.827C145.786 434.007 149.756 432.227 148.356 427.907L148.086 427.637C144.076 426.197 141.936 428.797 139.916 431.507C133.446 440.207 133.466 440.197 123.386 435.837C121.136 434.867 119.076 433.337 116.496 433.247C115.356 433.207 114.696 433.897 114.276 434.897C113.496 439.037 113.886 443.197 113.946 447.347C113.996 450.887 115.896 452.767 119.406 453.277C139.846 456.257 160.356 458.127 181.036 457.277C183.456 457.177 185.686 456.737 187.236 454.667Z" fill="#F63E76"/>
<path d="M21.4761 449.856C21.4561 450.506 21.4361 451.157 21.4161 451.807C21.6761 455.347 23.4961 457.096 27.1261 457.226C49.5861 458.036 71.8261 455.916 93.9861 452.476C94.3061 452.426 94.5961 452.226 94.9061 452.096C95.8361 451.616 95.9961 450.756 96.0361 449.836C95.0461 445.096 96.3861 440.186 95.0461 435.476C93.4661 433.386 91.7561 434.776 90.2061 435.446C87.9361 436.426 85.6361 437.346 83.3561 438.286C78.4161 440.326 73.4461 441.727 68.0861 440.127C59.7761 441.547 51.9661 439.636 44.3361 436.546C39.2061 439.136 34.0961 441.786 28.9261 444.286C26.0361 445.656 23.5861 447.516 21.4761 449.856Z" fill="#F53E76"/>
<path d="M67.1359 276.787C67.1459 267.077 67.1859 257.367 67.1559 247.667C67.1459 246.137 67.7059 244.206 65.3459 243.686C62.8559 244.996 60.6459 244.137 58.3259 243.037C49.9859 239.077 41.5859 235.236 33.3459 231.056C31.5459 230.146 29.7558 228.446 27.4158 229.776C27.6158 231.426 29.0659 231.737 30.2159 232.297C32.0559 233.197 32.5559 234.547 31.8259 236.387C25.1159 253.257 32.4859 257.747 43.8859 263.287C48.5959 265.577 53.9059 267.027 59.0959 267.827C64.7559 268.697 67.3659 271.027 66.2759 276.817C66.5759 277.287 66.8659 277.277 67.1359 276.787Z" fill="#FEBF9F"/>
<path d="M37.3164 77.9265C33.5164 78.0865 33.8364 74.8964 33.5164 72.7464C32.0264 62.9864 27.1664 55.5265 19.0064 50.0665C16.4964 48.3865 13.8364 47.0665 10.9664 46.2565C9.10643 45.7265 8.0764 44.8364 8.1864 42.8564C5.7564 46.1964 4.10643 49.8765 3.40643 53.9565C7.44643 56.7965 12.1064 58.5664 15.5964 62.3864C25.9164 73.6764 23.2264 91.7165 9.83643 99.0765C8.53643 99.7965 7.05642 100.246 6.45642 101.806C7.27642 105.546 8.93641 108.916 11.1364 112.026C16.6464 109.436 22.1664 106.986 26.4964 102.416C31.9964 96.6065 33.9164 89.3864 35.3064 81.8764C35.1064 80.1064 35.6664 78.7365 37.3164 77.9265Z" fill="#B60002"/>
<path d="M35.306 81.8665C33.576 82.5065 33.536 84.0164 33.266 85.5164C31.176 96.8164 25.056 104.896 14.186 109.106C12.776 109.656 11.346 110.196 11.146 112.016C12.576 114.296 14.006 116.586 15.436 118.866C18.726 118.336 19.3159 114.726 21.9259 113.246C24.9359 111.556 26.476 111.276 27.266 115.326C28.406 121.126 28.106 126.786 26.886 132.476C26.646 133.596 25.346 134.936 27.266 135.846C34.086 135.126 38.8459 131.966 40.2959 124.866C44.6559 111.606 40.336 99.1164 36.906 86.5464C36.466 84.9664 35.846 83.4265 35.306 81.8665Z" fill="#B50302"/>
<path d="M37.776 208.267C39.936 208.297 40.826 206.757 41.846 205.187C44.266 201.447 47.016 197.917 49.266 194.087C52.736 188.177 57.756 184.587 64.316 182.977C65.186 182.107 65.496 181.007 65.616 179.827C65.696 177.837 65.796 175.837 64.786 173.997C62.656 171.997 59.746 172.577 57.276 171.727C53.446 169.877 50.626 171.017 47.746 174.077C41.416 180.797 34.736 187.207 28.206 193.747C23.596 198.367 23.616 198.677 28.166 203.087C30.936 205.627 34.396 206.877 37.776 208.267Z" fill="#B30404"/>
<path d="M94.246 434.766C95.216 439.726 93.706 444.826 95.126 449.756C97.996 446.266 96.716 442.116 96.706 438.266C96.706 432.656 95.356 427.067 96.526 421.427C96.796 420.137 96.416 418.786 95.586 417.646C93.436 415.926 90.866 416.506 88.436 416.406C82.666 416.166 76.886 416.847 71.136 415.987C68.596 415.487 66.036 415.087 63.446 415.607C63.086 418.547 63.056 421.536 62.806 424.476C62.626 426.616 61.126 426.536 60.396 427.576C64.136 431.036 67.916 434.416 70.386 439.026C71.596 441.286 73.596 442.017 76.266 441.047C80.746 439.427 85.406 438.316 89.676 436.086C91.066 435.346 92.436 434.166 94.246 434.766Z" fill="#FAF6B4"/>
<path d="M115.366 433.916C120.736 435.636 125.666 438.486 131.136 440.036C134.396 440.966 135.966 440.586 137.736 437.336C140.026 433.156 141.986 427.987 148.096 427.627C146.656 426.327 145.796 424.876 146.696 422.856C147.466 421.116 147.256 419.297 146.886 417.497C140.846 415.307 134.446 416.206 128.236 415.536C124.046 415.086 119.606 414.556 115.416 416.256C115.186 416.476 114.806 416.696 114.766 416.966C113.776 423.976 112.646 430.967 112.476 438.057C112.736 438.607 113.166 438.947 113.766 439.057C115.936 437.847 113.716 435.286 115.366 433.916Z" fill="#FBF5B2"/>
<path d="M222.266 122.977C227.906 125.197 234.446 125.547 239.176 129.547C243.506 133.217 247.936 133.477 253.176 133.017C260.106 132.407 267.126 132.597 273.206 136.937C274.596 136.607 276.676 136.947 276.866 135.107C277.056 133.277 275.266 132.287 273.726 131.687C271.576 130.847 269.336 130.247 266.656 129.397C268.546 128.607 270.166 128.017 271.686 127.257C272.746 126.727 274.886 127.297 274.646 125.387C274.456 123.827 272.766 123.257 271.256 122.857C264.266 120.997 257.416 122.567 250.556 123.707C248.266 124.087 246.016 124.737 243.716 124.937C240.526 125.227 239.066 124.197 241.406 121.037C242.886 119.037 244.236 116.937 245.786 114.997C247.156 113.277 248.246 111.437 248.846 109.347C249.226 108.027 249.266 106.597 248.096 105.647C246.736 104.537 245.396 105.487 244.576 106.407C238.316 113.517 229.836 117.627 222.266 122.977Z" fill="#DE956E"/>
<path d="M38.0563 163.807C31.0463 168.797 23.6863 173.227 15.8963 176.837C12.2463 178.537 11.7663 180.277 14.0863 183.357C15.0663 184.657 15.6563 186.247 16.4263 187.717C20.3063 189.787 21.7263 185.887 24.1863 184.527C24.2263 184.777 24.6663 183.457 24.4563 184.617C23.8463 186.577 22.4763 188.707 26.1163 189.247C27.4463 189.447 27.0463 191.617 28.4163 192.137C29.5163 192.277 30.3363 191.717 31.0563 191.007C37.5463 184.607 43.9763 178.147 50.3963 171.677C51.9063 170.157 52.6963 168.437 51.7663 166.287C47.3363 164.727 42.6263 164.637 38.0563 163.807Z" fill="#B30506"/>
<path d="M6.45645 101.807C17.7864 97.3965 24.2164 87.4965 23.1864 76.0765C22.2364 65.5165 13.6265 55.8965 3.40646 53.9465C3.05646 54.9965 3.52644 56.3165 2.38644 57.1065C0.65644 60.7765 2.63641 62.7465 5.47641 64.7565C13.4464 70.4065 15.7564 77.5465 12.5464 85.3465C11.3664 88.2265 9.48642 90.3665 6.80642 91.9465C5.34642 92.8065 3.19646 93.3965 4.15646 95.9465C4.91646 97.8965 5.68645 99.8465 6.45645 101.807Z" fill="#B20406"/>
<path d="M161.366 158.856C163.126 158.936 163.886 160.136 164.586 161.536C169.436 171.286 174.326 181.006 179.196 190.736C181.846 194.766 184.516 191.296 186.806 190.416C189.306 189.456 188.216 187.156 187.186 185.386C186.366 183.956 185.956 182.356 185.206 180.906C184.956 179.956 184.696 179.016 184.446 178.066C184.326 177.126 183.966 176.336 183.146 175.816C179.176 169.186 175.166 162.556 173.076 155.016C172.506 152.226 170.456 151.486 168.236 152.346C165.156 153.516 161.316 154.246 161.366 158.856Z" fill="#FA8C06"/>
<path d="M27.4058 229.767C38.1258 234.817 48.8458 239.867 59.5658 244.917C61.7958 245.967 64.1458 247.537 65.3458 243.687C68.3758 238.987 68.1958 238.527 63.1658 236.247C52.5658 231.437 41.9958 226.567 31.4058 221.727C28.6658 223.697 27.7658 226.597 27.4058 229.767Z" fill="#FA8B06"/>
<path d="M64.5963 180.197C64.5063 181.127 64.4063 182.047 64.3163 182.977C64.9663 183.097 65.6363 183.397 66.2563 183.297C74.5463 181.947 74.7363 182.597 76.3663 191.147C78.5563 202.647 77.1163 214.307 78.5563 225.697C80.1963 238.687 79.3163 251.827 81.8263 264.737C82.7963 269.707 82.1563 275.007 82.1563 280.157C82.1563 280.917 81.8263 282.237 81.4063 282.347C77.3363 283.407 73.1363 283.077 69.1163 282.357C66.2463 281.837 67.7763 278.697 67.1463 276.797C66.8563 276.837 66.5663 276.837 66.2763 276.817C66.2763 278.917 66.2663 281.017 66.2663 283.117C71.7263 286.287 77.3763 287.377 83.3863 284.757C83.8563 263.777 81.6263 242.977 79.5763 222.147C79.3163 219.477 76.8563 214.877 83.1063 215.137C85.6463 216.207 87.6263 215.317 89.2963 213.367C104.636 212.047 119.706 208.557 135.086 207.507C136.546 207.407 137.956 206.757 139.396 206.367C140.096 205.687 140.826 204.897 140.126 203.947C139.206 202.697 137.906 203.077 136.676 203.497C131.016 206.287 124.666 205.697 118.696 206.697C111.746 207.857 104.716 209.077 97.6163 209.477C94.4963 209.647 92.6263 208.507 91.8163 205.397C90.6563 200.917 89.2163 196.517 88.6663 191.907C88.1863 189.537 88.3563 186.847 85.5363 185.657C83.5463 187.157 84.2263 189.197 84.4863 191.107C85.0763 195.357 85.9463 199.567 86.7563 203.777C87.0963 205.537 87.0663 207.117 84.7263 207.487C82.4463 207.847 81.4263 206.957 81.1363 204.637C80.3163 198.087 79.1263 191.587 77.6063 185.157C77.1863 183.387 76.9463 181.577 75.8463 180.047C72.0663 178.147 68.3563 180.557 64.5963 180.197Z" fill="#C9CA57"/>
<path d="M83.3863 284.746C77.5963 285.086 71.9463 283.946 66.2663 283.106C62.3763 287.936 62.9963 294.186 61.0863 299.636C62.2163 303.296 65.9763 302.496 67.0763 301.346C69.4763 298.846 64.5963 298.306 64.6463 296.006C64.8263 295.886 65.1262 295.566 65.2462 295.626C68.0662 297.066 69.4563 302.086 73.1863 300.456C78.0463 298.326 81.7262 294.276 83.1762 288.876C83.4962 287.626 84.9163 286.176 83.3863 284.746Z" fill="#20789F"/>
<path d="M4.14597 95.9364C4.52597 95.2364 4.67596 94.4865 5.50596 93.9865C18.456 86.1965 18.676 71.5265 5.75596 63.3465C3.11596 61.6765 1.97595 60.0164 2.37595 57.1064C-0.294047 65.9364 -0.794013 74.8465 1.28599 83.8665C3.62599 81.1265 1.90594 77.7364 2.73594 74.7664C6.94594 78.9664 6.87598 81.8765 2.34598 88.9265C2.81598 91.2965 2.87597 93.7764 4.14597 95.9364Z" fill="#B60002"/>
<path d="M38.0563 163.807C41.7863 166.147 45.6063 167.877 50.1263 165.967C50.8163 165.677 51.2763 166.347 51.4263 167.057C51.9763 169.807 54.1363 171.237 56.1263 172.807C58.7763 173.797 61.5664 173.657 64.3264 173.817C67.9664 173.437 70.0064 171.477 70.2764 167.777C66.6564 164.667 61.8264 163.407 58.4064 159.947C57.8064 159.337 56.3963 158.857 55.6763 159.127C49.4363 161.507 43.0963 159.957 36.7963 159.867C37.2063 161.187 37.6263 162.497 38.0563 163.807Z" fill="#4EC9C9"/>
<path d="M161.366 158.857C165.656 153.177 169.186 152.017 173.066 155.017C178.476 151.977 183.896 148.947 190.096 145.467C184.876 144.647 180.426 145.437 176.276 143.897C174.876 143.657 173.476 143.417 172.086 143.177C167.266 144.037 161.886 145.417 158.606 148.127C155.526 150.677 153.936 156.117 152.516 160.647C152.616 161.187 152.876 161.627 153.296 161.987C155.976 160.937 158.676 159.897 161.366 158.857Z" fill="#B10C0A"/>
<path d="M175.246 99.8864C172.816 99.5564 170.566 98.7364 168.416 97.5864C162.906 98.5964 163.766 103.156 164.506 106.356C165.946 112.616 164.816 118.896 165.776 125.256C166.586 124.816 167.426 124.356 168.256 123.906C172.976 118.616 174.966 112.326 175.136 105.346C175.176 103.526 175.206 101.706 175.246 99.8864Z" fill="#F2B18C"/>
<path d="M152.786 160.746C155.216 157.506 158.545 154.716 157.995 150.016C157.895 149.176 158.305 148.076 159.255 148.276C164.735 149.456 167.735 144.606 172.105 143.166C171.515 142.756 170.935 142.356 170.355 141.946C167.145 140.616 165.865 144.106 162.795 144.856C164.695 141.356 166.295 138.126 167.225 134.206C170.125 136.466 167.946 140.146 170.336 142.016C172.546 135.646 171.625 132.536 166.135 127.886C163.755 133.576 163.355 139.996 158.855 144.956C155.215 148.966 151.686 152.916 147.036 155.806C145.396 156.826 144.165 158.526 142.745 159.906C145.795 163.646 147.076 163.756 152.786 160.746Z" fill="#59C8C6"/>
<path d="M148.366 427.906C148.936 430.756 146.496 431.866 145.096 433.576C144.156 434.716 143.176 435.837 142.356 437.057C141.566 438.247 140.106 439.507 140.866 440.987C141.636 442.487 143.516 441.886 144.916 441.956C151.076 442.276 157.186 442.396 161.816 437.156C162.246 436.676 163.346 436.787 164.126 436.617C159.506 435.547 155.796 432.076 150.926 431.656C148.556 431.446 149.906 428.676 148.366 427.906Z" fill="#F8F1B6"/>
<path d="M44.3264 436.536C50.1264 440.686 56.4363 442.986 63.6863 441.986C65.2663 441.766 67.0463 442.276 68.2363 440.696C67.5763 435.246 64.8264 431.486 59.4564 429.836C55.8164 431.866 51.3664 432.456 48.9464 436.666C48.1564 438.036 46.0064 434.326 44.3264 436.536Z" fill="#F7EEBF"/>
<path d="M171.346 275.097C169.296 276.927 166.526 276.387 164.196 277.267C163.196 283.437 169.236 292.007 175.076 292.767C177.526 293.087 178.396 291.937 178.326 289.687C176.896 285.667 175.436 281.647 174.046 277.617C173.576 276.257 172.886 275.257 171.346 275.097Z" fill="#24779D"/>
<path d="M70.2557 416.807C74.6757 418.887 79.3557 417.457 83.9057 417.777C87.7057 418.047 91.5356 417.877 95.3556 417.907C98.5556 416.147 97.7557 413.837 96.2557 411.417C87.7557 409.657 79.1257 410.807 70.5557 410.477C68.2157 410.387 65.6556 408.747 63.3556 410.737C64.1656 412.127 63.8957 413.527 63.4057 414.937C73.0757 416.337 82.8156 416.267 92.5456 416.147C92.9956 416.137 93.1857 416.027 93.1757 416.117C85.5157 417.477 77.8557 414.267 70.2557 416.807Z" fill="#F2D3B1"/>
<path d="M107.176 33.8967C108.046 33.3167 108.056 31.9967 107.266 32.1867C103.456 33.0867 102.026 30.0767 100.036 28.1267C93.1757 21.3967 86.5357 14.4467 79.5757 7.82666C76.7657 5.15666 75.5557 3.35666 80.2357 1.82666C77.1257 1.83666 74.1957 2.64667 71.3557 3.80667C72.1457 4.01667 73.1957 3.97666 73.6957 4.48666C83.2957 14.1467 92.8457 23.8567 102.356 33.6067C102.886 34.1467 103.006 35.0867 103.316 35.8367C104.826 35.6267 104.956 32.6967 107.176 33.8967Z" fill="#C6211F"/>
<path d="M59.4561 429.837C63.1061 432.877 66.0861 436.457 68.2361 440.697C75.6061 444.947 81.6061 439.537 88.0861 437.777C90.2561 437.187 92.1961 435.787 94.2461 434.757C93.0661 432.337 91.7361 434.287 90.6361 434.757C85.9361 436.767 81.2861 438.797 76.3061 440.147C73.4561 440.917 72.2661 440.197 70.8961 437.787C68.4261 433.427 66.1961 428.597 60.3861 427.577C60.0761 428.327 59.7661 429.087 59.4561 429.837Z" fill="#D94967"/>
<path d="M56.1162 172.817C54.5462 170.897 52.9862 168.977 51.4162 167.067C51.2662 168.397 51.0462 169.647 49.9962 170.677C42.7462 177.737 35.5362 184.837 28.3062 191.927C25.3762 192.907 23.8962 195.107 23.1962 197.977C24.1462 200.367 25.5763 202.297 28.1562 203.107C24.8663 199.787 25.8362 197.377 29.1162 194.367C36.0662 187.997 42.6762 181.227 49.1462 174.367C51.3862 171.997 53.3162 171.167 56.1162 172.817Z" fill="#C71F1E"/>
<path d="M147.276 416.717C149.016 415.407 146.846 414.137 147.236 412.847C143.656 409.987 139.166 412.387 135.366 410.787C130.526 410.407 125.666 410.687 120.816 410.337C118.846 410.197 116.906 410.197 115.316 408.807L114.936 408.867C112.056 411.087 114.046 412.837 115.486 414.647C117.526 416.107 119.886 415.767 122.166 415.767C130.556 415.787 138.916 416.077 147.276 416.717Z" fill="#FBE7BE"/>
<path d="M63.3558 410.747C74.3258 412.347 85.3858 411.457 96.3858 412.067C98.3058 411.097 98.0858 410.207 96.2858 409.377C88.7558 409.267 81.2358 409.157 73.7058 409.027C70.3058 408.967 66.8958 408.877 63.4958 408.797C63.4558 409.447 63.4058 410.097 63.3558 410.747Z" fill="#D65F6F"/>
<path d="M115.316 408.807C115.146 412.097 117.786 411.387 119.486 411.477C124.736 411.757 130.006 411.767 135.266 411.887C139.486 412.407 143.706 412.717 147.906 411.747C147.926 411.097 147.946 410.447 147.966 409.797C137.076 409.467 126.196 409.137 115.316 408.807Z" fill="#D6586E"/>
<path d="M147.276 416.717C146.136 414.337 143.936 415.067 142.046 414.987C133.156 414.627 124.226 415.537 115.386 413.967C114.456 414.857 114.466 415.747 115.376 416.637C125.876 416.927 136.386 417.207 146.886 417.497C146.986 417.227 147.116 416.967 147.276 416.717Z" fill="#D17374"/>
<path d="M2.35571 88.9265C9.10571 85.0865 8.85577 76.7465 1.28577 71.3765C1.28577 75.7965 1.28577 79.8265 1.28577 83.8665C1.64577 85.5465 1.99571 87.2365 2.35571 88.9265Z" fill="#AC0B0E"/>
<path d="M252.276 40.7464C252.216 41.5364 252.116 42.1964 252.116 42.8564C252.116 43.9864 251.826 45.3964 253.406 45.6664C254.986 45.9364 255.286 44.5764 255.466 43.4364C256.096 39.5264 256.686 35.6164 257.196 31.6864C257.326 30.7364 257.316 29.5764 256.076 29.2264C254.526 28.7764 253.866 29.9764 253.666 31.0764C253.086 34.3164 252.036 37.5064 252.276 40.7464Z" fill="#C0C0C0"/>
<path d="M263.336 48.3765C263.666 49.9365 264.916 50.3365 265.886 49.5065C269.506 46.4265 272.986 43.1565 276.446 39.8865C277.096 39.2665 276.936 38.3665 276.216 37.7065C275.686 37.2265 274.966 36.9465 274.436 37.4165C270.726 40.6465 266.656 43.4865 263.606 47.4265C263.416 47.6665 263.416 48.0465 263.336 48.3765Z" fill="#B5B5B5"/>
<path d="M243.756 47.7666C245.556 47.5466 245.726 46.1566 244.676 45.0566C241.516 41.7166 238.196 38.5166 234.786 35.4266C233.796 34.5266 232.526 34.8466 232.286 36.4566C232.086 37.8066 242.056 47.7366 243.756 47.7666Z" fill="#B3B3B3"/>
<path d="M23.2064 197.967C24.9064 195.947 26.6164 193.927 28.3164 191.917C26.8464 191.037 30.2964 186.407 25.1564 187.957C24.0664 188.287 25.7764 186.027 25.3364 184.927C20.5764 185.477 19.5964 188.937 19.2464 192.877C21.9664 196.997 22.6764 191.827 24.6464 192.117C25.1464 194.037 20.7564 195.287 23.2064 197.967Z" fill="#9C1C20"/>
<path d="M70.2558 416.807C78.3058 416.807 86.3558 416.807 94.3958 416.807C94.4058 416.447 94.4158 416.087 94.4258 415.727C84.0858 415.467 73.7358 415.207 63.3958 414.947C63.3758 415.167 63.3958 415.387 63.4358 415.607C65.5158 417.107 67.9858 416.367 70.2558 416.807Z" fill="#D55462"/>
<path d="M185.206 180.906C184.946 182.126 185.566 183.136 185.876 184.246C186.366 185.996 188.926 187.676 186.876 189.536C184.766 191.456 182.106 192.577 179.196 190.737C176.616 192.557 173.246 193.146 171.286 195.896C175.376 193.896 179.966 193.696 184.196 192.286C189.936 190.366 190.126 189.536 187.386 184.086C186.806 182.956 186.536 181.556 185.206 180.906Z" fill="#EFCD73"/>
<path d="M19.2563 192.867C19.8863 189.147 22.8264 187.197 25.3464 184.917C26.3164 183.627 27.2864 182.327 29.0264 180.007C23.6664 182.287 21.3563 187.247 16.4263 187.707C18.6163 188.737 18.1063 191.257 19.2563 192.867Z" fill="#E4B3A7"/>
<path d="M145.396 14.6765C150.126 20.0465 154.846 25.4265 159.576 30.7965C156.156 24.2765 151.666 18.6865 145.396 14.6765Z" fill="#A2292A"/>
<path d="M175.356 70.5864C175.056 71.6264 175.546 72.4164 176.086 73.2564C176.756 74.3064 178.996 75.0064 177.286 76.7064C175.896 78.0864 174.396 77.5464 172.986 76.3764C172.556 76.0164 171.786 76.0664 171.176 75.9264C174.526 79.7364 176.576 79.7864 182.466 75.8964C179.586 74.5764 177.126 72.9864 175.356 70.5864Z" fill="#A92E31"/>
<path d="M171.206 75.9666C168.936 73.9866 169.146 76.3066 169.246 77.2866C169.636 80.9766 169.846 84.7666 172.406 87.8266C172.366 83.8466 169.606 80.1266 171.206 75.9666Z" fill="#A92E31"/>
<path d="M183.136 175.816C183.186 176.796 183.386 177.676 184.446 178.066C186.066 176.666 187.676 175.266 189.296 173.866C189.196 172.586 188.716 172.177 187.526 172.987C186.096 173.967 184.606 174.876 183.136 175.816Z" fill="#9C5442"/>
<path d="M147.906 411.747C143.696 411.797 139.476 411.837 135.266 411.887C139.136 413.737 143.266 412.317 147.236 412.847C147.456 412.477 147.676 412.117 147.906 411.747Z" fill="#FDC09F"/>
<path d="M140.286 10.7466C139.976 14.7066 142.306 15.2366 145.446 14.7166C144.256 12.7166 142.386 11.5766 140.286 10.7466Z" fill="#A2292A"/>
<path d="M171.326 59.6665C171.126 63.1665 171.485 66.4665 174.605 68.7665C173.515 65.7365 172.426 62.6965 171.326 59.6665Z" fill="#A92E31"/>
<path d="M115.376 416.647C114.986 415.757 114.936 414.857 115.386 413.977C115.476 412.257 113.336 410.727 114.936 408.867C116.886 407.637 118.356 406.506 118.226 403.566C117.556 388.166 119.236 372.807 119.376 357.417C112.906 356.957 106.436 356.956 99.956 357.316C98.876 368.166 97.586 379.007 96.816 389.877C96.356 396.357 93.536 402.816 96.286 409.386C97.616 410.236 97.656 411.136 96.376 412.076C95.836 413.986 97.096 416.217 95.346 417.917C93.126 428.517 96.276 439.156 95.116 449.756C95.046 450.336 94.986 450.917 94.916 451.497C94.766 451.997 94.906 452.416 95.286 452.756C99.356 452.766 103.426 452.626 107.476 452.826C110.136 452.956 112.196 452.417 113.296 449.797C114.846 446.127 114.606 442.427 113.446 438.717C114.466 431.377 115.756 424.087 115.376 416.647Z" fill="#FEFEFE"/>
<path d="M111.186 249.047C113.636 252.827 116.746 252.867 119.636 249.897C121.576 247.907 122.916 247.027 125.716 248.897C129.326 251.297 132.196 249.477 133.946 245.587C131.616 246.787 129.546 249.077 126.606 247.507C124.756 246.517 122.166 245.847 124.666 242.937C125.536 241.927 125.616 240.527 124.196 240.087C122.096 239.437 119.906 239.647 118.076 241.107C117.126 241.867 117.166 242.967 117.976 243.697C119.476 245.067 121.336 246.157 119.086 248.397C117.116 250.367 115.066 251.267 112.506 249.477C112.146 249.217 111.626 249.177 111.186 249.047Z" fill="#0E658B"/>
<path d="M89.2962 213.347C87.2362 213.937 85.1662 214.527 83.1062 215.117C83.1662 216.447 83.2462 217.777 83.2862 219.107C83.3562 221.757 84.3062 224.017 87.2862 223.597C90.2262 223.187 90.7562 220.837 89.8162 218.247C89.2162 216.637 89.0862 215.027 89.2962 213.347Z" fill="#C7ECF4"/>
<path d="M100.566 236.396C100.746 236.766 100.846 237.366 101.176 237.546C102.036 238.016 102.716 237.596 103.206 236.796C105.576 232.956 108.406 232.546 111.686 235.706C112.206 236.206 112.776 236.436 113.406 235.926C113.996 235.446 114.146 234.746 113.746 234.166C111.866 231.436 109.166 230.426 105.966 230.956C102.996 231.446 101.726 233.806 100.566 236.396Z" fill="#10648B"/>
<path d="M137.286 203.887C139.586 203.347 139.776 204.607 139.386 206.357C139.936 207.187 140.486 208.017 141.046 208.847C142.506 207.577 145.626 208.607 145.726 205.457C145.596 205.007 145.336 204.677 144.936 204.447C142.086 202.997 139.896 200.987 139.116 197.727C138.716 195.987 138.746 194.157 138.156 192.477C137.806 191.487 137.456 190.117 135.836 191.097C134.386 193.837 134.366 196.877 134.176 199.837C134.056 201.837 134.426 203.947 137.286 203.887Z" fill="#C5D79F"/>
<path d="M145.435 205.107C145.545 208.197 141.245 206.117 141.045 208.847C141.115 211.567 141.986 214.227 145.156 213.387C148.976 212.377 147.925 209.337 146.725 206.667C146.695 205.817 146.945 204.727 145.435 205.107Z" fill="#D9F2F5"/>
<path d="M132.916 226.626C130.496 226.386 128.706 227.456 127.256 229.226C126.366 230.306 124.506 231.586 126.136 232.916C128.336 234.706 128.096 231.776 128.846 230.916C130.636 228.876 132.506 228.166 134.896 229.876C136.006 230.666 137.416 232.836 138.476 231.166C139.706 229.226 137.116 228.236 135.756 227.276C135.036 226.766 133.886 226.836 132.916 226.626Z" fill="#0C6187"/>
<path d="M145.436 205.107C145.866 205.627 146.306 206.147 146.736 206.667C147.526 205.727 148.686 205.947 149.696 205.687C149.796 204.357 147.896 203.717 148.576 202.147C150.426 197.897 147.826 195.017 145.386 192.097C143.556 193.887 145.056 195.997 144.826 197.937C144.856 200.187 143.406 202.487 145.026 204.687C145.186 204.817 145.316 204.957 145.436 205.107Z" fill="#C5D79F"/>
<path d="M99.0061 133.047C96.4961 130.907 94.0861 131.276 91.5961 133.186C89.1561 135.056 89.4161 137.506 90.1561 139.896C92.0561 146.056 96.7961 149.447 102.366 151.937C104.986 152.977 107.146 152.097 109.126 150.377C114.196 145.987 119.916 144.276 126.496 146.306C128.436 146.906 130.366 146.987 132.276 146.187C136.916 140.857 139.736 134.947 138.336 127.637C137.926 125.487 136.816 124.057 134.716 123.377C132.316 122.607 131.686 124.667 130.536 125.917C130.036 125.937 129.456 125.926 129.096 126.246C120.596 133.756 110.546 134.456 99.9861 132.936C99.6661 132.886 99.3361 132.987 99.0061 133.047Z" fill="#6E1609"/>
<path d="M61.4261 116.986C64.1861 121.686 66.5161 126.436 73.5461 126.056C81.9061 125.606 89.4561 123.786 94.5561 116.766C97.4961 112.716 95.1161 104.126 90.7261 101.126C88.0161 99.2764 85.1262 97.6864 82.3262 95.9764C75.9362 93.7264 70.1662 94.2264 65.1962 99.4264C60.2762 104.566 58.7561 110.286 61.4261 116.986Z" fill="#F8F6F4"/>
<path d="M126.116 90.8364C122.186 96.0264 123.556 101.476 125.446 106.876C126.126 108.806 127.606 110.536 129.576 110.966C136.286 112.456 143.006 113.136 149.326 109.266C153.666 106.606 153.366 101.976 154.326 97.8664C155.606 91.3164 151.576 87.3064 147.146 83.8464C142.276 80.0364 136.866 79.8564 131.496 83.1564C128.956 85.1864 126.316 87.1564 126.116 90.8364Z" fill="#F7F5F0"/>
<path d="M94.4062 64.9167C104.046 61.7867 110.896 55.2266 116.366 46.9866C114.486 42.6066 110.046 40.5267 107.296 36.9267L107.166 36.8167C102.416 44.0367 100.286 52.7066 94.5062 59.3866C93.4662 60.5866 92.5862 61.9766 91.3562 63.0466C90.5862 66.5966 92.7862 65.2667 94.4062 64.9167Z" fill="#B50607"/>
<path d="M127.306 171.816C124.266 169.386 121.196 170.236 117.686 171.026C109.346 172.906 100.826 173.696 92.2757 172.306C91.0757 172.116 90.0357 171.726 89.1857 172.906C89.2557 173.156 89.3257 173.396 89.3957 173.646C99.8657 181.366 110.986 183.986 123.466 177.716C124.506 180.006 123.306 182.746 124.926 184.786C127.776 185.006 127.076 182.686 127.476 181.186C127.636 180.566 127.486 179.886 127.576 179.246C127.776 177.736 127.046 175.336 129.116 175.176C131.186 175.026 130.726 177.556 131.256 178.966C131.366 179.266 131.446 179.586 131.556 179.906C132.236 180.996 132.696 182.426 134.476 181.826C135.566 177.896 134.916 174.266 132.666 170.886C130.646 169.886 128.926 170.566 127.306 171.816Z" fill="#E1A384"/>
<path d="M70.2656 167.787C68.9456 170.457 66.7356 172.247 64.3156 173.827C64.4056 175.947 64.4956 178.067 64.5856 180.197C66.0456 182.397 67.8656 181.507 69.8056 180.997C71.5356 180.537 73.3856 180.527 75.1756 180.317C78.0456 181.457 80.7956 180.077 83.6156 179.967C90.7256 178.067 90.9156 177.827 89.1856 172.927V172.917C83.1856 170.097 76.6556 169.207 70.2656 167.787Z" fill="#F8F8F4"/>
<path d="M40.2962 124.876C37.6562 130.556 32.9562 133.796 27.2662 135.856C29.6662 135.546 30.3562 137.146 30.8162 139.016C31.6162 142.306 33.8262 144.466 36.6662 145.966C39.8162 147.626 43.5362 149.046 46.3662 146.356C48.7962 144.046 45.7062 141.246 45.2462 138.636C44.4062 133.756 40.4162 130.016 40.2962 124.876Z" fill="#DC956D"/>
<path d="M99.0059 133.047C108.736 137.667 123.866 134.247 130.546 125.917C129.896 123.437 128.056 123.677 126.216 124.077C118.366 125.787 110.506 127.447 102.696 129.317C100.936 129.737 97.8959 129.527 99.0059 133.047Z" fill="#FAF7F1"/>
<path d="M69.8057 132.887C66.5157 133.247 62.6458 134.367 59.8258 137.917C57.7058 140.587 58.7658 142.557 61.1458 144.097C64.6458 146.357 72.6457 145.607 75.9357 142.617C77.4157 141.267 80.1158 139.997 78.8258 137.447C77.6658 135.157 75.8758 132.947 72.7658 132.887C72.1058 132.877 71.4357 132.887 69.8057 132.887Z" fill="#FA9896"/>
<path d="M132.286 146.176C129.096 145.476 125.926 144.406 122.696 144.166C117.056 143.756 111.986 145.596 107.896 149.586C106.286 151.156 104.776 152.476 102.366 151.926C113.696 156.516 124.316 154.476 132.286 146.176Z" fill="#DA6A5B"/>
<path d="M54.1562 75.7466C50.6762 77.7266 47.4662 80.0266 45.1662 83.3966C44.2762 84.6966 43.5662 86.0666 45.0562 87.3566C46.6462 88.7266 47.8362 87.6366 48.7962 86.4266C54.1362 79.6966 61.3462 77.0266 69.6562 76.7666C71.4762 76.7066 73.8162 77.0366 73.8462 74.5266C73.8862 71.6566 71.3362 72.0566 69.3862 72.0066C68.3962 71.9866 67.4062 72.0366 66.4062 72.0466C62.1362 72.6566 57.5162 72.1166 54.1562 75.7466Z" fill="#68120B"/>
<path d="M151.586 124.877C156.126 125.827 161.296 121.277 161.006 118.677C160.606 114.967 157.566 114.107 154.476 113.927C149.876 113.667 145.216 117.077 145.256 120.427C145.286 123.587 147.096 124.857 151.586 124.877Z" fill="#FB9896"/>
<path d="M127.306 171.816C128.946 171.846 130.586 171.867 132.056 170.947C134.816 171.747 137.026 170.637 139.046 168.917C143.786 166.607 148.536 164.287 153.286 161.977C153.116 161.567 152.956 161.156 152.786 160.746C149.446 160.436 145.836 163.347 142.746 159.917C138.286 162.287 133.786 164.596 129.386 167.066C127.626 168.046 127.666 170.086 127.306 171.816Z" fill="#F4F6E4"/>
<path d="M142.286 57.4765C137.326 57.3365 132.766 58.7865 128.396 60.9565C127.016 61.6365 125.586 62.5665 126.676 64.3965C127.506 65.7765 128.856 65.6165 130.186 64.9265C137.216 61.2465 144.366 60.4565 151.706 64.0265C152.926 64.6165 154.056 64.4465 154.716 63.2365C155.536 61.7265 154.676 60.6865 153.356 60.0165C149.876 58.2465 146.196 57.3265 142.286 57.4765Z" fill="#661A0F"/>
<path d="M61.4258 116.987C59.0558 103.877 67.4158 93.5065 82.3258 95.9765C82.4758 95.8965 82.6158 95.8165 82.7658 95.7465C82.9158 95.6765 83.0658 95.6065 83.2158 95.5465C83.0758 95.3165 83.0058 94.9665 82.7958 94.8565C77.4658 91.9465 67.6458 93.8565 62.9758 98.6765C58.7658 103.026 57.3558 112.157 60.1058 117.287C60.9358 118.837 61.1258 117.667 61.4258 116.987Z" fill="#783D2A"/>
<path d="M131.366 84.0865C141.826 79.0165 153.666 86.1164 154.336 97.8664C156.866 91.6764 153.116 87.4364 149.496 83.4064C145.436 78.8964 140.196 78.6665 134.786 80.5565C133.246 81.0965 131.876 82.1464 130.436 82.9564C130.076 83.8964 130.386 84.2665 131.366 84.0865Z" fill="#7D4436"/>
<path d="M108.066 121.407C112.796 113.767 114.396 113.477 120.536 118.367C120.416 115.307 117.676 112.947 114.316 112.997C110.516 113.047 108.156 115.907 108.066 121.407Z" fill="#BD8061"/>
<path d="M107.296 36.9265C108.636 41.7965 113.546 43.4565 116.366 46.9865C117.406 46.2465 118.146 45.3065 118.396 44.0265C116.206 45.0465 115.296 43.2065 113.976 42.1365C111.776 40.3765 110.566 37.3265 107.296 36.9265Z" fill="#C6211F"/>
<path d="M54.1561 75.7465C58.2461 74.5065 62.326 73.2765 66.416 72.0365C65.106 71.4865 63.3361 72.5465 62.3461 70.8765C58.7561 71.7165 55.376 73.0965 52.116 74.8065C52.786 75.1265 53.4661 75.4365 54.1561 75.7465Z" fill="#C77B70"/>
<path d="M131.366 84.0866C131.056 83.7166 130.746 83.3366 130.436 82.9666C127.576 84.1566 126.546 86.8866 125.146 89.2966C124.576 90.2866 125.006 90.8266 126.126 90.8366C127.346 88.1766 129.546 86.2766 131.366 84.0866Z" fill="#B79580"/>
<path d="M94.4062 64.9166C93.1562 64.6866 91.4462 65.1866 91.3562 63.0466C89.5862 63.4466 88.9262 65.1066 87.7162 66.3466C90.1562 66.6866 92.3263 66.0566 94.4062 64.9166Z" fill="#A2281E"/>
<path d="M139.056 168.917C136.486 168.777 134.356 170.147 132.066 170.947C132.796 174.507 133.526 178.057 134.246 181.617C133.306 185.177 133.706 188.407 136.536 191.047C137.106 193.697 137.666 196.337 138.236 198.987C141.296 200.857 143.926 200.007 146.306 197.687C145.996 195.827 145.686 193.957 145.386 192.107C143.276 184.377 141.166 176.647 139.056 168.917Z" fill="#47A2C3"/>
<path d="M115.365 433.917C112.925 434.997 114.535 437.077 114.185 438.677C113.195 442.917 114.165 447.246 113.645 451.506C112.755 454.166 114.085 455.067 116.515 455.437C134.795 458.187 153.075 460.976 171.645 460.696C175.815 460.636 179.985 460.497 183.925 458.867C185.785 458.097 187.785 457.367 187.235 454.667C184.535 455.557 181.765 455.677 178.935 455.797C158.665 456.677 138.636 454.206 118.596 451.756C116.066 451.446 115.145 450.226 115.185 447.846C115.275 443.216 115.305 438.567 115.365 433.917Z" fill="#B42753"/>
<path d="M95.2959 452.747C95.1759 452.327 95.0459 451.907 94.9259 451.487C88.9659 450.987 83.2059 452.627 77.3659 453.307C60.2259 455.297 43.0659 456.237 25.8059 455.767C22.8259 455.687 22.6059 453.407 21.4159 451.797C20.7359 457.647 21.3659 458.687 27.3359 459.717C41.2859 462.107 55.1659 460.047 69.0259 458.597C76.4559 457.817 83.8259 456.557 91.2159 455.457C92.9459 455.197 95.0459 455.307 95.2959 452.747Z" fill="#B52854"/>
<path d="M113.646 451.506C115.146 447.286 114.196 442.957 114.186 438.677C113.946 438.737 113.696 438.746 113.456 438.696C113.406 442.386 113.356 446.086 113.306 449.776C113.426 450.356 113.536 450.936 113.646 451.506Z" fill="#F63E76"/>
<path d="M136.536 191.047C135.776 187.907 135.006 184.767 134.246 181.617C133.606 180.987 132.956 180.357 132.316 179.727C130.176 183.887 129.546 188.727 125.376 191.947C116.806 198.557 103.096 199.647 92.9961 194.047C91.2961 193.107 89.8361 191.537 87.6061 191.927C87.5161 198.157 90.2861 203.747 91.5861 209.667C91.8561 210.907 93.0561 210.917 94.0261 210.867C97.5061 210.707 101.006 210.647 104.456 210.197C112.476 209.147 120.486 207.977 128.466 206.667C131.506 206.167 135.176 207.377 137.286 203.877C135.116 202.737 134.746 200.567 135.466 198.777C136.516 196.217 136.166 193.617 136.536 191.047Z" fill="#FBC105"/>
<path d="M87.5961 191.927C97.3561 200.937 115.966 201.447 126.106 192.997C130.356 189.457 132.796 185.357 132.306 179.737C132.256 178.417 132.246 177.097 132.136 175.787C131.976 173.817 130.906 172.917 128.876 172.907C126.526 172.897 126.406 174.297 126.236 176.127C125.966 178.967 127.416 182.047 125.206 184.647C123.836 184.877 122.746 185.687 121.786 186.567C115.666 192.287 108.206 192.107 100.736 191.147C95.536 190.487 92.1661 187.387 90.7161 182.117C89.4561 177.557 88.0361 177.257 83.6461 180.067C82.8261 182.437 82.746 184.597 85.306 186.017C86.936 187.657 86.9861 189.897 87.5961 191.927Z" fill="#F88C0A"/>
<path d="M85.3161 186.017C84.4361 184.007 84.0461 181.906 84.3261 179.716C84.0561 179.356 83.7261 179.066 83.3461 178.836C80.4961 178.616 77.8161 179.366 75.1761 180.316C76.8761 189.236 79.6961 197.966 79.7061 207.156C79.7061 209.016 80.3661 209.206 82.0961 209.186C89.4361 209.076 89.3361 209.116 87.7561 201.656C86.6661 196.496 86.1161 191.237 85.3161 186.017Z" fill="#4DA6BA"/>
<path d="M170.326 142.017C170.256 139.707 170.326 137.387 170.076 135.107C169.926 133.757 168.946 132.467 167.576 132.367C165.896 132.247 165.466 133.967 165.406 135.157C165.256 138.457 163.446 140.977 161.916 143.647C161.466 144.437 160.226 145.037 161.236 146.107C162.176 147.117 163.366 146.977 164.346 146.127C166.206 144.517 167.836 142.597 170.366 141.947C170.356 141.947 170.326 142.017 170.326 142.017Z" fill="#4DCBC8"/>
<path d="M146.316 197.687C143.626 198.117 140.936 198.557 138.246 198.987C139.726 201.827 140.546 205.447 145.046 204.687C145.456 202.357 145.886 200.017 146.316 197.687Z" fill="#D9C53C"/>
<path d="M68.2864 115.867C70.8264 119.447 74.0564 121.857 78.6864 121.267C83.2164 120.697 86.3163 118.127 87.6063 113.727C88.8463 109.467 87.4664 105.807 84.1264 103.067C80.5764 100.157 76.5864 99.9266 72.5264 102.087C71.5164 102.627 70.6163 103.387 69.6663 104.047C68.8463 104.307 68.6364 105.027 69.0364 105.567C70.5364 107.567 75.4764 110.387 67.8164 109.787C66.8264 109.707 66.7064 110.877 66.8364 111.707C67.0664 113.177 67.7064 114.517 68.2864 115.867Z" fill="#762915"/>
<path d="M68.286 115.867C67.966 114.097 67.656 112.327 67.336 110.577C68.916 109.867 69.396 111.537 70.556 111.547C72.076 111.567 73.156 111.007 73.706 109.637C74.326 108.097 73.286 107.247 72.266 106.297C71.426 105.507 68.676 106.897 69.656 104.057C65.506 108.287 65.176 111.197 68.286 115.867Z" fill="#F1E3DD"/>
<path d="M128.216 99.8865C128.496 100.296 128.866 100.666 129.036 101.116C131.046 106.526 134.296 109.016 138.686 108.466C143.006 107.926 146.056 104.326 146.336 99.4665C146.626 94.3565 143.446 89.5365 139.016 88.3365C134.926 87.2265 131.976 89.0265 129.506 92.0465C127.536 95.0765 132.336 93.9465 131.726 96.6665C131.096 97.6765 125.986 95.2665 128.216 99.8865Z" fill="#732A15"/>
<path d="M128.216 99.8866C128.796 99.2566 128.066 97.2366 129.136 97.7866C131.536 99.0366 133.436 99.2266 133.916 96.3266C134.366 93.6266 132.266 92.8066 129.816 92.9066C129.726 92.9066 129.606 92.3266 129.496 92.0266C127.496 94.3966 126.306 96.8866 128.216 99.8866Z" fill="#D3C1BB"/>
<path d="M83.3458 178.836C83.6758 179.126 83.9958 179.426 84.3258 179.716C87.2758 178.346 89.1458 178.326 89.6058 182.466C90.1758 187.566 93.5858 190.406 98.4658 191.936C108.936 195.216 118.856 192.627 125.216 184.637C125.216 181.677 125.216 178.727 125.216 174.977C112.276 183.907 100.676 179.196 89.1958 172.906C90.7358 178.336 85.9258 177.476 83.3458 178.836Z" fill="#FCC1A3"/>
</svg>
